<?xml version="1.0" encoding="utf-8" standalone="no"?>
<!DOCTYPE svg PUBLIC "-//W3C//DTD SVG 1.1//EN"
  "http://www.w3.org/Graphics/SVG/1.1/DTD/svg11.dtd">
<svg xmlns:xlink="http://www.w3.org/1999/xlink" width="648pt" height="216pt" viewBox="0 0 648 216" xmlns="http://www.w3.org/2000/svg" version="1.1">
 <metadata>
  <rdf:RDF xmlns:dc="http://purl.org/dc/elements/1.1/" xmlns:cc="http://creativecommons.org/ns#" xmlns:rdf="http://www.w3.org/1999/02/22-rdf-syntax-ns#">
   <cc:Work>
    <dc:type rdf:resource="http://purl.org/dc/dcmitype/StillImage"/>
    <dc:date>2024-05-14T12:10:06.194975</dc:date>
    <dc:format>image/svg+xml</dc:format>
    <dc:creator>
     <cc:Agent>
      <dc:title>Matplotlib v3.8.2, https://matplotlib.org/</dc:title>
     </cc:Agent>
    </dc:creator>
   </cc:Work>
  </rdf:RDF>
 </metadata>
 <defs>
  <style type="text/css">*{stroke-linejoin: round; stroke-linecap: butt}</style>
 </defs>
 <g id="figure_1">
  <g id="patch_1">
   <path d="M 0 216 
L 648 216 
L 648 0 
L 0 0 
z
" style="fill: #ffffff"/>
  </g>
  <g id="axes_1">
   <g id="patch_2">
    <path d="M 60.3192 173.54 
L 627.21 173.54 
L 627.21 18.0432 
L 60.3192 18.0432 
z
" style="fill: #ffffff"/>
   </g>
   <g id="matplotlib.axis_1">
    <g id="xtick_1">
     <g id="line2d_1">
      <path d="M 60.3192 173.54 
L 60.3192 18.0432 
" clip-path="url(#p884e41b47c)" style="fill: none; stroke: #b0b0b0; stroke-width: 0.8; stroke-linecap: square"/>
     </g>
     <g id="line2d_2">
      <defs>
       <path id="md570f23a9d" d="M 0 0 
L 0 4 
" style="stroke: #000000; stroke-width: 1.5"/>
      </defs>
      <g>
       <use xlink:href="#md570f23a9d" x="60.3192" y="173.54" style="stroke: #000000; stroke-width: 1.5"/>
      </g>
     </g>
     <g id="text_1">
      <!-- 1900 -->
      <g transform="translate(50.3192 187.98375) scale(0.1 -0.1)">
       <defs>
        <path id="TimesNewRomanPSMT-31" d="M 750 3822 
L 1781 4325 
L 1884 4325 
L 1884 747 
Q 1884 391 1914 303 
Q 1944 216 2037 169 
Q 2131 122 2419 116 
L 2419 0 
L 825 0 
L 825 116 
Q 1125 122 1212 167 
Q 1300 213 1334 289 
Q 1369 366 1369 747 
L 1369 3034 
Q 1369 3497 1338 3628 
Q 1316 3728 1258 3775 
Q 1200 3822 1119 3822 
Q 1003 3822 797 3725 
L 750 3822 
z
" transform="scale(0.015625)"/>
        <path id="TimesNewRomanPSMT-39" d="M 338 -88 
L 338 28 
Q 744 34 1094 217 
Q 1444 400 1770 856 
Q 2097 1313 2225 1859 
Q 1734 1544 1338 1544 
Q 891 1544 572 1889 
Q 253 2234 253 2806 
Q 253 3363 572 3797 
Q 956 4325 1575 4325 
Q 2097 4325 2469 3894 
Q 2925 3359 2925 2575 
Q 2925 1869 2578 1258 
Q 2231 647 1613 244 
Q 1109 -88 516 -88 
L 338 -88 
z
M 2275 2091 
Q 2331 2497 2331 2741 
Q 2331 3044 2228 3395 
Q 2125 3747 1936 3934 
Q 1747 4122 1506 4122 
Q 1228 4122 1018 3872 
Q 809 3622 809 3128 
Q 809 2469 1088 2097 
Q 1291 1828 1588 1828 
Q 1731 1828 1928 1897 
Q 2125 1966 2275 2091 
z
" transform="scale(0.015625)"/>
        <path id="TimesNewRomanPSMT-30" d="M 231 2094 
Q 231 2819 450 3342 
Q 669 3866 1031 4122 
Q 1313 4325 1613 4325 
Q 2100 4325 2488 3828 
Q 2972 3213 2972 2159 
Q 2972 1422 2759 906 
Q 2547 391 2217 158 
Q 1888 -75 1581 -75 
Q 975 -75 572 641 
Q 231 1244 231 2094 
z
M 844 2016 
Q 844 1141 1059 588 
Q 1238 122 1591 122 
Q 1759 122 1940 273 
Q 2122 425 2216 781 
Q 2359 1319 2359 2297 
Q 2359 3022 2209 3506 
Q 2097 3866 1919 4016 
Q 1791 4119 1609 4119 
Q 1397 4119 1231 3928 
Q 1006 3669 925 3112 
Q 844 2556 844 2016 
z
" transform="scale(0.015625)"/>
       </defs>
       <use xlink:href="#TimesNewRomanPSMT-31"/>
       <use xlink:href="#TimesNewRomanPSMT-39" x="50"/>
       <use xlink:href="#TimesNewRomanPSMT-30" x="100"/>
       <use xlink:href="#TimesNewRomanPSMT-30" x="150"/>
      </g>
     </g>
    </g>
    <g id="xtick_2">
     <g id="line2d_3">
      <path d="M 154.801 173.54 
L 154.801 18.0432 
" clip-path="url(#p884e41b47c)" style="fill: none; stroke: #b0b0b0; stroke-width: 0.8; stroke-linecap: square"/>
     </g>
     <g id="line2d_4">
      <g>
       <use xlink:href="#md570f23a9d" x="154.801" y="173.54" style="stroke: #000000; stroke-width: 1.5"/>
      </g>
     </g>
     <g id="text_2">
      <!-- 1950 -->
      <g transform="translate(144.801 187.98375) scale(0.1 -0.1)">
       <defs>
        <path id="TimesNewRomanPSMT-35" d="M 2778 4238 
L 2534 3706 
L 1259 3706 
L 981 3138 
Q 1809 3016 2294 2522 
Q 2709 2097 2709 1522 
Q 2709 1188 2573 903 
Q 2438 619 2231 419 
Q 2025 219 1772 97 
Q 1413 -75 1034 -75 
Q 653 -75 479 54 
Q 306 184 306 341 
Q 306 428 378 495 
Q 450 563 559 563 
Q 641 563 702 538 
Q 763 513 909 409 
Q 1144 247 1384 247 
Q 1750 247 2026 523 
Q 2303 800 2303 1197 
Q 2303 1581 2056 1914 
Q 1809 2247 1375 2428 
Q 1034 2569 447 2591 
L 1259 4238 
L 2778 4238 
z
" transform="scale(0.015625)"/>
       </defs>
       <use xlink:href="#TimesNewRomanPSMT-31"/>
       <use xlink:href="#TimesNewRomanPSMT-39" x="50"/>
       <use xlink:href="#TimesNewRomanPSMT-35" x="100"/>
       <use xlink:href="#TimesNewRomanPSMT-30" x="150"/>
      </g>
     </g>
    </g>
    <g id="xtick_3">
     <g id="line2d_5">
      <path d="M 249.2828 173.54 
L 249.2828 18.0432 
" clip-path="url(#p884e41b47c)" style="fill: none; stroke: #b0b0b0; stroke-width: 0.8; stroke-linecap: square"/>
     </g>
     <g id="line2d_6">
      <g>
       <use xlink:href="#md570f23a9d" x="249.2828" y="173.54" style="stroke: #000000; stroke-width: 1.5"/>
      </g>
     </g>
     <g id="text_3">
      <!-- 2000 -->
      <g transform="translate(239.2828 187.98375) scale(0.1 -0.1)">
       <defs>
        <path id="TimesNewRomanPSMT-32" d="M 2934 816 
L 2638 0 
L 138 0 
L 138 116 
Q 1241 1122 1691 1759 
Q 2141 2397 2141 2925 
Q 2141 3328 1894 3587 
Q 1647 3847 1303 3847 
Q 991 3847 742 3664 
Q 494 3481 375 3128 
L 259 3128 
Q 338 3706 661 4015 
Q 984 4325 1469 4325 
Q 1984 4325 2329 3994 
Q 2675 3663 2675 3213 
Q 2675 2891 2525 2569 
Q 2294 2063 1775 1497 
Q 997 647 803 472 
L 1909 472 
Q 2247 472 2383 497 
Q 2519 522 2628 598 
Q 2738 675 2819 816 
L 2934 816 
z
" transform="scale(0.015625)"/>
       </defs>
       <use xlink:href="#TimesNewRomanPSMT-32"/>
       <use xlink:href="#TimesNewRomanPSMT-30" x="50"/>
       <use xlink:href="#TimesNewRomanPSMT-30" x="100"/>
       <use xlink:href="#TimesNewRomanPSMT-30" x="150"/>
      </g>
     </g>
    </g>
    <g id="xtick_4">
     <g id="line2d_7">
      <path d="M 343.7646 173.54 
L 343.7646 18.0432 
" clip-path="url(#p884e41b47c)" style="fill: none; stroke: #b0b0b0; stroke-width: 0.8; stroke-linecap: square"/>
     </g>
     <g id="line2d_8">
      <g>
       <use xlink:href="#md570f23a9d" x="343.7646" y="173.54" style="stroke: #000000; stroke-width: 1.5"/>
      </g>
     </g>
     <g id="text_4">
      <!-- 2050 -->
      <g transform="translate(333.7646 187.98375) scale(0.1 -0.1)">
       <use xlink:href="#TimesNewRomanPSMT-32"/>
       <use xlink:href="#TimesNewRomanPSMT-30" x="50"/>
       <use xlink:href="#TimesNewRomanPSMT-35" x="100"/>
       <use xlink:href="#TimesNewRomanPSMT-30" x="150"/>
      </g>
     </g>
    </g>
    <g id="xtick_5">
     <g id="line2d_9">
      <path d="M 438.2464 173.54 
L 438.2464 18.0432 
" clip-path="url(#p884e41b47c)" style="fill: none; stroke: #b0b0b0; stroke-width: 0.8; stroke-linecap: square"/>
     </g>
     <g id="line2d_10">
      <g>
       <use xlink:href="#md570f23a9d" x="438.2464" y="173.54" style="stroke: #000000; stroke-width: 1.5"/>
      </g>
     </g>
     <g id="text_5">
      <!-- 2100 -->
      <g transform="translate(428.2464 187.98375) scale(0.1 -0.1)">
       <use xlink:href="#TimesNewRomanPSMT-32"/>
       <use xlink:href="#TimesNewRomanPSMT-31" x="50"/>
       <use xlink:href="#TimesNewRomanPSMT-30" x="100"/>
       <use xlink:href="#TimesNewRomanPSMT-30" x="150"/>
      </g>
     </g>
    </g>
    <g id="xtick_6">
     <g id="line2d_11">
      <path d="M 532.7282 173.54 
L 532.7282 18.0432 
" clip-path="url(#p884e41b47c)" style="fill: none; stroke: #b0b0b0; stroke-width: 0.8; stroke-linecap: square"/>
     </g>
     <g id="line2d_12">
      <g>
       <use xlink:href="#md570f23a9d" x="532.7282" y="173.54" style="stroke: #000000; stroke-width: 1.5"/>
      </g>
     </g>
     <g id="text_6">
      <!-- 2150 -->
      <g transform="translate(522.7282 187.98375) scale(0.1 -0.1)">
       <use xlink:href="#TimesNewRomanPSMT-32"/>
       <use xlink:href="#TimesNewRomanPSMT-31" x="50"/>
       <use xlink:href="#TimesNewRomanPSMT-35" x="100"/>
       <use xlink:href="#TimesNewRomanPSMT-30" x="150"/>
      </g>
     </g>
    </g>
    <g id="xtick_7">
     <g id="line2d_13">
      <path d="M 627.21 173.54 
L 627.21 18.0432 
" clip-path="url(#p884e41b47c)" style="fill: none; stroke: #b0b0b0; stroke-width: 0.8; stroke-linecap: square"/>
     </g>
     <g id="line2d_14">
      <g>
       <use xlink:href="#md570f23a9d" x="627.21" y="173.54" style="stroke: #000000; stroke-width: 1.5"/>
      </g>
     </g>
     <g id="text_7">
      <!-- 2200 -->
      <g transform="translate(617.21 187.98375) scale(0.1 -0.1)">
       <use xlink:href="#TimesNewRomanPSMT-32"/>
       <use xlink:href="#TimesNewRomanPSMT-32" x="50"/>
       <use xlink:href="#TimesNewRomanPSMT-30" x="100"/>
       <use xlink:href="#TimesNewRomanPSMT-30" x="150"/>
      </g>
     </g>
    </g>
    <g id="text_8">
     <!-- time [years] -->
     <g transform="translate(314.944913 202.455312) scale(0.12 -0.12)">
      <defs>
       <path id="TimesNewRomanPSMT-74" d="M 1031 3803 
L 1031 2863 
L 1700 2863 
L 1700 2644 
L 1031 2644 
L 1031 788 
Q 1031 509 1111 412 
Q 1191 316 1316 316 
Q 1419 316 1516 380 
Q 1613 444 1666 569 
L 1788 569 
Q 1678 263 1478 108 
Q 1278 -47 1066 -47 
Q 922 -47 784 33 
Q 647 113 581 261 
Q 516 409 516 719 
L 516 2644 
L 63 2644 
L 63 2747 
Q 234 2816 414 2980 
Q 594 3144 734 3369 
Q 806 3488 934 3803 
L 1031 3803 
z
" transform="scale(0.015625)"/>
       <path id="TimesNewRomanPSMT-69" d="M 928 4444 
Q 1059 4444 1151 4351 
Q 1244 4259 1244 4128 
Q 1244 3997 1151 3903 
Q 1059 3809 928 3809 
Q 797 3809 703 3903 
Q 609 3997 609 4128 
Q 609 4259 701 4351 
Q 794 4444 928 4444 
z
M 1188 2947 
L 1188 647 
Q 1188 378 1227 289 
Q 1266 200 1342 156 
Q 1419 113 1622 113 
L 1622 0 
L 231 0 
L 231 113 
Q 441 113 512 153 
Q 584 194 626 287 
Q 669 381 669 647 
L 669 1750 
Q 669 2216 641 2353 
Q 619 2453 572 2492 
Q 525 2531 444 2531 
Q 356 2531 231 2484 
L 188 2597 
L 1050 2947 
L 1188 2947 
z
" transform="scale(0.015625)"/>
       <path id="TimesNewRomanPSMT-6d" d="M 1050 2338 
Q 1363 2650 1419 2697 
Q 1559 2816 1721 2881 
Q 1884 2947 2044 2947 
Q 2313 2947 2506 2790 
Q 2700 2634 2766 2338 
Q 3088 2713 3309 2830 
Q 3531 2947 3766 2947 
Q 3994 2947 4170 2830 
Q 4347 2713 4450 2447 
Q 4519 2266 4519 1878 
L 4519 647 
Q 4519 378 4559 278 
Q 4591 209 4675 161 
Q 4759 113 4950 113 
L 4950 0 
L 3538 0 
L 3538 113 
L 3597 113 
Q 3781 113 3884 184 
Q 3956 234 3988 344 
Q 4000 397 4000 647 
L 4000 1878 
Q 4000 2228 3916 2372 
Q 3794 2572 3525 2572 
Q 3359 2572 3192 2489 
Q 3025 2406 2788 2181 
L 2781 2147 
L 2788 2013 
L 2788 647 
Q 2788 353 2820 281 
Q 2853 209 2943 161 
Q 3034 113 3253 113 
L 3253 0 
L 1806 0 
L 1806 113 
Q 2044 113 2133 169 
Q 2222 225 2256 338 
Q 2272 391 2272 647 
L 2272 1878 
Q 2272 2228 2169 2381 
Q 2031 2581 1784 2581 
Q 1616 2581 1450 2491 
Q 1191 2353 1050 2181 
L 1050 647 
Q 1050 366 1089 281 
Q 1128 197 1204 155 
Q 1281 113 1516 113 
L 1516 0 
L 100 0 
L 100 113 
Q 297 113 375 155 
Q 453 197 493 289 
Q 534 381 534 647 
L 534 1741 
Q 534 2213 506 2350 
Q 484 2453 437 2492 
Q 391 2531 309 2531 
Q 222 2531 100 2484 
L 53 2597 
L 916 2947 
L 1050 2947 
L 1050 2338 
z
" transform="scale(0.015625)"/>
       <path id="TimesNewRomanPSMT-65" d="M 681 1784 
Q 678 1147 991 784 
Q 1303 422 1725 422 
Q 2006 422 2214 576 
Q 2422 731 2563 1106 
L 2659 1044 
Q 2594 616 2278 264 
Q 1963 -88 1488 -88 
Q 972 -88 605 314 
Q 238 716 238 1394 
Q 238 2128 614 2539 
Q 991 2950 1559 2950 
Q 2041 2950 2350 2633 
Q 2659 2316 2659 1784 
L 681 1784 
z
M 681 1966 
L 2006 1966 
Q 1991 2241 1941 2353 
Q 1863 2528 1708 2628 
Q 1553 2728 1384 2728 
Q 1125 2728 920 2526 
Q 716 2325 681 1966 
z
" transform="scale(0.015625)"/>
       <path id="TimesNewRomanPSMT-20" transform="scale(0.015625)"/>
       <path id="TimesNewRomanPSMT-5b" d="M 1900 -1269 
L 525 -1269 
L 525 4334 
L 1900 4334 
L 1900 4088 
L 994 4088 
L 994 -1025 
L 1900 -1025 
L 1900 -1269 
z
" transform="scale(0.015625)"/>
       <path id="TimesNewRomanPSMT-79" d="M 38 2863 
L 1372 2863 
L 1372 2747 
L 1306 2747 
Q 1166 2747 1095 2686 
Q 1025 2625 1025 2534 
Q 1025 2413 1128 2197 
L 1825 753 
L 2466 2334 
Q 2519 2463 2519 2588 
Q 2519 2644 2497 2672 
Q 2472 2706 2419 2726 
Q 2366 2747 2231 2747 
L 2231 2863 
L 3163 2863 
L 3163 2747 
Q 3047 2734 2984 2696 
Q 2922 2659 2847 2556 
Q 2819 2513 2741 2316 
L 1575 -541 
Q 1406 -956 1132 -1168 
Q 859 -1381 606 -1381 
Q 422 -1381 303 -1275 
Q 184 -1169 184 -1031 
Q 184 -900 270 -820 
Q 356 -741 506 -741 
Q 609 -741 788 -809 
Q 913 -856 944 -856 
Q 1038 -856 1148 -759 
Q 1259 -663 1372 -384 
L 1575 113 
L 547 2272 
Q 500 2369 397 2513 
Q 319 2622 269 2659 
Q 197 2709 38 2747 
L 38 2863 
z
" transform="scale(0.015625)"/>
       <path id="TimesNewRomanPSMT-61" d="M 1822 413 
Q 1381 72 1269 19 
Q 1100 -59 909 -59 
Q 613 -59 420 144 
Q 228 347 228 678 
Q 228 888 322 1041 
Q 450 1253 767 1440 
Q 1084 1628 1822 1897 
L 1822 2009 
Q 1822 2438 1686 2597 
Q 1550 2756 1291 2756 
Q 1094 2756 978 2650 
Q 859 2544 859 2406 
L 866 2225 
Q 866 2081 792 2003 
Q 719 1925 600 1925 
Q 484 1925 411 2006 
Q 338 2088 338 2228 
Q 338 2497 613 2722 
Q 888 2947 1384 2947 
Q 1766 2947 2009 2819 
Q 2194 2722 2281 2516 
Q 2338 2381 2338 1966 
L 2338 994 
Q 2338 584 2353 492 
Q 2369 400 2405 369 
Q 2441 338 2488 338 
Q 2538 338 2575 359 
Q 2641 400 2828 588 
L 2828 413 
Q 2478 -56 2159 -56 
Q 2006 -56 1915 50 
Q 1825 156 1822 413 
z
M 1822 616 
L 1822 1706 
Q 1350 1519 1213 1441 
Q 966 1303 859 1153 
Q 753 1003 753 825 
Q 753 600 887 451 
Q 1022 303 1197 303 
Q 1434 303 1822 616 
z
" transform="scale(0.015625)"/>
       <path id="TimesNewRomanPSMT-72" d="M 1038 2947 
L 1038 2303 
Q 1397 2947 1775 2947 
Q 1947 2947 2059 2842 
Q 2172 2738 2172 2600 
Q 2172 2478 2090 2393 
Q 2009 2309 1897 2309 
Q 1788 2309 1652 2417 
Q 1516 2525 1450 2525 
Q 1394 2525 1328 2463 
Q 1188 2334 1038 2041 
L 1038 669 
Q 1038 431 1097 309 
Q 1138 225 1241 169 
Q 1344 113 1538 113 
L 1538 0 
L 72 0 
L 72 113 
Q 291 113 397 181 
Q 475 231 506 341 
Q 522 394 522 644 
L 522 1753 
Q 522 2253 501 2348 
Q 481 2444 426 2487 
Q 372 2531 291 2531 
Q 194 2531 72 2484 
L 41 2597 
L 906 2947 
L 1038 2947 
z
" transform="scale(0.015625)"/>
       <path id="TimesNewRomanPSMT-73" d="M 2050 2947 
L 2050 1972 
L 1947 1972 
Q 1828 2431 1642 2597 
Q 1456 2763 1169 2763 
Q 950 2763 815 2647 
Q 681 2531 681 2391 
Q 681 2216 781 2091 
Q 878 1963 1175 1819 
L 1631 1597 
Q 2266 1288 2266 781 
Q 2266 391 1970 151 
Q 1675 -88 1309 -88 
Q 1047 -88 709 6 
Q 606 38 541 38 
Q 469 38 428 -44 
L 325 -44 
L 325 978 
L 428 978 
Q 516 541 762 319 
Q 1009 97 1316 97 
Q 1531 97 1667 223 
Q 1803 350 1803 528 
Q 1803 744 1651 891 
Q 1500 1038 1047 1263 
Q 594 1488 453 1669 
Q 313 1847 313 2119 
Q 313 2472 555 2709 
Q 797 2947 1181 2947 
Q 1350 2947 1591 2875 
Q 1750 2828 1803 2828 
Q 1853 2828 1881 2850 
Q 1909 2872 1947 2947 
L 2050 2947 
z
" transform="scale(0.015625)"/>
       <path id="TimesNewRomanPSMT-5d" d="M 234 4334 
L 1609 4334 
L 1609 -1272 
L 234 -1272 
L 234 -1025 
L 1141 -1025 
L 1141 4088 
L 234 4088 
L 234 4334 
z
" transform="scale(0.015625)"/>
      </defs>
      <use xlink:href="#TimesNewRomanPSMT-74"/>
      <use xlink:href="#TimesNewRomanPSMT-69" x="27.783203"/>
      <use xlink:href="#TimesNewRomanPSMT-6d" x="55.566406"/>
      <use xlink:href="#TimesNewRomanPSMT-65" x="133.349609"/>
      <use xlink:href="#TimesNewRomanPSMT-20" x="177.734375"/>
      <use xlink:href="#TimesNewRomanPSMT-5b" x="202.734375"/>
      <use xlink:href="#TimesNewRomanPSMT-79" x="236.035156"/>
      <use xlink:href="#TimesNewRomanPSMT-65" x="286.035156"/>
      <use xlink:href="#TimesNewRomanPSMT-61" x="330.419922"/>
      <use xlink:href="#TimesNewRomanPSMT-72" x="374.804688"/>
      <use xlink:href="#TimesNewRomanPSMT-73" x="408.105469"/>
      <use xlink:href="#TimesNewRomanPSMT-5d" x="447.021484"/>
     </g>
    </g>
   </g>
   <g id="matplotlib.axis_2">
    <g id="ytick_1">
     <g id="line2d_15">
      <path d="M 60.3192 173.54 
L 627.21 173.54 
" clip-path="url(#p884e41b47c)" style="fill: none; stroke: #b0b0b0; stroke-width: 0.8; stroke-linecap: square"/>
     </g>
     <g id="line2d_16">
      <defs>
       <path id="m55566277e5" d="M 0 0 
L -4 0 
" style="stroke: #4169e1; stroke-opacity: 0.55; stroke-width: 1.5"/>
      </defs>
      <g>
       <use xlink:href="#m55566277e5" x="60.3192" y="173.54" style="fill: #4169e1; fill-opacity: 0.55; stroke: #4169e1; stroke-opacity: 0.55; stroke-width: 1.5"/>
      </g>
     </g>
     <g id="text_9">
      <!-- 0 -->
      <g style="fill: #4169e1; opacity: 0.55" transform="translate(50.680138 175.068125) rotate(-90) scale(0.1 -0.1)">
       <use xlink:href="#TimesNewRomanPSMT-30"/>
      </g>
     </g>
    </g>
    <g id="ytick_2">
     <g id="line2d_17">
      <path d="M 60.3192 131.623083 
L 627.21 131.623083 
" clip-path="url(#p884e41b47c)" style="fill: none; stroke: #b0b0b0; stroke-width: 0.8; stroke-linecap: square"/>
     </g>
     <g id="line2d_18">
      <g>
       <use xlink:href="#m55566277e5" x="60.3192" y="131.623083" style="fill: #4169e1; fill-opacity: 0.55; stroke: #4169e1; stroke-opacity: 0.55; stroke-width: 1.5"/>
      </g>
     </g>
     <g id="text_10">
      <!-- 3 T -->
      <g style="fill: #4169e1; opacity: 0.55" transform="translate(50.680138 141.260583) rotate(-90) scale(0.1 -0.1)">
       <defs>
        <path id="TimesNewRomanPSMT-33" d="M 325 3431 
Q 506 3859 782 4092 
Q 1059 4325 1472 4325 
Q 1981 4325 2253 3994 
Q 2459 3747 2459 3466 
Q 2459 3003 1878 2509 
Q 2269 2356 2469 2072 
Q 2669 1788 2669 1403 
Q 2669 853 2319 450 
Q 1863 -75 997 -75 
Q 569 -75 414 31 
Q 259 138 259 259 
Q 259 350 332 419 
Q 406 488 509 488 
Q 588 488 669 463 
Q 722 447 909 348 
Q 1097 250 1169 231 
Q 1284 197 1416 197 
Q 1734 197 1970 444 
Q 2206 691 2206 1028 
Q 2206 1275 2097 1509 
Q 2016 1684 1919 1775 
Q 1784 1900 1550 2001 
Q 1316 2103 1072 2103 
L 972 2103 
L 972 2197 
Q 1219 2228 1467 2375 
Q 1716 2522 1828 2728 
Q 1941 2934 1941 3181 
Q 1941 3503 1739 3701 
Q 1538 3900 1238 3900 
Q 753 3900 428 3381 
L 325 3431 
z
" transform="scale(0.015625)"/>
        <path id="TimesNewRomanPSMT-2009" d="M 0 0 
L 0 0 
z
" transform="scale(0.015625)"/>
        <path id="TimesNewRomanPSMT-54" d="M 3703 4238 
L 3750 3244 
L 3631 3244 
Q 3597 3506 3538 3619 
Q 3441 3800 3280 3886 
Q 3119 3972 2856 3972 
L 2259 3972 
L 2259 734 
Q 2259 344 2344 247 
Q 2463 116 2709 116 
L 2856 116 
L 2856 0 
L 1059 0 
L 1059 116 
L 1209 116 
Q 1478 116 1591 278 
Q 1659 378 1659 734 
L 1659 3972 
L 1150 3972 
Q 853 3972 728 3928 
Q 566 3869 450 3700 
Q 334 3531 313 3244 
L 194 3244 
L 244 4238 
L 3703 4238 
z
" transform="scale(0.015625)"/>
       </defs>
       <use xlink:href="#TimesNewRomanPSMT-33"/>
       <use xlink:href="#TimesNewRomanPSMT-2009" x="50"/>
       <use xlink:href="#TimesNewRomanPSMT-54" x="70.019531"/>
      </g>
     </g>
    </g>
    <g id="ytick_3">
     <g id="line2d_19">
      <path d="M 60.3192 89.706165 
L 627.21 89.706165 
" clip-path="url(#p884e41b47c)" style="fill: none; stroke: #b0b0b0; stroke-width: 0.8; stroke-linecap: square"/>
     </g>
     <g id="line2d_20">
      <g>
       <use xlink:href="#m55566277e5" x="60.3192" y="89.706165" style="fill: #4169e1; fill-opacity: 0.55; stroke: #4169e1; stroke-opacity: 0.55; stroke-width: 1.5"/>
      </g>
     </g>
     <g id="text_11">
      <!-- 6 T -->
      <g style="fill: #4169e1; opacity: 0.55" transform="translate(50.680138 99.343665) rotate(-90) scale(0.1 -0.1)">
       <defs>
        <path id="TimesNewRomanPSMT-36" d="M 2869 4325 
L 2869 4209 
Q 2456 4169 2195 4045 
Q 1934 3922 1679 3669 
Q 1425 3416 1258 3105 
Q 1091 2794 978 2366 
Q 1428 2675 1881 2675 
Q 2316 2675 2634 2325 
Q 2953 1975 2953 1425 
Q 2953 894 2631 456 
Q 2244 -75 1606 -75 
Q 1172 -75 869 213 
Q 275 772 275 1663 
Q 275 2231 503 2743 
Q 731 3256 1154 3653 
Q 1578 4050 1965 4187 
Q 2353 4325 2688 4325 
L 2869 4325 
z
M 925 2138 
Q 869 1716 869 1456 
Q 869 1156 980 804 
Q 1091 453 1309 247 
Q 1469 100 1697 100 
Q 1969 100 2183 356 
Q 2397 613 2397 1088 
Q 2397 1622 2184 2012 
Q 1972 2403 1581 2403 
Q 1463 2403 1327 2353 
Q 1191 2303 925 2138 
z
" transform="scale(0.015625)"/>
       </defs>
       <use xlink:href="#TimesNewRomanPSMT-36"/>
       <use xlink:href="#TimesNewRomanPSMT-2009" x="50"/>
       <use xlink:href="#TimesNewRomanPSMT-54" x="70.019531"/>
      </g>
     </g>
    </g>
    <g id="ytick_4">
     <g id="line2d_21">
      <path d="M 60.3192 47.789248 
L 627.21 47.789248 
" clip-path="url(#p884e41b47c)" style="fill: none; stroke: #b0b0b0; stroke-width: 0.8; stroke-linecap: square"/>
     </g>
     <g id="line2d_22">
      <g>
       <use xlink:href="#m55566277e5" x="60.3192" y="47.789248" style="fill: #4169e1; fill-opacity: 0.55; stroke: #4169e1; stroke-opacity: 0.55; stroke-width: 1.5"/>
      </g>
     </g>
     <g id="text_12">
      <!-- 9 T -->
      <g style="fill: #4169e1; opacity: 0.55" transform="translate(50.680138 57.426748) rotate(-90) scale(0.1 -0.1)">
       <use xlink:href="#TimesNewRomanPSMT-39"/>
       <use xlink:href="#TimesNewRomanPSMT-2009" x="50"/>
       <use xlink:href="#TimesNewRomanPSMT-54" x="70.019531"/>
      </g>
     </g>
    </g>
    <g id="text_13">
     <!-- ic -->
     <g style="fill: #4169e1; opacity: 0.55" transform="translate(55.988888 13.921357) scale(0.12 -0.12)">
      <defs>
       <path id="TimesNewRomanPSMT-63" d="M 2631 1088 
Q 2516 522 2178 217 
Q 1841 -88 1431 -88 
Q 944 -88 581 321 
Q 219 731 219 1428 
Q 219 2103 620 2525 
Q 1022 2947 1584 2947 
Q 2006 2947 2278 2723 
Q 2550 2500 2550 2259 
Q 2550 2141 2473 2067 
Q 2397 1994 2259 1994 
Q 2075 1994 1981 2113 
Q 1928 2178 1911 2362 
Q 1894 2547 1784 2644 
Q 1675 2738 1481 2738 
Q 1169 2738 978 2506 
Q 725 2200 725 1697 
Q 725 1184 976 792 
Q 1228 400 1656 400 
Q 1963 400 2206 609 
Q 2378 753 2541 1131 
L 2631 1088 
z
" transform="scale(0.015625)"/>
      </defs>
      <use xlink:href="#TimesNewRomanPSMT-69"/>
      <use xlink:href="#TimesNewRomanPSMT-63" x="27.783203"/>
     </g>
    </g>
   </g>
   <g id="line2d_23">
    <path d="M 60.3192 170.605816 
L 79.21556 169.322855 
L 91.498194 168.273465 
L 101.891192 167.166071 
L 111.339372 165.937202 
L 119.842734 164.61076 
L 127.401278 163.222556 
L 134.959822 161.602379 
L 142.518366 159.722535 
L 149.132092 157.850882 
L 155.745818 155.734451 
L 161.414726 153.701407 
L 167.083634 151.442517 
L 172.752542 148.925463 
L 178.42145 146.126138 
L 183.14554 143.562214 
L 188.814448 140.226194 
L 194.483356 136.651768 
L 200.152264 132.811079 
L 205.821172 128.683102 
L 211.49008 124.247879 
L 217.158988 119.490597 
L 222.827896 114.400581 
L 228.496804 108.968186 
L 234.165712 103.183713 
L 239.83462 97.036245 
L 245.503528 90.517296 
L 251.172436 83.603315 
L 256.841344 76.299489 
L 262.510252 68.609211 
L 279.516976 44.988532 
L 282.35143 41.554901 
L 285.185884 38.461647 
L 287.07552 36.68297 
L 288.965156 35.287356 
L 290.854792 34.304198 
L 292.744428 33.732734 
L 294.634064 33.564319 
L 296.5237 33.784451 
L 298.413336 34.374431 
L 300.302972 35.309604 
L 302.192608 36.547915 
L 304.082244 38.02292 
L 306.916698 40.622738 
L 309.751152 43.631935 
L 312.585606 47.036034 
L 315.42006 50.767919 
L 319.199332 56.131327 
L 323.923422 63.240951 
L 339.985328 87.795567 
L 346.599054 97.293284 
L 351.323144 103.743946 
L 356.047234 109.852018 
L 360.771324 115.588654 
L 365.495414 120.942575 
L 370.219504 125.91092 
L 374.943594 130.497093 
L 379.667684 134.711021 
L 384.391774 138.569386 
L 389.115864 142.090882 
L 393.839954 145.297022 
L 398.564044 148.208875 
L 403.288134 150.847446 
L 408.012224 153.233228 
L 412.736314 155.391133 
L 418.405222 157.719686 
L 424.07413 159.788358 
L 429.743038 161.617236 
L 435.411946 163.22612 
L 442.025672 164.852063 
L 448.639398 166.236046 
L 456.197942 167.567508 
L 463.756486 168.671976 
L 472.259848 169.686045 
L 481.708028 170.579223 
L 492.101026 171.334816 
L 504.38366 171.992103 
L 518.55593 172.518022 
L 535.562654 172.924007 
L 558.238286 173.229642 
L 591.306916 173.427419 
L 627.21 173.503209 
L 627.21 173.503209 
" clip-path="url(#p884e41b47c)" style="fill: none; stroke: #4169e1; stroke-opacity: 0.55; stroke-linecap: square"/>
   </g>
   <g id="line2d_24">
    <path d="M 60.3192 171.671209 
L 74.49147 171.333698 
L 91.498194 170.716479 
L 106.615282 169.943287 
L 119.842734 169.03972 
L 131.18055 168.048412 
L 141.573548 166.921278 
L 151.021728 165.693041 
L 159.52509 164.385771 
L 168.028452 162.850792 
L 175.586996 161.263378 
L 183.14554 159.433024 
L 189.759266 157.604045 
L 196.372992 155.534471 
L 202.0419 153.540508 
L 207.710808 151.322653 
L 213.379716 148.861788 
L 219.048624 146.137843 
L 225.66235 142.688967 
L 231.331258 139.504343 
L 237.000166 136.080985 
L 242.669074 132.400215 
L 248.337982 128.444003 
L 254.00689 124.200444 
L 259.675798 119.658322 
L 265.344706 114.807062 
L 271.013614 109.637204 
L 276.682522 104.138494 
L 282.35143 98.292932 
L 288.020338 92.085826 
L 293.689246 85.51862 
L 299.358154 78.59185 
L 305.027062 71.28934 
L 310.69597 63.619083 
L 316.364878 55.598914 
L 330.537148 35.28402 
L 333.371602 31.516858 
L 336.206056 28.076029 
L 339.04051 25.000469 
L 340.930146 23.166046 
L 342.819782 21.645009 
L 344.709418 20.527819 
L 346.599054 19.839591 
L 348.48869 19.582772 
L 350.378326 19.752686 
L 352.267962 20.337495 
L 354.157598 21.315771 
L 356.047234 22.662066 
L 357.93687 24.348996 
L 359.826506 26.308394 
L 362.66096 29.681097 
L 365.495414 33.493735 
L 368.329868 37.654001 
L 372.10914 43.652009 
L 376.83323 51.620159 
L 391.0055 75.817726 
L 395.72959 83.374643 
L 400.45368 90.492283 
L 405.17777 97.126846 
L 409.90186 103.332841 
L 414.62595 109.184655 
L 419.35004 114.668961 
L 424.07413 119.787253 
L 428.79822 124.548627 
L 433.52231 128.961331 
L 438.2464 133.036547 
L 442.97049 136.788968 
L 447.69458 140.235086 
L 452.41867 143.392569 
L 457.14276 146.280073 
L 461.86685 148.916932 
L 466.59094 151.32148 
L 471.31503 153.510335 
L 476.983938 155.875307 
L 482.652846 157.992711 
L 488.321754 159.893511 
L 494.93548 161.858252 
L 501.549206 163.571677 
L 508.162932 165.056985 
L 515.721476 166.508411 
L 523.28002 167.730577 
L 531.783382 168.870471 
L 541.231562 169.892756 
L 551.62456 170.774745 
L 562.962376 171.50711 
L 576.189828 172.129983 
L 592.251734 172.643758 
L 612.092912 173.033651 
L 627.21 173.214404 
L 627.21 173.214404 
" clip-path="url(#p884e41b47c)" style="fill: none; stroke-dasharray: 3.7,1.6; stroke-dashoffset: 0; stroke: #4169e1; stroke-opacity: 0.55"/>
   </g>
   <g id="patch_3">
    <path d="M 60.3192 173.54 
L 60.3192 18.0432 
" style="fill: none; stroke: #000000; stroke-width: 0.8; stroke-linejoin: miter; stroke-linecap: square"/>
   </g>
   <g id="patch_4">
    <path d="M 627.21 173.54 
L 627.21 18.0432 
" style="fill: none; stroke: #000000; stroke-width: 0.8; stroke-linejoin: miter; stroke-linecap: square"/>
   </g>
   <g id="patch_5">
    <path d="M 60.3192 173.54 
L 627.21 173.54 
" style="fill: none; stroke: #000000; stroke-width: 0.8; stroke-linejoin: miter; stroke-linecap: square"/>
   </g>
   <g id="patch_6">
    <path d="M 60.3192 18.0432 
L 627.21 18.0432 
" style="fill: none; stroke: #000000; stroke-width: 0.8; stroke-linejoin: miter; stroke-linecap: square"/>
   </g>
  </g>
  <g id="axes_2">
   <g id="matplotlib.axis_3">
    <g id="ytick_5">
     <g id="line2d_25">
      <defs>
       <path id="mfdac5919e6" d="M 0 0 
L -4 0 
" style="stroke: #4169e1; stroke-width: 1.5"/>
      </defs>
      <g>
       <use xlink:href="#mfdac5919e6" x="26.305752" y="173.54" style="fill: #4169e1; stroke: #4169e1; stroke-width: 1.5"/>
      </g>
     </g>
     <g id="text_14">
      <!-- 0 -->
      <g style="fill: #4169e1" transform="translate(16.66669 175.068125) rotate(-90) scale(0.1 -0.1)">
       <use xlink:href="#TimesNewRomanPSMT-30"/>
      </g>
     </g>
    </g>
    <g id="ytick_6">
     <g id="line2d_26">
      <g>
       <use xlink:href="#mfdac5919e6" x="26.305752" y="126.221534" style="fill: #4169e1; stroke: #4169e1; stroke-width: 1.5"/>
      </g>
     </g>
     <g id="text_15">
      <!-- 2 T -->
      <g style="fill: #4169e1" transform="translate(16.66669 135.859034) rotate(-90) scale(0.1 -0.1)">
       <use xlink:href="#TimesNewRomanPSMT-32"/>
       <use xlink:href="#TimesNewRomanPSMT-2009" x="50"/>
       <use xlink:href="#TimesNewRomanPSMT-54" x="70.019531"/>
      </g>
     </g>
    </g>
    <g id="ytick_7">
     <g id="line2d_27">
      <g>
       <use xlink:href="#mfdac5919e6" x="26.305752" y="78.903068" style="fill: #4169e1; stroke: #4169e1; stroke-width: 1.5"/>
      </g>
     </g>
     <g id="text_16">
      <!-- 3 T -->
      <g style="fill: #4169e1" transform="translate(16.66669 88.540568) rotate(-90) scale(0.1 -0.1)">
       <use xlink:href="#TimesNewRomanPSMT-33"/>
       <use xlink:href="#TimesNewRomanPSMT-2009" x="50"/>
       <use xlink:href="#TimesNewRomanPSMT-54" x="70.019531"/>
      </g>
     </g>
    </g>
    <g id="ytick_8">
     <g id="line2d_28">
      <g>
       <use xlink:href="#mfdac5919e6" x="26.305752" y="31.584602" style="fill: #4169e1; stroke: #4169e1; stroke-width: 1.5"/>
      </g>
     </g>
     <g id="text_17">
      <!-- 4 T -->
      <g style="fill: #4169e1" transform="translate(16.66669 41.222102) rotate(-90) scale(0.1 -0.1)">
       <defs>
        <path id="TimesNewRomanPSMT-34" d="M 2978 1563 
L 2978 1119 
L 2409 1119 
L 2409 0 
L 1894 0 
L 1894 1119 
L 100 1119 
L 100 1519 
L 2066 4325 
L 2409 4325 
L 2409 1563 
L 2978 1563 
z
M 1894 1563 
L 1894 3666 
L 406 1563 
L 1894 1563 
z
" transform="scale(0.015625)"/>
       </defs>
       <use xlink:href="#TimesNewRomanPSMT-34"/>
       <use xlink:href="#TimesNewRomanPSMT-2009" x="50"/>
       <use xlink:href="#TimesNewRomanPSMT-54" x="70.019531"/>
      </g>
     </g>
    </g>
    <g id="text_18">
     <!-- sc -->
     <g style="fill: #4169e1" transform="translate(21.307002 13.921357) scale(0.12 -0.12)">
      <use xlink:href="#TimesNewRomanPSMT-73"/>
      <use xlink:href="#TimesNewRomanPSMT-63" x="38.916016"/>
     </g>
    </g>
   </g>
   <g id="line2d_29">
    <path d="M 60.3192 168.997427 
L 66.932926 168.903798 
L 75.436288 168.531073 
L 85.829286 167.823241 
L 96.222284 166.896854 
L 106.615282 165.745107 
L 116.063462 164.470805 
L 124.566824 163.102951 
L 132.125368 161.679092 
L 139.683912 160.023964 
L 146.297638 158.348774 
L 152.911364 156.445716 
L 159.52509 154.292835 
L 165.193998 152.226983 
L 170.862906 149.93468 
L 176.531814 147.389394 
L 182.200722 144.56478 
L 185.979994 142.470728 
L 190.704084 139.58193 
L 195.428174 136.42593 
L 200.152264 133.020435 
L 204.876354 129.368785 
L 209.600444 125.467079 
L 214.324534 121.307249 
L 219.048624 116.880399 
L 223.772714 112.178016 
L 228.496804 107.192198 
L 233.220894 101.914814 
L 237.944984 96.337678 
L 242.669074 90.452623 
L 247.393164 84.251694 
L 252.117254 77.722688 
L 256.841344 70.859153 
L 261.565434 63.658465 
L 265.344706 57.921892 
L 269.123978 52.623339 
L 272.90325 47.711765 
L 275.737704 44.38224 
L 277.62734 42.537721 
L 280.461794 40.229838 
L 282.35143 38.930137 
L 284.241066 37.829732 
L 286.130702 36.997271 
L 287.07552 36.858628 
L 288.020338 36.927826 
L 288.965156 37.193109 
L 289.909974 37.642993 
L 290.854792 38.266268 
L 291.79961 39.05179 
L 293.689246 41.065553 
L 295.578882 43.597981 
L 297.468518 46.566338 
L 299.358154 49.892379 
L 303.137426 57.195703 
L 311.640788 73.6934 
L 316.364878 82.201755 
L 321.088968 90.190245 
L 325.813058 97.66803 
L 329.59233 103.276996 
L 333.371602 108.548169 
L 337.150874 113.479699 
L 340.930146 118.07455 
L 344.709418 122.341832 
L 348.48869 126.297258 
L 352.267962 129.956545 
L 356.047234 133.335427 
L 359.826506 136.449995 
L 363.605778 139.316558 
L 367.38505 141.951718 
L 372.10914 144.945421 
L 376.83323 147.635063 
L 381.55732 150.050107 
L 386.28141 152.217927 
L 391.0055 154.163851 
L 396.674408 156.238355 
L 402.343316 158.062711 
L 408.012224 159.669634 
L 414.62595 161.307568 
L 422.184494 162.917252 
L 429.743038 164.298105 
L 438.2464 165.6285 
L 447.69458 166.878256 
L 457.14276 167.905507 
L 468.480576 168.910597 
L 481.708028 169.854952 
L 496.825116 170.712016 
L 514.776658 171.497379 
L 534.617836 172.139553 
L 558.238286 172.669411 
L 585.638008 173.054722 
L 621.541092 173.324222 
L 627.21 173.350874 
L 627.21 173.350874 
" clip-path="url(#p884e41b47c)" style="fill: none; stroke: #4169e1; stroke-linecap: square"/>
   </g>
   <g id="line2d_30">
    <path d="M 60.3192 170.542075 
L 74.49147 170.326834 
L 88.66374 169.894458 
L 103.780828 169.204978 
L 117.00828 168.387915 
L 129.290914 167.410507 
L 139.683912 166.378743 
L 149.132092 165.23476 
L 158.580272 163.869672 
L 167.083634 162.422289 
L 174.642178 160.932481 
L 182.200722 159.220984 
L 188.814448 157.515359 
L 195.428174 155.589245 
L 202.0419 153.413307 
L 207.710808 151.322983 
L 213.379716 149.002899 
L 219.048624 146.432074 
L 223.772714 144.051258 
L 228.496804 141.415885 
L 233.220894 138.55193 
L 238.889802 134.826436 
L 244.55871 130.785228 
L 250.227618 126.417346 
L 254.951708 122.518162 
L 259.675798 118.374655 
L 264.399888 113.978763 
L 269.123978 109.322686 
L 273.848068 104.39821 
L 278.572158 99.197104 
L 283.296248 93.709752 
L 288.020338 87.923896 
L 292.744428 81.832063 
L 297.468518 75.43012 
L 303.137426 67.333451 
L 308.806334 58.773324 
L 313.530424 51.244672 
L 319.199332 42.142825 
L 322.978604 36.611562 
L 326.757876 31.492833 
L 329.59233 27.98866 
L 331.481966 26.042448 
L 334.31642 23.599551 
L 336.206056 22.22831 
L 338.095692 21.071224 
L 339.985328 20.133702 
L 340.930146 19.748546 
L 341.874964 19.582772 
L 342.819782 19.633987 
L 343.7646 19.890291 
L 344.709418 20.340304 
L 345.654236 20.972933 
L 346.599054 21.777283 
L 348.48869 23.858366 
L 350.378326 26.499616 
L 352.267962 29.620377 
L 354.157598 33.143633 
L 356.992052 39.024732 
L 370.219504 67.956913 
L 373.998776 75.543321 
L 377.778048 82.675938 
L 381.55732 89.37792 
L 385.336592 95.66295 
L 389.115864 101.540863 
L 392.895136 107.019905 
L 396.674408 112.108885 
L 400.45368 116.818176 
L 404.232952 121.160386 
L 408.012224 125.153155 
L 411.791496 128.821202 
L 415.570768 132.191157 
L 419.35004 135.2871 
L 423.129312 138.131296 
L 426.908584 140.744304 
L 431.632674 143.71473 
L 436.356764 146.388559 
L 441.080854 148.796566 
L 445.804944 150.966141 
L 450.529034 152.922089 
L 456.197942 155.018155 
L 461.86685 156.872237 
L 468.480576 158.769661 
L 475.094302 160.421798 
L 482.652846 162.056539 
L 490.21139 163.467947 
L 498.714752 164.838598 
L 508.162932 166.140552 
L 517.611112 167.234593 
L 528.948928 168.307322 
L 542.17638 169.319714 
L 557.293468 170.247083 
L 574.300192 171.070562 
L 594.14137 171.803898 
L 616.817002 172.408099 
L 627.21 172.617946 
L 627.21 172.617946 
" clip-path="url(#p884e41b47c)" style="fill: none; stroke-dasharray: 3.7,1.6; stroke-dashoffset: 0; stroke: #4169e1"/>
   </g>
   <g id="patch_7">
    <path d="M 26.305752 173.54 
L 26.305752 18.0432 
" style="fill: none; stroke: #000000; stroke-width: 0.8; stroke-linejoin: miter; stroke-linecap: square"/>
   </g>
   <g id="patch_8">
    <path d="M 627.21 173.54 
L 627.21 18.0432 
" style="fill: none; stroke: #000000; stroke-width: 0.8; stroke-linejoin: miter; stroke-linecap: square"/>
   </g>
   <g id="patch_9">
    <path d="M 60.3192 173.54 
L 627.21 173.54 
" style="fill: none; stroke: #000000; stroke-width: 0.8; stroke-linejoin: miter; stroke-linecap: square"/>
   </g>
   <g id="patch_10">
    <path d="M 60.3192 18.0432 
L 627.21 18.0432 
" style="fill: none; stroke: #000000; stroke-width: 0.8; stroke-linejoin: miter; stroke-linecap: square"/>
   </g>
  </g>
 </g>
 <defs>
  <clipPath id="p884e41b47c">
   <rect x="60.3192" y="18.0432" width="566.8908" height="155.4968"/>
  </clipPath>
 </defs>
</svg>
