<?xml version="1.0" encoding="utf-8" standalone="no"?>
<!DOCTYPE svg PUBLIC "-//W3C//DTD SVG 1.1//EN"
  "http://www.w3.org/Graphics/SVG/1.1/DTD/svg11.dtd">
<svg xmlns:xlink="http://www.w3.org/1999/xlink" width="504pt" height="288pt" viewBox="0 0 504 288" xmlns="http://www.w3.org/2000/svg" version="1.1">
 <metadata>
  <rdf:RDF xmlns:dc="http://purl.org/dc/elements/1.1/" xmlns:cc="http://creativecommons.org/ns#" xmlns:rdf="http://www.w3.org/1999/02/22-rdf-syntax-ns#">
   <cc:Work>
    <dc:type rdf:resource="http://purl.org/dc/dcmitype/StillImage"/>
    <dc:date>2024-05-14T12:17:28.825005</dc:date>
    <dc:format>image/svg+xml</dc:format>
    <dc:creator>
     <cc:Agent>
      <dc:title>Matplotlib v3.8.2, https://matplotlib.org/</dc:title>
     </cc:Agent>
    </dc:creator>
   </cc:Work>
  </rdf:RDF>
 </metadata>
 <defs>
  <style type="text/css">*{stroke-linejoin: round; stroke-linecap: butt}</style>
 </defs>
 <g id="figure_1">
  <g id="patch_1">
   <path d="M 0 288 
L 504 288 
L 504 0 
L 0 0 
z
" style="fill: #ffffff"/>
  </g>
  <g id="axes_1">
   <g id="patch_2">
    <path d="M 103.8648 245.54 
L 483.21 245.54 
L 483.21 18.5976 
L 103.8648 18.5976 
z
" style="fill: #ffffff"/>
   </g>
   <g id="matplotlib.axis_1">
    <g id="xtick_1">
     <g id="line2d_1">
      <path d="M 103.8648 245.54 
L 103.8648 18.5976 
" clip-path="url(#p3b25b26b79)" style="fill: none; stroke: #b0b0b0; stroke-width: 0.8; stroke-linecap: square"/>
     </g>
     <g id="line2d_2">
      <defs>
       <path id="m1d9c3a9355" d="M 0 0 
L 0 4 
" style="stroke: #000000; stroke-width: 1.5"/>
      </defs>
      <g>
       <use xlink:href="#m1d9c3a9355" x="103.8648" y="245.54" style="stroke: #000000; stroke-width: 1.5"/>
      </g>
     </g>
     <g id="text_1">
      <!-- 1900 -->
      <g transform="translate(93.8648 259.98375) scale(0.1 -0.1)">
       <defs>
        <path id="TimesNewRomanPSMT-31" d="M 750 3822 
L 1781 4325 
L 1884 4325 
L 1884 747 
Q 1884 391 1914 303 
Q 1944 216 2037 169 
Q 2131 122 2419 116 
L 2419 0 
L 825 0 
L 825 116 
Q 1125 122 1212 167 
Q 1300 213 1334 289 
Q 1369 366 1369 747 
L 1369 3034 
Q 1369 3497 1338 3628 
Q 1316 3728 1258 3775 
Q 1200 3822 1119 3822 
Q 1003 3822 797 3725 
L 750 3822 
z
" transform="scale(0.015625)"/>
        <path id="TimesNewRomanPSMT-39" d="M 338 -88 
L 338 28 
Q 744 34 1094 217 
Q 1444 400 1770 856 
Q 2097 1313 2225 1859 
Q 1734 1544 1338 1544 
Q 891 1544 572 1889 
Q 253 2234 253 2806 
Q 253 3363 572 3797 
Q 956 4325 1575 4325 
Q 2097 4325 2469 3894 
Q 2925 3359 2925 2575 
Q 2925 1869 2578 1258 
Q 2231 647 1613 244 
Q 1109 -88 516 -88 
L 338 -88 
z
M 2275 2091 
Q 2331 2497 2331 2741 
Q 2331 3044 2228 3395 
Q 2125 3747 1936 3934 
Q 1747 4122 1506 4122 
Q 1228 4122 1018 3872 
Q 809 3622 809 3128 
Q 809 2469 1088 2097 
Q 1291 1828 1588 1828 
Q 1731 1828 1928 1897 
Q 2125 1966 2275 2091 
z
" transform="scale(0.015625)"/>
        <path id="TimesNewRomanPSMT-30" d="M 231 2094 
Q 231 2819 450 3342 
Q 669 3866 1031 4122 
Q 1313 4325 1613 4325 
Q 2100 4325 2488 3828 
Q 2972 3213 2972 2159 
Q 2972 1422 2759 906 
Q 2547 391 2217 158 
Q 1888 -75 1581 -75 
Q 975 -75 572 641 
Q 231 1244 231 2094 
z
M 844 2016 
Q 844 1141 1059 588 
Q 1238 122 1591 122 
Q 1759 122 1940 273 
Q 2122 425 2216 781 
Q 2359 1319 2359 2297 
Q 2359 3022 2209 3506 
Q 2097 3866 1919 4016 
Q 1791 4119 1609 4119 
Q 1397 4119 1231 3928 
Q 1006 3669 925 3112 
Q 844 2556 844 2016 
z
" transform="scale(0.015625)"/>
       </defs>
       <use xlink:href="#TimesNewRomanPSMT-31"/>
       <use xlink:href="#TimesNewRomanPSMT-39" x="50"/>
       <use xlink:href="#TimesNewRomanPSMT-30" x="100"/>
       <use xlink:href="#TimesNewRomanPSMT-30" x="150"/>
      </g>
     </g>
    </g>
    <g id="xtick_2">
     <g id="line2d_3">
      <path d="M 167.089 245.54 
L 167.089 18.5976 
" clip-path="url(#p3b25b26b79)" style="fill: none; stroke: #b0b0b0; stroke-width: 0.8; stroke-linecap: square"/>
     </g>
     <g id="line2d_4">
      <g>
       <use xlink:href="#m1d9c3a9355" x="167.089" y="245.54" style="stroke: #000000; stroke-width: 1.5"/>
      </g>
     </g>
     <g id="text_2">
      <!-- 1950 -->
      <g transform="translate(157.089 259.98375) scale(0.1 -0.1)">
       <defs>
        <path id="TimesNewRomanPSMT-35" d="M 2778 4238 
L 2534 3706 
L 1259 3706 
L 981 3138 
Q 1809 3016 2294 2522 
Q 2709 2097 2709 1522 
Q 2709 1188 2573 903 
Q 2438 619 2231 419 
Q 2025 219 1772 97 
Q 1413 -75 1034 -75 
Q 653 -75 479 54 
Q 306 184 306 341 
Q 306 428 378 495 
Q 450 563 559 563 
Q 641 563 702 538 
Q 763 513 909 409 
Q 1144 247 1384 247 
Q 1750 247 2026 523 
Q 2303 800 2303 1197 
Q 2303 1581 2056 1914 
Q 1809 2247 1375 2428 
Q 1034 2569 447 2591 
L 1259 4238 
L 2778 4238 
z
" transform="scale(0.015625)"/>
       </defs>
       <use xlink:href="#TimesNewRomanPSMT-31"/>
       <use xlink:href="#TimesNewRomanPSMT-39" x="50"/>
       <use xlink:href="#TimesNewRomanPSMT-35" x="100"/>
       <use xlink:href="#TimesNewRomanPSMT-30" x="150"/>
      </g>
     </g>
    </g>
    <g id="xtick_3">
     <g id="line2d_5">
      <path d="M 230.3132 245.54 
L 230.3132 18.5976 
" clip-path="url(#p3b25b26b79)" style="fill: none; stroke: #b0b0b0; stroke-width: 0.8; stroke-linecap: square"/>
     </g>
     <g id="line2d_6">
      <g>
       <use xlink:href="#m1d9c3a9355" x="230.3132" y="245.54" style="stroke: #000000; stroke-width: 1.5"/>
      </g>
     </g>
     <g id="text_3">
      <!-- 2000 -->
      <g transform="translate(220.3132 259.98375) scale(0.1 -0.1)">
       <defs>
        <path id="TimesNewRomanPSMT-32" d="M 2934 816 
L 2638 0 
L 138 0 
L 138 116 
Q 1241 1122 1691 1759 
Q 2141 2397 2141 2925 
Q 2141 3328 1894 3587 
Q 1647 3847 1303 3847 
Q 991 3847 742 3664 
Q 494 3481 375 3128 
L 259 3128 
Q 338 3706 661 4015 
Q 984 4325 1469 4325 
Q 1984 4325 2329 3994 
Q 2675 3663 2675 3213 
Q 2675 2891 2525 2569 
Q 2294 2063 1775 1497 
Q 997 647 803 472 
L 1909 472 
Q 2247 472 2383 497 
Q 2519 522 2628 598 
Q 2738 675 2819 816 
L 2934 816 
z
" transform="scale(0.015625)"/>
       </defs>
       <use xlink:href="#TimesNewRomanPSMT-32"/>
       <use xlink:href="#TimesNewRomanPSMT-30" x="50"/>
       <use xlink:href="#TimesNewRomanPSMT-30" x="100"/>
       <use xlink:href="#TimesNewRomanPSMT-30" x="150"/>
      </g>
     </g>
    </g>
    <g id="xtick_4">
     <g id="line2d_7">
      <path d="M 293.5374 245.54 
L 293.5374 18.5976 
" clip-path="url(#p3b25b26b79)" style="fill: none; stroke: #b0b0b0; stroke-width: 0.8; stroke-linecap: square"/>
     </g>
     <g id="line2d_8">
      <g>
       <use xlink:href="#m1d9c3a9355" x="293.5374" y="245.54" style="stroke: #000000; stroke-width: 1.5"/>
      </g>
     </g>
     <g id="text_4">
      <!-- 2050 -->
      <g transform="translate(283.5374 259.98375) scale(0.1 -0.1)">
       <use xlink:href="#TimesNewRomanPSMT-32"/>
       <use xlink:href="#TimesNewRomanPSMT-30" x="50"/>
       <use xlink:href="#TimesNewRomanPSMT-35" x="100"/>
       <use xlink:href="#TimesNewRomanPSMT-30" x="150"/>
      </g>
     </g>
    </g>
    <g id="xtick_5">
     <g id="line2d_9">
      <path d="M 356.7616 245.54 
L 356.7616 18.5976 
" clip-path="url(#p3b25b26b79)" style="fill: none; stroke: #b0b0b0; stroke-width: 0.8; stroke-linecap: square"/>
     </g>
     <g id="line2d_10">
      <g>
       <use xlink:href="#m1d9c3a9355" x="356.7616" y="245.54" style="stroke: #000000; stroke-width: 1.5"/>
      </g>
     </g>
     <g id="text_5">
      <!-- 2100 -->
      <g transform="translate(346.7616 259.98375) scale(0.1 -0.1)">
       <use xlink:href="#TimesNewRomanPSMT-32"/>
       <use xlink:href="#TimesNewRomanPSMT-31" x="50"/>
       <use xlink:href="#TimesNewRomanPSMT-30" x="100"/>
       <use xlink:href="#TimesNewRomanPSMT-30" x="150"/>
      </g>
     </g>
    </g>
    <g id="xtick_6">
     <g id="line2d_11">
      <path d="M 419.9858 245.54 
L 419.9858 18.5976 
" clip-path="url(#p3b25b26b79)" style="fill: none; stroke: #b0b0b0; stroke-width: 0.8; stroke-linecap: square"/>
     </g>
     <g id="line2d_12">
      <g>
       <use xlink:href="#m1d9c3a9355" x="419.9858" y="245.54" style="stroke: #000000; stroke-width: 1.5"/>
      </g>
     </g>
     <g id="text_6">
      <!-- 2150 -->
      <g transform="translate(409.9858 259.98375) scale(0.1 -0.1)">
       <use xlink:href="#TimesNewRomanPSMT-32"/>
       <use xlink:href="#TimesNewRomanPSMT-31" x="50"/>
       <use xlink:href="#TimesNewRomanPSMT-35" x="100"/>
       <use xlink:href="#TimesNewRomanPSMT-30" x="150"/>
      </g>
     </g>
    </g>
    <g id="xtick_7">
     <g id="line2d_13">
      <path d="M 483.21 245.54 
L 483.21 18.5976 
" clip-path="url(#p3b25b26b79)" style="fill: none; stroke: #b0b0b0; stroke-width: 0.8; stroke-linecap: square"/>
     </g>
     <g id="line2d_14">
      <g>
       <use xlink:href="#m1d9c3a9355" x="483.21" y="245.54" style="stroke: #000000; stroke-width: 1.5"/>
      </g>
     </g>
     <g id="text_7">
      <!-- 2200 -->
      <g transform="translate(473.21 259.98375) scale(0.1 -0.1)">
       <use xlink:href="#TimesNewRomanPSMT-32"/>
       <use xlink:href="#TimesNewRomanPSMT-32" x="50"/>
       <use xlink:href="#TimesNewRomanPSMT-30" x="100"/>
       <use xlink:href="#TimesNewRomanPSMT-30" x="150"/>
      </g>
     </g>
    </g>
    <g id="text_8">
     <!-- time [years] -->
     <g transform="translate(264.717713 274.455312) scale(0.12 -0.12)">
      <defs>
       <path id="TimesNewRomanPSMT-74" d="M 1031 3803 
L 1031 2863 
L 1700 2863 
L 1700 2644 
L 1031 2644 
L 1031 788 
Q 1031 509 1111 412 
Q 1191 316 1316 316 
Q 1419 316 1516 380 
Q 1613 444 1666 569 
L 1788 569 
Q 1678 263 1478 108 
Q 1278 -47 1066 -47 
Q 922 -47 784 33 
Q 647 113 581 261 
Q 516 409 516 719 
L 516 2644 
L 63 2644 
L 63 2747 
Q 234 2816 414 2980 
Q 594 3144 734 3369 
Q 806 3488 934 3803 
L 1031 3803 
z
" transform="scale(0.015625)"/>
       <path id="TimesNewRomanPSMT-69" d="M 928 4444 
Q 1059 4444 1151 4351 
Q 1244 4259 1244 4128 
Q 1244 3997 1151 3903 
Q 1059 3809 928 3809 
Q 797 3809 703 3903 
Q 609 3997 609 4128 
Q 609 4259 701 4351 
Q 794 4444 928 4444 
z
M 1188 2947 
L 1188 647 
Q 1188 378 1227 289 
Q 1266 200 1342 156 
Q 1419 113 1622 113 
L 1622 0 
L 231 0 
L 231 113 
Q 441 113 512 153 
Q 584 194 626 287 
Q 669 381 669 647 
L 669 1750 
Q 669 2216 641 2353 
Q 619 2453 572 2492 
Q 525 2531 444 2531 
Q 356 2531 231 2484 
L 188 2597 
L 1050 2947 
L 1188 2947 
z
" transform="scale(0.015625)"/>
       <path id="TimesNewRomanPSMT-6d" d="M 1050 2338 
Q 1363 2650 1419 2697 
Q 1559 2816 1721 2881 
Q 1884 2947 2044 2947 
Q 2313 2947 2506 2790 
Q 2700 2634 2766 2338 
Q 3088 2713 3309 2830 
Q 3531 2947 3766 2947 
Q 3994 2947 4170 2830 
Q 4347 2713 4450 2447 
Q 4519 2266 4519 1878 
L 4519 647 
Q 4519 378 4559 278 
Q 4591 209 4675 161 
Q 4759 113 4950 113 
L 4950 0 
L 3538 0 
L 3538 113 
L 3597 113 
Q 3781 113 3884 184 
Q 3956 234 3988 344 
Q 4000 397 4000 647 
L 4000 1878 
Q 4000 2228 3916 2372 
Q 3794 2572 3525 2572 
Q 3359 2572 3192 2489 
Q 3025 2406 2788 2181 
L 2781 2147 
L 2788 2013 
L 2788 647 
Q 2788 353 2820 281 
Q 2853 209 2943 161 
Q 3034 113 3253 113 
L 3253 0 
L 1806 0 
L 1806 113 
Q 2044 113 2133 169 
Q 2222 225 2256 338 
Q 2272 391 2272 647 
L 2272 1878 
Q 2272 2228 2169 2381 
Q 2031 2581 1784 2581 
Q 1616 2581 1450 2491 
Q 1191 2353 1050 2181 
L 1050 647 
Q 1050 366 1089 281 
Q 1128 197 1204 155 
Q 1281 113 1516 113 
L 1516 0 
L 100 0 
L 100 113 
Q 297 113 375 155 
Q 453 197 493 289 
Q 534 381 534 647 
L 534 1741 
Q 534 2213 506 2350 
Q 484 2453 437 2492 
Q 391 2531 309 2531 
Q 222 2531 100 2484 
L 53 2597 
L 916 2947 
L 1050 2947 
L 1050 2338 
z
" transform="scale(0.015625)"/>
       <path id="TimesNewRomanPSMT-65" d="M 681 1784 
Q 678 1147 991 784 
Q 1303 422 1725 422 
Q 2006 422 2214 576 
Q 2422 731 2563 1106 
L 2659 1044 
Q 2594 616 2278 264 
Q 1963 -88 1488 -88 
Q 972 -88 605 314 
Q 238 716 238 1394 
Q 238 2128 614 2539 
Q 991 2950 1559 2950 
Q 2041 2950 2350 2633 
Q 2659 2316 2659 1784 
L 681 1784 
z
M 681 1966 
L 2006 1966 
Q 1991 2241 1941 2353 
Q 1863 2528 1708 2628 
Q 1553 2728 1384 2728 
Q 1125 2728 920 2526 
Q 716 2325 681 1966 
z
" transform="scale(0.015625)"/>
       <path id="TimesNewRomanPSMT-20" transform="scale(0.015625)"/>
       <path id="TimesNewRomanPSMT-5b" d="M 1900 -1269 
L 525 -1269 
L 525 4334 
L 1900 4334 
L 1900 4088 
L 994 4088 
L 994 -1025 
L 1900 -1025 
L 1900 -1269 
z
" transform="scale(0.015625)"/>
       <path id="TimesNewRomanPSMT-79" d="M 38 2863 
L 1372 2863 
L 1372 2747 
L 1306 2747 
Q 1166 2747 1095 2686 
Q 1025 2625 1025 2534 
Q 1025 2413 1128 2197 
L 1825 753 
L 2466 2334 
Q 2519 2463 2519 2588 
Q 2519 2644 2497 2672 
Q 2472 2706 2419 2726 
Q 2366 2747 2231 2747 
L 2231 2863 
L 3163 2863 
L 3163 2747 
Q 3047 2734 2984 2696 
Q 2922 2659 2847 2556 
Q 2819 2513 2741 2316 
L 1575 -541 
Q 1406 -956 1132 -1168 
Q 859 -1381 606 -1381 
Q 422 -1381 303 -1275 
Q 184 -1169 184 -1031 
Q 184 -900 270 -820 
Q 356 -741 506 -741 
Q 609 -741 788 -809 
Q 913 -856 944 -856 
Q 1038 -856 1148 -759 
Q 1259 -663 1372 -384 
L 1575 113 
L 547 2272 
Q 500 2369 397 2513 
Q 319 2622 269 2659 
Q 197 2709 38 2747 
L 38 2863 
z
" transform="scale(0.015625)"/>
       <path id="TimesNewRomanPSMT-61" d="M 1822 413 
Q 1381 72 1269 19 
Q 1100 -59 909 -59 
Q 613 -59 420 144 
Q 228 347 228 678 
Q 228 888 322 1041 
Q 450 1253 767 1440 
Q 1084 1628 1822 1897 
L 1822 2009 
Q 1822 2438 1686 2597 
Q 1550 2756 1291 2756 
Q 1094 2756 978 2650 
Q 859 2544 859 2406 
L 866 2225 
Q 866 2081 792 2003 
Q 719 1925 600 1925 
Q 484 1925 411 2006 
Q 338 2088 338 2228 
Q 338 2497 613 2722 
Q 888 2947 1384 2947 
Q 1766 2947 2009 2819 
Q 2194 2722 2281 2516 
Q 2338 2381 2338 1966 
L 2338 994 
Q 2338 584 2353 492 
Q 2369 400 2405 369 
Q 2441 338 2488 338 
Q 2538 338 2575 359 
Q 2641 400 2828 588 
L 2828 413 
Q 2478 -56 2159 -56 
Q 2006 -56 1915 50 
Q 1825 156 1822 413 
z
M 1822 616 
L 1822 1706 
Q 1350 1519 1213 1441 
Q 966 1303 859 1153 
Q 753 1003 753 825 
Q 753 600 887 451 
Q 1022 303 1197 303 
Q 1434 303 1822 616 
z
" transform="scale(0.015625)"/>
       <path id="TimesNewRomanPSMT-72" d="M 1038 2947 
L 1038 2303 
Q 1397 2947 1775 2947 
Q 1947 2947 2059 2842 
Q 2172 2738 2172 2600 
Q 2172 2478 2090 2393 
Q 2009 2309 1897 2309 
Q 1788 2309 1652 2417 
Q 1516 2525 1450 2525 
Q 1394 2525 1328 2463 
Q 1188 2334 1038 2041 
L 1038 669 
Q 1038 431 1097 309 
Q 1138 225 1241 169 
Q 1344 113 1538 113 
L 1538 0 
L 72 0 
L 72 113 
Q 291 113 397 181 
Q 475 231 506 341 
Q 522 394 522 644 
L 522 1753 
Q 522 2253 501 2348 
Q 481 2444 426 2487 
Q 372 2531 291 2531 
Q 194 2531 72 2484 
L 41 2597 
L 906 2947 
L 1038 2947 
z
" transform="scale(0.015625)"/>
       <path id="TimesNewRomanPSMT-73" d="M 2050 2947 
L 2050 1972 
L 1947 1972 
Q 1828 2431 1642 2597 
Q 1456 2763 1169 2763 
Q 950 2763 815 2647 
Q 681 2531 681 2391 
Q 681 2216 781 2091 
Q 878 1963 1175 1819 
L 1631 1597 
Q 2266 1288 2266 781 
Q 2266 391 1970 151 
Q 1675 -88 1309 -88 
Q 1047 -88 709 6 
Q 606 38 541 38 
Q 469 38 428 -44 
L 325 -44 
L 325 978 
L 428 978 
Q 516 541 762 319 
Q 1009 97 1316 97 
Q 1531 97 1667 223 
Q 1803 350 1803 528 
Q 1803 744 1651 891 
Q 1500 1038 1047 1263 
Q 594 1488 453 1669 
Q 313 1847 313 2119 
Q 313 2472 555 2709 
Q 797 2947 1181 2947 
Q 1350 2947 1591 2875 
Q 1750 2828 1803 2828 
Q 1853 2828 1881 2850 
Q 1909 2872 1947 2947 
L 2050 2947 
z
" transform="scale(0.015625)"/>
       <path id="TimesNewRomanPSMT-5d" d="M 234 4334 
L 1609 4334 
L 1609 -1272 
L 234 -1272 
L 234 -1025 
L 1141 -1025 
L 1141 4088 
L 234 4088 
L 234 4334 
z
" transform="scale(0.015625)"/>
      </defs>
      <use xlink:href="#TimesNewRomanPSMT-74"/>
      <use xlink:href="#TimesNewRomanPSMT-69" x="27.783203"/>
      <use xlink:href="#TimesNewRomanPSMT-6d" x="55.566406"/>
      <use xlink:href="#TimesNewRomanPSMT-65" x="133.349609"/>
      <use xlink:href="#TimesNewRomanPSMT-20" x="177.734375"/>
      <use xlink:href="#TimesNewRomanPSMT-5b" x="202.734375"/>
      <use xlink:href="#TimesNewRomanPSMT-79" x="236.035156"/>
      <use xlink:href="#TimesNewRomanPSMT-65" x="286.035156"/>
      <use xlink:href="#TimesNewRomanPSMT-61" x="330.419922"/>
      <use xlink:href="#TimesNewRomanPSMT-72" x="374.804688"/>
      <use xlink:href="#TimesNewRomanPSMT-73" x="408.105469"/>
      <use xlink:href="#TimesNewRomanPSMT-5d" x="447.021484"/>
     </g>
    </g>
   </g>
   <g id="matplotlib.axis_2">
    <g id="ytick_1">
     <g id="line2d_15">
      <path d="M 103.8648 245.54 
L 483.21 245.54 
" clip-path="url(#p3b25b26b79)" style="fill: none; stroke: #b0b0b0; stroke-width: 0.8; stroke-linecap: square"/>
     </g>
     <g id="line2d_16">
      <defs>
       <path id="m2e0183ffc1" d="M 0 0 
L -4 0 
" style="stroke: #008000; stroke-opacity: 0.325; stroke-width: 1.5"/>
      </defs>
      <g>
       <use xlink:href="#m2e0183ffc1" x="103.8648" y="245.54" style="fill: #008000; fill-opacity: 0.325; stroke: #008000; stroke-opacity: 0.325; stroke-width: 1.5"/>
      </g>
     </g>
     <g id="text_9">
      <!-- 0 -->
      <g style="fill: #008000; opacity: 0.325" transform="translate(94.225738 247.068125) rotate(-90) scale(0.1 -0.1)">
       <use xlink:href="#TimesNewRomanPSMT-30"/>
      </g>
     </g>
    </g>
    <g id="ytick_2">
     <g id="line2d_17">
      <path d="M 103.8648 171.913435 
L 483.21 171.913435 
" clip-path="url(#p3b25b26b79)" style="fill: none; stroke: #b0b0b0; stroke-width: 0.8; stroke-linecap: square"/>
     </g>
     <g id="line2d_18">
      <g>
       <use xlink:href="#m2e0183ffc1" x="103.8648" y="171.913435" style="fill: #008000; fill-opacity: 0.325; stroke: #008000; stroke-opacity: 0.325; stroke-width: 1.5"/>
      </g>
     </g>
     <g id="text_10">
      <!-- 800 M -->
      <g style="fill: #008000; opacity: 0.325" transform="translate(94.225738 194.33531) rotate(-90) scale(0.1 -0.1)">
       <defs>
        <path id="TimesNewRomanPSMT-38" d="M 1228 2134 
Q 725 2547 579 2797 
Q 434 3047 434 3316 
Q 434 3728 753 4026 
Q 1072 4325 1600 4325 
Q 2113 4325 2425 4047 
Q 2738 3769 2738 3413 
Q 2738 3175 2569 2928 
Q 2400 2681 1866 2347 
Q 2416 1922 2594 1678 
Q 2831 1359 2831 1006 
Q 2831 559 2490 242 
Q 2150 -75 1597 -75 
Q 994 -75 656 303 
Q 388 606 388 966 
Q 388 1247 577 1523 
Q 766 1800 1228 2134 
z
M 1719 2469 
Q 2094 2806 2194 3001 
Q 2294 3197 2294 3444 
Q 2294 3772 2109 3958 
Q 1925 4144 1606 4144 
Q 1288 4144 1088 3959 
Q 888 3775 888 3528 
Q 888 3366 970 3203 
Q 1053 3041 1206 2894 
L 1719 2469 
z
M 1375 2016 
Q 1116 1797 991 1539 
Q 866 1281 866 981 
Q 866 578 1086 336 
Q 1306 94 1647 94 
Q 1984 94 2187 284 
Q 2391 475 2391 747 
Q 2391 972 2272 1150 
Q 2050 1481 1375 2016 
z
" transform="scale(0.015625)"/>
        <path id="TimesNewRomanPSMT-2009" d="M 0 0 
L 0 0 
z
" transform="scale(0.015625)"/>
        <path id="TimesNewRomanPSMT-4d" d="M 2619 0 
L 981 3566 
L 981 734 
Q 981 344 1066 247 
Q 1181 116 1431 116 
L 1581 116 
L 1581 0 
L 106 0 
L 106 116 
L 256 116 
Q 525 116 638 278 
Q 706 378 706 734 
L 706 3503 
Q 706 3784 644 3909 
Q 600 4000 483 4061 
Q 366 4122 106 4122 
L 106 4238 
L 1306 4238 
L 2844 922 
L 4356 4238 
L 5556 4238 
L 5556 4122 
L 5409 4122 
Q 5138 4122 5025 3959 
Q 4956 3859 4956 3503 
L 4956 734 
Q 4956 344 5044 247 
Q 5159 116 5409 116 
L 5556 116 
L 5556 0 
L 3756 0 
L 3756 116 
L 3906 116 
Q 4178 116 4288 278 
Q 4356 378 4356 734 
L 4356 3566 
L 2722 0 
L 2619 0 
z
" transform="scale(0.015625)"/>
       </defs>
       <use xlink:href="#TimesNewRomanPSMT-38"/>
       <use xlink:href="#TimesNewRomanPSMT-30" x="50"/>
       <use xlink:href="#TimesNewRomanPSMT-30" x="100"/>
       <use xlink:href="#TimesNewRomanPSMT-2009" x="150"/>
       <use xlink:href="#TimesNewRomanPSMT-4d" x="170.019531"/>
      </g>
     </g>
    </g>
    <g id="ytick_3">
     <g id="line2d_19">
      <path d="M 103.8648 98.28687 
L 483.21 98.28687 
" clip-path="url(#p3b25b26b79)" style="fill: none; stroke: #b0b0b0; stroke-width: 0.8; stroke-linecap: square"/>
     </g>
     <g id="line2d_20">
      <g>
       <use xlink:href="#m2e0183ffc1" x="103.8648" y="98.28687" style="fill: #008000; fill-opacity: 0.325; stroke: #008000; stroke-opacity: 0.325; stroke-width: 1.5"/>
      </g>
     </g>
     <g id="text_11">
      <!-- 2 G -->
      <g style="fill: #008000; opacity: 0.325" transform="translate(94.225738 109.038432) rotate(-90) scale(0.1 -0.1)">
       <defs>
        <path id="TimesNewRomanPSMT-47" d="M 3928 4334 
L 4038 2997 
L 3928 2997 
Q 3763 3497 3500 3750 
Q 3122 4116 2528 4116 
Q 1719 4116 1297 3475 
Q 944 2934 944 2188 
Q 944 1581 1178 1081 
Q 1413 581 1792 348 
Q 2172 116 2572 116 
Q 2806 116 3025 175 
Q 3244 234 3447 350 
L 3447 1575 
Q 3447 1894 3398 1992 
Q 3350 2091 3248 2142 
Q 3147 2194 2891 2194 
L 2891 2313 
L 4531 2313 
L 4531 2194 
L 4453 2194 
Q 4209 2194 4119 2031 
Q 4056 1916 4056 1575 
L 4056 278 
Q 3697 84 3347 -6 
Q 2997 -97 2569 -97 
Q 1341 -97 703 691 
Q 225 1281 225 2053 
Q 225 2613 494 3125 
Q 813 3734 1369 4063 
Q 1834 4334 2469 4334 
Q 2700 4334 2889 4296 
Q 3078 4259 3425 4131 
Q 3600 4066 3659 4066 
Q 3719 4066 3761 4120 
Q 3803 4175 3813 4334 
L 3928 4334 
z
" transform="scale(0.015625)"/>
       </defs>
       <use xlink:href="#TimesNewRomanPSMT-32"/>
       <use xlink:href="#TimesNewRomanPSMT-2009" x="50"/>
       <use xlink:href="#TimesNewRomanPSMT-47" x="70.019531"/>
      </g>
     </g>
    </g>
    <g id="ytick_4">
     <g id="line2d_21">
      <path d="M 103.8648 24.660304 
L 483.21 24.660304 
" clip-path="url(#p3b25b26b79)" style="fill: none; stroke: #b0b0b0; stroke-width: 0.8; stroke-linecap: square"/>
     </g>
     <g id="line2d_22">
      <g>
       <use xlink:href="#m2e0183ffc1" x="103.8648" y="24.660304" style="fill: #008000; fill-opacity: 0.325; stroke: #008000; stroke-opacity: 0.325; stroke-width: 1.5"/>
      </g>
     </g>
     <g id="text_12">
      <!-- 2 G -->
      <g style="fill: #008000; opacity: 0.325" transform="translate(94.225738 35.411867) rotate(-90) scale(0.1 -0.1)">
       <use xlink:href="#TimesNewRomanPSMT-32"/>
       <use xlink:href="#TimesNewRomanPSMT-2009" x="50"/>
       <use xlink:href="#TimesNewRomanPSMT-47" x="70.019531"/>
      </g>
     </g>
    </g>
    <g id="text_13">
     <!-- al -->
     <g style="fill: #008000; opacity: 0.325" transform="translate(99.534488 13.761301) scale(0.12 -0.12)">
      <defs>
       <path id="TimesNewRomanPSMT-6c" d="M 1184 4444 
L 1184 647 
Q 1184 378 1223 290 
Q 1263 203 1344 158 
Q 1425 113 1647 113 
L 1647 0 
L 244 0 
L 244 113 
Q 441 113 512 153 
Q 584 194 625 287 
Q 666 381 666 647 
L 666 3247 
Q 666 3731 644 3842 
Q 622 3953 573 3993 
Q 525 4034 450 4034 
Q 369 4034 244 3984 
L 191 4094 
L 1044 4444 
L 1184 4444 
z
" transform="scale(0.015625)"/>
      </defs>
      <use xlink:href="#TimesNewRomanPSMT-61"/>
      <use xlink:href="#TimesNewRomanPSMT-6c" x="44.384766"/>
     </g>
    </g>
   </g>
   <g id="line2d_23">
    <path d="M 103.8648 162.710114 
L 108.922736 161.295605 
L 113.34843 159.838081 
L 118.406366 157.924902 
L 131.051206 152.889285 
L 139.902594 149.27236 
L 146.225014 146.4597 
L 151.915192 143.684819 
L 156.973128 140.965743 
L 160.76658 138.691433 
L 164.560032 136.158889 
L 168.353484 133.348273 
L 172.146936 130.233003 
L 180.998324 122.385347 
L 184.791776 118.752519 
L 188.585228 114.837636 
L 198.068858 104.518045 
L 203.759036 97.858987 
L 208.816972 91.630969 
L 213.242666 85.790421 
L 217.036118 80.412228 
L 220.82957 74.643119 
L 229.048716 61.936698 
L 241.693556 43.119835 
L 245.487008 38.090554 
L 248.648218 34.178667 
L 251.177186 31.345855 
L 254.338396 28.164602 
L 256.235122 26.494118 
L 258.131848 25.15899 
L 260.028574 24.181721 
L 261.9253 23.435162 
L 264.454268 22.701376 
L 267.615478 22.047059 
L 271.40893 21.473505 
L 275.202382 21.142203 
L 280.89256 20.903413 
L 287.847222 20.849095 
L 297.963094 21.020314 
L 325.1495 21.805283 
L 474.990854 26.189082 
L 483.21 26.426591 
L 483.21 26.426591 
" clip-path="url(#p3b25b26b79)" style="fill: none; stroke-dasharray: 1.4,2.31; stroke-dashoffset: 0; stroke: #008000; stroke-opacity: 0.325; stroke-width: 1.4"/>
   </g>
   <g id="line2d_24">
    <path d="M 103.8648 162.710114 
L 108.922736 161.538012 
L 122.83206 157.981913 
L 129.786722 155.93682 
L 138.63811 153.067365 
L 146.225014 150.409092 
L 150.650708 148.658248 
L 156.340886 146.12375 
L 162.031064 143.336994 
L 167.721242 140.268315 
L 171.514694 138.057883 
L 175.308146 135.602081 
L 179.101598 132.901844 
L 182.89505 129.961486 
L 187.320744 126.238235 
L 191.746438 122.203993 
L 196.172132 117.902881 
L 203.126794 110.772133 
L 208.18473 105.271575 
L 213.242666 99.458883 
L 218.932844 92.564125 
L 222.726296 87.630427 
L 226.519748 82.358739 
L 230.3132 76.735136 
L 238.532346 64.351025 
L 250.544944 46.869223 
L 253.706154 42.545664 
L 257.499606 37.732461 
L 260.028574 34.764805 
L 262.557542 32.083194 
L 265.718752 29.064466 
L 267.615478 27.504861 
L 269.512204 26.264718 
L 271.40893 25.321139 
L 273.937898 24.389972 
L 276.466866 23.737494 
L 280.260318 23.035574 
L 284.05377 22.583305 
L 289.111706 22.216702 
L 295.434126 22.017837 
L 303.02103 21.999758 
L 315.033628 22.283122 
L 394.69612 24.506249 
L 483.21 26.95069 
L 483.21 26.95069 
" clip-path="url(#p3b25b26b79)" style="fill: none; stroke: #008000; stroke-opacity: 0.325; stroke-linecap: square"/>
   </g>
   <g id="patch_3">
    <path d="M 103.8648 245.54 
L 103.8648 18.5976 
" style="fill: none; stroke: #000000; stroke-width: 0.8; stroke-linejoin: miter; stroke-linecap: square"/>
   </g>
   <g id="patch_4">
    <path d="M 483.21 245.54 
L 483.21 18.5976 
" style="fill: none; stroke: #000000; stroke-width: 0.8; stroke-linejoin: miter; stroke-linecap: square"/>
   </g>
   <g id="patch_5">
    <path d="M 103.8648 245.54 
L 483.21 245.54 
" style="fill: none; stroke: #000000; stroke-width: 0.8; stroke-linejoin: miter; stroke-linecap: square"/>
   </g>
   <g id="patch_6">
    <path d="M 103.8648 18.5976 
L 483.21 18.5976 
" style="fill: none; stroke: #000000; stroke-width: 0.8; stroke-linejoin: miter; stroke-linecap: square"/>
   </g>
  </g>
  <g id="axes_2">
   <g id="matplotlib.axis_3">
    <g id="ytick_5">
     <g id="line2d_25">
      <defs>
       <path id="m2d0b658dda" d="M 0 0 
L -4 0 
" style="stroke: #008000; stroke-opacity: 0.55; stroke-width: 1.5"/>
      </defs>
      <g>
       <use xlink:href="#m2d0b658dda" x="81.104088" y="245.54" style="fill: #008000; fill-opacity: 0.55; stroke: #008000; stroke-opacity: 0.55; stroke-width: 1.5"/>
      </g>
     </g>
     <g id="text_14">
      <!-- 0 -->
      <g style="fill: #008000; opacity: 0.55" transform="translate(71.465026 247.068125) rotate(-90) scale(0.1 -0.1)">
       <use xlink:href="#TimesNewRomanPSMT-30"/>
      </g>
     </g>
    </g>
    <g id="ytick_6">
     <g id="line2d_26">
      <g>
       <use xlink:href="#m2d0b658dda" x="81.104088" y="186.923797" style="fill: #008000; fill-opacity: 0.55; stroke: #008000; stroke-opacity: 0.55; stroke-width: 1.5"/>
      </g>
     </g>
     <g id="text_15">
      <!-- 600 M -->
      <g style="fill: #008000; opacity: 0.55" transform="translate(71.465026 209.345672) rotate(-90) scale(0.1 -0.1)">
       <defs>
        <path id="TimesNewRomanPSMT-36" d="M 2869 4325 
L 2869 4209 
Q 2456 4169 2195 4045 
Q 1934 3922 1679 3669 
Q 1425 3416 1258 3105 
Q 1091 2794 978 2366 
Q 1428 2675 1881 2675 
Q 2316 2675 2634 2325 
Q 2953 1975 2953 1425 
Q 2953 894 2631 456 
Q 2244 -75 1606 -75 
Q 1172 -75 869 213 
Q 275 772 275 1663 
Q 275 2231 503 2743 
Q 731 3256 1154 3653 
Q 1578 4050 1965 4187 
Q 2353 4325 2688 4325 
L 2869 4325 
z
M 925 2138 
Q 869 1716 869 1456 
Q 869 1156 980 804 
Q 1091 453 1309 247 
Q 1469 100 1697 100 
Q 1969 100 2183 356 
Q 2397 613 2397 1088 
Q 2397 1622 2184 2012 
Q 1972 2403 1581 2403 
Q 1463 2403 1327 2353 
Q 1191 2303 925 2138 
z
" transform="scale(0.015625)"/>
       </defs>
       <use xlink:href="#TimesNewRomanPSMT-36"/>
       <use xlink:href="#TimesNewRomanPSMT-30" x="50"/>
       <use xlink:href="#TimesNewRomanPSMT-30" x="100"/>
       <use xlink:href="#TimesNewRomanPSMT-2009" x="150"/>
       <use xlink:href="#TimesNewRomanPSMT-4d" x="170.019531"/>
      </g>
     </g>
    </g>
    <g id="ytick_7">
     <g id="line2d_27">
      <g>
       <use xlink:href="#m2d0b658dda" x="81.104088" y="128.307594" style="fill: #008000; fill-opacity: 0.55; stroke: #008000; stroke-opacity: 0.55; stroke-width: 1.5"/>
      </g>
     </g>
     <g id="text_16">
      <!-- 1 G -->
      <g style="fill: #008000; opacity: 0.55" transform="translate(71.465026 139.059156) rotate(-90) scale(0.1 -0.1)">
       <use xlink:href="#TimesNewRomanPSMT-31"/>
       <use xlink:href="#TimesNewRomanPSMT-2009" x="50"/>
       <use xlink:href="#TimesNewRomanPSMT-47" x="70.019531"/>
      </g>
     </g>
    </g>
    <g id="ytick_8">
     <g id="line2d_28">
      <g>
       <use xlink:href="#m2d0b658dda" x="81.104088" y="69.69139" style="fill: #008000; fill-opacity: 0.55; stroke: #008000; stroke-opacity: 0.55; stroke-width: 1.5"/>
      </g>
     </g>
     <g id="text_17">
      <!-- 2 G -->
      <g style="fill: #008000; opacity: 0.55" transform="translate(71.465026 80.442953) rotate(-90) scale(0.1 -0.1)">
       <use xlink:href="#TimesNewRomanPSMT-32"/>
       <use xlink:href="#TimesNewRomanPSMT-2009" x="50"/>
       <use xlink:href="#TimesNewRomanPSMT-47" x="70.019531"/>
      </g>
     </g>
    </g>
    <g id="text_18">
     <!-- pal -->
     <g style="fill: #008000; opacity: 0.55" transform="translate(73.773776 13.761301) scale(0.12 -0.12)">
      <defs>
       <path id="TimesNewRomanPSMT-70" d="M -6 2578 
L 875 2934 
L 994 2934 
L 994 2266 
Q 1216 2644 1439 2795 
Q 1663 2947 1909 2947 
Q 2341 2947 2628 2609 
Q 2981 2197 2981 1534 
Q 2981 794 2556 309 
Q 2206 -88 1675 -88 
Q 1444 -88 1275 -22 
Q 1150 25 994 166 
L 994 -706 
Q 994 -1000 1030 -1079 
Q 1066 -1159 1155 -1206 
Q 1244 -1253 1478 -1253 
L 1478 -1369 
L -22 -1369 
L -22 -1253 
L 56 -1253 
Q 228 -1256 350 -1188 
Q 409 -1153 442 -1076 
Q 475 -1000 475 -688 
L 475 2019 
Q 475 2297 450 2372 
Q 425 2447 370 2484 
Q 316 2522 222 2522 
Q 147 2522 31 2478 
L -6 2578 
z
M 994 2081 
L 994 1013 
Q 994 666 1022 556 
Q 1066 375 1236 237 
Q 1406 100 1666 100 
Q 1978 100 2172 344 
Q 2425 663 2425 1241 
Q 2425 1897 2138 2250 
Q 1938 2494 1663 2494 
Q 1513 2494 1366 2419 
Q 1253 2363 994 2081 
z
" transform="scale(0.015625)"/>
      </defs>
      <use xlink:href="#TimesNewRomanPSMT-70"/>
      <use xlink:href="#TimesNewRomanPSMT-61" x="50"/>
      <use xlink:href="#TimesNewRomanPSMT-6c" x="94.384766"/>
     </g>
    </g>
   </g>
   <g id="line2d_29">
    <path d="M 103.8648 20.844554 
L 108.922736 22.444471 
L 113.34843 24.083097 
L 117.774124 25.941297 
L 139.902594 35.958965 
L 146.225014 39.139817 
L 151.28295 41.915524 
L 156.340886 44.953833 
L 160.134338 47.48368 
L 163.92779 50.299275 
L 167.721242 53.422464 
L 171.514694 56.881786 
L 177.837114 63.145746 
L 182.262808 67.74793 
L 186.05626 72.001667 
L 190.481954 77.360263 
L 196.172132 84.51829 
L 200.597826 90.434648 
L 206.288004 98.440794 
L 210.713698 105.088278 
L 214.50715 111.186967 
L 218.300602 117.723464 
L 222.094054 124.708798 
L 228.416474 136.440321 
L 237.900104 153.986638 
L 241.693556 160.842683 
L 245.487008 167.235378 
L 248.648218 172.24742 
L 251.177186 175.888972 
L 253.706154 179.197394 
L 255.60288 181.429907 
L 257.499606 183.249746 
L 259.396332 184.626288 
L 261.293058 185.702873 
L 263.189784 186.558525 
L 265.718752 187.448195 
L 268.879962 188.322729 
L 272.041172 188.998874 
L 275.834624 189.549131 
L 280.89256 190.038784 
L 287.21498 190.411758 
L 295.434126 190.659364 
L 309.34345 190.804851 
L 342.852276 190.872551 
L 483.21 190.881796 
L 483.21 190.881796 
" clip-path="url(#p3b25b26b79)" style="fill: none; stroke-dasharray: 1.4,2.31; stroke-dashoffset: 0; stroke: #008000; stroke-opacity: 0.55; stroke-width: 1.4"/>
   </g>
   <g id="line2d_30">
    <path d="M 103.8648 20.844554 
L 108.922736 22.241625 
L 122.83206 26.428529 
L 129.786722 28.82182 
L 138.005868 31.921907 
L 145.592772 34.996919 
L 150.018466 36.988651 
L 155.708644 39.876997 
L 161.398822 43.043357 
L 167.089 46.528209 
L 171.514694 49.449534 
L 175.308146 52.242814 
L 179.101598 55.310113 
L 182.89505 58.646984 
L 187.320744 62.869472 
L 191.746438 67.445601 
L 196.172132 72.333858 
L 201.86231 78.973039 
L 206.920246 85.247461 
L 211.34594 91.06897 
L 216.403876 98.107694 
L 220.197328 103.67902 
L 223.99078 109.64137 
L 227.784232 116.016625 
L 231.577684 122.812372 
L 239.164588 136.490647 
L 254.338396 163.432763 
L 258.131848 169.49721 
L 260.660816 173.214354 
L 263.189784 176.585135 
L 265.718752 179.655928 
L 267.615478 181.621131 
L 269.512204 183.178606 
L 271.40893 184.400128 
L 273.305656 185.371298 
L 275.834624 186.368692 
L 278.995834 187.294352 
L 282.157044 188.008202 
L 286.582738 188.718222 
L 291.008432 189.211925 
L 297.330852 189.663817 
L 304.285514 189.948776 
L 314.401386 190.099485 
L 344.749002 190.294838 
L 369.40644 190.36273 
L 483.21 190.372413 
L 483.21 190.372413 
" clip-path="url(#p3b25b26b79)" style="fill: none; stroke: #008000; stroke-opacity: 0.55; stroke-linecap: square"/>
   </g>
   <g id="patch_7">
    <path d="M 81.104088 245.54 
L 81.104088 18.5976 
" style="fill: none; stroke: #000000; stroke-width: 0.8; stroke-linejoin: miter; stroke-linecap: square"/>
   </g>
   <g id="patch_8">
    <path d="M 483.21 245.54 
L 483.21 18.5976 
" style="fill: none; stroke: #000000; stroke-width: 0.8; stroke-linejoin: miter; stroke-linecap: square"/>
   </g>
   <g id="patch_9">
    <path d="M 103.8648 245.54 
L 483.21 245.54 
" style="fill: none; stroke: #000000; stroke-width: 0.8; stroke-linejoin: miter; stroke-linecap: square"/>
   </g>
   <g id="patch_10">
    <path d="M 103.8648 18.5976 
L 483.21 18.5976 
" style="fill: none; stroke: #000000; stroke-width: 0.8; stroke-linejoin: miter; stroke-linecap: square"/>
   </g>
  </g>
  <g id="axes_3">
   <g id="matplotlib.axis_4">
    <g id="ytick_9">
     <g id="line2d_31">
      <defs>
       <path id="m679b03e8c2" d="M 0 0 
L -4 0 
" style="stroke: #008000; stroke-opacity: 0.775; stroke-width: 1.5"/>
      </defs>
      <g>
       <use xlink:href="#m679b03e8c2" x="58.343376" y="245.54" style="fill: #008000; fill-opacity: 0.775; stroke: #008000; stroke-opacity: 0.775; stroke-width: 1.5"/>
      </g>
     </g>
     <g id="text_19">
      <!-- 0 -->
      <g style="fill: #008000; opacity: 0.775" transform="translate(48.704314 247.068125) rotate(-90) scale(0.1 -0.1)">
       <use xlink:href="#TimesNewRomanPSMT-30"/>
      </g>
     </g>
    </g>
    <g id="ytick_10">
     <g id="line2d_32">
      <g>
       <use xlink:href="#m679b03e8c2" x="58.343376" y="182.747999" style="fill: #008000; fill-opacity: 0.775; stroke: #008000; stroke-opacity: 0.775; stroke-width: 1.5"/>
      </g>
     </g>
     <g id="text_20">
      <!-- 25 M -->
      <g style="fill: #008000; opacity: 0.775" transform="translate(48.704314 200.169874) rotate(-90) scale(0.1 -0.1)">
       <use xlink:href="#TimesNewRomanPSMT-32"/>
       <use xlink:href="#TimesNewRomanPSMT-35" x="50"/>
       <use xlink:href="#TimesNewRomanPSMT-2009" x="100"/>
       <use xlink:href="#TimesNewRomanPSMT-4d" x="120.019531"/>
      </g>
     </g>
    </g>
    <g id="ytick_11">
     <g id="line2d_33">
      <g>
       <use xlink:href="#m679b03e8c2" x="58.343376" y="119.955999" style="fill: #008000; fill-opacity: 0.775; stroke: #008000; stroke-opacity: 0.775; stroke-width: 1.5"/>
      </g>
     </g>
     <g id="text_21">
      <!-- 50 M -->
      <g style="fill: #008000; opacity: 0.775" transform="translate(48.704314 137.377874) rotate(-90) scale(0.1 -0.1)">
       <use xlink:href="#TimesNewRomanPSMT-35"/>
       <use xlink:href="#TimesNewRomanPSMT-30" x="50"/>
       <use xlink:href="#TimesNewRomanPSMT-2009" x="100"/>
       <use xlink:href="#TimesNewRomanPSMT-4d" x="120.019531"/>
      </g>
     </g>
    </g>
    <g id="ytick_12">
     <g id="line2d_34">
      <g>
       <use xlink:href="#m679b03e8c2" x="58.343376" y="57.163998" style="fill: #008000; fill-opacity: 0.775; stroke: #008000; stroke-opacity: 0.775; stroke-width: 1.5"/>
      </g>
     </g>
     <g id="text_22">
      <!-- 75 M -->
      <g style="fill: #008000; opacity: 0.775" transform="translate(48.704314 74.585873) rotate(-90) scale(0.1 -0.1)">
       <defs>
        <path id="TimesNewRomanPSMT-37" d="M 644 4238 
L 2916 4238 
L 2916 4119 
L 1503 -88 
L 1153 -88 
L 2419 3728 
L 1253 3728 
Q 900 3728 750 3644 
Q 488 3500 328 3200 
L 238 3234 
L 644 4238 
z
" transform="scale(0.015625)"/>
       </defs>
       <use xlink:href="#TimesNewRomanPSMT-37"/>
       <use xlink:href="#TimesNewRomanPSMT-35" x="50"/>
       <use xlink:href="#TimesNewRomanPSMT-2009" x="100"/>
       <use xlink:href="#TimesNewRomanPSMT-4d" x="120.019531"/>
      </g>
     </g>
    </g>
    <g id="text_23">
     <!-- uil -->
     <g style="fill: #008000; opacity: 0.775" transform="translate(52.009626 13.761301) scale(0.12 -0.12)">
      <defs>
       <path id="TimesNewRomanPSMT-75" d="M 2709 2863 
L 2709 1128 
Q 2709 631 2732 520 
Q 2756 409 2807 365 
Q 2859 322 2928 322 
Q 3025 322 3147 375 
L 3191 266 
L 2334 -88 
L 2194 -88 
L 2194 519 
Q 1825 119 1631 15 
Q 1438 -88 1222 -88 
Q 981 -88 804 51 
Q 628 191 559 409 
Q 491 628 491 1028 
L 491 2306 
Q 491 2509 447 2587 
Q 403 2666 317 2708 
Q 231 2750 6 2747 
L 6 2863 
L 1009 2863 
L 1009 947 
Q 1009 547 1148 422 
Q 1288 297 1484 297 
Q 1619 297 1789 381 
Q 1959 466 2194 703 
L 2194 2325 
Q 2194 2569 2105 2655 
Q 2016 2741 1734 2747 
L 1734 2863 
L 2709 2863 
z
" transform="scale(0.015625)"/>
      </defs>
      <use xlink:href="#TimesNewRomanPSMT-75"/>
      <use xlink:href="#TimesNewRomanPSMT-69" x="50"/>
      <use xlink:href="#TimesNewRomanPSMT-6c" x="77.783203"/>
     </g>
    </g>
   </g>
   <g id="line2d_35">
    <path d="M 103.8648 224.944224 
L 113.34843 223.331414 
L 121.567576 221.659727 
L 129.786722 219.776139 
L 137.373626 217.803772 
L 143.696046 215.933012 
L 149.386224 214.027992 
L 155.076402 211.873392 
L 158.237612 210.508624 
L 162.031064 208.625465 
L 165.824516 206.493063 
L 169.617968 204.112729 
L 173.41142 201.476419 
L 177.204872 198.570597 
L 180.998324 195.381284 
L 184.791776 191.892042 
L 187.320744 189.299218 
L 189.849712 186.329329 
L 192.37868 183.008574 
L 194.907648 179.36214 
L 198.068858 174.368917 
L 201.230068 168.909264 
L 204.391278 162.993782 
L 207.552488 156.62567 
L 210.713698 149.804178 
L 213.874908 142.525779 
L 217.66836 133.18098 
L 221.461812 123.160551 
L 225.255264 112.452485 
L 229.048716 101.044369 
L 232.842168 88.915563 
L 236.63562 76.049363 
L 245.487008 45.377234 
L 248.015976 37.42018 
L 249.912702 32.184504 
L 251.809428 27.657049 
L 253.706154 23.861591 
L 254.970638 21.832691 
L 255.60288 21.213258 
L 256.235122 20.88887 
L 258.131848 20.844554 
L 483.21 20.844554 
L 483.21 20.844554 
" clip-path="url(#p3b25b26b79)" style="fill: none; stroke-dasharray: 1.4,2.31; stroke-dashoffset: 0; stroke: #008000; stroke-opacity: 0.775; stroke-width: 1.4"/>
   </g>
   <g id="line2d_36">
    <path d="M 103.8648 224.944224 
L 122.83206 221.885551 
L 130.418964 220.388944 
L 139.270352 218.389297 
L 148.753982 216.03454 
L 154.44416 214.393472 
L 159.502096 212.746174 
L 163.92779 211.0705 
L 168.353484 209.168243 
L 172.779178 207.019876 
L 176.57263 204.938918 
L 180.366082 202.604933 
L 184.159534 200.003205 
L 187.952986 197.114843 
L 191.114196 194.458325 
L 194.275406 191.544729 
L 197.436616 188.339693 
L 199.965584 185.489241 
L 202.494552 182.338209 
L 205.655762 177.976096 
L 208.816972 173.137456 
L 211.978182 167.794193 
L 215.139392 161.954435 
L 218.300602 155.674768 
L 221.461812 148.961561 
L 224.623022 141.801692 
L 228.416474 132.605513 
L 232.209926 122.793478 
L 236.003378 112.32678 
L 239.79683 101.143 
L 243.590282 89.255092 
L 247.383734 76.700819 
L 256.235122 46.77882 
L 258.76409 38.98542 
L 260.660816 33.82162 
L 262.557542 29.344746 
L 264.454268 25.617289 
L 265.718752 23.542913 
L 266.350994 22.794723 
L 266.983236 22.353148 
L 268.24772 22.228843 
L 273.937898 22.290229 
L 284.05377 22.369875 
L 302.388788 22.365167 
L 314.401386 22.350897 
L 428.204946 22.500944 
L 483.21 22.43856 
L 483.21 22.43856 
" clip-path="url(#p3b25b26b79)" style="fill: none; stroke: #008000; stroke-opacity: 0.775; stroke-linecap: square"/>
   </g>
   <g id="patch_11">
    <path d="M 58.343376 245.54 
L 58.343376 18.5976 
" style="fill: none; stroke: #000000; stroke-width: 0.8; stroke-linejoin: miter; stroke-linecap: square"/>
   </g>
   <g id="patch_12">
    <path d="M 483.21 245.54 
L 483.21 18.5976 
" style="fill: none; stroke: #000000; stroke-width: 0.8; stroke-linejoin: miter; stroke-linecap: square"/>
   </g>
   <g id="patch_13">
    <path d="M 103.8648 245.54 
L 483.21 245.54 
" style="fill: none; stroke: #000000; stroke-width: 0.8; stroke-linejoin: miter; stroke-linecap: square"/>
   </g>
   <g id="patch_14">
    <path d="M 103.8648 18.5976 
L 483.21 18.5976 
" style="fill: none; stroke: #000000; stroke-width: 0.8; stroke-linejoin: miter; stroke-linecap: square"/>
   </g>
  </g>
  <g id="axes_4">
   <g id="matplotlib.axis_5">
    <g id="ytick_13">
     <g id="line2d_37">
      <defs>
       <path id="me2732fb54c" d="M 0 0 
L -4 0 
" style="stroke: #008000; stroke-width: 1.5"/>
      </defs>
      <g>
       <use xlink:href="#me2732fb54c" x="35.582664" y="245.54" style="fill: #008000; stroke: #008000; stroke-width: 1.5"/>
      </g>
     </g>
     <g id="text_24">
      <!-- 0 -->
      <g style="fill: #008000" transform="translate(25.943602 247.068125) rotate(-90) scale(0.1 -0.1)">
       <use xlink:href="#TimesNewRomanPSMT-30"/>
      </g>
     </g>
    </g>
    <g id="ytick_14">
     <g id="line2d_38">
      <g>
       <use xlink:href="#me2732fb54c" x="35.582664" y="170.641518" style="fill: #008000; stroke: #008000; stroke-width: 1.5"/>
      </g>
     </g>
     <g id="text_25">
      <!-- 200 -->
      <g style="fill: #008000" transform="translate(25.943602 182.169643) rotate(-90) scale(0.1 -0.1)">
       <use xlink:href="#TimesNewRomanPSMT-32"/>
       <use xlink:href="#TimesNewRomanPSMT-30" x="50"/>
       <use xlink:href="#TimesNewRomanPSMT-30" x="100"/>
      </g>
     </g>
    </g>
    <g id="ytick_15">
     <g id="line2d_39">
      <g>
       <use xlink:href="#me2732fb54c" x="35.582664" y="95.743036" style="fill: #008000; stroke: #008000; stroke-width: 1.5"/>
      </g>
     </g>
     <g id="text_26">
      <!-- 400 -->
      <g style="fill: #008000" transform="translate(25.943602 107.271161) rotate(-90) scale(0.1 -0.1)">
       <defs>
        <path id="TimesNewRomanPSMT-34" d="M 2978 1563 
L 2978 1119 
L 2409 1119 
L 2409 0 
L 1894 0 
L 1894 1119 
L 100 1119 
L 100 1519 
L 2066 4325 
L 2409 4325 
L 2409 1563 
L 2978 1563 
z
M 1894 1563 
L 1894 3666 
L 406 1563 
L 1894 1563 
z
" transform="scale(0.015625)"/>
       </defs>
       <use xlink:href="#TimesNewRomanPSMT-34"/>
       <use xlink:href="#TimesNewRomanPSMT-30" x="50"/>
       <use xlink:href="#TimesNewRomanPSMT-30" x="100"/>
      </g>
     </g>
    </g>
    <g id="ytick_16">
     <g id="line2d_40">
      <g>
       <use xlink:href="#me2732fb54c" x="35.582664" y="20.844554" style="fill: #008000; stroke: #008000; stroke-width: 1.5"/>
      </g>
     </g>
     <g id="text_27">
      <!-- 600 -->
      <g style="fill: #008000" transform="translate(25.943602 32.372679) rotate(-90) scale(0.1 -0.1)">
       <use xlink:href="#TimesNewRomanPSMT-36"/>
       <use xlink:href="#TimesNewRomanPSMT-30" x="50"/>
       <use xlink:href="#TimesNewRomanPSMT-30" x="100"/>
      </g>
     </g>
    </g>
    <g id="text_28">
     <!-- lfert -->
     <g style="fill: #008000" transform="translate(25.589852 13.761301) scale(0.12 -0.12)">
      <defs>
       <path id="TimesNewRomanPSMT-66" d="M 1319 2638 
L 1319 756 
Q 1319 356 1406 250 
Q 1522 113 1716 113 
L 1975 113 
L 1975 0 
L 266 0 
L 266 113 
L 394 113 
Q 519 113 622 175 
Q 725 238 764 344 
Q 803 450 803 756 
L 803 2638 
L 247 2638 
L 247 2863 
L 803 2863 
L 803 3050 
Q 803 3478 940 3775 
Q 1078 4072 1361 4255 
Q 1644 4438 1997 4438 
Q 2325 4438 2600 4225 
Q 2781 4084 2781 3909 
Q 2781 3816 2700 3733 
Q 2619 3650 2525 3650 
Q 2453 3650 2373 3701 
Q 2294 3753 2178 3923 
Q 2063 4094 1966 4153 
Q 1869 4213 1750 4213 
Q 1606 4213 1506 4136 
Q 1406 4059 1362 3898 
Q 1319 3738 1319 3069 
L 1319 2863 
L 2056 2863 
L 2056 2638 
L 1319 2638 
z
" transform="scale(0.015625)"/>
      </defs>
      <use xlink:href="#TimesNewRomanPSMT-6c"/>
      <use xlink:href="#TimesNewRomanPSMT-66" x="27.783203"/>
      <use xlink:href="#TimesNewRomanPSMT-65" x="61.083984"/>
      <use xlink:href="#TimesNewRomanPSMT-72" x="105.46875"/>
      <use xlink:href="#TimesNewRomanPSMT-74" x="138.769531"/>
     </g>
    </g>
   </g>
   <g id="line2d_41">
    <path d="M 103.8648 20.844554 
L 105.129284 21.199945 
L 107.02601 21.426158 
L 110.18722 21.478923 
L 119.67085 21.476377 
L 125.99327 21.747178 
L 134.844658 22.383664 
L 155.076402 23.902906 
L 170.882452 24.954819 
L 184.791776 26.249895 
L 193.643164 27.231868 
L 198.7011 28.03898 
L 203.759036 29.076487 
L 208.816972 30.357906 
L 213.242666 31.697206 
L 217.66836 33.257392 
L 222.094054 35.042857 
L 226.519748 37.047124 
L 231.577684 39.574924 
L 236.003378 42.003538 
L 240.429072 44.689675 
L 243.590282 46.802262 
L 246.751492 49.187514 
L 249.28046 51.331056 
L 251.809428 53.744472 
L 254.338396 56.452823 
L 256.867364 59.452145 
L 258.76409 62.004004 
L 260.660816 64.891007 
L 262.557542 68.317141 
L 265.08651 73.496898 
L 266.983236 78.012772 
L 270.776688 87.907231 
L 273.937898 96.537378 
L 275.834624 101.066596 
L 277.099108 103.642412 
L 278.363592 105.805718 
L 279.628076 107.526184 
L 280.89256 108.785273 
L 282.157044 109.574119 
L 282.789286 109.791436 
L 284.05377 109.913096 
L 285.318254 109.846952 
L 286.582738 109.608915 
L 287.847222 109.186893 
L 289.111706 108.57895 
L 290.37619 107.78835 
L 292.272916 106.282195 
L 295.434126 103.377577 
L 298.595336 100.20085 
L 301.756546 96.711307 
L 305.549998 92.142083 
L 309.975692 86.429969 
L 323.252774 68.99955 
L 328.31071 62.793889 
L 332.736404 57.697345 
L 337.162098 52.967058 
L 340.95555 49.223142 
L 344.749002 45.776477 
L 348.542454 42.632602 
L 352.335906 39.794719 
L 356.129358 37.262479 
L 359.92281 35.013526 
L 363.716262 33.018819 
L 367.509714 31.255056 
L 371.935408 29.462776 
L 376.361102 27.930115 
L 380.786796 26.631085 
L 385.844732 25.399856 
L 390.902668 24.403142 
L 396.592846 23.517686 
L 402.915266 22.771915 
L 409.869928 22.176333 
L 418.089074 21.695065 
L 428.204946 21.327009 
L 442.11427 21.060691 
L 462.978256 20.906715 
L 483.21 20.862572 
L 483.21 20.862572 
" clip-path="url(#p3b25b26b79)" style="fill: none; stroke-dasharray: 1.4,2.31; stroke-dashoffset: 0; stroke: #008000; stroke-width: 1.4"/>
   </g>
   <g id="line2d_42">
    <path d="M 103.8648 20.844554 
L 110.18722 21.692009 
L 115.245156 22.12032 
L 122.199818 22.466264 
L 141.79932 23.329777 
L 153.811918 24.171211 
L 170.882452 25.462718 
L 182.262808 26.279778 
L 194.907648 27.496541 
L 203.759036 28.520426 
L 208.816972 29.361053 
L 213.874908 30.451899 
L 219.565086 31.929073 
L 224.623022 33.46086 
L 229.048716 35.011908 
L 233.47441 36.80862 
L 238.532346 39.123045 
L 242.95804 41.403084 
L 247.383734 43.905269 
L 251.809428 46.666008 
L 254.970638 48.886498 
L 258.131848 51.356983 
L 260.660816 53.584342 
L 263.189784 56.096205 
L 265.718752 58.894844 
L 268.24772 61.97598 
L 270.144446 64.646224 
L 272.041172 67.694177 
L 273.937898 71.150389 
L 276.466866 76.377111 
L 278.363592 80.921096 
L 280.260318 85.938592 
L 285.318254 99.931566 
L 287.21498 104.211962 
L 288.479464 106.61831 
L 289.743948 108.604112 
L 291.008432 110.122789 
L 292.272916 111.190085 
L 293.5374 111.818847 
L 294.801884 112.020236 
L 296.066368 111.944049 
L 297.330852 111.666803 
L 298.595336 111.20929 
L 300.492062 110.220519 
L 302.388788 108.88794 
L 304.285514 107.220169 
L 307.446724 103.965369 
L 311.872418 99.059874 
L 315.66587 94.546776 
L 320.723806 88.05106 
L 335.265372 69.126334 
L 339.691066 63.73717 
L 344.749002 57.974058 
L 348.542454 53.926655 
L 352.968148 49.576299 
L 356.7616 46.144977 
L 359.92281 43.540367 
L 363.716262 40.712689 
L 367.509714 38.187999 
L 371.303166 35.938221 
L 375.096618 33.931096 
L 378.89007 32.146228 
L 382.683522 30.583506 
L 386.476974 29.246158 
L 390.902668 27.925946 
L 395.960604 26.6408 
L 401.01854 25.583203 
L 406.708718 24.635958 
L 413.031138 23.829164 
L 419.9858 23.18528 
L 427.572704 22.72409 
L 438.320818 22.318273 
L 451.5979 22.030069 
L 468.668434 21.906175 
L 483.21 21.91013 
L 483.21 21.91013 
" clip-path="url(#p3b25b26b79)" style="fill: none; stroke: #008000; stroke-linecap: square"/>
   </g>
   <g id="patch_15">
    <path d="M 35.582664 245.54 
L 35.582664 18.5976 
" style="fill: none; stroke: #000000; stroke-width: 0.8; stroke-linejoin: miter; stroke-linecap: square"/>
   </g>
   <g id="patch_16">
    <path d="M 483.21 245.54 
L 483.21 18.5976 
" style="fill: none; stroke: #000000; stroke-width: 0.8; stroke-linejoin: miter; stroke-linecap: square"/>
   </g>
   <g id="patch_17">
    <path d="M 103.8648 245.54 
L 483.21 245.54 
" style="fill: none; stroke: #000000; stroke-width: 0.8; stroke-linejoin: miter; stroke-linecap: square"/>
   </g>
   <g id="patch_18">
    <path d="M 103.8648 18.5976 
L 483.21 18.5976 
" style="fill: none; stroke: #000000; stroke-width: 0.8; stroke-linejoin: miter; stroke-linecap: square"/>
   </g>
  </g>
 </g>
 <defs>
  <clipPath id="p3b25b26b79">
   <rect x="103.8648" y="18.5976" width="379.3452" height="226.9424"/>
  </clipPath>
 </defs>
</svg>
