<?xml version="1.0" encoding="utf-8" standalone="no"?>
<!DOCTYPE svg PUBLIC "-//W3C//DTD SVG 1.1//EN"
  "http://www.w3.org/Graphics/SVG/1.1/DTD/svg11.dtd">
<svg xmlns:xlink="http://www.w3.org/1999/xlink" width="432pt" height="216pt" viewBox="0 0 432 216" xmlns="http://www.w3.org/2000/svg" version="1.1">
 <metadata>
  <rdf:RDF xmlns:dc="http://purl.org/dc/elements/1.1/" xmlns:cc="http://creativecommons.org/ns#" xmlns:rdf="http://www.w3.org/1999/02/22-rdf-syntax-ns#">
   <cc:Work>
    <dc:type rdf:resource="http://purl.org/dc/dcmitype/StillImage"/>
    <dc:date>2024-05-12T22:28:37.824974</dc:date>
    <dc:format>image/svg+xml</dc:format>
    <dc:creator>
     <cc:Agent>
      <dc:title>Matplotlib v3.8.2, https://matplotlib.org/</dc:title>
     </cc:Agent>
    </dc:creator>
   </cc:Work>
  </rdf:RDF>
 </metadata>
 <defs>
  <style type="text/css">*{stroke-linejoin: round; stroke-linecap: butt}</style>
 </defs>
 <g id="figure_1">
  <g id="patch_1">
   <path d="M 0 216 
L 432 216 
L 432 0 
L 0 0 
z
" style="fill: #ffffff"/>
  </g>
  <g id="axes_1">
   <g id="patch_2">
    <path d="M 97.605 173.54 
L 411.21 173.54 
L 411.21 41.4432 
L 97.605 41.4432 
z
" style="fill: #ffffff"/>
   </g>
   <g id="matplotlib.axis_1">
    <g id="xtick_1">
     <g id="line2d_1">
      <path d="M 97.605 173.54 
L 97.605 41.4432 
" clip-path="url(#pdf89c34d35)" style="fill: none; stroke: #b0b0b0; stroke-width: 0.8; stroke-linecap: square"/>
     </g>
     <g id="line2d_2">
      <defs>
       <path id="m0f8bc58d5f" d="M 0 0 
L 0 4 
" style="stroke: #000000; stroke-width: 1.5"/>
      </defs>
      <g>
       <use xlink:href="#m0f8bc58d5f" x="97.605" y="173.54" style="stroke: #000000; stroke-width: 1.5"/>
      </g>
     </g>
     <g id="text_1">
      <!-- 1900 -->
      <g transform="translate(87.605 187.98375) scale(0.1 -0.1)">
       <defs>
        <path id="TimesNewRomanPSMT-31" d="M 750 3822 
L 1781 4325 
L 1884 4325 
L 1884 747 
Q 1884 391 1914 303 
Q 1944 216 2037 169 
Q 2131 122 2419 116 
L 2419 0 
L 825 0 
L 825 116 
Q 1125 122 1212 167 
Q 1300 213 1334 289 
Q 1369 366 1369 747 
L 1369 3034 
Q 1369 3497 1338 3628 
Q 1316 3728 1258 3775 
Q 1200 3822 1119 3822 
Q 1003 3822 797 3725 
L 750 3822 
z
" transform="scale(0.015625)"/>
        <path id="TimesNewRomanPSMT-39" d="M 338 -88 
L 338 28 
Q 744 34 1094 217 
Q 1444 400 1770 856 
Q 2097 1313 2225 1859 
Q 1734 1544 1338 1544 
Q 891 1544 572 1889 
Q 253 2234 253 2806 
Q 253 3363 572 3797 
Q 956 4325 1575 4325 
Q 2097 4325 2469 3894 
Q 2925 3359 2925 2575 
Q 2925 1869 2578 1258 
Q 2231 647 1613 244 
Q 1109 -88 516 -88 
L 338 -88 
z
M 2275 2091 
Q 2331 2497 2331 2741 
Q 2331 3044 2228 3395 
Q 2125 3747 1936 3934 
Q 1747 4122 1506 4122 
Q 1228 4122 1018 3872 
Q 809 3622 809 3128 
Q 809 2469 1088 2097 
Q 1291 1828 1588 1828 
Q 1731 1828 1928 1897 
Q 2125 1966 2275 2091 
z
" transform="scale(0.015625)"/>
        <path id="TimesNewRomanPSMT-30" d="M 231 2094 
Q 231 2819 450 3342 
Q 669 3866 1031 4122 
Q 1313 4325 1613 4325 
Q 2100 4325 2488 3828 
Q 2972 3213 2972 2159 
Q 2972 1422 2759 906 
Q 2547 391 2217 158 
Q 1888 -75 1581 -75 
Q 975 -75 572 641 
Q 231 1244 231 2094 
z
M 844 2016 
Q 844 1141 1059 588 
Q 1238 122 1591 122 
Q 1759 122 1940 273 
Q 2122 425 2216 781 
Q 2359 1319 2359 2297 
Q 2359 3022 2209 3506 
Q 2097 3866 1919 4016 
Q 1791 4119 1609 4119 
Q 1397 4119 1231 3928 
Q 1006 3669 925 3112 
Q 844 2556 844 2016 
z
" transform="scale(0.015625)"/>
       </defs>
       <use xlink:href="#TimesNewRomanPSMT-31"/>
       <use xlink:href="#TimesNewRomanPSMT-39" x="50"/>
       <use xlink:href="#TimesNewRomanPSMT-30" x="100"/>
       <use xlink:href="#TimesNewRomanPSMT-30" x="150"/>
      </g>
     </g>
    </g>
    <g id="xtick_2">
     <g id="line2d_3">
      <path d="M 149.8725 173.54 
L 149.8725 41.4432 
" clip-path="url(#pdf89c34d35)" style="fill: none; stroke: #b0b0b0; stroke-width: 0.8; stroke-linecap: square"/>
     </g>
     <g id="line2d_4">
      <g>
       <use xlink:href="#m0f8bc58d5f" x="149.8725" y="173.54" style="stroke: #000000; stroke-width: 1.5"/>
      </g>
     </g>
     <g id="text_2">
      <!-- 1950 -->
      <g transform="translate(139.8725 187.98375) scale(0.1 -0.1)">
       <defs>
        <path id="TimesNewRomanPSMT-35" d="M 2778 4238 
L 2534 3706 
L 1259 3706 
L 981 3138 
Q 1809 3016 2294 2522 
Q 2709 2097 2709 1522 
Q 2709 1188 2573 903 
Q 2438 619 2231 419 
Q 2025 219 1772 97 
Q 1413 -75 1034 -75 
Q 653 -75 479 54 
Q 306 184 306 341 
Q 306 428 378 495 
Q 450 563 559 563 
Q 641 563 702 538 
Q 763 513 909 409 
Q 1144 247 1384 247 
Q 1750 247 2026 523 
Q 2303 800 2303 1197 
Q 2303 1581 2056 1914 
Q 1809 2247 1375 2428 
Q 1034 2569 447 2591 
L 1259 4238 
L 2778 4238 
z
" transform="scale(0.015625)"/>
       </defs>
       <use xlink:href="#TimesNewRomanPSMT-31"/>
       <use xlink:href="#TimesNewRomanPSMT-39" x="50"/>
       <use xlink:href="#TimesNewRomanPSMT-35" x="100"/>
       <use xlink:href="#TimesNewRomanPSMT-30" x="150"/>
      </g>
     </g>
    </g>
    <g id="xtick_3">
     <g id="line2d_5">
      <path d="M 202.14 173.54 
L 202.14 41.4432 
" clip-path="url(#pdf89c34d35)" style="fill: none; stroke: #b0b0b0; stroke-width: 0.8; stroke-linecap: square"/>
     </g>
     <g id="line2d_6">
      <g>
       <use xlink:href="#m0f8bc58d5f" x="202.14" y="173.54" style="stroke: #000000; stroke-width: 1.5"/>
      </g>
     </g>
     <g id="text_3">
      <!-- 2000 -->
      <g transform="translate(192.14 187.98375) scale(0.1 -0.1)">
       <defs>
        <path id="TimesNewRomanPSMT-32" d="M 2934 816 
L 2638 0 
L 138 0 
L 138 116 
Q 1241 1122 1691 1759 
Q 2141 2397 2141 2925 
Q 2141 3328 1894 3587 
Q 1647 3847 1303 3847 
Q 991 3847 742 3664 
Q 494 3481 375 3128 
L 259 3128 
Q 338 3706 661 4015 
Q 984 4325 1469 4325 
Q 1984 4325 2329 3994 
Q 2675 3663 2675 3213 
Q 2675 2891 2525 2569 
Q 2294 2063 1775 1497 
Q 997 647 803 472 
L 1909 472 
Q 2247 472 2383 497 
Q 2519 522 2628 598 
Q 2738 675 2819 816 
L 2934 816 
z
" transform="scale(0.015625)"/>
       </defs>
       <use xlink:href="#TimesNewRomanPSMT-32"/>
       <use xlink:href="#TimesNewRomanPSMT-30" x="50"/>
       <use xlink:href="#TimesNewRomanPSMT-30" x="100"/>
       <use xlink:href="#TimesNewRomanPSMT-30" x="150"/>
      </g>
     </g>
    </g>
    <g id="xtick_4">
     <g id="line2d_7">
      <path d="M 254.4075 173.54 
L 254.4075 41.4432 
" clip-path="url(#pdf89c34d35)" style="fill: none; stroke: #b0b0b0; stroke-width: 0.8; stroke-linecap: square"/>
     </g>
     <g id="line2d_8">
      <g>
       <use xlink:href="#m0f8bc58d5f" x="254.4075" y="173.54" style="stroke: #000000; stroke-width: 1.5"/>
      </g>
     </g>
     <g id="text_4">
      <!-- 2050 -->
      <g transform="translate(244.4075 187.98375) scale(0.1 -0.1)">
       <use xlink:href="#TimesNewRomanPSMT-32"/>
       <use xlink:href="#TimesNewRomanPSMT-30" x="50"/>
       <use xlink:href="#TimesNewRomanPSMT-35" x="100"/>
       <use xlink:href="#TimesNewRomanPSMT-30" x="150"/>
      </g>
     </g>
    </g>
    <g id="xtick_5">
     <g id="line2d_9">
      <path d="M 306.675 173.54 
L 306.675 41.4432 
" clip-path="url(#pdf89c34d35)" style="fill: none; stroke: #b0b0b0; stroke-width: 0.8; stroke-linecap: square"/>
     </g>
     <g id="line2d_10">
      <g>
       <use xlink:href="#m0f8bc58d5f" x="306.675" y="173.54" style="stroke: #000000; stroke-width: 1.5"/>
      </g>
     </g>
     <g id="text_5">
      <!-- 2100 -->
      <g transform="translate(296.675 187.98375) scale(0.1 -0.1)">
       <use xlink:href="#TimesNewRomanPSMT-32"/>
       <use xlink:href="#TimesNewRomanPSMT-31" x="50"/>
       <use xlink:href="#TimesNewRomanPSMT-30" x="100"/>
       <use xlink:href="#TimesNewRomanPSMT-30" x="150"/>
      </g>
     </g>
    </g>
    <g id="xtick_6">
     <g id="line2d_11">
      <path d="M 358.9425 173.54 
L 358.9425 41.4432 
" clip-path="url(#pdf89c34d35)" style="fill: none; stroke: #b0b0b0; stroke-width: 0.8; stroke-linecap: square"/>
     </g>
     <g id="line2d_12">
      <g>
       <use xlink:href="#m0f8bc58d5f" x="358.9425" y="173.54" style="stroke: #000000; stroke-width: 1.5"/>
      </g>
     </g>
     <g id="text_6">
      <!-- 2150 -->
      <g transform="translate(348.9425 187.98375) scale(0.1 -0.1)">
       <use xlink:href="#TimesNewRomanPSMT-32"/>
       <use xlink:href="#TimesNewRomanPSMT-31" x="50"/>
       <use xlink:href="#TimesNewRomanPSMT-35" x="100"/>
       <use xlink:href="#TimesNewRomanPSMT-30" x="150"/>
      </g>
     </g>
    </g>
    <g id="xtick_7">
     <g id="line2d_13">
      <path d="M 411.21 173.54 
L 411.21 41.4432 
" clip-path="url(#pdf89c34d35)" style="fill: none; stroke: #b0b0b0; stroke-width: 0.8; stroke-linecap: square"/>
     </g>
     <g id="line2d_14">
      <g>
       <use xlink:href="#m0f8bc58d5f" x="411.21" y="173.54" style="stroke: #000000; stroke-width: 1.5"/>
      </g>
     </g>
     <g id="text_7">
      <!-- 2200 -->
      <g transform="translate(401.21 187.98375) scale(0.1 -0.1)">
       <use xlink:href="#TimesNewRomanPSMT-32"/>
       <use xlink:href="#TimesNewRomanPSMT-32" x="50"/>
       <use xlink:href="#TimesNewRomanPSMT-30" x="100"/>
       <use xlink:href="#TimesNewRomanPSMT-30" x="150"/>
      </g>
     </g>
    </g>
    <g id="text_8">
     <!-- time [years] -->
     <g transform="translate(225.587813 202.455312) scale(0.12 -0.12)">
      <defs>
       <path id="TimesNewRomanPSMT-74" d="M 1031 3803 
L 1031 2863 
L 1700 2863 
L 1700 2644 
L 1031 2644 
L 1031 788 
Q 1031 509 1111 412 
Q 1191 316 1316 316 
Q 1419 316 1516 380 
Q 1613 444 1666 569 
L 1788 569 
Q 1678 263 1478 108 
Q 1278 -47 1066 -47 
Q 922 -47 784 33 
Q 647 113 581 261 
Q 516 409 516 719 
L 516 2644 
L 63 2644 
L 63 2747 
Q 234 2816 414 2980 
Q 594 3144 734 3369 
Q 806 3488 934 3803 
L 1031 3803 
z
" transform="scale(0.015625)"/>
       <path id="TimesNewRomanPSMT-69" d="M 928 4444 
Q 1059 4444 1151 4351 
Q 1244 4259 1244 4128 
Q 1244 3997 1151 3903 
Q 1059 3809 928 3809 
Q 797 3809 703 3903 
Q 609 3997 609 4128 
Q 609 4259 701 4351 
Q 794 4444 928 4444 
z
M 1188 2947 
L 1188 647 
Q 1188 378 1227 289 
Q 1266 200 1342 156 
Q 1419 113 1622 113 
L 1622 0 
L 231 0 
L 231 113 
Q 441 113 512 153 
Q 584 194 626 287 
Q 669 381 669 647 
L 669 1750 
Q 669 2216 641 2353 
Q 619 2453 572 2492 
Q 525 2531 444 2531 
Q 356 2531 231 2484 
L 188 2597 
L 1050 2947 
L 1188 2947 
z
" transform="scale(0.015625)"/>
       <path id="TimesNewRomanPSMT-6d" d="M 1050 2338 
Q 1363 2650 1419 2697 
Q 1559 2816 1721 2881 
Q 1884 2947 2044 2947 
Q 2313 2947 2506 2790 
Q 2700 2634 2766 2338 
Q 3088 2713 3309 2830 
Q 3531 2947 3766 2947 
Q 3994 2947 4170 2830 
Q 4347 2713 4450 2447 
Q 4519 2266 4519 1878 
L 4519 647 
Q 4519 378 4559 278 
Q 4591 209 4675 161 
Q 4759 113 4950 113 
L 4950 0 
L 3538 0 
L 3538 113 
L 3597 113 
Q 3781 113 3884 184 
Q 3956 234 3988 344 
Q 4000 397 4000 647 
L 4000 1878 
Q 4000 2228 3916 2372 
Q 3794 2572 3525 2572 
Q 3359 2572 3192 2489 
Q 3025 2406 2788 2181 
L 2781 2147 
L 2788 2013 
L 2788 647 
Q 2788 353 2820 281 
Q 2853 209 2943 161 
Q 3034 113 3253 113 
L 3253 0 
L 1806 0 
L 1806 113 
Q 2044 113 2133 169 
Q 2222 225 2256 338 
Q 2272 391 2272 647 
L 2272 1878 
Q 2272 2228 2169 2381 
Q 2031 2581 1784 2581 
Q 1616 2581 1450 2491 
Q 1191 2353 1050 2181 
L 1050 647 
Q 1050 366 1089 281 
Q 1128 197 1204 155 
Q 1281 113 1516 113 
L 1516 0 
L 100 0 
L 100 113 
Q 297 113 375 155 
Q 453 197 493 289 
Q 534 381 534 647 
L 534 1741 
Q 534 2213 506 2350 
Q 484 2453 437 2492 
Q 391 2531 309 2531 
Q 222 2531 100 2484 
L 53 2597 
L 916 2947 
L 1050 2947 
L 1050 2338 
z
" transform="scale(0.015625)"/>
       <path id="TimesNewRomanPSMT-65" d="M 681 1784 
Q 678 1147 991 784 
Q 1303 422 1725 422 
Q 2006 422 2214 576 
Q 2422 731 2563 1106 
L 2659 1044 
Q 2594 616 2278 264 
Q 1963 -88 1488 -88 
Q 972 -88 605 314 
Q 238 716 238 1394 
Q 238 2128 614 2539 
Q 991 2950 1559 2950 
Q 2041 2950 2350 2633 
Q 2659 2316 2659 1784 
L 681 1784 
z
M 681 1966 
L 2006 1966 
Q 1991 2241 1941 2353 
Q 1863 2528 1708 2628 
Q 1553 2728 1384 2728 
Q 1125 2728 920 2526 
Q 716 2325 681 1966 
z
" transform="scale(0.015625)"/>
       <path id="TimesNewRomanPSMT-20" transform="scale(0.015625)"/>
       <path id="TimesNewRomanPSMT-5b" d="M 1900 -1269 
L 525 -1269 
L 525 4334 
L 1900 4334 
L 1900 4088 
L 994 4088 
L 994 -1025 
L 1900 -1025 
L 1900 -1269 
z
" transform="scale(0.015625)"/>
       <path id="TimesNewRomanPSMT-79" d="M 38 2863 
L 1372 2863 
L 1372 2747 
L 1306 2747 
Q 1166 2747 1095 2686 
Q 1025 2625 1025 2534 
Q 1025 2413 1128 2197 
L 1825 753 
L 2466 2334 
Q 2519 2463 2519 2588 
Q 2519 2644 2497 2672 
Q 2472 2706 2419 2726 
Q 2366 2747 2231 2747 
L 2231 2863 
L 3163 2863 
L 3163 2747 
Q 3047 2734 2984 2696 
Q 2922 2659 2847 2556 
Q 2819 2513 2741 2316 
L 1575 -541 
Q 1406 -956 1132 -1168 
Q 859 -1381 606 -1381 
Q 422 -1381 303 -1275 
Q 184 -1169 184 -1031 
Q 184 -900 270 -820 
Q 356 -741 506 -741 
Q 609 -741 788 -809 
Q 913 -856 944 -856 
Q 1038 -856 1148 -759 
Q 1259 -663 1372 -384 
L 1575 113 
L 547 2272 
Q 500 2369 397 2513 
Q 319 2622 269 2659 
Q 197 2709 38 2747 
L 38 2863 
z
" transform="scale(0.015625)"/>
       <path id="TimesNewRomanPSMT-61" d="M 1822 413 
Q 1381 72 1269 19 
Q 1100 -59 909 -59 
Q 613 -59 420 144 
Q 228 347 228 678 
Q 228 888 322 1041 
Q 450 1253 767 1440 
Q 1084 1628 1822 1897 
L 1822 2009 
Q 1822 2438 1686 2597 
Q 1550 2756 1291 2756 
Q 1094 2756 978 2650 
Q 859 2544 859 2406 
L 866 2225 
Q 866 2081 792 2003 
Q 719 1925 600 1925 
Q 484 1925 411 2006 
Q 338 2088 338 2228 
Q 338 2497 613 2722 
Q 888 2947 1384 2947 
Q 1766 2947 2009 2819 
Q 2194 2722 2281 2516 
Q 2338 2381 2338 1966 
L 2338 994 
Q 2338 584 2353 492 
Q 2369 400 2405 369 
Q 2441 338 2488 338 
Q 2538 338 2575 359 
Q 2641 400 2828 588 
L 2828 413 
Q 2478 -56 2159 -56 
Q 2006 -56 1915 50 
Q 1825 156 1822 413 
z
M 1822 616 
L 1822 1706 
Q 1350 1519 1213 1441 
Q 966 1303 859 1153 
Q 753 1003 753 825 
Q 753 600 887 451 
Q 1022 303 1197 303 
Q 1434 303 1822 616 
z
" transform="scale(0.015625)"/>
       <path id="TimesNewRomanPSMT-72" d="M 1038 2947 
L 1038 2303 
Q 1397 2947 1775 2947 
Q 1947 2947 2059 2842 
Q 2172 2738 2172 2600 
Q 2172 2478 2090 2393 
Q 2009 2309 1897 2309 
Q 1788 2309 1652 2417 
Q 1516 2525 1450 2525 
Q 1394 2525 1328 2463 
Q 1188 2334 1038 2041 
L 1038 669 
Q 1038 431 1097 309 
Q 1138 225 1241 169 
Q 1344 113 1538 113 
L 1538 0 
L 72 0 
L 72 113 
Q 291 113 397 181 
Q 475 231 506 341 
Q 522 394 522 644 
L 522 1753 
Q 522 2253 501 2348 
Q 481 2444 426 2487 
Q 372 2531 291 2531 
Q 194 2531 72 2484 
L 41 2597 
L 906 2947 
L 1038 2947 
z
" transform="scale(0.015625)"/>
       <path id="TimesNewRomanPSMT-73" d="M 2050 2947 
L 2050 1972 
L 1947 1972 
Q 1828 2431 1642 2597 
Q 1456 2763 1169 2763 
Q 950 2763 815 2647 
Q 681 2531 681 2391 
Q 681 2216 781 2091 
Q 878 1963 1175 1819 
L 1631 1597 
Q 2266 1288 2266 781 
Q 2266 391 1970 151 
Q 1675 -88 1309 -88 
Q 1047 -88 709 6 
Q 606 38 541 38 
Q 469 38 428 -44 
L 325 -44 
L 325 978 
L 428 978 
Q 516 541 762 319 
Q 1009 97 1316 97 
Q 1531 97 1667 223 
Q 1803 350 1803 528 
Q 1803 744 1651 891 
Q 1500 1038 1047 1263 
Q 594 1488 453 1669 
Q 313 1847 313 2119 
Q 313 2472 555 2709 
Q 797 2947 1181 2947 
Q 1350 2947 1591 2875 
Q 1750 2828 1803 2828 
Q 1853 2828 1881 2850 
Q 1909 2872 1947 2947 
L 2050 2947 
z
" transform="scale(0.015625)"/>
       <path id="TimesNewRomanPSMT-5d" d="M 234 4334 
L 1609 4334 
L 1609 -1272 
L 234 -1272 
L 234 -1025 
L 1141 -1025 
L 1141 4088 
L 234 4088 
L 234 4334 
z
" transform="scale(0.015625)"/>
      </defs>
      <use xlink:href="#TimesNewRomanPSMT-74"/>
      <use xlink:href="#TimesNewRomanPSMT-69" x="27.783203"/>
      <use xlink:href="#TimesNewRomanPSMT-6d" x="55.566406"/>
      <use xlink:href="#TimesNewRomanPSMT-65" x="133.349609"/>
      <use xlink:href="#TimesNewRomanPSMT-20" x="177.734375"/>
      <use xlink:href="#TimesNewRomanPSMT-5b" x="202.734375"/>
      <use xlink:href="#TimesNewRomanPSMT-79" x="236.035156"/>
      <use xlink:href="#TimesNewRomanPSMT-65" x="286.035156"/>
      <use xlink:href="#TimesNewRomanPSMT-61" x="330.419922"/>
      <use xlink:href="#TimesNewRomanPSMT-72" x="374.804688"/>
      <use xlink:href="#TimesNewRomanPSMT-73" x="408.105469"/>
      <use xlink:href="#TimesNewRomanPSMT-5d" x="447.021484"/>
     </g>
    </g>
   </g>
   <g id="matplotlib.axis_2">
    <g id="ytick_1">
     <g id="line2d_15">
      <path d="M 97.605 155.816022 
L 411.21 155.816022 
" clip-path="url(#pdf89c34d35)" style="fill: none; stroke: #b0b0b0; stroke-width: 0.8; stroke-linecap: square"/>
     </g>
     <g id="line2d_16">
      <defs>
       <path id="mbab6845089" d="M 0 0 
L -4 0 
" style="stroke: #1f77b4; stroke-width: 1.5"/>
      </defs>
      <g>
       <use xlink:href="#mbab6845089" x="97.605" y="155.816022" style="fill: #1f77b4; stroke: #1f77b4; stroke-width: 1.5"/>
      </g>
     </g>
     <g id="text_9">
      <!-- −2 -->
      <g style="fill: #1f77b4" transform="translate(87.965938 162.98321) rotate(-90) scale(0.1 -0.1)">
       <defs>
        <path id="TimesNewRomanPSMT-2212" d="M 3484 2000 
L 116 2000 
L 116 2256 
L 3484 2256 
L 3484 2000 
z
" transform="scale(0.015625)"/>
       </defs>
       <use xlink:href="#TimesNewRomanPSMT-2212"/>
       <use xlink:href="#TimesNewRomanPSMT-32" x="56.396484"/>
      </g>
     </g>
    </g>
    <g id="ytick_2">
     <g id="line2d_17">
      <path d="M 97.605 120.645744 
L 411.21 120.645744 
" clip-path="url(#pdf89c34d35)" style="fill: none; stroke: #b0b0b0; stroke-width: 0.8; stroke-linecap: square"/>
     </g>
     <g id="line2d_18">
      <g>
       <use xlink:href="#mbab6845089" x="97.605" y="120.645744" style="fill: #1f77b4; stroke: #1f77b4; stroke-width: 1.5"/>
      </g>
     </g>
     <g id="text_10">
      <!-- −1 -->
      <g style="fill: #1f77b4" transform="translate(87.965938 127.812932) rotate(-90) scale(0.1 -0.1)">
       <use xlink:href="#TimesNewRomanPSMT-2212"/>
       <use xlink:href="#TimesNewRomanPSMT-31" x="56.396484"/>
      </g>
     </g>
    </g>
    <g id="ytick_3">
     <g id="line2d_19">
      <path d="M 97.605 85.475467 
L 411.21 85.475467 
" clip-path="url(#pdf89c34d35)" style="fill: none; stroke: #b0b0b0; stroke-width: 0.8; stroke-linecap: square"/>
     </g>
     <g id="line2d_20">
      <g>
       <use xlink:href="#mbab6845089" x="97.605" y="85.475467" style="fill: #1f77b4; stroke: #1f77b4; stroke-width: 1.5"/>
      </g>
     </g>
     <g id="text_11">
      <!-- 0 -->
      <g style="fill: #1f77b4" transform="translate(87.965938 87.003592) rotate(-90) scale(0.1 -0.1)">
       <use xlink:href="#TimesNewRomanPSMT-30"/>
      </g>
     </g>
    </g>
    <g id="ytick_4">
     <g id="line2d_21">
      <path d="M 97.605 50.305189 
L 411.21 50.305189 
" clip-path="url(#pdf89c34d35)" style="fill: none; stroke: #b0b0b0; stroke-width: 0.8; stroke-linecap: square"/>
     </g>
     <g id="line2d_22">
      <g>
       <use xlink:href="#mbab6845089" x="97.605" y="50.305189" style="fill: #1f77b4; stroke: #1f77b4; stroke-width: 1.5"/>
      </g>
     </g>
     <g id="text_12">
      <!-- 1 -->
      <g style="fill: #1f77b4" transform="translate(87.965938 51.833314) rotate(-90) scale(0.1 -0.1)">
       <use xlink:href="#TimesNewRomanPSMT-31"/>
      </g>
     </g>
    </g>
    <g id="text_13">
     <!-- NN_0 -->
     <g style="fill: #1f77b4" transform="translate(98.619 37.532857) scale(0.12 -0.12)">
      <defs>
       <path id="TimesNewRomanPSMT-4e" d="M -84 4238 
L 1066 4238 
L 3656 1059 
L 3656 3503 
Q 3656 3894 3569 3991 
Q 3453 4122 3203 4122 
L 3056 4122 
L 3056 4238 
L 4531 4238 
L 4531 4122 
L 4381 4122 
Q 4113 4122 4000 3959 
Q 3931 3859 3931 3503 
L 3931 -69 
L 3819 -69 
L 1025 3344 
L 1025 734 
Q 1025 344 1109 247 
Q 1228 116 1475 116 
L 1625 116 
L 1625 0 
L 150 0 
L 150 116 
L 297 116 
Q 569 116 681 278 
Q 750 378 750 734 
L 750 3681 
Q 566 3897 470 3965 
Q 375 4034 191 4094 
Q 100 4122 -84 4122 
L -84 4238 
z
" transform="scale(0.015625)"/>
       <path id="TimesNewRomanPSMT-5f" d="M 3256 -1381 
L -53 -1381 
L -53 -1119 
L 3256 -1119 
L 3256 -1381 
z
" transform="scale(0.015625)"/>
      </defs>
      <use xlink:href="#TimesNewRomanPSMT-4e"/>
      <use xlink:href="#TimesNewRomanPSMT-4e" x="72.216797"/>
      <use xlink:href="#TimesNewRomanPSMT-5f" x="144.433594"/>
      <use xlink:href="#TimesNewRomanPSMT-30" x="194.433594"/>
     </g>
    </g>
   </g>
   <g id="line2d_23">
    <path d="M 97.605 85.475467 
L 98.127675 41.879163 
L 98.65035 46.761848 
L 99.6957 48.304307 
L 101.7864 52.483414 
L 104.399775 57.558581 
L 106.490475 61.165171 
L 108.0585 63.59034 
L 109.10385 65.005283 
L 111.19455 67.119659 
L 115.898625 71.420425 
L 117.989325 72.785644 
L 119.034675 73.398515 
L 121.125375 74.832729 
L 122.6934 75.818225 
L 124.7841 77.056167 
L 127.397475 78.887535 
L 129.488175 80.115199 
L 131.0562 80.793036 
L 132.624225 81.028884 
L 134.714925 81.133829 
L 137.3283 81.16534 
L 139.941675 81.35741 
L 140.46435 80.028219 
L 142.032375 80.482721 
L 146.73645 81.644195 
L 148.304475 81.484383 
L 149.349825 81.384456 
L 152.485875 81.536985 
L 154.576575 81.453904 
L 164.5074 79.81619 
L 165.030075 79.580364 
L 166.075425 82.813932 
L 166.5981 83.806067 
L 167.120775 82.52346 
L 167.64345 82.428058 
L 171.302175 83.00892 
L 171.82485 83.015777 
L 173.392875 82.765421 
L 176.00625 82.69099 
L 178.09695 82.631506 
L 180.710325 82.527387 
L 183.846375 82.724605 
L 185.4144 82.696524 
L 185.937075 82.454375 
L 186.982425 82.399539 
L 188.027775 82.075791 
L 191.6865 82.10682 
L 192.73185 82.214454 
L 194.82255 82.358728 
L 195.8679 82.517982 
L 202.14 82.415278 
L 207.889425 83.06832 
L 210.5028 82.742163 
L 212.5935 82.224618 
L 213.63885 82.08291 
L 215.72955 82.242524 
L 216.7749 82.879523 
L 217.297575 82.740201 
L 218.8656 81.559704 
L 220.433625 80.82256 
L 220.9563 80.615951 
L 222.524325 80.731065 
L 224.09235 81.044581 
L 227.751075 82.126357 
L 228.796425 82.220098 
L 230.887125 81.234985 
L 231.4098 81.040153 
L 233.5005 80.933535 
L 235.5912 81.402099 
L 237.159225 78.577411 
L 238.72725 76.533316 
L 239.249925 76.653015 
L 240.295275 77.177464 
L 241.340625 77.447999 
L 241.8633 77.318462 
L 242.385975 77.048686 
L 242.90865 76.059624 
L 245.522025 69.042126 
L 246.0447 67.426239 
L 248.658075 67.152503 
L 249.18075 66.871246 
L 249.703425 65.864004 
L 250.2261 63.271239 
L 250.748775 59.0925 
L 251.27145 57.268142 
L 252.3168 51.750334 
L 252.839475 50.151942 
L 253.884825 58.073902 
L 254.4075 60.04543 
L 255.975525 66.936231 
L 256.4982 67.897561 
L 257.54355 70.510695 
L 259.111575 73.029834 
L 259.63425 73.118173 
L 260.156925 72.884566 
L 260.6796 72.509915 
L 261.202275 73.061521 
L 261.72495 73.918761 
L 262.247625 74.324722 
L 262.7703 73.486434 
L 263.292975 72.905304 
L 263.81565 72.598209 
L 264.338325 72.936921 
L 265.383675 73.314862 
L 266.429025 73.558957 
L 266.9517 74.343727 
L 267.474375 74.576366 
L 267.99705 74.265076 
L 269.0424 74.736896 
L 270.08775 74.753006 
L 271.1331 75.062794 
L 271.655775 75.287234 
L 273.2238 77.270445 
L 273.746475 77.25643 
L 275.3145 76.54192 
L 276.35985 75.723478 
L 276.882525 75.776596 
L 278.973225 77.165311 
L 280.018575 76.261076 
L 281.5866 74.552358 
L 282.63195 73.460407 
L 284.72265 71.16898 
L 286.81335 69.218111 
L 287.8587 69.512405 
L 288.381375 69.644193 
L 288.90405 69.647686 
L 289.426725 69.940085 
L 292.0401 72.936687 
L 293.08545 73.885303 
L 294.653475 75.295668 
L 296.2215 76.332336 
L 297.789525 77.199412 
L 298.834875 77.637726 
L 300.4029 78.009761 
L 304.5843 79.757559 
L 305.62965 79.975901 
L 307.72035 80.452451 
L 311.90175 80.90053 
L 314.515125 80.810467 
L 318.17385 81.750616 
L 320.26455 81.781639 
L 323.4006 82.335703 
L 325.4913 82.347644 
L 327.059325 82.099076 
L 328.104675 82.16985 
L 331.240725 82.758203 
L 332.80875 83.158756 
L 341.694225 83.846315 
L 348.489 84.202394 
L 350.057025 84.272326 
L 353.71575 84.247693 
L 359.98785 84.414279 
L 377.236125 84.599639 
L 381.417525 84.530114 
L 389.25765 84.519905 
L 411.21 84.692599 
L 411.21 84.692599 
" clip-path="url(#pdf89c34d35)" style="fill: none; stroke: #1f77b4; stroke-linecap: square"/>
   </g>
   <g id="patch_3">
    <path d="M 97.605 173.54 
L 97.605 41.4432 
" style="fill: none; stroke: #000000; stroke-width: 0.8; stroke-linejoin: miter; stroke-linecap: square"/>
   </g>
   <g id="patch_4">
    <path d="M 411.21 173.54 
L 411.21 41.4432 
" style="fill: none; stroke: #000000; stroke-width: 0.8; stroke-linejoin: miter; stroke-linecap: square"/>
   </g>
   <g id="patch_5">
    <path d="M 97.605 173.54 
L 411.21 173.54 
" style="fill: none; stroke: #000000; stroke-width: 0.8; stroke-linejoin: miter; stroke-linecap: square"/>
   </g>
   <g id="patch_6">
    <path d="M 97.605 41.4432 
L 411.21 41.4432 
" style="fill: none; stroke: #000000; stroke-width: 0.8; stroke-linejoin: miter; stroke-linecap: square"/>
   </g>
  </g>
  <g id="axes_2">
   <g id="matplotlib.axis_3">
    <g id="ytick_5">
     <g id="line2d_24">
      <defs>
       <path id="mbc275122c5" d="M 0 0 
L -4 0 
" style="stroke: #ff7f0e; stroke-width: 1.5"/>
      </defs>
      <g>
       <use xlink:href="#mbc275122c5" x="66.2445" y="173.54" style="fill: #ff7f0e; stroke: #ff7f0e; stroke-width: 1.5"/>
      </g>
     </g>
     <g id="text_14">
      <!-- 0 -->
      <g style="fill: #ff7f0e" transform="translate(56.605437 175.068125) rotate(-90) scale(0.1 -0.1)">
       <use xlink:href="#TimesNewRomanPSMT-30"/>
      </g>
     </g>
    </g>
    <g id="ytick_6">
     <g id="line2d_25">
      <g>
       <use xlink:href="#mbc275122c5" x="66.2445" y="135.373798" style="fill: #ff7f0e; stroke: #ff7f0e; stroke-width: 1.5"/>
      </g>
     </g>
     <g id="text_15">
      <!-- 300 m -->
      <g style="fill: #ff7f0e" transform="translate(56.605437 156.68161) rotate(-90) scale(0.1 -0.1)">
       <defs>
        <path id="TimesNewRomanPSMT-33" d="M 325 3431 
Q 506 3859 782 4092 
Q 1059 4325 1472 4325 
Q 1981 4325 2253 3994 
Q 2459 3747 2459 3466 
Q 2459 3003 1878 2509 
Q 2269 2356 2469 2072 
Q 2669 1788 2669 1403 
Q 2669 853 2319 450 
Q 1863 -75 997 -75 
Q 569 -75 414 31 
Q 259 138 259 259 
Q 259 350 332 419 
Q 406 488 509 488 
Q 588 488 669 463 
Q 722 447 909 348 
Q 1097 250 1169 231 
Q 1284 197 1416 197 
Q 1734 197 1970 444 
Q 2206 691 2206 1028 
Q 2206 1275 2097 1509 
Q 2016 1684 1919 1775 
Q 1784 1900 1550 2001 
Q 1316 2103 1072 2103 
L 972 2103 
L 972 2197 
Q 1219 2228 1467 2375 
Q 1716 2522 1828 2728 
Q 1941 2934 1941 3181 
Q 1941 3503 1739 3701 
Q 1538 3900 1238 3900 
Q 753 3900 428 3381 
L 325 3431 
z
" transform="scale(0.015625)"/>
        <path id="TimesNewRomanPSMT-2009" d="M 0 0 
L 0 0 
z
" transform="scale(0.015625)"/>
       </defs>
       <use xlink:href="#TimesNewRomanPSMT-33"/>
       <use xlink:href="#TimesNewRomanPSMT-30" x="50"/>
       <use xlink:href="#TimesNewRomanPSMT-30" x="100"/>
       <use xlink:href="#TimesNewRomanPSMT-2009" x="150"/>
       <use xlink:href="#TimesNewRomanPSMT-6d" x="170.019531"/>
      </g>
     </g>
    </g>
    <g id="ytick_7">
     <g id="line2d_26">
      <g>
       <use xlink:href="#mbc275122c5" x="66.2445" y="97.207596" style="fill: #ff7f0e; stroke: #ff7f0e; stroke-width: 1.5"/>
      </g>
     </g>
     <g id="text_16">
      <!-- 600 m -->
      <g style="fill: #ff7f0e" transform="translate(56.605437 118.515408) rotate(-90) scale(0.1 -0.1)">
       <defs>
        <path id="TimesNewRomanPSMT-36" d="M 2869 4325 
L 2869 4209 
Q 2456 4169 2195 4045 
Q 1934 3922 1679 3669 
Q 1425 3416 1258 3105 
Q 1091 2794 978 2366 
Q 1428 2675 1881 2675 
Q 2316 2675 2634 2325 
Q 2953 1975 2953 1425 
Q 2953 894 2631 456 
Q 2244 -75 1606 -75 
Q 1172 -75 869 213 
Q 275 772 275 1663 
Q 275 2231 503 2743 
Q 731 3256 1154 3653 
Q 1578 4050 1965 4187 
Q 2353 4325 2688 4325 
L 2869 4325 
z
M 925 2138 
Q 869 1716 869 1456 
Q 869 1156 980 804 
Q 1091 453 1309 247 
Q 1469 100 1697 100 
Q 1969 100 2183 356 
Q 2397 613 2397 1088 
Q 2397 1622 2184 2012 
Q 1972 2403 1581 2403 
Q 1463 2403 1327 2353 
Q 1191 2303 925 2138 
z
" transform="scale(0.015625)"/>
       </defs>
       <use xlink:href="#TimesNewRomanPSMT-36"/>
       <use xlink:href="#TimesNewRomanPSMT-30" x="50"/>
       <use xlink:href="#TimesNewRomanPSMT-30" x="100"/>
       <use xlink:href="#TimesNewRomanPSMT-2009" x="150"/>
       <use xlink:href="#TimesNewRomanPSMT-6d" x="170.019531"/>
      </g>
     </g>
    </g>
    <g id="ytick_8">
     <g id="line2d_27">
      <g>
       <use xlink:href="#mbc275122c5" x="66.2445" y="59.041394" style="fill: #ff7f0e; stroke: #ff7f0e; stroke-width: 1.5"/>
      </g>
     </g>
     <g id="text_17">
      <!-- 900 m -->
      <g style="fill: #ff7f0e" transform="translate(56.605437 80.349206) rotate(-90) scale(0.1 -0.1)">
       <use xlink:href="#TimesNewRomanPSMT-39"/>
       <use xlink:href="#TimesNewRomanPSMT-30" x="50"/>
       <use xlink:href="#TimesNewRomanPSMT-30" x="100"/>
       <use xlink:href="#TimesNewRomanPSMT-2009" x="150"/>
       <use xlink:href="#TimesNewRomanPSMT-6d" x="170.019531"/>
      </g>
     </g>
    </g>
    <g id="text_18">
     <!-- NN_20 -->
     <g style="fill: #ff7f0e" transform="translate(56.418375 37.532857) scale(0.12 -0.12)">
      <use xlink:href="#TimesNewRomanPSMT-4e"/>
      <use xlink:href="#TimesNewRomanPSMT-4e" x="72.216797"/>
      <use xlink:href="#TimesNewRomanPSMT-5f" x="144.433594"/>
      <use xlink:href="#TimesNewRomanPSMT-32" x="194.433594"/>
      <use xlink:href="#TimesNewRomanPSMT-30" x="244.433594"/>
     </g>
    </g>
   </g>
   <g id="line2d_28">
    <path d="M 97.605 173.54 
L 98.127675 42.751089 
L 98.65035 84.078902 
L 99.173025 91.256601 
L 100.74105 107.567087 
L 101.7864 122.649414 
L 102.83175 130.409482 
L 103.354425 131.964237 
L 105.9678 143.113015 
L 107.535825 148.669991 
L 108.581175 151.659434 
L 109.10385 152.699737 
L 110.671875 154.607262 
L 111.717225 155.87689 
L 113.28525 158.384245 
L 113.807925 158.884664 
L 114.3306 158.83041 
L 115.37595 158.374647 
L 116.4213 158.788072 
L 119.034675 158.760882 
L 120.080025 159.124867 
L 123.73875 160.492879 
L 126.8748 161.444967 
L 128.9655 161.911937 
L 131.0562 162.732684 
L 136.805625 165.29993 
L 139.419 165.666257 
L 139.941675 165.761903 
L 140.46435 158.124315 
L 142.032375 159.147529 
L 143.6004 159.692676 
L 145.6911 159.890098 
L 146.73645 160.0242 
L 147.7818 161.184453 
L 149.349825 162.961881 
L 151.9632 165.365898 
L 153.00855 166.465582 
L 153.531225 166.563138 
L 154.0539 166.225918 
L 155.09925 166.259256 
L 155.621925 166.317034 
L 160.326 168.042448 
L 162.4167 168.555307 
L 162.939375 168.534697 
L 165.55275 167.912585 
L 166.5981 167.874433 
L 169.211475 166.761262 
L 169.73415 166.752506 
L 170.256825 166.52661 
L 171.302175 165.712268 
L 171.82485 165.603083 
L 173.392875 166.722798 
L 174.9609 167.575698 
L 176.528925 168.278443 
L 177.0516 168.452539 
L 182.27835 168.440109 
L 183.3237 168.227212 
L 183.846375 167.94904 
L 184.891725 167.07008 
L 185.4144 166.875527 
L 185.937075 167.26907 
L 187.5051 169.389415 
L 188.55045 170.383973 
L 189.5958 170.902701 
L 190.64115 170.995123 
L 191.163825 171.048936 
L 192.73185 171.623964 
L 195.345225 171.308937 
L 195.8679 171.203156 
L 196.390575 171.289412 
L 196.91325 171.536319 
L 197.435925 171.620812 
L 197.9586 171.469699 
L 199.00395 170.875267 
L 199.526625 170.777372 
L 202.14 171.615485 
L 204.2307 171.816137 
L 206.3214 172.102264 
L 208.934775 171.751299 
L 210.5028 171.369561 
L 214.161525 171.953626 
L 214.6842 172.023516 
L 215.206875 171.894441 
L 215.72955 171.161914 
L 216.252225 171.401293 
L 216.7749 171.871601 
L 217.297575 172.007582 
L 218.342925 171.747159 
L 219.388275 171.903726 
L 220.433625 171.9838 
L 222.00165 171.433381 
L 222.524325 171.452104 
L 224.09235 171.981061 
L 225.1377 171.785838 
L 225.660375 171.567757 
L 226.705725 170.745413 
L 227.751075 169.749661 
L 228.796425 169.51606 
L 230.36445 172.351109 
L 230.887125 172.4408 
L 231.4098 171.841611 
L 231.932475 171.887699 
L 232.45515 171.767116 
L 234.54585 169.191562 
L 235.068525 169.033902 
L 235.5912 169.094978 
L 236.113875 168.78693 
L 237.159225 168.566695 
L 237.6819 168.688935 
L 238.72725 168.474851 
L 239.249925 169.594242 
L 239.7726 169.274095 
L 240.295275 169.992119 
L 241.340625 170.483621 
L 242.385975 170.115725 
L 242.90865 169.920448 
L 243.431325 170.180575 
L 243.954 170.641425 
L 244.476675 170.890557 
L 244.99935 170.601058 
L 246.0447 168.562207 
L 246.567375 170.742889 
L 247.09005 170.740693 
L 247.612725 169.46335 
L 248.1354 168.866399 
L 248.658075 168.643758 
L 249.703425 167.974815 
L 250.2261 168.365951 
L 250.748775 168.244258 
L 252.3168 167.057183 
L 252.839475 167.473016 
L 253.36215 165.570937 
L 253.884825 162.125006 
L 254.4075 162.794135 
L 254.930175 164.783966 
L 256.4982 167.842199 
L 257.020875 168.191427 
L 257.54355 168.899666 
L 258.066225 170.450034 
L 258.5889 170.897687 
L 259.111575 169.349364 
L 259.63425 168.781008 
L 260.156925 168.509705 
L 260.6796 168.433981 
L 261.72495 167.187091 
L 262.247625 165.618541 
L 262.7703 168.375298 
L 263.81565 167.679439 
L 264.338325 166.966523 
L 264.861 165.380426 
L 265.383675 164.733396 
L 266.9517 167.808885 
L 267.474375 169.282831 
L 267.99705 169.64658 
L 268.519725 169.5663 
L 269.0424 169.830204 
L 269.565075 170.267432 
L 270.08775 170.176505 
L 271.1331 170.402058 
L 272.701125 171.278298 
L 273.2238 171.159483 
L 273.746475 169.595741 
L 274.26915 170.601886 
L 276.35985 168.708944 
L 276.882525 168.950361 
L 277.927875 168.994149 
L 278.45055 168.482933 
L 280.018575 167.547369 
L 281.5866 168.023701 
L 282.63195 169.006716 
L 283.154625 169.108656 
L 284.199975 168.470095 
L 284.72265 168.023869 
L 285.245325 168.273097 
L 285.768 169.292741 
L 286.290675 169.568845 
L 286.81335 167.649306 
L 287.336025 167.071915 
L 287.8587 166.883108 
L 288.90405 166.707938 
L 289.426725 167.327774 
L 289.9494 167.758736 
L 290.99475 167.743441 
L 291.517425 167.612092 
L 293.08545 167.86849 
L 295.17615 168.481033 
L 296.2215 168.609837 
L 297.26685 168.940371 
L 297.789525 169.224252 
L 299.35755 170.900283 
L 299.880225 170.997457 
L 300.4029 170.950317 
L 300.925575 170.625824 
L 301.970925 169.655163 
L 302.4936 169.29117 
L 303.016275 169.179483 
L 304.5843 169.598749 
L 305.106975 170.073205 
L 306.152325 170.37564 
L 308.243025 170.634578 
L 309.81105 171.117448 
L 310.333725 171.412 
L 310.8564 171.466332 
L 311.90175 170.867223 
L 312.9471 171.083239 
L 313.99245 171.207028 
L 316.605825 170.912753 
L 317.1285 170.885051 
L 317.651175 171.23942 
L 319.2192 171.275982 
L 320.26455 171.176239 
L 321.3099 170.985057 
L 322.35525 170.753182 
L 323.4006 170.352466 
L 324.968625 169.307548 
L 327.059325 168.752917 
L 327.582 168.834771 
L 329.6727 169.951837 
L 331.240725 170.464498 
L 332.286075 170.609825 
L 333.331425 170.336358 
L 334.376775 170.408202 
L 334.89945 170.360153 
L 335.422125 170.435266 
L 336.467475 170.902244 
L 337.512825 171.096728 
L 339.08085 171.406062 
L 341.694225 171.6358 
L 345.35295 171.582566 
L 346.920975 171.404707 
L 348.489 171.533417 
L 353.193075 172.378098 
L 354.238425 172.414405 
L 355.80645 172.467421 
L 358.419825 172.543051 
L 361.0332 172.500727 
L 365.2146 172.529066 
L 373.5774 172.06744 
L 377.236125 171.754425 
L 379.326825 171.722315 
L 386.644275 172.2353 
L 411.21 173.172428 
L 411.21 173.172428 
" clip-path="url(#pdf89c34d35)" style="fill: none; stroke: #ff7f0e; stroke-linecap: square"/>
   </g>
   <g id="patch_7">
    <path d="M 66.2445 173.54 
L 66.2445 41.4432 
" style="fill: none; stroke: #000000; stroke-width: 0.8; stroke-linejoin: miter; stroke-linecap: square"/>
   </g>
   <g id="patch_8">
    <path d="M 411.21 173.54 
L 411.21 41.4432 
" style="fill: none; stroke: #000000; stroke-width: 0.8; stroke-linejoin: miter; stroke-linecap: square"/>
   </g>
   <g id="patch_9">
    <path d="M 97.605 173.54 
L 411.21 173.54 
" style="fill: none; stroke: #000000; stroke-width: 0.8; stroke-linejoin: miter; stroke-linecap: square"/>
   </g>
   <g id="patch_10">
    <path d="M 97.605 41.4432 
L 411.21 41.4432 
" style="fill: none; stroke: #000000; stroke-width: 0.8; stroke-linejoin: miter; stroke-linecap: square"/>
   </g>
  </g>
  <g id="axes_3">
   <g id="matplotlib.axis_4">
    <g id="ytick_9">
     <g id="line2d_29">
      <defs>
       <path id="mdc85ac19bf" d="M 0 0 
L -4 0 
" style="stroke: #2ca02c; stroke-width: 1.5"/>
      </defs>
      <g>
       <use xlink:href="#mdc85ac19bf" x="34.884" y="173.54" style="fill: #2ca02c; stroke: #2ca02c; stroke-width: 1.5"/>
      </g>
     </g>
     <g id="text_19">
      <!-- 0 -->
      <g style="fill: #2ca02c" transform="translate(25.244937 175.068125) rotate(-90) scale(0.1 -0.1)">
       <use xlink:href="#TimesNewRomanPSMT-30"/>
      </g>
     </g>
    </g>
    <g id="ytick_10">
     <g id="line2d_30">
      <g>
       <use xlink:href="#mdc85ac19bf" x="34.884" y="136.516624" style="fill: #2ca02c; stroke: #2ca02c; stroke-width: 1.5"/>
      </g>
     </g>
     <g id="text_20">
      <!-- 100 m -->
      <g style="fill: #2ca02c" transform="translate(25.244937 157.824436) rotate(-90) scale(0.1 -0.1)">
       <use xlink:href="#TimesNewRomanPSMT-31"/>
       <use xlink:href="#TimesNewRomanPSMT-30" x="50"/>
       <use xlink:href="#TimesNewRomanPSMT-30" x="100"/>
       <use xlink:href="#TimesNewRomanPSMT-2009" x="150"/>
       <use xlink:href="#TimesNewRomanPSMT-6d" x="170.019531"/>
      </g>
     </g>
    </g>
    <g id="ytick_11">
     <g id="line2d_31">
      <g>
       <use xlink:href="#mdc85ac19bf" x="34.884" y="99.493247" style="fill: #2ca02c; stroke: #2ca02c; stroke-width: 1.5"/>
      </g>
     </g>
     <g id="text_21">
      <!-- 200 m -->
      <g style="fill: #2ca02c" transform="translate(25.244937 120.80106) rotate(-90) scale(0.1 -0.1)">
       <use xlink:href="#TimesNewRomanPSMT-32"/>
       <use xlink:href="#TimesNewRomanPSMT-30" x="50"/>
       <use xlink:href="#TimesNewRomanPSMT-30" x="100"/>
       <use xlink:href="#TimesNewRomanPSMT-2009" x="150"/>
       <use xlink:href="#TimesNewRomanPSMT-6d" x="170.019531"/>
      </g>
     </g>
    </g>
    <g id="ytick_12">
     <g id="line2d_32">
      <g>
       <use xlink:href="#mdc85ac19bf" x="34.884" y="62.469871" style="fill: #2ca02c; stroke: #2ca02c; stroke-width: 1.5"/>
      </g>
     </g>
     <g id="text_22">
      <!-- 300 m -->
      <g style="fill: #2ca02c" transform="translate(25.244937 83.777684) rotate(-90) scale(0.1 -0.1)">
       <use xlink:href="#TimesNewRomanPSMT-33"/>
       <use xlink:href="#TimesNewRomanPSMT-30" x="50"/>
       <use xlink:href="#TimesNewRomanPSMT-30" x="100"/>
       <use xlink:href="#TimesNewRomanPSMT-2009" x="150"/>
       <use xlink:href="#TimesNewRomanPSMT-6d" x="170.019531"/>
      </g>
     </g>
    </g>
    <g id="text_23">
     <!-- NN_40 -->
     <g style="fill: #2ca02c" transform="translate(17.21775 37.532857) scale(0.12 -0.12)">
      <defs>
       <path id="TimesNewRomanPSMT-34" d="M 2978 1563 
L 2978 1119 
L 2409 1119 
L 2409 0 
L 1894 0 
L 1894 1119 
L 100 1119 
L 100 1519 
L 2066 4325 
L 2409 4325 
L 2409 1563 
L 2978 1563 
z
M 1894 1563 
L 1894 3666 
L 406 1563 
L 1894 1563 
z
" transform="scale(0.015625)"/>
      </defs>
      <use xlink:href="#TimesNewRomanPSMT-4e"/>
      <use xlink:href="#TimesNewRomanPSMT-4e" x="72.216797"/>
      <use xlink:href="#TimesNewRomanPSMT-5f" x="144.433594"/>
      <use xlink:href="#TimesNewRomanPSMT-34" x="194.433594"/>
      <use xlink:href="#TimesNewRomanPSMT-30" x="244.433594"/>
     </g>
    </g>
   </g>
   <g id="line2d_33">
    <path d="M 97.605 173.54 
L 98.127675 42.751089 
L 98.65035 105.878205 
L 99.173025 113.288191 
L 99.6957 118.824659 
L 100.218375 123.018099 
L 100.74105 123.387453 
L 101.263725 127.237213 
L 102.309075 131.916702 
L 103.8771 140.579477 
L 104.92245 143.833082 
L 105.9678 145.535945 
L 106.490475 146.858812 
L 107.01315 146.138052 
L 108.0585 140.133876 
L 109.626525 130.345838 
L 110.1492 129.689275 
L 110.671875 130.957253 
L 111.717225 134.652392 
L 112.2399 135.734013 
L 114.853275 139.97746 
L 115.37595 141.147041 
L 116.4213 145.658735 
L 117.46665 149.157202 
L 117.989325 150.651604 
L 118.512 151.663266 
L 119.034675 151.762778 
L 120.080025 151.029597 
L 122.6934 149.567331 
L 123.73875 149.145754 
L 125.306775 148.009827 
L 125.82945 148.022701 
L 128.442825 149.098157 
L 129.488175 148.655672 
L 133.1469 146.690439 
L 139.941675 142.829962 
L 140.46435 116.981682 
L 140.987025 117.996964 
L 141.5097 118.728553 
L 142.55505 119.71174 
L 143.077725 121.129356 
L 144.64575 128.497515 
L 145.6911 132.753254 
L 147.259125 137.541386 
L 147.7818 139.005438 
L 149.349825 142.0589 
L 150.91785 144.813587 
L 154.576575 148.973481 
L 155.09925 149.348665 
L 155.621925 149.975939 
L 156.1446 150.838646 
L 159.28065 157.940694 
L 160.848675 159.314171 
L 161.894025 160.010697 
L 162.4167 160.273937 
L 162.939375 160.90452 
L 164.5074 164.522862 
L 165.030075 165.209947 
L 165.55275 164.884868 
L 166.075425 164.188897 
L 167.120775 162.150042 
L 168.6888 158.923246 
L 170.256825 156.298314 
L 171.302175 155.42016 
L 171.82485 155.801927 
L 173.91555 163.211108 
L 174.9609 165.720257 
L 175.483575 166.75039 
L 176.00625 167.070586 
L 177.0516 167.451511 
L 178.09695 168.586091 
L 179.1423 169.438795 
L 179.664975 169.752238 
L 180.18765 169.780337 
L 181.233 169.184301 
L 181.755675 168.829195 
L 182.801025 167.707708 
L 183.846375 166.370669 
L 184.36905 166.284803 
L 184.891725 164.799612 
L 185.4144 164.035701 
L 185.937075 164.955655 
L 186.45975 166.389025 
L 186.982425 167.36694 
L 187.5051 167.71676 
L 188.027775 167.895076 
L 189.073125 167.455157 
L 190.64115 168.097233 
L 191.163825 167.600719 
L 191.6865 167.378124 
L 194.299875 163.89836 
L 195.345225 162.635329 
L 195.8679 162.531233 
L 196.390575 163.084786 
L 197.435925 165.001123 
L 198.481275 166.567704 
L 200.0493 168.172772 
L 200.571975 168.674364 
L 201.09465 168.553085 
L 201.617325 168.02308 
L 202.662675 166.507268 
L 203.18535 165.592317 
L 203.708025 165.079234 
L 204.753375 164.522831 
L 205.27605 163.961045 
L 205.798725 164.029852 
L 206.3214 164.523965 
L 206.844075 164.177643 
L 208.934775 162.15105 
L 209.45745 162.237478 
L 209.980125 162.939487 
L 210.5028 163.449559 
L 212.070825 165.692723 
L 212.5935 166.372411 
L 213.116175 164.755583 
L 213.63885 161.820356 
L 214.161525 159.617293 
L 215.72955 157.217169 
L 216.252225 159.281021 
L 217.297575 164.726674 
L 217.82025 166.320274 
L 218.342925 166.937249 
L 218.8656 167.181763 
L 219.388275 167.26765 
L 219.91095 167.228245 
L 220.433625 166.888382 
L 221.478975 165.262745 
L 222.00165 164.95698 
L 222.524325 164.866888 
L 223.047 165.145527 
L 223.569675 165.051792 
L 224.615025 165.168331 
L 225.1377 165.148729 
L 225.660375 164.966602 
L 226.705725 164.220756 
L 227.751075 163.94975 
L 228.27375 163.621524 
L 228.796425 163.01726 
L 229.3191 165.462975 
L 229.841775 167.283008 
L 230.36445 168.144463 
L 231.4098 163.804784 
L 231.932475 163.912067 
L 232.977825 164.879157 
L 234.023175 162.517556 
L 234.54585 161.671897 
L 235.068525 161.895617 
L 235.5912 162.332812 
L 236.63655 159.365735 
L 237.159225 158.217445 
L 237.6819 157.388753 
L 238.204575 157.417519 
L 238.72725 158.198207 
L 239.249925 165.105456 
L 239.7726 168.477547 
L 240.295275 167.535942 
L 240.81795 165.066902 
L 241.340625 163.411052 
L 242.90865 160.663158 
L 243.431325 160.888021 
L 243.954 161.536412 
L 244.476675 163.184794 
L 244.99935 161.985499 
L 245.522025 159.780117 
L 246.0447 155.967747 
L 246.567375 163.519991 
L 247.612725 154.817841 
L 248.658075 156.410903 
L 249.18075 157.509985 
L 249.703425 159.292867 
L 250.2261 158.88311 
L 250.748775 156.672368 
L 251.27145 153.600023 
L 251.794125 151.526815 
L 252.3168 150.090443 
L 252.839475 147.198127 
L 253.36215 135.902489 
L 253.884825 142.030015 
L 254.4075 159.126806 
L 254.930175 164.896099 
L 255.45285 159.801621 
L 255.975525 157.56104 
L 256.4982 150.752579 
L 257.020875 146.732295 
L 257.54355 150.895195 
L 258.066225 153.044013 
L 258.5889 147.919681 
L 259.111575 147.246257 
L 259.63425 149.170483 
L 260.156925 156.233015 
L 260.6796 153.548322 
L 261.202275 153.221428 
L 262.247625 145.068489 
L 262.7703 154.443056 
L 263.81565 157.708854 
L 264.338325 154.636669 
L 264.861 152.897187 
L 265.90635 151.170623 
L 266.429025 149.889429 
L 266.9517 152.196353 
L 267.474375 152.669029 
L 267.99705 154.152432 
L 268.519725 157.089284 
L 269.0424 158.288158 
L 269.565075 159.051488 
L 270.08775 159.073576 
L 271.1331 161.243601 
L 271.655775 161.49583 
L 272.701125 158.162615 
L 273.746475 157.062791 
L 274.26915 155.631051 
L 274.791825 154.827276 
L 276.35985 163.395174 
L 276.882525 164.340575 
L 277.4052 163.682856 
L 277.927875 162.48841 
L 278.973225 160.951022 
L 279.4959 158.617915 
L 280.018575 154.177858 
L 280.54125 151.935951 
L 281.063925 151.738299 
L 281.5866 151.375734 
L 282.109275 151.555145 
L 282.63195 152.070194 
L 284.199975 157.91132 
L 284.72265 158.22074 
L 285.245325 158.050486 
L 285.768 159.131288 
L 286.290675 161.996544 
L 286.81335 158.66687 
L 287.336025 159.61915 
L 287.8587 160.981404 
L 288.381375 160.24919 
L 288.90405 158.214282 
L 289.426725 159.501083 
L 289.9494 159.735158 
L 290.99475 160.615436 
L 291.517425 161.498259 
L 292.0401 161.337345 
L 292.562775 160.668047 
L 293.08545 160.50583 
L 294.1308 161.676537 
L 294.653475 161.523029 
L 295.698825 161.674835 
L 296.2215 161.540095 
L 297.26685 160.970117 
L 298.834875 161.003485 
L 299.880225 160.215385 
L 300.925575 158.365432 
L 301.44825 157.316252 
L 302.4936 160.763825 
L 304.5843 161.646968 
L 306.675 164.637141 
L 307.197675 164.981969 
L 307.72035 165.093281 
L 308.243025 165.046066 
L 308.7657 164.863538 
L 309.81105 164.226656 
L 310.333725 164.278709 
L 310.8564 163.979781 
L 311.90175 162.65501 
L 312.424425 163.191019 
L 313.469775 166.014919 
L 314.515125 167.639544 
L 315.0378 167.812431 
L 316.08315 167.127104 
L 317.1285 167.520504 
L 318.17385 166.672366 
L 319.2192 166.246651 
L 320.26455 166.052823 
L 320.787225 166.631586 
L 322.35525 168.956163 
L 322.877925 169.367518 
L 323.4006 169.637162 
L 324.44595 169.245386 
L 325.4913 168.377723 
L 326.53665 166.697768 
L 327.059325 166.332975 
L 327.582 166.602918 
L 328.104675 167.291498 
L 329.150025 169.10498 
L 330.195375 167.861593 
L 330.71805 167.792429 
L 331.7634 167.074013 
L 332.80875 166.563798 
L 333.8541 166.564278 
L 334.376775 166.487704 
L 334.89945 166.065411 
L 336.467475 163.914656 
L 336.99015 163.96924 
L 338.558175 164.606804 
L 341.17155 165.385982 
L 343.784925 165.992219 
L 345.875625 166.067173 
L 346.3983 166.260396 
L 346.920975 166.573593 
L 350.057025 169.35471 
L 351.102375 168.861642 
L 352.147725 168.606362 
L 353.193075 168.559104 
L 353.71575 168.713737 
L 358.419825 171.278655 
L 358.9425 171.487599 
L 359.465175 171.553732 
L 361.555875 171.452244 
L 364.691925 171.826635 
L 370.964025 172.214521 
L 373.054725 172.328209 
L 375.6681 172.070123 
L 377.7588 171.69742 
L 380.89485 171.460757 
L 382.462875 171.376358 
L 384.0309 171.616603 
L 388.2123 171.952265 
L 391.34835 171.885407 
L 400.7565 171.547701 
L 407.0286 171.493843 
L 411.21 171.536565 
L 411.21 171.536565 
" clip-path="url(#pdf89c34d35)" style="fill: none; stroke: #2ca02c; stroke-linecap: square"/>
   </g>
   <g id="patch_11">
    <path d="M 34.884 173.54 
L 34.884 41.4432 
" style="fill: none; stroke: #000000; stroke-width: 0.8; stroke-linejoin: miter; stroke-linecap: square"/>
   </g>
   <g id="patch_12">
    <path d="M 411.21 173.54 
L 411.21 41.4432 
" style="fill: none; stroke: #000000; stroke-width: 0.8; stroke-linejoin: miter; stroke-linecap: square"/>
   </g>
   <g id="patch_13">
    <path d="M 97.605 173.54 
L 411.21 173.54 
" style="fill: none; stroke: #000000; stroke-width: 0.8; stroke-linejoin: miter; stroke-linecap: square"/>
   </g>
   <g id="patch_14">
    <path d="M 97.605 41.4432 
L 411.21 41.4432 
" style="fill: none; stroke: #000000; stroke-width: 0.8; stroke-linejoin: miter; stroke-linecap: square"/>
   </g>
  </g>
  <g id="text_24">
   <!-- Step error -->
   <g transform="translate(354.81125 14.04125) scale(0.14 -0.14)">
    <defs>
     <path id="TimesNewRomanPSMT-53" d="M 2934 4334 
L 2934 2869 
L 2819 2869 
Q 2763 3291 2617 3541 
Q 2472 3791 2203 3937 
Q 1934 4084 1647 4084 
Q 1322 4084 1109 3886 
Q 897 3688 897 3434 
Q 897 3241 1031 3081 
Q 1225 2847 1953 2456 
Q 2547 2138 2764 1967 
Q 2981 1797 3098 1565 
Q 3216 1334 3216 1081 
Q 3216 600 2842 251 
Q 2469 -97 1881 -97 
Q 1697 -97 1534 -69 
Q 1438 -53 1133 45 
Q 828 144 747 144 
Q 669 144 623 97 
Q 578 50 556 -97 
L 441 -97 
L 441 1356 
L 556 1356 
Q 638 900 775 673 
Q 913 447 1195 297 
Q 1478 147 1816 147 
Q 2206 147 2432 353 
Q 2659 559 2659 841 
Q 2659 997 2573 1156 
Q 2488 1316 2306 1453 
Q 2184 1547 1640 1851 
Q 1097 2156 867 2337 
Q 638 2519 519 2737 
Q 400 2956 400 3219 
Q 400 3675 750 4004 
Q 1100 4334 1641 4334 
Q 1978 4334 2356 4169 
Q 2531 4091 2603 4091 
Q 2684 4091 2736 4139 
Q 2788 4188 2819 4334 
L 2934 4334 
z
" transform="scale(0.015625)"/>
     <path id="TimesNewRomanPSMT-70" d="M -6 2578 
L 875 2934 
L 994 2934 
L 994 2266 
Q 1216 2644 1439 2795 
Q 1663 2947 1909 2947 
Q 2341 2947 2628 2609 
Q 2981 2197 2981 1534 
Q 2981 794 2556 309 
Q 2206 -88 1675 -88 
Q 1444 -88 1275 -22 
Q 1150 25 994 166 
L 994 -706 
Q 994 -1000 1030 -1079 
Q 1066 -1159 1155 -1206 
Q 1244 -1253 1478 -1253 
L 1478 -1369 
L -22 -1369 
L -22 -1253 
L 56 -1253 
Q 228 -1256 350 -1188 
Q 409 -1153 442 -1076 
Q 475 -1000 475 -688 
L 475 2019 
Q 475 2297 450 2372 
Q 425 2447 370 2484 
Q 316 2522 222 2522 
Q 147 2522 31 2478 
L -6 2578 
z
M 994 2081 
L 994 1013 
Q 994 666 1022 556 
Q 1066 375 1236 237 
Q 1406 100 1666 100 
Q 1978 100 2172 344 
Q 2425 663 2425 1241 
Q 2425 1897 2138 2250 
Q 1938 2494 1663 2494 
Q 1513 2494 1366 2419 
Q 1253 2363 994 2081 
z
" transform="scale(0.015625)"/>
     <path id="TimesNewRomanPSMT-6f" d="M 1600 2947 
Q 2250 2947 2644 2453 
Q 2978 2031 2978 1484 
Q 2978 1100 2793 706 
Q 2609 313 2286 112 
Q 1963 -88 1566 -88 
Q 919 -88 538 428 
Q 216 863 216 1403 
Q 216 1797 411 2186 
Q 606 2575 925 2761 
Q 1244 2947 1600 2947 
z
M 1503 2744 
Q 1338 2744 1170 2645 
Q 1003 2547 900 2300 
Q 797 2053 797 1666 
Q 797 1041 1045 587 
Q 1294 134 1700 134 
Q 2003 134 2200 384 
Q 2397 634 2397 1244 
Q 2397 2006 2069 2444 
Q 1847 2744 1503 2744 
z
" transform="scale(0.015625)"/>
    </defs>
    <use xlink:href="#TimesNewRomanPSMT-53"/>
    <use xlink:href="#TimesNewRomanPSMT-74" x="55.615234"/>
    <use xlink:href="#TimesNewRomanPSMT-65" x="83.398438"/>
    <use xlink:href="#TimesNewRomanPSMT-70" x="127.783203"/>
    <use xlink:href="#TimesNewRomanPSMT-20" x="177.783203"/>
    <use xlink:href="#TimesNewRomanPSMT-65" x="202.783203"/>
    <use xlink:href="#TimesNewRomanPSMT-72" x="247.167969"/>
    <use xlink:href="#TimesNewRomanPSMT-72" x="280.46875"/>
    <use xlink:href="#TimesNewRomanPSMT-6f" x="313.769531"/>
    <use xlink:href="#TimesNewRomanPSMT-72" x="363.769531"/>
   </g>
  </g>
 </g>
 <defs>
  <clipPath id="pdf89c34d35">
   <rect x="97.605" y="41.4432" width="313.605" height="132.0968"/>
  </clipPath>
 </defs>
</svg>
