<?xml version="1.0" encoding="utf-8" standalone="no"?>
<!DOCTYPE svg PUBLIC "-//W3C//DTD SVG 1.1//EN"
  "http://www.w3.org/Graphics/SVG/1.1/DTD/svg11.dtd">
<svg xmlns:xlink="http://www.w3.org/1999/xlink" width="432pt" height="216pt" viewBox="0 0 432 216" xmlns="http://www.w3.org/2000/svg" version="1.1">
 <metadata>
  <rdf:RDF xmlns:dc="http://purl.org/dc/elements/1.1/" xmlns:cc="http://creativecommons.org/ns#" xmlns:rdf="http://www.w3.org/1999/02/22-rdf-syntax-ns#">
   <cc:Work>
    <dc:type rdf:resource="http://purl.org/dc/dcmitype/StillImage"/>
    <dc:date>2024-05-12T22:31:04.023380</dc:date>
    <dc:format>image/svg+xml</dc:format>
    <dc:creator>
     <cc:Agent>
      <dc:title>Matplotlib v3.8.2, https://matplotlib.org/</dc:title>
     </cc:Agent>
    </dc:creator>
   </cc:Work>
  </rdf:RDF>
 </metadata>
 <defs>
  <style type="text/css">*{stroke-linejoin: round; stroke-linecap: butt}</style>
 </defs>
 <g id="figure_1">
  <g id="patch_1">
   <path d="M 0 216 
L 432 216 
L 432 0 
L 0 0 
z
" style="fill: #ffffff"/>
  </g>
  <g id="axes_1">
   <g id="patch_2">
    <path d="M 97.605 173.54 
L 411.21 173.54 
L 411.21 41.4432 
L 97.605 41.4432 
z
" style="fill: #ffffff"/>
   </g>
   <g id="matplotlib.axis_1">
    <g id="xtick_1">
     <g id="line2d_1">
      <path d="M 97.605 173.54 
L 97.605 41.4432 
" clip-path="url(#pc8197617e0)" style="fill: none; stroke: #b0b0b0; stroke-width: 0.8; stroke-linecap: square"/>
     </g>
     <g id="line2d_2">
      <defs>
       <path id="m49352ed364" d="M 0 0 
L 0 4 
" style="stroke: #000000; stroke-width: 1.5"/>
      </defs>
      <g>
       <use xlink:href="#m49352ed364" x="97.605" y="173.54" style="stroke: #000000; stroke-width: 1.5"/>
      </g>
     </g>
     <g id="text_1">
      <!-- 1900 -->
      <g transform="translate(87.605 187.98375) scale(0.1 -0.1)">
       <defs>
        <path id="TimesNewRomanPSMT-31" d="M 750 3822 
L 1781 4325 
L 1884 4325 
L 1884 747 
Q 1884 391 1914 303 
Q 1944 216 2037 169 
Q 2131 122 2419 116 
L 2419 0 
L 825 0 
L 825 116 
Q 1125 122 1212 167 
Q 1300 213 1334 289 
Q 1369 366 1369 747 
L 1369 3034 
Q 1369 3497 1338 3628 
Q 1316 3728 1258 3775 
Q 1200 3822 1119 3822 
Q 1003 3822 797 3725 
L 750 3822 
z
" transform="scale(0.015625)"/>
        <path id="TimesNewRomanPSMT-39" d="M 338 -88 
L 338 28 
Q 744 34 1094 217 
Q 1444 400 1770 856 
Q 2097 1313 2225 1859 
Q 1734 1544 1338 1544 
Q 891 1544 572 1889 
Q 253 2234 253 2806 
Q 253 3363 572 3797 
Q 956 4325 1575 4325 
Q 2097 4325 2469 3894 
Q 2925 3359 2925 2575 
Q 2925 1869 2578 1258 
Q 2231 647 1613 244 
Q 1109 -88 516 -88 
L 338 -88 
z
M 2275 2091 
Q 2331 2497 2331 2741 
Q 2331 3044 2228 3395 
Q 2125 3747 1936 3934 
Q 1747 4122 1506 4122 
Q 1228 4122 1018 3872 
Q 809 3622 809 3128 
Q 809 2469 1088 2097 
Q 1291 1828 1588 1828 
Q 1731 1828 1928 1897 
Q 2125 1966 2275 2091 
z
" transform="scale(0.015625)"/>
        <path id="TimesNewRomanPSMT-30" d="M 231 2094 
Q 231 2819 450 3342 
Q 669 3866 1031 4122 
Q 1313 4325 1613 4325 
Q 2100 4325 2488 3828 
Q 2972 3213 2972 2159 
Q 2972 1422 2759 906 
Q 2547 391 2217 158 
Q 1888 -75 1581 -75 
Q 975 -75 572 641 
Q 231 1244 231 2094 
z
M 844 2016 
Q 844 1141 1059 588 
Q 1238 122 1591 122 
Q 1759 122 1940 273 
Q 2122 425 2216 781 
Q 2359 1319 2359 2297 
Q 2359 3022 2209 3506 
Q 2097 3866 1919 4016 
Q 1791 4119 1609 4119 
Q 1397 4119 1231 3928 
Q 1006 3669 925 3112 
Q 844 2556 844 2016 
z
" transform="scale(0.015625)"/>
       </defs>
       <use xlink:href="#TimesNewRomanPSMT-31"/>
       <use xlink:href="#TimesNewRomanPSMT-39" x="50"/>
       <use xlink:href="#TimesNewRomanPSMT-30" x="100"/>
       <use xlink:href="#TimesNewRomanPSMT-30" x="150"/>
      </g>
     </g>
    </g>
    <g id="xtick_2">
     <g id="line2d_3">
      <path d="M 149.8725 173.54 
L 149.8725 41.4432 
" clip-path="url(#pc8197617e0)" style="fill: none; stroke: #b0b0b0; stroke-width: 0.8; stroke-linecap: square"/>
     </g>
     <g id="line2d_4">
      <g>
       <use xlink:href="#m49352ed364" x="149.8725" y="173.54" style="stroke: #000000; stroke-width: 1.5"/>
      </g>
     </g>
     <g id="text_2">
      <!-- 1950 -->
      <g transform="translate(139.8725 187.98375) scale(0.1 -0.1)">
       <defs>
        <path id="TimesNewRomanPSMT-35" d="M 2778 4238 
L 2534 3706 
L 1259 3706 
L 981 3138 
Q 1809 3016 2294 2522 
Q 2709 2097 2709 1522 
Q 2709 1188 2573 903 
Q 2438 619 2231 419 
Q 2025 219 1772 97 
Q 1413 -75 1034 -75 
Q 653 -75 479 54 
Q 306 184 306 341 
Q 306 428 378 495 
Q 450 563 559 563 
Q 641 563 702 538 
Q 763 513 909 409 
Q 1144 247 1384 247 
Q 1750 247 2026 523 
Q 2303 800 2303 1197 
Q 2303 1581 2056 1914 
Q 1809 2247 1375 2428 
Q 1034 2569 447 2591 
L 1259 4238 
L 2778 4238 
z
" transform="scale(0.015625)"/>
       </defs>
       <use xlink:href="#TimesNewRomanPSMT-31"/>
       <use xlink:href="#TimesNewRomanPSMT-39" x="50"/>
       <use xlink:href="#TimesNewRomanPSMT-35" x="100"/>
       <use xlink:href="#TimesNewRomanPSMT-30" x="150"/>
      </g>
     </g>
    </g>
    <g id="xtick_3">
     <g id="line2d_5">
      <path d="M 202.14 173.54 
L 202.14 41.4432 
" clip-path="url(#pc8197617e0)" style="fill: none; stroke: #b0b0b0; stroke-width: 0.8; stroke-linecap: square"/>
     </g>
     <g id="line2d_6">
      <g>
       <use xlink:href="#m49352ed364" x="202.14" y="173.54" style="stroke: #000000; stroke-width: 1.5"/>
      </g>
     </g>
     <g id="text_3">
      <!-- 2000 -->
      <g transform="translate(192.14 187.98375) scale(0.1 -0.1)">
       <defs>
        <path id="TimesNewRomanPSMT-32" d="M 2934 816 
L 2638 0 
L 138 0 
L 138 116 
Q 1241 1122 1691 1759 
Q 2141 2397 2141 2925 
Q 2141 3328 1894 3587 
Q 1647 3847 1303 3847 
Q 991 3847 742 3664 
Q 494 3481 375 3128 
L 259 3128 
Q 338 3706 661 4015 
Q 984 4325 1469 4325 
Q 1984 4325 2329 3994 
Q 2675 3663 2675 3213 
Q 2675 2891 2525 2569 
Q 2294 2063 1775 1497 
Q 997 647 803 472 
L 1909 472 
Q 2247 472 2383 497 
Q 2519 522 2628 598 
Q 2738 675 2819 816 
L 2934 816 
z
" transform="scale(0.015625)"/>
       </defs>
       <use xlink:href="#TimesNewRomanPSMT-32"/>
       <use xlink:href="#TimesNewRomanPSMT-30" x="50"/>
       <use xlink:href="#TimesNewRomanPSMT-30" x="100"/>
       <use xlink:href="#TimesNewRomanPSMT-30" x="150"/>
      </g>
     </g>
    </g>
    <g id="xtick_4">
     <g id="line2d_7">
      <path d="M 254.4075 173.54 
L 254.4075 41.4432 
" clip-path="url(#pc8197617e0)" style="fill: none; stroke: #b0b0b0; stroke-width: 0.8; stroke-linecap: square"/>
     </g>
     <g id="line2d_8">
      <g>
       <use xlink:href="#m49352ed364" x="254.4075" y="173.54" style="stroke: #000000; stroke-width: 1.5"/>
      </g>
     </g>
     <g id="text_4">
      <!-- 2050 -->
      <g transform="translate(244.4075 187.98375) scale(0.1 -0.1)">
       <use xlink:href="#TimesNewRomanPSMT-32"/>
       <use xlink:href="#TimesNewRomanPSMT-30" x="50"/>
       <use xlink:href="#TimesNewRomanPSMT-35" x="100"/>
       <use xlink:href="#TimesNewRomanPSMT-30" x="150"/>
      </g>
     </g>
    </g>
    <g id="xtick_5">
     <g id="line2d_9">
      <path d="M 306.675 173.54 
L 306.675 41.4432 
" clip-path="url(#pc8197617e0)" style="fill: none; stroke: #b0b0b0; stroke-width: 0.8; stroke-linecap: square"/>
     </g>
     <g id="line2d_10">
      <g>
       <use xlink:href="#m49352ed364" x="306.675" y="173.54" style="stroke: #000000; stroke-width: 1.5"/>
      </g>
     </g>
     <g id="text_5">
      <!-- 2100 -->
      <g transform="translate(296.675 187.98375) scale(0.1 -0.1)">
       <use xlink:href="#TimesNewRomanPSMT-32"/>
       <use xlink:href="#TimesNewRomanPSMT-31" x="50"/>
       <use xlink:href="#TimesNewRomanPSMT-30" x="100"/>
       <use xlink:href="#TimesNewRomanPSMT-30" x="150"/>
      </g>
     </g>
    </g>
    <g id="xtick_6">
     <g id="line2d_11">
      <path d="M 358.9425 173.54 
L 358.9425 41.4432 
" clip-path="url(#pc8197617e0)" style="fill: none; stroke: #b0b0b0; stroke-width: 0.8; stroke-linecap: square"/>
     </g>
     <g id="line2d_12">
      <g>
       <use xlink:href="#m49352ed364" x="358.9425" y="173.54" style="stroke: #000000; stroke-width: 1.5"/>
      </g>
     </g>
     <g id="text_6">
      <!-- 2150 -->
      <g transform="translate(348.9425 187.98375) scale(0.1 -0.1)">
       <use xlink:href="#TimesNewRomanPSMT-32"/>
       <use xlink:href="#TimesNewRomanPSMT-31" x="50"/>
       <use xlink:href="#TimesNewRomanPSMT-35" x="100"/>
       <use xlink:href="#TimesNewRomanPSMT-30" x="150"/>
      </g>
     </g>
    </g>
    <g id="xtick_7">
     <g id="line2d_13">
      <path d="M 411.21 173.54 
L 411.21 41.4432 
" clip-path="url(#pc8197617e0)" style="fill: none; stroke: #b0b0b0; stroke-width: 0.8; stroke-linecap: square"/>
     </g>
     <g id="line2d_14">
      <g>
       <use xlink:href="#m49352ed364" x="411.21" y="173.54" style="stroke: #000000; stroke-width: 1.5"/>
      </g>
     </g>
     <g id="text_7">
      <!-- 2200 -->
      <g transform="translate(401.21 187.98375) scale(0.1 -0.1)">
       <use xlink:href="#TimesNewRomanPSMT-32"/>
       <use xlink:href="#TimesNewRomanPSMT-32" x="50"/>
       <use xlink:href="#TimesNewRomanPSMT-30" x="100"/>
       <use xlink:href="#TimesNewRomanPSMT-30" x="150"/>
      </g>
     </g>
    </g>
    <g id="text_8">
     <!-- time [years] -->
     <g transform="translate(225.587813 202.455312) scale(0.12 -0.12)">
      <defs>
       <path id="TimesNewRomanPSMT-74" d="M 1031 3803 
L 1031 2863 
L 1700 2863 
L 1700 2644 
L 1031 2644 
L 1031 788 
Q 1031 509 1111 412 
Q 1191 316 1316 316 
Q 1419 316 1516 380 
Q 1613 444 1666 569 
L 1788 569 
Q 1678 263 1478 108 
Q 1278 -47 1066 -47 
Q 922 -47 784 33 
Q 647 113 581 261 
Q 516 409 516 719 
L 516 2644 
L 63 2644 
L 63 2747 
Q 234 2816 414 2980 
Q 594 3144 734 3369 
Q 806 3488 934 3803 
L 1031 3803 
z
" transform="scale(0.015625)"/>
       <path id="TimesNewRomanPSMT-69" d="M 928 4444 
Q 1059 4444 1151 4351 
Q 1244 4259 1244 4128 
Q 1244 3997 1151 3903 
Q 1059 3809 928 3809 
Q 797 3809 703 3903 
Q 609 3997 609 4128 
Q 609 4259 701 4351 
Q 794 4444 928 4444 
z
M 1188 2947 
L 1188 647 
Q 1188 378 1227 289 
Q 1266 200 1342 156 
Q 1419 113 1622 113 
L 1622 0 
L 231 0 
L 231 113 
Q 441 113 512 153 
Q 584 194 626 287 
Q 669 381 669 647 
L 669 1750 
Q 669 2216 641 2353 
Q 619 2453 572 2492 
Q 525 2531 444 2531 
Q 356 2531 231 2484 
L 188 2597 
L 1050 2947 
L 1188 2947 
z
" transform="scale(0.015625)"/>
       <path id="TimesNewRomanPSMT-6d" d="M 1050 2338 
Q 1363 2650 1419 2697 
Q 1559 2816 1721 2881 
Q 1884 2947 2044 2947 
Q 2313 2947 2506 2790 
Q 2700 2634 2766 2338 
Q 3088 2713 3309 2830 
Q 3531 2947 3766 2947 
Q 3994 2947 4170 2830 
Q 4347 2713 4450 2447 
Q 4519 2266 4519 1878 
L 4519 647 
Q 4519 378 4559 278 
Q 4591 209 4675 161 
Q 4759 113 4950 113 
L 4950 0 
L 3538 0 
L 3538 113 
L 3597 113 
Q 3781 113 3884 184 
Q 3956 234 3988 344 
Q 4000 397 4000 647 
L 4000 1878 
Q 4000 2228 3916 2372 
Q 3794 2572 3525 2572 
Q 3359 2572 3192 2489 
Q 3025 2406 2788 2181 
L 2781 2147 
L 2788 2013 
L 2788 647 
Q 2788 353 2820 281 
Q 2853 209 2943 161 
Q 3034 113 3253 113 
L 3253 0 
L 1806 0 
L 1806 113 
Q 2044 113 2133 169 
Q 2222 225 2256 338 
Q 2272 391 2272 647 
L 2272 1878 
Q 2272 2228 2169 2381 
Q 2031 2581 1784 2581 
Q 1616 2581 1450 2491 
Q 1191 2353 1050 2181 
L 1050 647 
Q 1050 366 1089 281 
Q 1128 197 1204 155 
Q 1281 113 1516 113 
L 1516 0 
L 100 0 
L 100 113 
Q 297 113 375 155 
Q 453 197 493 289 
Q 534 381 534 647 
L 534 1741 
Q 534 2213 506 2350 
Q 484 2453 437 2492 
Q 391 2531 309 2531 
Q 222 2531 100 2484 
L 53 2597 
L 916 2947 
L 1050 2947 
L 1050 2338 
z
" transform="scale(0.015625)"/>
       <path id="TimesNewRomanPSMT-65" d="M 681 1784 
Q 678 1147 991 784 
Q 1303 422 1725 422 
Q 2006 422 2214 576 
Q 2422 731 2563 1106 
L 2659 1044 
Q 2594 616 2278 264 
Q 1963 -88 1488 -88 
Q 972 -88 605 314 
Q 238 716 238 1394 
Q 238 2128 614 2539 
Q 991 2950 1559 2950 
Q 2041 2950 2350 2633 
Q 2659 2316 2659 1784 
L 681 1784 
z
M 681 1966 
L 2006 1966 
Q 1991 2241 1941 2353 
Q 1863 2528 1708 2628 
Q 1553 2728 1384 2728 
Q 1125 2728 920 2526 
Q 716 2325 681 1966 
z
" transform="scale(0.015625)"/>
       <path id="TimesNewRomanPSMT-20" transform="scale(0.015625)"/>
       <path id="TimesNewRomanPSMT-5b" d="M 1900 -1269 
L 525 -1269 
L 525 4334 
L 1900 4334 
L 1900 4088 
L 994 4088 
L 994 -1025 
L 1900 -1025 
L 1900 -1269 
z
" transform="scale(0.015625)"/>
       <path id="TimesNewRomanPSMT-79" d="M 38 2863 
L 1372 2863 
L 1372 2747 
L 1306 2747 
Q 1166 2747 1095 2686 
Q 1025 2625 1025 2534 
Q 1025 2413 1128 2197 
L 1825 753 
L 2466 2334 
Q 2519 2463 2519 2588 
Q 2519 2644 2497 2672 
Q 2472 2706 2419 2726 
Q 2366 2747 2231 2747 
L 2231 2863 
L 3163 2863 
L 3163 2747 
Q 3047 2734 2984 2696 
Q 2922 2659 2847 2556 
Q 2819 2513 2741 2316 
L 1575 -541 
Q 1406 -956 1132 -1168 
Q 859 -1381 606 -1381 
Q 422 -1381 303 -1275 
Q 184 -1169 184 -1031 
Q 184 -900 270 -820 
Q 356 -741 506 -741 
Q 609 -741 788 -809 
Q 913 -856 944 -856 
Q 1038 -856 1148 -759 
Q 1259 -663 1372 -384 
L 1575 113 
L 547 2272 
Q 500 2369 397 2513 
Q 319 2622 269 2659 
Q 197 2709 38 2747 
L 38 2863 
z
" transform="scale(0.015625)"/>
       <path id="TimesNewRomanPSMT-61" d="M 1822 413 
Q 1381 72 1269 19 
Q 1100 -59 909 -59 
Q 613 -59 420 144 
Q 228 347 228 678 
Q 228 888 322 1041 
Q 450 1253 767 1440 
Q 1084 1628 1822 1897 
L 1822 2009 
Q 1822 2438 1686 2597 
Q 1550 2756 1291 2756 
Q 1094 2756 978 2650 
Q 859 2544 859 2406 
L 866 2225 
Q 866 2081 792 2003 
Q 719 1925 600 1925 
Q 484 1925 411 2006 
Q 338 2088 338 2228 
Q 338 2497 613 2722 
Q 888 2947 1384 2947 
Q 1766 2947 2009 2819 
Q 2194 2722 2281 2516 
Q 2338 2381 2338 1966 
L 2338 994 
Q 2338 584 2353 492 
Q 2369 400 2405 369 
Q 2441 338 2488 338 
Q 2538 338 2575 359 
Q 2641 400 2828 588 
L 2828 413 
Q 2478 -56 2159 -56 
Q 2006 -56 1915 50 
Q 1825 156 1822 413 
z
M 1822 616 
L 1822 1706 
Q 1350 1519 1213 1441 
Q 966 1303 859 1153 
Q 753 1003 753 825 
Q 753 600 887 451 
Q 1022 303 1197 303 
Q 1434 303 1822 616 
z
" transform="scale(0.015625)"/>
       <path id="TimesNewRomanPSMT-72" d="M 1038 2947 
L 1038 2303 
Q 1397 2947 1775 2947 
Q 1947 2947 2059 2842 
Q 2172 2738 2172 2600 
Q 2172 2478 2090 2393 
Q 2009 2309 1897 2309 
Q 1788 2309 1652 2417 
Q 1516 2525 1450 2525 
Q 1394 2525 1328 2463 
Q 1188 2334 1038 2041 
L 1038 669 
Q 1038 431 1097 309 
Q 1138 225 1241 169 
Q 1344 113 1538 113 
L 1538 0 
L 72 0 
L 72 113 
Q 291 113 397 181 
Q 475 231 506 341 
Q 522 394 522 644 
L 522 1753 
Q 522 2253 501 2348 
Q 481 2444 426 2487 
Q 372 2531 291 2531 
Q 194 2531 72 2484 
L 41 2597 
L 906 2947 
L 1038 2947 
z
" transform="scale(0.015625)"/>
       <path id="TimesNewRomanPSMT-73" d="M 2050 2947 
L 2050 1972 
L 1947 1972 
Q 1828 2431 1642 2597 
Q 1456 2763 1169 2763 
Q 950 2763 815 2647 
Q 681 2531 681 2391 
Q 681 2216 781 2091 
Q 878 1963 1175 1819 
L 1631 1597 
Q 2266 1288 2266 781 
Q 2266 391 1970 151 
Q 1675 -88 1309 -88 
Q 1047 -88 709 6 
Q 606 38 541 38 
Q 469 38 428 -44 
L 325 -44 
L 325 978 
L 428 978 
Q 516 541 762 319 
Q 1009 97 1316 97 
Q 1531 97 1667 223 
Q 1803 350 1803 528 
Q 1803 744 1651 891 
Q 1500 1038 1047 1263 
Q 594 1488 453 1669 
Q 313 1847 313 2119 
Q 313 2472 555 2709 
Q 797 2947 1181 2947 
Q 1350 2947 1591 2875 
Q 1750 2828 1803 2828 
Q 1853 2828 1881 2850 
Q 1909 2872 1947 2947 
L 2050 2947 
z
" transform="scale(0.015625)"/>
       <path id="TimesNewRomanPSMT-5d" d="M 234 4334 
L 1609 4334 
L 1609 -1272 
L 234 -1272 
L 234 -1025 
L 1141 -1025 
L 1141 4088 
L 234 4088 
L 234 4334 
z
" transform="scale(0.015625)"/>
      </defs>
      <use xlink:href="#TimesNewRomanPSMT-74"/>
      <use xlink:href="#TimesNewRomanPSMT-69" x="27.783203"/>
      <use xlink:href="#TimesNewRomanPSMT-6d" x="55.566406"/>
      <use xlink:href="#TimesNewRomanPSMT-65" x="133.349609"/>
      <use xlink:href="#TimesNewRomanPSMT-20" x="177.734375"/>
      <use xlink:href="#TimesNewRomanPSMT-5b" x="202.734375"/>
      <use xlink:href="#TimesNewRomanPSMT-79" x="236.035156"/>
      <use xlink:href="#TimesNewRomanPSMT-65" x="286.035156"/>
      <use xlink:href="#TimesNewRomanPSMT-61" x="330.419922"/>
      <use xlink:href="#TimesNewRomanPSMT-72" x="374.804688"/>
      <use xlink:href="#TimesNewRomanPSMT-73" x="408.105469"/>
      <use xlink:href="#TimesNewRomanPSMT-5d" x="447.021484"/>
     </g>
    </g>
   </g>
   <g id="matplotlib.axis_2">
    <g id="ytick_1">
     <g id="line2d_15">
      <path d="M 97.605 163.260552 
L 411.21 163.260552 
" clip-path="url(#pc8197617e0)" style="fill: none; stroke: #b0b0b0; stroke-width: 0.8; stroke-linecap: square"/>
     </g>
     <g id="line2d_16">
      <defs>
       <path id="mee6d034f5a" d="M 0 0 
L -4 0 
" style="stroke: #1f77b4; stroke-width: 1.5"/>
      </defs>
      <g>
       <use xlink:href="#mee6d034f5a" x="97.605" y="163.260552" style="fill: #1f77b4; stroke: #1f77b4; stroke-width: 1.5"/>
      </g>
     </g>
     <g id="text_9">
      <!-- −2 -->
      <g style="fill: #1f77b4" transform="translate(87.965938 170.42774) rotate(-90) scale(0.1 -0.1)">
       <defs>
        <path id="TimesNewRomanPSMT-2212" d="M 3484 2000 
L 116 2000 
L 116 2256 
L 3484 2256 
L 3484 2000 
z
" transform="scale(0.015625)"/>
       </defs>
       <use xlink:href="#TimesNewRomanPSMT-2212"/>
       <use xlink:href="#TimesNewRomanPSMT-32" x="56.396484"/>
      </g>
     </g>
    </g>
    <g id="ytick_2">
     <g id="line2d_17">
      <path d="M 97.605 124.36801 
L 411.21 124.36801 
" clip-path="url(#pc8197617e0)" style="fill: none; stroke: #b0b0b0; stroke-width: 0.8; stroke-linecap: square"/>
     </g>
     <g id="line2d_18">
      <g>
       <use xlink:href="#mee6d034f5a" x="97.605" y="124.36801" style="fill: #1f77b4; stroke: #1f77b4; stroke-width: 1.5"/>
      </g>
     </g>
     <g id="text_10">
      <!-- −800 m -->
      <g style="fill: #1f77b4" transform="translate(87.965937 151.314885) rotate(-90) scale(0.1 -0.1)">
       <defs>
        <path id="TimesNewRomanPSMT-38" d="M 1228 2134 
Q 725 2547 579 2797 
Q 434 3047 434 3316 
Q 434 3728 753 4026 
Q 1072 4325 1600 4325 
Q 2113 4325 2425 4047 
Q 2738 3769 2738 3413 
Q 2738 3175 2569 2928 
Q 2400 2681 1866 2347 
Q 2416 1922 2594 1678 
Q 2831 1359 2831 1006 
Q 2831 559 2490 242 
Q 2150 -75 1597 -75 
Q 994 -75 656 303 
Q 388 606 388 966 
Q 388 1247 577 1523 
Q 766 1800 1228 2134 
z
M 1719 2469 
Q 2094 2806 2194 3001 
Q 2294 3197 2294 3444 
Q 2294 3772 2109 3958 
Q 1925 4144 1606 4144 
Q 1288 4144 1088 3959 
Q 888 3775 888 3528 
Q 888 3366 970 3203 
Q 1053 3041 1206 2894 
L 1719 2469 
z
M 1375 2016 
Q 1116 1797 991 1539 
Q 866 1281 866 981 
Q 866 578 1086 336 
Q 1306 94 1647 94 
Q 1984 94 2187 284 
Q 2391 475 2391 747 
Q 2391 972 2272 1150 
Q 2050 1481 1375 2016 
z
" transform="scale(0.015625)"/>
        <path id="TimesNewRomanPSMT-2009" d="M 0 0 
L 0 0 
z
" transform="scale(0.015625)"/>
       </defs>
       <use xlink:href="#TimesNewRomanPSMT-2212"/>
       <use xlink:href="#TimesNewRomanPSMT-38" x="56.396484"/>
       <use xlink:href="#TimesNewRomanPSMT-30" x="106.396484"/>
       <use xlink:href="#TimesNewRomanPSMT-30" x="156.396484"/>
       <use xlink:href="#TimesNewRomanPSMT-2009" x="206.396484"/>
       <use xlink:href="#TimesNewRomanPSMT-6d" x="226.416016"/>
      </g>
     </g>
    </g>
    <g id="ytick_3">
     <g id="line2d_19">
      <path d="M 97.605 85.475467 
L 411.21 85.475467 
" clip-path="url(#pc8197617e0)" style="fill: none; stroke: #b0b0b0; stroke-width: 0.8; stroke-linecap: square"/>
     </g>
     <g id="line2d_20">
      <g>
       <use xlink:href="#mee6d034f5a" x="97.605" y="85.475467" style="fill: #1f77b4; stroke: #1f77b4; stroke-width: 1.5"/>
      </g>
     </g>
     <g id="text_11">
      <!-- 0 -->
      <g style="fill: #1f77b4" transform="translate(87.965938 87.003592) rotate(-90) scale(0.1 -0.1)">
       <use xlink:href="#TimesNewRomanPSMT-30"/>
      </g>
     </g>
    </g>
    <g id="ytick_4">
     <g id="line2d_21">
      <path d="M 97.605 46.582924 
L 411.21 46.582924 
" clip-path="url(#pc8197617e0)" style="fill: none; stroke: #b0b0b0; stroke-width: 0.8; stroke-linecap: square"/>
     </g>
     <g id="line2d_22">
      <g>
       <use xlink:href="#mee6d034f5a" x="97.605" y="46.582924" style="fill: #1f77b4; stroke: #1f77b4; stroke-width: 1.5"/>
      </g>
     </g>
     <g id="text_12">
      <!-- 800 m -->
      <g style="fill: #1f77b4" transform="translate(87.965937 67.890736) rotate(-90) scale(0.1 -0.1)">
       <use xlink:href="#TimesNewRomanPSMT-38"/>
       <use xlink:href="#TimesNewRomanPSMT-30" x="50"/>
       <use xlink:href="#TimesNewRomanPSMT-30" x="100"/>
       <use xlink:href="#TimesNewRomanPSMT-2009" x="150"/>
       <use xlink:href="#TimesNewRomanPSMT-6d" x="170.019531"/>
      </g>
     </g>
    </g>
    <g id="text_13">
     <!-- NN_0 -->
     <g style="fill: #1f77b4" transform="translate(98.619 37.532857) scale(0.12 -0.12)">
      <defs>
       <path id="TimesNewRomanPSMT-4e" d="M -84 4238 
L 1066 4238 
L 3656 1059 
L 3656 3503 
Q 3656 3894 3569 3991 
Q 3453 4122 3203 4122 
L 3056 4122 
L 3056 4238 
L 4531 4238 
L 4531 4122 
L 4381 4122 
Q 4113 4122 4000 3959 
Q 3931 3859 3931 3503 
L 3931 -69 
L 3819 -69 
L 1025 3344 
L 1025 734 
Q 1025 344 1109 247 
Q 1228 116 1475 116 
L 1625 116 
L 1625 0 
L 150 0 
L 150 116 
L 297 116 
Q 569 116 681 278 
Q 750 378 750 734 
L 750 3681 
Q 566 3897 470 3965 
Q 375 4034 191 4094 
Q 100 4122 -84 4122 
L -84 4238 
z
" transform="scale(0.015625)"/>
       <path id="TimesNewRomanPSMT-5f" d="M 3256 -1381 
L -53 -1381 
L -53 -1119 
L 3256 -1119 
L 3256 -1381 
z
" transform="scale(0.015625)"/>
      </defs>
      <use xlink:href="#TimesNewRomanPSMT-4e"/>
      <use xlink:href="#TimesNewRomanPSMT-4e" x="72.216797"/>
      <use xlink:href="#TimesNewRomanPSMT-5f" x="144.433594"/>
      <use xlink:href="#TimesNewRomanPSMT-30" x="194.433594"/>
     </g>
    </g>
   </g>
   <g id="line2d_23">
    <path d="M 97.605 85.475467 
L 98.127675 57.496348 
L 98.65035 57.447587 
L 99.173025 59.217339 
L 99.6957 61.91766 
L 100.74105 65.736551 
L 101.7864 68.888635 
L 102.309075 69.694325 
L 105.9678 73.725586 
L 108.0585 75.712621 
L 110.1492 77.369808 
L 112.2399 78.706298 
L 114.3306 79.747957 
L 117.46665 81.079535 
L 120.080025 81.974321 
L 123.216075 82.855473 
L 128.442825 83.63408 
L 134.714925 84.272854 
L 136.28295 84.205413 
L 138.37365 83.881039 
L 139.941675 83.551568 
L 140.46435 76.620234 
L 141.5097 76.954021 
L 142.55505 77.050076 
L 143.077725 76.814778 
L 143.6004 79.910572 
L 144.123075 84.494767 
L 144.64575 82.929353 
L 145.168425 82.22545 
L 147.7818 82.230257 
L 150.395175 82.658679 
L 150.91785 82.692969 
L 151.9632 82.361421 
L 154.0539 82.068432 
L 158.757975 81.774022 
L 161.894025 81.8428 
L 163.46205 81.942661 
L 164.5074 82.224995 
L 166.075425 81.032097 
L 168.6888 80.655821 
L 169.73415 80.653118 
L 171.302175 80.799662 
L 172.347525 80.780067 
L 173.91555 81.201833 
L 174.9609 81.524509 
L 177.0516 81.340008 
L 179.664975 81.489549 
L 184.36905 82.176283 
L 185.937075 82.888954 
L 188.55045 82.591233 
L 192.73185 82.064977 
L 194.299875 82.322022 
L 194.82255 82.347707 
L 195.345225 82.895713 
L 196.390575 81.506036 
L 197.435925 80.608557 
L 198.481275 79.883808 
L 199.00395 79.756296 
L 201.09465 79.874493 
L 202.14 80.078995 
L 205.798725 81.586876 
L 206.844075 81.794617 
L 207.36675 81.83398 
L 207.889425 81.619421 
L 208.934775 80.805873 
L 210.5028 79.898049 
L 211.025475 79.628595 
L 211.54815 79.528793 
L 212.5935 79.847053 
L 213.63885 80.88715 
L 214.161525 80.623187 
L 215.72955 77.655272 
L 216.252225 76.694185 
L 216.7749 76.842462 
L 217.297575 77.283525 
L 217.82025 77.511128 
L 219.388275 77.813972 
L 219.91095 77.763272 
L 220.433625 76.843322 
L 222.524325 70.087457 
L 223.569675 65.927428 
L 224.615025 65.914326 
L 226.705725 65.076013 
L 227.2284 64.083603 
L 227.751075 62.674193 
L 228.796425 50.844385 
L 229.3191 47.66427 
L 229.841775 43.034185 
L 230.36445 41.879163 
L 231.4098 51.816829 
L 232.977825 61.556481 
L 233.5005 63.676217 
L 234.023175 64.424637 
L 234.54585 65.478185 
L 235.5912 68.446373 
L 236.113875 69.496243 
L 236.63655 70.223446 
L 237.159225 70.283597 
L 238.204575 69.214125 
L 238.72725 69.664809 
L 239.249925 70.564735 
L 239.7726 70.687089 
L 240.295275 69.515994 
L 240.81795 68.749554 
L 241.340625 68.77176 
L 241.8633 69.358904 
L 243.954 70.841852 
L 244.476675 71.582246 
L 246.0447 72.340586 
L 247.09005 72.084305 
L 248.1354 72.540364 
L 249.703425 73.470764 
L 251.27145 76.157123 
L 251.794125 76.490913 
L 252.3168 76.437333 
L 252.839475 76.105895 
L 253.884825 75.153949 
L 254.930175 76.224846 
L 255.45285 76.253955 
L 256.4982 75.372653 
L 257.020875 74.803802 
L 258.066225 73.128218 
L 259.111575 70.982112 
L 261.202275 67.374853 
L 261.72495 66.891026 
L 262.247625 66.812613 
L 262.7703 67.078851 
L 263.81565 67.182396 
L 264.861 67.583328 
L 265.383675 67.606804 
L 265.90635 68.009611 
L 267.99705 70.988311 
L 269.0424 71.536938 
L 270.610425 73.403393 
L 272.17845 74.995839 
L 273.746475 76.05446 
L 274.791825 76.869778 
L 275.3145 77.207416 
L 276.882525 77.919979 
L 278.973225 79.223874 
L 280.018575 79.66585 
L 280.54125 79.839998 
L 282.63195 80.112523 
L 284.199975 80.46161 
L 287.8587 80.697261 
L 290.472075 80.222991 
L 291.517425 80.529478 
L 293.608125 81.154044 
L 295.17615 81.427252 
L 296.2215 81.474077 
L 298.834875 82.263905 
L 302.4936 82.50345 
L 304.061625 82.289408 
L 305.106975 82.536005 
L 309.81105 83.184835 
L 314.515125 83.470646 
L 317.651175 83.622637 
L 322.877925 83.89132 
L 326.013975 84.268691 
L 329.6727 84.281132 
L 336.99015 84.420912 
L 344.830275 84.480485 
L 357.374475 84.643692 
L 367.3053 84.635127 
L 390.825675 84.855701 
L 411.21 84.748484 
L 411.21 84.748484 
" clip-path="url(#pc8197617e0)" style="fill: none; stroke: #1f77b4; stroke-linecap: square"/>
   </g>
   <g id="patch_3">
    <path d="M 97.605 173.54 
L 97.605 41.4432 
" style="fill: none; stroke: #000000; stroke-width: 0.8; stroke-linejoin: miter; stroke-linecap: square"/>
   </g>
   <g id="patch_4">
    <path d="M 411.21 173.54 
L 411.21 41.4432 
" style="fill: none; stroke: #000000; stroke-width: 0.8; stroke-linejoin: miter; stroke-linecap: square"/>
   </g>
   <g id="patch_5">
    <path d="M 97.605 173.54 
L 411.21 173.54 
" style="fill: none; stroke: #000000; stroke-width: 0.8; stroke-linejoin: miter; stroke-linecap: square"/>
   </g>
   <g id="patch_6">
    <path d="M 97.605 41.4432 
L 411.21 41.4432 
" style="fill: none; stroke: #000000; stroke-width: 0.8; stroke-linejoin: miter; stroke-linecap: square"/>
   </g>
  </g>
  <g id="axes_2">
   <g id="matplotlib.axis_3">
    <g id="ytick_5">
     <g id="line2d_24">
      <defs>
       <path id="mdbdb992013" d="M 0 0 
L -4 0 
" style="stroke: #ff7f0e; stroke-width: 1.5"/>
      </defs>
      <g>
       <use xlink:href="#mdbdb992013" x="66.2445" y="173.54" style="fill: #ff7f0e; stroke: #ff7f0e; stroke-width: 1.5"/>
      </g>
     </g>
     <g id="text_14">
      <!-- 0 -->
      <g style="fill: #ff7f0e" transform="translate(56.605437 175.068125) rotate(-90) scale(0.1 -0.1)">
       <use xlink:href="#TimesNewRomanPSMT-30"/>
      </g>
     </g>
    </g>
    <g id="ytick_6">
     <g id="line2d_25">
      <g>
       <use xlink:href="#mdbdb992013" x="66.2445" y="136.65613" style="fill: #ff7f0e; stroke: #ff7f0e; stroke-width: 1.5"/>
      </g>
     </g>
     <g id="text_15">
      <!-- 50 m -->
      <g style="fill: #ff7f0e" transform="translate(56.605437 152.963942) rotate(-90) scale(0.1 -0.1)">
       <use xlink:href="#TimesNewRomanPSMT-35"/>
       <use xlink:href="#TimesNewRomanPSMT-30" x="50"/>
       <use xlink:href="#TimesNewRomanPSMT-2009" x="100"/>
       <use xlink:href="#TimesNewRomanPSMT-6d" x="120.019531"/>
      </g>
     </g>
    </g>
    <g id="ytick_7">
     <g id="line2d_26">
      <g>
       <use xlink:href="#mdbdb992013" x="66.2445" y="99.77226" style="fill: #ff7f0e; stroke: #ff7f0e; stroke-width: 1.5"/>
      </g>
     </g>
     <g id="text_16">
      <!-- 100 m -->
      <g style="fill: #ff7f0e" transform="translate(56.605437 121.080072) rotate(-90) scale(0.1 -0.1)">
       <use xlink:href="#TimesNewRomanPSMT-31"/>
       <use xlink:href="#TimesNewRomanPSMT-30" x="50"/>
       <use xlink:href="#TimesNewRomanPSMT-30" x="100"/>
       <use xlink:href="#TimesNewRomanPSMT-2009" x="150"/>
       <use xlink:href="#TimesNewRomanPSMT-6d" x="170.019531"/>
      </g>
     </g>
    </g>
    <g id="ytick_8">
     <g id="line2d_27">
      <g>
       <use xlink:href="#mdbdb992013" x="66.2445" y="62.88839" style="fill: #ff7f0e; stroke: #ff7f0e; stroke-width: 1.5"/>
      </g>
     </g>
     <g id="text_17">
      <!-- 150 m -->
      <g style="fill: #ff7f0e" transform="translate(56.605437 84.196202) rotate(-90) scale(0.1 -0.1)">
       <use xlink:href="#TimesNewRomanPSMT-31"/>
       <use xlink:href="#TimesNewRomanPSMT-35" x="50"/>
       <use xlink:href="#TimesNewRomanPSMT-30" x="100"/>
       <use xlink:href="#TimesNewRomanPSMT-2009" x="150"/>
       <use xlink:href="#TimesNewRomanPSMT-6d" x="170.019531"/>
      </g>
     </g>
    </g>
    <g id="text_18">
     <!-- NN_20 -->
     <g style="fill: #ff7f0e" transform="translate(56.418375 37.532857) scale(0.12 -0.12)">
      <use xlink:href="#TimesNewRomanPSMT-4e"/>
      <use xlink:href="#TimesNewRomanPSMT-4e" x="72.216797"/>
      <use xlink:href="#TimesNewRomanPSMT-5f" x="144.433594"/>
      <use xlink:href="#TimesNewRomanPSMT-32" x="194.433594"/>
      <use xlink:href="#TimesNewRomanPSMT-30" x="244.433594"/>
     </g>
    </g>
   </g>
   <g id="line2d_28">
    <path d="M 97.605 173.54 
L 98.127675 42.751089 
L 98.65035 52.442678 
L 99.173025 81.112134 
L 99.6957 91.291302 
L 100.74105 103.821433 
L 101.263725 108.004409 
L 101.7864 108.635782 
L 102.83175 111.874436 
L 103.354425 112.419955 
L 103.8771 115.50856 
L 104.92245 123.88174 
L 105.445125 127.413658 
L 105.9678 129.435853 
L 107.535825 139.026855 
L 108.0585 140.054647 
L 109.10385 135.332526 
L 110.1492 135.822045 
L 110.671875 136.730109 
L 112.2399 141.912259 
L 113.28525 143.49915 
L 114.3306 146.073752 
L 114.853275 148.413976 
L 115.37595 150.013417 
L 116.4213 152.323575 
L 117.989325 154.985092 
L 119.55735 157.393791 
L 121.64805 160.253509 
L 122.170725 160.820731 
L 122.6934 161.178016 
L 123.73875 161.242331 
L 124.7841 160.479036 
L 125.306775 159.982138 
L 125.82945 159.963306 
L 126.352125 160.293481 
L 127.397475 162.020026 
L 127.92015 162.112736 
L 128.442825 161.63162 
L 131.0562 154.842129 
L 131.578875 153.172161 
L 132.10155 154.345024 
L 133.1469 158.724898 
L 133.669575 159.728362 
L 134.714925 154.601588 
L 137.3283 141.071021 
L 137.850975 138.953953 
L 138.896325 130.67576 
L 139.941675 122.355208 
L 140.46435 105.152151 
L 140.987025 128.509355 
L 141.5097 140.762065 
L 142.55505 154.471962 
L 143.077725 159.335902 
L 143.6004 163.129372 
L 144.123075 165.913754 
L 144.64575 166.694248 
L 145.168425 166.605478 
L 145.6911 166.118079 
L 146.213775 165.94547 
L 146.73645 164.956519 
L 147.259125 164.907945 
L 147.7818 163.889729 
L 149.349825 155.070816 
L 150.395175 150.102616 
L 150.91785 149.025584 
L 151.9632 154.040653 
L 152.485875 156.1666 
L 153.531225 158.93571 
L 154.576575 160.930967 
L 155.09925 161.474616 
L 156.1446 162.106032 
L 156.667275 163.049646 
L 157.712625 165.498181 
L 158.2353 166.057305 
L 159.28065 165.279749 
L 160.326 164.101904 
L 160.848675 163.206045 
L 161.894025 159.47975 
L 163.46205 151.471585 
L 163.984725 148.628798 
L 164.5074 146.559477 
L 165.030075 149.46875 
L 165.55275 151.409586 
L 166.075425 155.7031 
L 166.5981 158.745001 
L 167.120775 160.990096 
L 167.64345 161.689346 
L 168.166125 161.704513 
L 168.6888 161.007499 
L 169.211475 161.079051 
L 171.302175 161.724243 
L 171.82485 161.677986 
L 172.347525 162.923052 
L 172.8702 163.437879 
L 173.392875 163.360957 
L 174.9609 159.426495 
L 176.528925 165.453036 
L 177.0516 166.56021 
L 177.574275 166.198132 
L 178.09695 165.089366 
L 178.619625 163.324676 
L 179.1423 162.004164 
L 179.664975 163.201948 
L 180.18765 163.769045 
L 180.710325 163.552443 
L 181.233 164.143603 
L 181.755675 165.664957 
L 182.27835 166.78534 
L 182.801025 167.174479 
L 183.3237 167.340137 
L 183.846375 167.37482 
L 185.4144 166.566841 
L 185.937075 165.693789 
L 186.45975 165.351919 
L 187.5051 163.227121 
L 189.5958 160.793575 
L 190.118475 160.579281 
L 190.64115 161.211619 
L 191.163825 162.522778 
L 191.6865 163.530206 
L 192.209175 164.103648 
L 192.73185 162.315185 
L 193.254525 163.390777 
L 193.7772 163.398751 
L 194.299875 162.213159 
L 194.82255 157.788014 
L 195.8679 164.546955 
L 196.390575 164.534908 
L 196.91325 164.204739 
L 197.435925 164.520013 
L 197.9586 165.113903 
L 198.481275 166.055576 
L 199.00395 166.545182 
L 199.526625 166.776303 
L 201.09465 161.807718 
L 201.617325 161.0969 
L 202.14 160.80794 
L 203.18535 164.460555 
L 203.708025 165.250558 
L 204.2307 164.185044 
L 205.27605 161.091503 
L 206.3214 154.991568 
L 206.844075 151.565205 
L 207.36675 149.171279 
L 207.889425 151.659779 
L 208.934775 162.519381 
L 209.45745 166.692553 
L 209.980125 167.807407 
L 211.025475 161.719023 
L 211.54815 160.67233 
L 212.070825 161.878518 
L 212.5935 161.896138 
L 213.63885 156.839711 
L 214.161525 153.957752 
L 215.206875 141.474331 
L 215.72955 138.683401 
L 216.252225 140.533687 
L 216.7749 147.75929 
L 217.297575 152.016859 
L 217.82025 152.67316 
L 218.342925 159.013557 
L 218.8656 161.73794 
L 219.388275 162.374231 
L 219.91095 161.611076 
L 221.478975 156.522609 
L 223.047 149.979189 
L 223.569675 149.96928 
L 224.09235 155.794357 
L 224.615025 159.63716 
L 225.1377 157.913248 
L 225.660375 159.803532 
L 226.18305 158.979832 
L 227.2284 153.26842 
L 227.751075 150.136149 
L 228.27375 141.884483 
L 228.796425 142.370922 
L 229.3191 141.383409 
L 229.841775 140.885816 
L 230.887125 161.292693 
L 231.4098 153.236848 
L 231.932475 154.558048 
L 232.45515 150.919881 
L 232.977825 153.043784 
L 233.5005 148.781737 
L 234.023175 147.302616 
L 234.54585 148.676042 
L 235.068525 154.184733 
L 235.5912 163.539122 
L 236.113875 154.57093 
L 236.63655 159.138821 
L 237.159225 159.027306 
L 237.6819 164.220857 
L 238.204575 161.261345 
L 239.7726 139.783984 
L 240.295275 151.593363 
L 240.81795 149.422358 
L 241.340625 150.904424 
L 241.8633 146.104735 
L 242.385975 135.883191 
L 242.90865 138.667498 
L 243.954 151.202515 
L 244.476675 154.580656 
L 244.99935 156.205494 
L 245.522025 158.730427 
L 246.0447 155.759274 
L 246.567375 157.467695 
L 247.09005 158.350807 
L 247.612725 158.460569 
L 248.658075 160.680699 
L 249.18075 160.191514 
L 249.703425 160.829413 
L 250.2261 162.969865 
L 250.748775 162.287538 
L 251.27145 160.168005 
L 251.794125 158.827484 
L 252.839475 149.824931 
L 253.36215 156.631164 
L 253.884825 161.225209 
L 254.4075 161.020141 
L 254.930175 159.829716 
L 255.45285 158.045374 
L 255.975525 158.005252 
L 256.4982 157.612259 
L 257.020875 156.728176 
L 257.54355 156.456677 
L 258.5889 153.685377 
L 259.111575 155.100141 
L 259.63425 157.17745 
L 260.156925 156.016366 
L 260.6796 155.364549 
L 261.202275 153.228203 
L 261.72495 153.233132 
L 262.247625 151.157439 
L 262.7703 156.436572 
L 263.292975 159.435183 
L 263.81565 160.99786 
L 264.338325 161.794288 
L 264.861 161.39892 
L 265.383675 160.543067 
L 265.90635 158.022718 
L 266.9517 151.079431 
L 267.474375 151.705023 
L 267.99705 155.11606 
L 269.0424 163.70772 
L 269.565075 165.566588 
L 270.08775 164.217462 
L 270.610425 163.576346 
L 271.1331 163.216153 
L 271.655775 161.999932 
L 272.17845 161.126729 
L 272.701125 160.651667 
L 273.2238 160.924241 
L 273.746475 162.306072 
L 274.791825 166.069743 
L 275.837175 166.187528 
L 276.35985 166.111975 
L 276.882525 165.236348 
L 277.4052 163.395435 
L 277.927875 163.326677 
L 278.45055 162.683927 
L 278.973225 161.686579 
L 280.018575 158.996581 
L 280.54125 159.020335 
L 281.063925 159.763282 
L 281.5866 161.852465 
L 282.109275 161.804081 
L 282.63195 162.405773 
L 283.154625 162.334013 
L 283.6773 161.929936 
L 284.199975 161.677864 
L 284.72265 161.951652 
L 285.245325 162.766641 
L 285.768 162.960682 
L 286.81335 161.963623 
L 287.8587 159.349022 
L 288.381375 160.041852 
L 288.90405 161.517989 
L 289.426725 162.519435 
L 289.9494 162.531467 
L 290.472075 162.051634 
L 290.99475 161.94996 
L 291.517425 162.130673 
L 292.0401 162.552132 
L 292.562775 162.0403 
L 293.08545 161.718204 
L 293.608125 162.191926 
L 294.653475 160.959814 
L 295.17615 160.667116 
L 295.698825 160.639839 
L 297.26685 160.986144 
L 298.3122 162.346154 
L 298.834875 162.577881 
L 299.35755 162.520247 
L 300.4029 157.996195 
L 301.970925 155.224898 
L 303.016275 155.181938 
L 303.53895 155.315505 
L 304.061625 156.173308 
L 305.106975 159.506786 
L 306.152325 163.227166 
L 306.675 164.442556 
L 307.197675 165.274818 
L 307.72035 165.693872 
L 308.243025 165.731537 
L 308.7657 165.374462 
L 309.288375 164.470424 
L 310.333725 163.201649 
L 310.8564 162.856247 
L 311.379075 163.009761 
L 311.90175 162.553819 
L 312.424425 161.730128 
L 312.9471 161.557413 
L 313.99245 159.211491 
L 314.515125 159.201142 
L 315.0378 160.344952 
L 316.08315 163.272485 
L 316.605825 164.328985 
L 317.651175 165.336195 
L 318.17385 165.686729 
L 320.26455 164.829472 
L 320.787225 164.7089 
L 321.3099 164.473871 
L 322.35525 163.262307 
L 322.877925 162.932926 
L 323.4006 163.203461 
L 326.013975 165.955015 
L 327.059325 166.95279 
L 328.104675 167.561838 
L 330.195375 167.5786 
L 330.71805 167.720976 
L 331.240725 168.136706 
L 333.331425 167.302361 
L 335.9448 166.845736 
L 336.99015 167.557851 
L 339.603525 168.060816 
L 341.17155 168.325353 
L 345.35295 168.891617 
L 352.147725 167.765935 
L 356.329125 165.894403 
L 356.8518 165.929581 
L 359.465175 167.051302 
L 361.555875 167.719085 
L 364.16925 168.293757 
L 366.782625 168.559435 
L 367.827975 168.545438 
L 369.396 168.434942 
L 372.009375 169.047597 
L 373.5774 169.295725 
L 376.71345 170.305929 
L 379.8495 170.839199 
L 385.07625 171.276388 
L 387.689625 171.441544 
L 389.780325 171.719352 
L 391.871025 171.843544 
L 393.43905 171.904193 
L 398.6658 172.026119 
L 401.279175 171.865388 
L 404.9379 171.646552 
L 411.21 171.553432 
L 411.21 171.553432 
" clip-path="url(#pc8197617e0)" style="fill: none; stroke: #ff7f0e; stroke-linecap: square"/>
   </g>
   <g id="patch_7">
    <path d="M 66.2445 173.54 
L 66.2445 41.4432 
" style="fill: none; stroke: #000000; stroke-width: 0.8; stroke-linejoin: miter; stroke-linecap: square"/>
   </g>
   <g id="patch_8">
    <path d="M 411.21 173.54 
L 411.21 41.4432 
" style="fill: none; stroke: #000000; stroke-width: 0.8; stroke-linejoin: miter; stroke-linecap: square"/>
   </g>
   <g id="patch_9">
    <path d="M 97.605 173.54 
L 411.21 173.54 
" style="fill: none; stroke: #000000; stroke-width: 0.8; stroke-linejoin: miter; stroke-linecap: square"/>
   </g>
   <g id="patch_10">
    <path d="M 97.605 41.4432 
L 411.21 41.4432 
" style="fill: none; stroke: #000000; stroke-width: 0.8; stroke-linejoin: miter; stroke-linecap: square"/>
   </g>
  </g>
  <g id="axes_3">
   <g id="matplotlib.axis_4">
    <g id="ytick_9">
     <g id="line2d_29">
      <defs>
       <path id="m87a89a429a" d="M 0 0 
L -4 0 
" style="stroke: #2ca02c; stroke-width: 1.5"/>
      </defs>
      <g>
       <use xlink:href="#m87a89a429a" x="34.884" y="173.54" style="fill: #2ca02c; stroke: #2ca02c; stroke-width: 1.5"/>
      </g>
     </g>
     <g id="text_19">
      <!-- 0 -->
      <g style="fill: #2ca02c" transform="translate(25.244937 175.068125) rotate(-90) scale(0.1 -0.1)">
       <use xlink:href="#TimesNewRomanPSMT-30"/>
      </g>
     </g>
    </g>
    <g id="ytick_10">
     <g id="line2d_30">
      <g>
       <use xlink:href="#m87a89a429a" x="34.884" y="136.453783" style="fill: #2ca02c; stroke: #2ca02c; stroke-width: 1.5"/>
      </g>
     </g>
     <g id="text_20">
      <!-- 80 m -->
      <g style="fill: #2ca02c" transform="translate(25.244937 152.761595) rotate(-90) scale(0.1 -0.1)">
       <use xlink:href="#TimesNewRomanPSMT-38"/>
       <use xlink:href="#TimesNewRomanPSMT-30" x="50"/>
       <use xlink:href="#TimesNewRomanPSMT-2009" x="100"/>
       <use xlink:href="#TimesNewRomanPSMT-6d" x="120.019531"/>
      </g>
     </g>
    </g>
    <g id="ytick_11">
     <g id="line2d_31">
      <g>
       <use xlink:href="#m87a89a429a" x="34.884" y="99.367565" style="fill: #2ca02c; stroke: #2ca02c; stroke-width: 1.5"/>
      </g>
     </g>
     <g id="text_21">
      <!-- 160 m -->
      <g style="fill: #2ca02c" transform="translate(25.244937 120.675378) rotate(-90) scale(0.1 -0.1)">
       <defs>
        <path id="TimesNewRomanPSMT-36" d="M 2869 4325 
L 2869 4209 
Q 2456 4169 2195 4045 
Q 1934 3922 1679 3669 
Q 1425 3416 1258 3105 
Q 1091 2794 978 2366 
Q 1428 2675 1881 2675 
Q 2316 2675 2634 2325 
Q 2953 1975 2953 1425 
Q 2953 894 2631 456 
Q 2244 -75 1606 -75 
Q 1172 -75 869 213 
Q 275 772 275 1663 
Q 275 2231 503 2743 
Q 731 3256 1154 3653 
Q 1578 4050 1965 4187 
Q 2353 4325 2688 4325 
L 2869 4325 
z
M 925 2138 
Q 869 1716 869 1456 
Q 869 1156 980 804 
Q 1091 453 1309 247 
Q 1469 100 1697 100 
Q 1969 100 2183 356 
Q 2397 613 2397 1088 
Q 2397 1622 2184 2012 
Q 1972 2403 1581 2403 
Q 1463 2403 1327 2353 
Q 1191 2303 925 2138 
z
" transform="scale(0.015625)"/>
       </defs>
       <use xlink:href="#TimesNewRomanPSMT-31"/>
       <use xlink:href="#TimesNewRomanPSMT-36" x="50"/>
       <use xlink:href="#TimesNewRomanPSMT-30" x="100"/>
       <use xlink:href="#TimesNewRomanPSMT-2009" x="150"/>
       <use xlink:href="#TimesNewRomanPSMT-6d" x="170.019531"/>
      </g>
     </g>
    </g>
    <g id="ytick_12">
     <g id="line2d_32">
      <g>
       <use xlink:href="#m87a89a429a" x="34.884" y="62.281348" style="fill: #2ca02c; stroke: #2ca02c; stroke-width: 1.5"/>
      </g>
     </g>
     <g id="text_22">
      <!-- 240 m -->
      <g style="fill: #2ca02c" transform="translate(25.244937 83.58916) rotate(-90) scale(0.1 -0.1)">
       <defs>
        <path id="TimesNewRomanPSMT-34" d="M 2978 1563 
L 2978 1119 
L 2409 1119 
L 2409 0 
L 1894 0 
L 1894 1119 
L 100 1119 
L 100 1519 
L 2066 4325 
L 2409 4325 
L 2409 1563 
L 2978 1563 
z
M 1894 1563 
L 1894 3666 
L 406 1563 
L 1894 1563 
z
" transform="scale(0.015625)"/>
       </defs>
       <use xlink:href="#TimesNewRomanPSMT-32"/>
       <use xlink:href="#TimesNewRomanPSMT-34" x="50"/>
       <use xlink:href="#TimesNewRomanPSMT-30" x="100"/>
       <use xlink:href="#TimesNewRomanPSMT-2009" x="150"/>
       <use xlink:href="#TimesNewRomanPSMT-6d" x="170.019531"/>
      </g>
     </g>
    </g>
    <g id="text_23">
     <!-- NN_40 -->
     <g style="fill: #2ca02c" transform="translate(17.21775 37.532857) scale(0.12 -0.12)">
      <use xlink:href="#TimesNewRomanPSMT-4e"/>
      <use xlink:href="#TimesNewRomanPSMT-4e" x="72.216797"/>
      <use xlink:href="#TimesNewRomanPSMT-5f" x="144.433594"/>
      <use xlink:href="#TimesNewRomanPSMT-34" x="194.433594"/>
      <use xlink:href="#TimesNewRomanPSMT-30" x="244.433594"/>
     </g>
    </g>
   </g>
   <g id="line2d_33">
    <path d="M 97.605 173.54 
L 98.127675 42.751089 
L 98.65035 51.093567 
L 99.173025 71.217615 
L 99.6957 81.514878 
L 100.218375 87.464115 
L 100.74105 91.982204 
L 102.83175 119.323203 
L 103.8771 130.74375 
L 104.92245 139.536064 
L 105.9678 143.937022 
L 107.01315 146.002243 
L 108.0585 150.77389 
L 109.10385 154.739179 
L 110.1492 155.338051 
L 110.671875 155.352542 
L 111.19455 155.00855 
L 112.2399 153.192702 
L 113.807925 146.199747 
L 114.3306 144.638214 
L 114.853275 144.235995 
L 117.989325 145.645331 
L 118.512 145.50539 
L 120.080025 144.714456 
L 120.6027 144.625941 
L 121.125375 145.363018 
L 123.216075 151.343452 
L 124.7841 155.490621 
L 125.306775 156.628684 
L 126.352125 157.030083 
L 129.488175 157.755825 
L 130.01085 157.854876 
L 130.533525 157.602032 
L 132.624225 154.862746 
L 133.669575 153.431089 
L 135.760275 148.988773 
L 136.805625 146.40185 
L 138.37365 141.94808 
L 139.941675 140.266276 
L 140.46435 122.946118 
L 141.5097 135.118545 
L 142.55505 144.018287 
L 144.123075 154.187926 
L 145.168425 159.504305 
L 145.6911 161.287083 
L 146.213775 161.767565 
L 147.259125 160.971377 
L 148.304475 158.516482 
L 148.82715 157.32468 
L 149.8725 155.887954 
L 150.395175 155.003478 
L 150.91785 154.703293 
L 151.9632 157.753205 
L 153.00855 160.188453 
L 154.576575 163.072267 
L 156.1446 165.578929 
L 156.667275 166.04304 
L 158.757975 166.593637 
L 159.28065 166.832711 
L 159.803325 166.926127 
L 160.848675 166.653254 
L 161.37135 166.603738 
L 161.894025 166.952845 
L 162.939375 168.801681 
L 163.46205 167.808126 
L 164.5074 163.847586 
L 165.030075 164.434657 
L 165.55275 164.396772 
L 166.5981 166.666883 
L 167.120775 167.422421 
L 167.64345 167.226551 
L 169.211475 164.936209 
L 169.73415 163.924214 
L 171.302175 160.276982 
L 171.82485 159.580074 
L 173.392875 159.903941 
L 174.438225 159.690873 
L 174.9609 159.164289 
L 175.483575 160.270971 
L 176.528925 162.981285 
L 177.574275 165.226174 
L 179.1423 168.035668 
L 180.18765 169.644539 
L 180.710325 169.795077 
L 183.3237 165.72652 
L 183.846375 164.61881 
L 184.36905 164.523462 
L 184.891725 165.018864 
L 185.937075 165.374843 
L 186.45975 164.566307 
L 188.55045 160.206641 
L 189.073125 159.723926 
L 189.5958 160.354923 
L 190.118475 160.774285 
L 190.64115 161.516065 
L 191.6865 163.807891 
L 192.209175 161.882583 
L 192.73185 158.312239 
L 193.254525 156.570459 
L 193.7772 155.833477 
L 194.82255 153.811337 
L 195.8679 161.801784 
L 196.390575 165.078113 
L 196.91325 167.392075 
L 197.435925 167.406682 
L 197.9586 167.215569 
L 199.00395 167.470649 
L 199.526625 167.016851 
L 200.0493 166.107602 
L 200.571975 164.971482 
L 202.14 162.964677 
L 202.662675 163.182392 
L 203.18535 163.235207 
L 204.2307 162.968773 
L 204.753375 162.840198 
L 205.798725 162.1496 
L 206.3214 161.637632 
L 206.844075 160.826681 
L 207.36675 159.779226 
L 207.889425 160.977554 
L 208.4121 164.626572 
L 208.934775 166.894274 
L 209.45745 166.941762 
L 209.980125 164.272458 
L 211.025475 161.323612 
L 211.54815 161.061238 
L 212.5935 163.301848 
L 213.63885 161.407385 
L 214.161525 159.403362 
L 214.6842 158.231804 
L 215.72955 152.407808 
L 216.252225 144.109262 
L 216.7749 149.762238 
L 217.297575 160.304008 
L 217.82025 166.124114 
L 218.342925 167.642765 
L 218.8656 167.26557 
L 219.388275 164.924207 
L 219.91095 163.394383 
L 220.433625 162.649844 
L 221.478975 161.905288 
L 222.00165 160.621286 
L 222.524325 158.911561 
L 223.047 156.606597 
L 223.569675 158.179005 
L 224.09235 160.424269 
L 224.615025 151.954653 
L 225.1377 149.744214 
L 225.660375 150.20391 
L 226.705725 151.583901 
L 227.2284 152.510982 
L 227.751075 151.613798 
L 228.27375 147.303042 
L 228.796425 146.928004 
L 229.3191 146.352619 
L 229.841775 143.845173 
L 230.36445 146.51191 
L 230.887125 151.882014 
L 231.4098 155.308301 
L 231.932475 150.625375 
L 232.45515 158.742837 
L 232.977825 150.494645 
L 233.5005 138.225068 
L 234.023175 135.243445 
L 234.54585 139.308521 
L 235.068525 145.477248 
L 235.5912 154.617056 
L 236.113875 143.556832 
L 236.63655 140.3173 
L 237.159225 145.134126 
L 238.204575 157.045186 
L 238.72725 154.030394 
L 239.249925 150.261184 
L 239.7726 143.634353 
L 240.295275 154.161147 
L 240.81795 155.392801 
L 241.340625 153.67666 
L 241.8633 149.115019 
L 242.385975 145.533028 
L 242.90865 143.344835 
L 243.431325 143.36488 
L 243.954 150.157621 
L 244.476675 151.637477 
L 244.99935 150.472609 
L 245.522025 150.719434 
L 246.0447 151.26227 
L 247.09005 154.758985 
L 249.703425 159.265727 
L 250.2261 159.287137 
L 250.748775 157.456729 
L 251.27145 156.585236 
L 251.794125 156.774072 
L 252.3168 157.373377 
L 252.839475 156.842916 
L 253.36215 152.609806 
L 253.884825 152.488148 
L 254.4075 155.281302 
L 254.930175 158.734484 
L 255.45285 158.427205 
L 255.975525 159.85521 
L 256.4982 158.609202 
L 257.020875 156.924922 
L 258.066225 151.77084 
L 258.5889 151.315483 
L 259.63425 153.613942 
L 260.156925 154.26412 
L 260.6796 154.121589 
L 261.202275 152.941571 
L 261.72495 152.440188 
L 262.247625 152.407567 
L 262.7703 156.28924 
L 264.338325 161.629174 
L 264.861 161.579501 
L 265.383675 160.448611 
L 265.90635 161.679601 
L 266.9517 162.742277 
L 267.474375 161.78905 
L 267.99705 159.452862 
L 268.519725 158.488034 
L 269.0424 158.412285 
L 270.08775 160.359948 
L 270.610425 160.390944 
L 271.1331 160.119219 
L 271.655775 159.64539 
L 272.17845 159.459709 
L 272.701125 159.027006 
L 273.2238 158.969693 
L 273.746475 159.048572 
L 274.26915 160.624937 
L 275.3145 162.23681 
L 275.837175 163.404517 
L 276.35985 164.039381 
L 276.882525 164.224238 
L 277.4052 164.089672 
L 278.45055 162.276198 
L 278.973225 162.555078 
L 279.4959 162.371162 
L 280.54125 161.609107 
L 281.063925 162.050277 
L 282.109275 163.407258 
L 283.154625 163.988836 
L 284.199975 164.080814 
L 284.72265 164.144585 
L 285.768 164.517871 
L 286.81335 164.632362 
L 287.336025 164.376421 
L 287.8587 163.913313 
L 288.381375 164.841504 
L 289.426725 167.764467 
L 289.9494 168.548251 
L 290.472075 168.504554 
L 290.99475 168.245867 
L 291.517425 167.782167 
L 292.0401 167.134521 
L 292.562775 166.71313 
L 293.08545 166.709815 
L 294.1308 165.364396 
L 295.17615 164.494036 
L 295.698825 164.247504 
L 296.2215 164.511833 
L 297.26685 166.462237 
L 297.789525 166.998837 
L 298.834875 168.535871 
L 299.35755 168.249997 
L 299.880225 168.2555 
L 300.4029 167.790592 
L 301.44825 167.957771 
L 302.4936 166.272134 
L 303.53895 164.178054 
L 304.061625 164.345614 
L 304.5843 165.41089 
L 305.106975 165.720557 
L 305.62965 164.686488 
L 306.675 165.734034 
L 308.243025 166.51443 
L 308.7657 166.570082 
L 309.288375 166.293612 
L 310.333725 165.465362 
L 311.379075 163.90916 
L 312.424425 162.791728 
L 312.9471 162.95344 
L 313.99245 163.56978 
L 314.515125 164.060223 
L 315.560475 164.055866 
L 317.1285 164.041991 
L 317.651175 164.106401 
L 318.696525 164.561063 
L 319.2192 164.3821 
L 319.741875 164.022587 
L 321.3099 163.953941 
L 322.35525 164.179739 
L 322.877925 164.513706 
L 323.923275 166.028635 
L 324.968625 167.65508 
L 325.4913 167.979785 
L 326.53665 167.43228 
L 327.582 167.101364 
L 328.62735 167.016565 
L 329.6727 167.11769 
L 330.71805 167.592098 
L 333.8541 170.242347 
L 335.422125 170.882256 
L 335.9448 170.993971 
L 336.99015 171.031425 
L 338.558175 171.145644 
L 343.784925 171.112941 
L 348.489 171.22964 
L 351.102375 171.324063 
L 352.6704 171.304167 
L 354.238425 171.265089 
L 358.419825 171.04948 
L 360.510525 171.390413 
L 362.07855 171.441089 
L 366.25995 171.212174 
L 370.44135 170.927365 
L 374.62275 170.872426 
L 379.326825 171.066619 
L 388.734975 171.622258 
L 402.8472 172.138767 
L 405.460575 172.047216 
L 411.21 171.801005 
L 411.21 171.801005 
" clip-path="url(#pc8197617e0)" style="fill: none; stroke: #2ca02c; stroke-linecap: square"/>
   </g>
   <g id="patch_11">
    <path d="M 34.884 173.54 
L 34.884 41.4432 
" style="fill: none; stroke: #000000; stroke-width: 0.8; stroke-linejoin: miter; stroke-linecap: square"/>
   </g>
   <g id="patch_12">
    <path d="M 411.21 173.54 
L 411.21 41.4432 
" style="fill: none; stroke: #000000; stroke-width: 0.8; stroke-linejoin: miter; stroke-linecap: square"/>
   </g>
   <g id="patch_13">
    <path d="M 97.605 173.54 
L 411.21 173.54 
" style="fill: none; stroke: #000000; stroke-width: 0.8; stroke-linejoin: miter; stroke-linecap: square"/>
   </g>
   <g id="patch_14">
    <path d="M 97.605 41.4432 
L 411.21 41.4432 
" style="fill: none; stroke: #000000; stroke-width: 0.8; stroke-linejoin: miter; stroke-linecap: square"/>
   </g>
  </g>
  <g id="text_24">
   <!-- Step error -->
   <g transform="translate(354.81125 14.04125) scale(0.14 -0.14)">
    <defs>
     <path id="TimesNewRomanPSMT-53" d="M 2934 4334 
L 2934 2869 
L 2819 2869 
Q 2763 3291 2617 3541 
Q 2472 3791 2203 3937 
Q 1934 4084 1647 4084 
Q 1322 4084 1109 3886 
Q 897 3688 897 3434 
Q 897 3241 1031 3081 
Q 1225 2847 1953 2456 
Q 2547 2138 2764 1967 
Q 2981 1797 3098 1565 
Q 3216 1334 3216 1081 
Q 3216 600 2842 251 
Q 2469 -97 1881 -97 
Q 1697 -97 1534 -69 
Q 1438 -53 1133 45 
Q 828 144 747 144 
Q 669 144 623 97 
Q 578 50 556 -97 
L 441 -97 
L 441 1356 
L 556 1356 
Q 638 900 775 673 
Q 913 447 1195 297 
Q 1478 147 1816 147 
Q 2206 147 2432 353 
Q 2659 559 2659 841 
Q 2659 997 2573 1156 
Q 2488 1316 2306 1453 
Q 2184 1547 1640 1851 
Q 1097 2156 867 2337 
Q 638 2519 519 2737 
Q 400 2956 400 3219 
Q 400 3675 750 4004 
Q 1100 4334 1641 4334 
Q 1978 4334 2356 4169 
Q 2531 4091 2603 4091 
Q 2684 4091 2736 4139 
Q 2788 4188 2819 4334 
L 2934 4334 
z
" transform="scale(0.015625)"/>
     <path id="TimesNewRomanPSMT-70" d="M -6 2578 
L 875 2934 
L 994 2934 
L 994 2266 
Q 1216 2644 1439 2795 
Q 1663 2947 1909 2947 
Q 2341 2947 2628 2609 
Q 2981 2197 2981 1534 
Q 2981 794 2556 309 
Q 2206 -88 1675 -88 
Q 1444 -88 1275 -22 
Q 1150 25 994 166 
L 994 -706 
Q 994 -1000 1030 -1079 
Q 1066 -1159 1155 -1206 
Q 1244 -1253 1478 -1253 
L 1478 -1369 
L -22 -1369 
L -22 -1253 
L 56 -1253 
Q 228 -1256 350 -1188 
Q 409 -1153 442 -1076 
Q 475 -1000 475 -688 
L 475 2019 
Q 475 2297 450 2372 
Q 425 2447 370 2484 
Q 316 2522 222 2522 
Q 147 2522 31 2478 
L -6 2578 
z
M 994 2081 
L 994 1013 
Q 994 666 1022 556 
Q 1066 375 1236 237 
Q 1406 100 1666 100 
Q 1978 100 2172 344 
Q 2425 663 2425 1241 
Q 2425 1897 2138 2250 
Q 1938 2494 1663 2494 
Q 1513 2494 1366 2419 
Q 1253 2363 994 2081 
z
" transform="scale(0.015625)"/>
     <path id="TimesNewRomanPSMT-6f" d="M 1600 2947 
Q 2250 2947 2644 2453 
Q 2978 2031 2978 1484 
Q 2978 1100 2793 706 
Q 2609 313 2286 112 
Q 1963 -88 1566 -88 
Q 919 -88 538 428 
Q 216 863 216 1403 
Q 216 1797 411 2186 
Q 606 2575 925 2761 
Q 1244 2947 1600 2947 
z
M 1503 2744 
Q 1338 2744 1170 2645 
Q 1003 2547 900 2300 
Q 797 2053 797 1666 
Q 797 1041 1045 587 
Q 1294 134 1700 134 
Q 2003 134 2200 384 
Q 2397 634 2397 1244 
Q 2397 2006 2069 2444 
Q 1847 2744 1503 2744 
z
" transform="scale(0.015625)"/>
    </defs>
    <use xlink:href="#TimesNewRomanPSMT-53"/>
    <use xlink:href="#TimesNewRomanPSMT-74" x="55.615234"/>
    <use xlink:href="#TimesNewRomanPSMT-65" x="83.398438"/>
    <use xlink:href="#TimesNewRomanPSMT-70" x="127.783203"/>
    <use xlink:href="#TimesNewRomanPSMT-20" x="177.783203"/>
    <use xlink:href="#TimesNewRomanPSMT-65" x="202.783203"/>
    <use xlink:href="#TimesNewRomanPSMT-72" x="247.167969"/>
    <use xlink:href="#TimesNewRomanPSMT-72" x="280.46875"/>
    <use xlink:href="#TimesNewRomanPSMT-6f" x="313.769531"/>
    <use xlink:href="#TimesNewRomanPSMT-72" x="363.769531"/>
   </g>
  </g>
 </g>
 <defs>
  <clipPath id="pc8197617e0">
   <rect x="97.605" y="41.4432" width="313.605" height="132.0968"/>
  </clipPath>
 </defs>
</svg>
