<?xml version="1.0" encoding="utf-8" standalone="no"?>
<!DOCTYPE svg PUBLIC "-//W3C//DTD SVG 1.1//EN"
  "http://www.w3.org/Graphics/SVG/1.1/DTD/svg11.dtd">
<svg xmlns:xlink="http://www.w3.org/1999/xlink" width="432pt" height="216pt" viewBox="0 0 432 216" xmlns="http://www.w3.org/2000/svg" version="1.1">
 <metadata>
  <rdf:RDF xmlns:dc="http://purl.org/dc/elements/1.1/" xmlns:cc="http://creativecommons.org/ns#" xmlns:rdf="http://www.w3.org/1999/02/22-rdf-syntax-ns#">
   <cc:Work>
    <dc:type rdf:resource="http://purl.org/dc/dcmitype/StillImage"/>
    <dc:date>2024-05-12T22:13:14.024582</dc:date>
    <dc:format>image/svg+xml</dc:format>
    <dc:creator>
     <cc:Agent>
      <dc:title>Matplotlib v3.8.2, https://matplotlib.org/</dc:title>
     </cc:Agent>
    </dc:creator>
   </cc:Work>
  </rdf:RDF>
 </metadata>
 <defs>
  <style type="text/css">*{stroke-linejoin: round; stroke-linecap: butt}</style>
 </defs>
 <g id="figure_1">
  <g id="patch_1">
   <path d="M 0 216 
L 432 216 
L 432 0 
L 0 0 
z
" style="fill: #ffffff"/>
  </g>
  <g id="axes_1">
   <g id="patch_2">
    <path d="M 97.605 173.54 
L 411.21 173.54 
L 411.21 41.4432 
L 97.605 41.4432 
z
" style="fill: #ffffff"/>
   </g>
   <g id="matplotlib.axis_1">
    <g id="xtick_1">
     <g id="line2d_1">
      <path d="M 97.605 173.54 
L 97.605 41.4432 
" clip-path="url(#pb5d01ea84e)" style="fill: none; stroke: #b0b0b0; stroke-width: 0.8; stroke-linecap: square"/>
     </g>
     <g id="line2d_2">
      <defs>
       <path id="mfb29df2346" d="M 0 0 
L 0 4 
" style="stroke: #000000; stroke-width: 1.5"/>
      </defs>
      <g>
       <use xlink:href="#mfb29df2346" x="97.605" y="173.54" style="stroke: #000000; stroke-width: 1.5"/>
      </g>
     </g>
     <g id="text_1">
      <!-- 1900 -->
      <g transform="translate(87.605 187.98375) scale(0.1 -0.1)">
       <defs>
        <path id="TimesNewRomanPSMT-31" d="M 750 3822 
L 1781 4325 
L 1884 4325 
L 1884 747 
Q 1884 391 1914 303 
Q 1944 216 2037 169 
Q 2131 122 2419 116 
L 2419 0 
L 825 0 
L 825 116 
Q 1125 122 1212 167 
Q 1300 213 1334 289 
Q 1369 366 1369 747 
L 1369 3034 
Q 1369 3497 1338 3628 
Q 1316 3728 1258 3775 
Q 1200 3822 1119 3822 
Q 1003 3822 797 3725 
L 750 3822 
z
" transform="scale(0.015625)"/>
        <path id="TimesNewRomanPSMT-39" d="M 338 -88 
L 338 28 
Q 744 34 1094 217 
Q 1444 400 1770 856 
Q 2097 1313 2225 1859 
Q 1734 1544 1338 1544 
Q 891 1544 572 1889 
Q 253 2234 253 2806 
Q 253 3363 572 3797 
Q 956 4325 1575 4325 
Q 2097 4325 2469 3894 
Q 2925 3359 2925 2575 
Q 2925 1869 2578 1258 
Q 2231 647 1613 244 
Q 1109 -88 516 -88 
L 338 -88 
z
M 2275 2091 
Q 2331 2497 2331 2741 
Q 2331 3044 2228 3395 
Q 2125 3747 1936 3934 
Q 1747 4122 1506 4122 
Q 1228 4122 1018 3872 
Q 809 3622 809 3128 
Q 809 2469 1088 2097 
Q 1291 1828 1588 1828 
Q 1731 1828 1928 1897 
Q 2125 1966 2275 2091 
z
" transform="scale(0.015625)"/>
        <path id="TimesNewRomanPSMT-30" d="M 231 2094 
Q 231 2819 450 3342 
Q 669 3866 1031 4122 
Q 1313 4325 1613 4325 
Q 2100 4325 2488 3828 
Q 2972 3213 2972 2159 
Q 2972 1422 2759 906 
Q 2547 391 2217 158 
Q 1888 -75 1581 -75 
Q 975 -75 572 641 
Q 231 1244 231 2094 
z
M 844 2016 
Q 844 1141 1059 588 
Q 1238 122 1591 122 
Q 1759 122 1940 273 
Q 2122 425 2216 781 
Q 2359 1319 2359 2297 
Q 2359 3022 2209 3506 
Q 2097 3866 1919 4016 
Q 1791 4119 1609 4119 
Q 1397 4119 1231 3928 
Q 1006 3669 925 3112 
Q 844 2556 844 2016 
z
" transform="scale(0.015625)"/>
       </defs>
       <use xlink:href="#TimesNewRomanPSMT-31"/>
       <use xlink:href="#TimesNewRomanPSMT-39" x="50"/>
       <use xlink:href="#TimesNewRomanPSMT-30" x="100"/>
       <use xlink:href="#TimesNewRomanPSMT-30" x="150"/>
      </g>
     </g>
    </g>
    <g id="xtick_2">
     <g id="line2d_3">
      <path d="M 149.8725 173.54 
L 149.8725 41.4432 
" clip-path="url(#pb5d01ea84e)" style="fill: none; stroke: #b0b0b0; stroke-width: 0.8; stroke-linecap: square"/>
     </g>
     <g id="line2d_4">
      <g>
       <use xlink:href="#mfb29df2346" x="149.8725" y="173.54" style="stroke: #000000; stroke-width: 1.5"/>
      </g>
     </g>
     <g id="text_2">
      <!-- 1950 -->
      <g transform="translate(139.8725 187.98375) scale(0.1 -0.1)">
       <defs>
        <path id="TimesNewRomanPSMT-35" d="M 2778 4238 
L 2534 3706 
L 1259 3706 
L 981 3138 
Q 1809 3016 2294 2522 
Q 2709 2097 2709 1522 
Q 2709 1188 2573 903 
Q 2438 619 2231 419 
Q 2025 219 1772 97 
Q 1413 -75 1034 -75 
Q 653 -75 479 54 
Q 306 184 306 341 
Q 306 428 378 495 
Q 450 563 559 563 
Q 641 563 702 538 
Q 763 513 909 409 
Q 1144 247 1384 247 
Q 1750 247 2026 523 
Q 2303 800 2303 1197 
Q 2303 1581 2056 1914 
Q 1809 2247 1375 2428 
Q 1034 2569 447 2591 
L 1259 4238 
L 2778 4238 
z
" transform="scale(0.015625)"/>
       </defs>
       <use xlink:href="#TimesNewRomanPSMT-31"/>
       <use xlink:href="#TimesNewRomanPSMT-39" x="50"/>
       <use xlink:href="#TimesNewRomanPSMT-35" x="100"/>
       <use xlink:href="#TimesNewRomanPSMT-30" x="150"/>
      </g>
     </g>
    </g>
    <g id="xtick_3">
     <g id="line2d_5">
      <path d="M 202.14 173.54 
L 202.14 41.4432 
" clip-path="url(#pb5d01ea84e)" style="fill: none; stroke: #b0b0b0; stroke-width: 0.8; stroke-linecap: square"/>
     </g>
     <g id="line2d_6">
      <g>
       <use xlink:href="#mfb29df2346" x="202.14" y="173.54" style="stroke: #000000; stroke-width: 1.5"/>
      </g>
     </g>
     <g id="text_3">
      <!-- 2000 -->
      <g transform="translate(192.14 187.98375) scale(0.1 -0.1)">
       <defs>
        <path id="TimesNewRomanPSMT-32" d="M 2934 816 
L 2638 0 
L 138 0 
L 138 116 
Q 1241 1122 1691 1759 
Q 2141 2397 2141 2925 
Q 2141 3328 1894 3587 
Q 1647 3847 1303 3847 
Q 991 3847 742 3664 
Q 494 3481 375 3128 
L 259 3128 
Q 338 3706 661 4015 
Q 984 4325 1469 4325 
Q 1984 4325 2329 3994 
Q 2675 3663 2675 3213 
Q 2675 2891 2525 2569 
Q 2294 2063 1775 1497 
Q 997 647 803 472 
L 1909 472 
Q 2247 472 2383 497 
Q 2519 522 2628 598 
Q 2738 675 2819 816 
L 2934 816 
z
" transform="scale(0.015625)"/>
       </defs>
       <use xlink:href="#TimesNewRomanPSMT-32"/>
       <use xlink:href="#TimesNewRomanPSMT-30" x="50"/>
       <use xlink:href="#TimesNewRomanPSMT-30" x="100"/>
       <use xlink:href="#TimesNewRomanPSMT-30" x="150"/>
      </g>
     </g>
    </g>
    <g id="xtick_4">
     <g id="line2d_7">
      <path d="M 254.4075 173.54 
L 254.4075 41.4432 
" clip-path="url(#pb5d01ea84e)" style="fill: none; stroke: #b0b0b0; stroke-width: 0.8; stroke-linecap: square"/>
     </g>
     <g id="line2d_8">
      <g>
       <use xlink:href="#mfb29df2346" x="254.4075" y="173.54" style="stroke: #000000; stroke-width: 1.5"/>
      </g>
     </g>
     <g id="text_4">
      <!-- 2050 -->
      <g transform="translate(244.4075 187.98375) scale(0.1 -0.1)">
       <use xlink:href="#TimesNewRomanPSMT-32"/>
       <use xlink:href="#TimesNewRomanPSMT-30" x="50"/>
       <use xlink:href="#TimesNewRomanPSMT-35" x="100"/>
       <use xlink:href="#TimesNewRomanPSMT-30" x="150"/>
      </g>
     </g>
    </g>
    <g id="xtick_5">
     <g id="line2d_9">
      <path d="M 306.675 173.54 
L 306.675 41.4432 
" clip-path="url(#pb5d01ea84e)" style="fill: none; stroke: #b0b0b0; stroke-width: 0.8; stroke-linecap: square"/>
     </g>
     <g id="line2d_10">
      <g>
       <use xlink:href="#mfb29df2346" x="306.675" y="173.54" style="stroke: #000000; stroke-width: 1.5"/>
      </g>
     </g>
     <g id="text_5">
      <!-- 2100 -->
      <g transform="translate(296.675 187.98375) scale(0.1 -0.1)">
       <use xlink:href="#TimesNewRomanPSMT-32"/>
       <use xlink:href="#TimesNewRomanPSMT-31" x="50"/>
       <use xlink:href="#TimesNewRomanPSMT-30" x="100"/>
       <use xlink:href="#TimesNewRomanPSMT-30" x="150"/>
      </g>
     </g>
    </g>
    <g id="xtick_6">
     <g id="line2d_11">
      <path d="M 358.9425 173.54 
L 358.9425 41.4432 
" clip-path="url(#pb5d01ea84e)" style="fill: none; stroke: #b0b0b0; stroke-width: 0.8; stroke-linecap: square"/>
     </g>
     <g id="line2d_12">
      <g>
       <use xlink:href="#mfb29df2346" x="358.9425" y="173.54" style="stroke: #000000; stroke-width: 1.5"/>
      </g>
     </g>
     <g id="text_6">
      <!-- 2150 -->
      <g transform="translate(348.9425 187.98375) scale(0.1 -0.1)">
       <use xlink:href="#TimesNewRomanPSMT-32"/>
       <use xlink:href="#TimesNewRomanPSMT-31" x="50"/>
       <use xlink:href="#TimesNewRomanPSMT-35" x="100"/>
       <use xlink:href="#TimesNewRomanPSMT-30" x="150"/>
      </g>
     </g>
    </g>
    <g id="xtick_7">
     <g id="line2d_13">
      <path d="M 411.21 173.54 
L 411.21 41.4432 
" clip-path="url(#pb5d01ea84e)" style="fill: none; stroke: #b0b0b0; stroke-width: 0.8; stroke-linecap: square"/>
     </g>
     <g id="line2d_14">
      <g>
       <use xlink:href="#mfb29df2346" x="411.21" y="173.54" style="stroke: #000000; stroke-width: 1.5"/>
      </g>
     </g>
     <g id="text_7">
      <!-- 2200 -->
      <g transform="translate(401.21 187.98375) scale(0.1 -0.1)">
       <use xlink:href="#TimesNewRomanPSMT-32"/>
       <use xlink:href="#TimesNewRomanPSMT-32" x="50"/>
       <use xlink:href="#TimesNewRomanPSMT-30" x="100"/>
       <use xlink:href="#TimesNewRomanPSMT-30" x="150"/>
      </g>
     </g>
    </g>
    <g id="text_8">
     <!-- time [years] -->
     <g transform="translate(225.587813 202.455312) scale(0.12 -0.12)">
      <defs>
       <path id="TimesNewRomanPSMT-74" d="M 1031 3803 
L 1031 2863 
L 1700 2863 
L 1700 2644 
L 1031 2644 
L 1031 788 
Q 1031 509 1111 412 
Q 1191 316 1316 316 
Q 1419 316 1516 380 
Q 1613 444 1666 569 
L 1788 569 
Q 1678 263 1478 108 
Q 1278 -47 1066 -47 
Q 922 -47 784 33 
Q 647 113 581 261 
Q 516 409 516 719 
L 516 2644 
L 63 2644 
L 63 2747 
Q 234 2816 414 2980 
Q 594 3144 734 3369 
Q 806 3488 934 3803 
L 1031 3803 
z
" transform="scale(0.015625)"/>
       <path id="TimesNewRomanPSMT-69" d="M 928 4444 
Q 1059 4444 1151 4351 
Q 1244 4259 1244 4128 
Q 1244 3997 1151 3903 
Q 1059 3809 928 3809 
Q 797 3809 703 3903 
Q 609 3997 609 4128 
Q 609 4259 701 4351 
Q 794 4444 928 4444 
z
M 1188 2947 
L 1188 647 
Q 1188 378 1227 289 
Q 1266 200 1342 156 
Q 1419 113 1622 113 
L 1622 0 
L 231 0 
L 231 113 
Q 441 113 512 153 
Q 584 194 626 287 
Q 669 381 669 647 
L 669 1750 
Q 669 2216 641 2353 
Q 619 2453 572 2492 
Q 525 2531 444 2531 
Q 356 2531 231 2484 
L 188 2597 
L 1050 2947 
L 1188 2947 
z
" transform="scale(0.015625)"/>
       <path id="TimesNewRomanPSMT-6d" d="M 1050 2338 
Q 1363 2650 1419 2697 
Q 1559 2816 1721 2881 
Q 1884 2947 2044 2947 
Q 2313 2947 2506 2790 
Q 2700 2634 2766 2338 
Q 3088 2713 3309 2830 
Q 3531 2947 3766 2947 
Q 3994 2947 4170 2830 
Q 4347 2713 4450 2447 
Q 4519 2266 4519 1878 
L 4519 647 
Q 4519 378 4559 278 
Q 4591 209 4675 161 
Q 4759 113 4950 113 
L 4950 0 
L 3538 0 
L 3538 113 
L 3597 113 
Q 3781 113 3884 184 
Q 3956 234 3988 344 
Q 4000 397 4000 647 
L 4000 1878 
Q 4000 2228 3916 2372 
Q 3794 2572 3525 2572 
Q 3359 2572 3192 2489 
Q 3025 2406 2788 2181 
L 2781 2147 
L 2788 2013 
L 2788 647 
Q 2788 353 2820 281 
Q 2853 209 2943 161 
Q 3034 113 3253 113 
L 3253 0 
L 1806 0 
L 1806 113 
Q 2044 113 2133 169 
Q 2222 225 2256 338 
Q 2272 391 2272 647 
L 2272 1878 
Q 2272 2228 2169 2381 
Q 2031 2581 1784 2581 
Q 1616 2581 1450 2491 
Q 1191 2353 1050 2181 
L 1050 647 
Q 1050 366 1089 281 
Q 1128 197 1204 155 
Q 1281 113 1516 113 
L 1516 0 
L 100 0 
L 100 113 
Q 297 113 375 155 
Q 453 197 493 289 
Q 534 381 534 647 
L 534 1741 
Q 534 2213 506 2350 
Q 484 2453 437 2492 
Q 391 2531 309 2531 
Q 222 2531 100 2484 
L 53 2597 
L 916 2947 
L 1050 2947 
L 1050 2338 
z
" transform="scale(0.015625)"/>
       <path id="TimesNewRomanPSMT-65" d="M 681 1784 
Q 678 1147 991 784 
Q 1303 422 1725 422 
Q 2006 422 2214 576 
Q 2422 731 2563 1106 
L 2659 1044 
Q 2594 616 2278 264 
Q 1963 -88 1488 -88 
Q 972 -88 605 314 
Q 238 716 238 1394 
Q 238 2128 614 2539 
Q 991 2950 1559 2950 
Q 2041 2950 2350 2633 
Q 2659 2316 2659 1784 
L 681 1784 
z
M 681 1966 
L 2006 1966 
Q 1991 2241 1941 2353 
Q 1863 2528 1708 2628 
Q 1553 2728 1384 2728 
Q 1125 2728 920 2526 
Q 716 2325 681 1966 
z
" transform="scale(0.015625)"/>
       <path id="TimesNewRomanPSMT-20" transform="scale(0.015625)"/>
       <path id="TimesNewRomanPSMT-5b" d="M 1900 -1269 
L 525 -1269 
L 525 4334 
L 1900 4334 
L 1900 4088 
L 994 4088 
L 994 -1025 
L 1900 -1025 
L 1900 -1269 
z
" transform="scale(0.015625)"/>
       <path id="TimesNewRomanPSMT-79" d="M 38 2863 
L 1372 2863 
L 1372 2747 
L 1306 2747 
Q 1166 2747 1095 2686 
Q 1025 2625 1025 2534 
Q 1025 2413 1128 2197 
L 1825 753 
L 2466 2334 
Q 2519 2463 2519 2588 
Q 2519 2644 2497 2672 
Q 2472 2706 2419 2726 
Q 2366 2747 2231 2747 
L 2231 2863 
L 3163 2863 
L 3163 2747 
Q 3047 2734 2984 2696 
Q 2922 2659 2847 2556 
Q 2819 2513 2741 2316 
L 1575 -541 
Q 1406 -956 1132 -1168 
Q 859 -1381 606 -1381 
Q 422 -1381 303 -1275 
Q 184 -1169 184 -1031 
Q 184 -900 270 -820 
Q 356 -741 506 -741 
Q 609 -741 788 -809 
Q 913 -856 944 -856 
Q 1038 -856 1148 -759 
Q 1259 -663 1372 -384 
L 1575 113 
L 547 2272 
Q 500 2369 397 2513 
Q 319 2622 269 2659 
Q 197 2709 38 2747 
L 38 2863 
z
" transform="scale(0.015625)"/>
       <path id="TimesNewRomanPSMT-61" d="M 1822 413 
Q 1381 72 1269 19 
Q 1100 -59 909 -59 
Q 613 -59 420 144 
Q 228 347 228 678 
Q 228 888 322 1041 
Q 450 1253 767 1440 
Q 1084 1628 1822 1897 
L 1822 2009 
Q 1822 2438 1686 2597 
Q 1550 2756 1291 2756 
Q 1094 2756 978 2650 
Q 859 2544 859 2406 
L 866 2225 
Q 866 2081 792 2003 
Q 719 1925 600 1925 
Q 484 1925 411 2006 
Q 338 2088 338 2228 
Q 338 2497 613 2722 
Q 888 2947 1384 2947 
Q 1766 2947 2009 2819 
Q 2194 2722 2281 2516 
Q 2338 2381 2338 1966 
L 2338 994 
Q 2338 584 2353 492 
Q 2369 400 2405 369 
Q 2441 338 2488 338 
Q 2538 338 2575 359 
Q 2641 400 2828 588 
L 2828 413 
Q 2478 -56 2159 -56 
Q 2006 -56 1915 50 
Q 1825 156 1822 413 
z
M 1822 616 
L 1822 1706 
Q 1350 1519 1213 1441 
Q 966 1303 859 1153 
Q 753 1003 753 825 
Q 753 600 887 451 
Q 1022 303 1197 303 
Q 1434 303 1822 616 
z
" transform="scale(0.015625)"/>
       <path id="TimesNewRomanPSMT-72" d="M 1038 2947 
L 1038 2303 
Q 1397 2947 1775 2947 
Q 1947 2947 2059 2842 
Q 2172 2738 2172 2600 
Q 2172 2478 2090 2393 
Q 2009 2309 1897 2309 
Q 1788 2309 1652 2417 
Q 1516 2525 1450 2525 
Q 1394 2525 1328 2463 
Q 1188 2334 1038 2041 
L 1038 669 
Q 1038 431 1097 309 
Q 1138 225 1241 169 
Q 1344 113 1538 113 
L 1538 0 
L 72 0 
L 72 113 
Q 291 113 397 181 
Q 475 231 506 341 
Q 522 394 522 644 
L 522 1753 
Q 522 2253 501 2348 
Q 481 2444 426 2487 
Q 372 2531 291 2531 
Q 194 2531 72 2484 
L 41 2597 
L 906 2947 
L 1038 2947 
z
" transform="scale(0.015625)"/>
       <path id="TimesNewRomanPSMT-73" d="M 2050 2947 
L 2050 1972 
L 1947 1972 
Q 1828 2431 1642 2597 
Q 1456 2763 1169 2763 
Q 950 2763 815 2647 
Q 681 2531 681 2391 
Q 681 2216 781 2091 
Q 878 1963 1175 1819 
L 1631 1597 
Q 2266 1288 2266 781 
Q 2266 391 1970 151 
Q 1675 -88 1309 -88 
Q 1047 -88 709 6 
Q 606 38 541 38 
Q 469 38 428 -44 
L 325 -44 
L 325 978 
L 428 978 
Q 516 541 762 319 
Q 1009 97 1316 97 
Q 1531 97 1667 223 
Q 1803 350 1803 528 
Q 1803 744 1651 891 
Q 1500 1038 1047 1263 
Q 594 1488 453 1669 
Q 313 1847 313 2119 
Q 313 2472 555 2709 
Q 797 2947 1181 2947 
Q 1350 2947 1591 2875 
Q 1750 2828 1803 2828 
Q 1853 2828 1881 2850 
Q 1909 2872 1947 2947 
L 2050 2947 
z
" transform="scale(0.015625)"/>
       <path id="TimesNewRomanPSMT-5d" d="M 234 4334 
L 1609 4334 
L 1609 -1272 
L 234 -1272 
L 234 -1025 
L 1141 -1025 
L 1141 4088 
L 234 4088 
L 234 4334 
z
" transform="scale(0.015625)"/>
      </defs>
      <use xlink:href="#TimesNewRomanPSMT-74"/>
      <use xlink:href="#TimesNewRomanPSMT-69" x="27.783203"/>
      <use xlink:href="#TimesNewRomanPSMT-6d" x="55.566406"/>
      <use xlink:href="#TimesNewRomanPSMT-65" x="133.349609"/>
      <use xlink:href="#TimesNewRomanPSMT-20" x="177.734375"/>
      <use xlink:href="#TimesNewRomanPSMT-5b" x="202.734375"/>
      <use xlink:href="#TimesNewRomanPSMT-79" x="236.035156"/>
      <use xlink:href="#TimesNewRomanPSMT-65" x="286.035156"/>
      <use xlink:href="#TimesNewRomanPSMT-61" x="330.419922"/>
      <use xlink:href="#TimesNewRomanPSMT-72" x="374.804688"/>
      <use xlink:href="#TimesNewRomanPSMT-73" x="408.105469"/>
      <use xlink:href="#TimesNewRomanPSMT-5d" x="447.021484"/>
     </g>
    </g>
   </g>
   <g id="matplotlib.axis_2">
    <g id="ytick_1">
     <g id="line2d_15">
      <path d="M 97.605 156.267464 
L 411.21 156.267464 
" clip-path="url(#pb5d01ea84e)" style="fill: none; stroke: #b0b0b0; stroke-width: 0.8; stroke-linecap: square"/>
     </g>
     <g id="line2d_16">
      <defs>
       <path id="m0116cf94c1" d="M 0 0 
L -4 0 
" style="stroke: #1f77b4; stroke-width: 1.5"/>
      </defs>
      <g>
       <use xlink:href="#m0116cf94c1" x="97.605" y="156.267464" style="fill: #1f77b4; stroke: #1f77b4; stroke-width: 1.5"/>
      </g>
     </g>
     <g id="text_9">
      <!-- −120 m -->
      <g style="fill: #1f77b4" transform="translate(87.965937 183.214339) rotate(-90) scale(0.1 -0.1)">
       <defs>
        <path id="TimesNewRomanPSMT-2212" d="M 3484 2000 
L 116 2000 
L 116 2256 
L 3484 2256 
L 3484 2000 
z
" transform="scale(0.015625)"/>
        <path id="TimesNewRomanPSMT-2009" d="M 0 0 
L 0 0 
z
" transform="scale(0.015625)"/>
       </defs>
       <use xlink:href="#TimesNewRomanPSMT-2212"/>
       <use xlink:href="#TimesNewRomanPSMT-31" x="56.396484"/>
       <use xlink:href="#TimesNewRomanPSMT-32" x="106.396484"/>
       <use xlink:href="#TimesNewRomanPSMT-30" x="156.396484"/>
       <use xlink:href="#TimesNewRomanPSMT-2009" x="206.396484"/>
       <use xlink:href="#TimesNewRomanPSMT-6d" x="226.416016"/>
      </g>
     </g>
    </g>
    <g id="ytick_2">
     <g id="line2d_17">
      <path d="M 97.605 120.871465 
L 411.21 120.871465 
" clip-path="url(#pb5d01ea84e)" style="fill: none; stroke: #b0b0b0; stroke-width: 0.8; stroke-linecap: square"/>
     </g>
     <g id="line2d_18">
      <g>
       <use xlink:href="#m0116cf94c1" x="97.605" y="120.871465" style="fill: #1f77b4; stroke: #1f77b4; stroke-width: 1.5"/>
      </g>
     </g>
     <g id="text_10">
      <!-- −60 m -->
      <g style="fill: #1f77b4" transform="translate(87.965937 142.81834) rotate(-90) scale(0.1 -0.1)">
       <defs>
        <path id="TimesNewRomanPSMT-36" d="M 2869 4325 
L 2869 4209 
Q 2456 4169 2195 4045 
Q 1934 3922 1679 3669 
Q 1425 3416 1258 3105 
Q 1091 2794 978 2366 
Q 1428 2675 1881 2675 
Q 2316 2675 2634 2325 
Q 2953 1975 2953 1425 
Q 2953 894 2631 456 
Q 2244 -75 1606 -75 
Q 1172 -75 869 213 
Q 275 772 275 1663 
Q 275 2231 503 2743 
Q 731 3256 1154 3653 
Q 1578 4050 1965 4187 
Q 2353 4325 2688 4325 
L 2869 4325 
z
M 925 2138 
Q 869 1716 869 1456 
Q 869 1156 980 804 
Q 1091 453 1309 247 
Q 1469 100 1697 100 
Q 1969 100 2183 356 
Q 2397 613 2397 1088 
Q 2397 1622 2184 2012 
Q 1972 2403 1581 2403 
Q 1463 2403 1327 2353 
Q 1191 2303 925 2138 
z
" transform="scale(0.015625)"/>
       </defs>
       <use xlink:href="#TimesNewRomanPSMT-2212"/>
       <use xlink:href="#TimesNewRomanPSMT-36" x="56.396484"/>
       <use xlink:href="#TimesNewRomanPSMT-30" x="106.396484"/>
       <use xlink:href="#TimesNewRomanPSMT-2009" x="156.396484"/>
       <use xlink:href="#TimesNewRomanPSMT-6d" x="176.416016"/>
      </g>
     </g>
    </g>
    <g id="ytick_3">
     <g id="line2d_19">
      <path d="M 97.605 85.475467 
L 411.21 85.475467 
" clip-path="url(#pb5d01ea84e)" style="fill: none; stroke: #b0b0b0; stroke-width: 0.8; stroke-linecap: square"/>
     </g>
     <g id="line2d_20">
      <g>
       <use xlink:href="#m0116cf94c1" x="97.605" y="85.475467" style="fill: #1f77b4; stroke: #1f77b4; stroke-width: 1.5"/>
      </g>
     </g>
     <g id="text_11">
      <!-- 0 -->
      <g style="fill: #1f77b4" transform="translate(87.965938 87.003592) rotate(-90) scale(0.1 -0.1)">
       <use xlink:href="#TimesNewRomanPSMT-30"/>
      </g>
     </g>
    </g>
    <g id="ytick_4">
     <g id="line2d_21">
      <path d="M 97.605 50.079468 
L 411.21 50.079468 
" clip-path="url(#pb5d01ea84e)" style="fill: none; stroke: #b0b0b0; stroke-width: 0.8; stroke-linecap: square"/>
     </g>
     <g id="line2d_22">
      <g>
       <use xlink:href="#m0116cf94c1" x="97.605" y="50.079468" style="fill: #1f77b4; stroke: #1f77b4; stroke-width: 1.5"/>
      </g>
     </g>
     <g id="text_12">
      <!-- 60 m -->
      <g style="fill: #1f77b4" transform="translate(87.965937 66.387281) rotate(-90) scale(0.1 -0.1)">
       <use xlink:href="#TimesNewRomanPSMT-36"/>
       <use xlink:href="#TimesNewRomanPSMT-30" x="50"/>
       <use xlink:href="#TimesNewRomanPSMT-2009" x="100"/>
       <use xlink:href="#TimesNewRomanPSMT-6d" x="120.019531"/>
      </g>
     </g>
    </g>
    <g id="text_13">
     <!-- NN_0 -->
     <g style="fill: #1f77b4" transform="translate(98.619 37.532857) scale(0.12 -0.12)">
      <defs>
       <path id="TimesNewRomanPSMT-4e" d="M -84 4238 
L 1066 4238 
L 3656 1059 
L 3656 3503 
Q 3656 3894 3569 3991 
Q 3453 4122 3203 4122 
L 3056 4122 
L 3056 4238 
L 4531 4238 
L 4531 4122 
L 4381 4122 
Q 4113 4122 4000 3959 
Q 3931 3859 3931 3503 
L 3931 -69 
L 3819 -69 
L 1025 3344 
L 1025 734 
Q 1025 344 1109 247 
Q 1228 116 1475 116 
L 1625 116 
L 1625 0 
L 150 0 
L 150 116 
L 297 116 
Q 569 116 681 278 
Q 750 378 750 734 
L 750 3681 
Q 566 3897 470 3965 
Q 375 4034 191 4094 
Q 100 4122 -84 4122 
L -84 4238 
z
" transform="scale(0.015625)"/>
       <path id="TimesNewRomanPSMT-5f" d="M 3256 -1381 
L -53 -1381 
L -53 -1119 
L 3256 -1119 
L 3256 -1381 
z
" transform="scale(0.015625)"/>
      </defs>
      <use xlink:href="#TimesNewRomanPSMT-4e"/>
      <use xlink:href="#TimesNewRomanPSMT-4e" x="72.216797"/>
      <use xlink:href="#TimesNewRomanPSMT-5f" x="144.433594"/>
      <use xlink:href="#TimesNewRomanPSMT-30" x="194.433594"/>
     </g>
    </g>
   </g>
   <g id="line2d_23">
    <path d="M 97.605 85.475467 
L 98.127675 71.387771 
L 98.65035 75.418632 
L 99.173025 75.336558 
L 99.6957 72.871345 
L 100.218375 75.686688 
L 100.74105 75.872113 
L 101.263725 77.200491 
L 101.7864 76.839464 
L 102.309075 77.249799 
L 102.83175 78.070084 
L 104.399775 79.743028 
L 104.92245 80.638832 
L 105.445125 81.042377 
L 105.9678 82.166811 
L 106.490475 83.017932 
L 107.01315 83.230913 
L 107.535825 82.500761 
L 108.0585 81.008978 
L 109.10385 79.124291 
L 110.671875 76.039598 
L 111.19455 75.633213 
L 112.2399 78.16567 
L 113.28525 80.035515 
L 114.3306 81.679644 
L 114.853275 81.978013 
L 116.943975 82.358738 
L 117.989325 82.17023 
L 119.034675 81.447083 
L 120.080025 81.672399 
L 121.125375 81.818378 
L 122.170725 81.268494 
L 123.73875 80.120291 
L 126.8748 80.484197 
L 128.9655 81.073077 
L 129.488175 81.355744 
L 131.0562 82.547862 
L 132.10155 83.078497 
L 133.669575 82.939241 
L 134.19225 82.868622 
L 134.714925 82.558275 
L 136.805625 79.456244 
L 138.37365 76.522244 
L 138.896325 75.452059 
L 139.419 73.975985 
L 139.941675 66.715824 
L 140.46435 67.011168 
L 140.987025 73.504312 
L 141.5097 77.762182 
L 142.032375 81.079452 
L 142.55505 83.336193 
L 143.077725 82.575305 
L 144.123075 80.602182 
L 145.168425 79.213024 
L 145.6911 78.720797 
L 146.213775 78.385423 
L 146.73645 78.319747 
L 147.259125 78.464566 
L 148.82715 80.779864 
L 149.349825 81.070379 
L 150.395175 81.927771 
L 151.440525 82.345843 
L 151.9632 81.981998 
L 153.00855 80.638519 
L 154.0539 76.929669 
L 154.576575 74.370632 
L 155.09925 73.027033 
L 156.1446 77.689769 
L 156.667275 79.495605 
L 157.18995 78.927345 
L 158.2353 78.256481 
L 158.757975 78.006747 
L 159.28065 77.932909 
L 159.803325 78.042781 
L 160.326 78.276951 
L 161.37135 78.516262 
L 162.939375 79.762758 
L 163.984725 79.783017 
L 164.5074 79.208103 
L 165.030075 80.280083 
L 165.55275 80.630388 
L 166.075425 80.369066 
L 167.120775 79.294417 
L 167.64345 77.407428 
L 168.166125 76.671058 
L 168.6888 79.164095 
L 169.211475 80.72153 
L 169.73415 81.002681 
L 170.256825 81.095641 
L 170.7795 81.037776 
L 171.302175 80.468048 
L 171.82485 79.621834 
L 172.8702 80.558352 
L 173.392875 80.602685 
L 173.91555 80.105372 
L 174.438225 79.070011 
L 174.9609 79.515707 
L 175.483575 80.437555 
L 176.00625 80.69004 
L 176.528925 80.699732 
L 177.574275 80.073563 
L 178.619625 83.456664 
L 179.1423 83.652609 
L 180.18765 83.065535 
L 181.755675 81.883279 
L 182.801025 81.591716 
L 183.3237 80.486003 
L 183.846375 80.60284 
L 185.4144 81.428482 
L 185.937075 82.425341 
L 186.45975 82.531348 
L 186.982425 82.140337 
L 187.5051 82.061912 
L 188.027775 80.90832 
L 188.55045 80.253788 
L 189.073125 80.55859 
L 190.118475 81.653255 
L 190.64115 82.228189 
L 191.163825 82.443155 
L 191.6865 82.872552 
L 192.209175 83.485928 
L 192.73185 83.650116 
L 193.254525 82.700735 
L 193.7772 81.228617 
L 194.299875 82.984145 
L 194.82255 82.785785 
L 195.345225 82.025247 
L 196.390575 76.658221 
L 196.91325 81.160869 
L 197.435925 84.175992 
L 197.9586 83.170318 
L 198.481275 81.843482 
L 199.00395 81.027033 
L 199.526625 80.511089 
L 200.0493 80.335898 
L 200.571975 80.43388 
L 201.09465 80.862031 
L 201.617325 81.12288 
L 202.14 81.245165 
L 202.662675 80.927597 
L 203.708025 80.915006 
L 204.753375 81.813415 
L 205.27605 82.32116 
L 205.798725 81.594218 
L 206.844075 78.728053 
L 207.36675 76.132085 
L 207.889425 74.793865 
L 208.4121 76.562469 
L 208.934775 71.193846 
L 209.45745 63.738272 
L 209.980125 76.285737 
L 210.5028 79.813543 
L 211.025475 80.854861 
L 211.54815 81.384843 
L 212.070825 81.558572 
L 212.5935 80.12769 
L 213.116175 79.573547 
L 213.63885 78.798413 
L 214.161525 78.914008 
L 214.6842 81.732343 
L 215.206875 83.053286 
L 215.72955 76.899175 
L 216.252225 75.675214 
L 216.7749 80.276129 
L 217.297575 79.130532 
L 217.82025 73.068831 
L 218.342925 71.957798 
L 218.8656 76.693464 
L 219.388275 79.945862 
L 219.91095 81.388406 
L 220.433625 79.887057 
L 220.9563 81.591984 
L 221.478975 81.156112 
L 222.00165 77.214068 
L 222.524325 76.475746 
L 223.047 63.677315 
L 223.569675 77.328967 
L 224.09235 64.89789 
L 225.1377 76.115246 
L 225.660375 77.684414 
L 226.18305 81.71738 
L 226.705725 68.216728 
L 227.751075 80.888539 
L 228.796425 78.854048 
L 229.3191 76.872341 
L 229.841775 78.452819 
L 230.36445 81.371062 
L 230.887125 69.664816 
L 231.4098 80.940546 
L 231.932475 75.557812 
L 232.45515 75.789029 
L 232.977825 73.821461 
L 233.5005 70.115068 
L 234.023175 69.31149 
L 234.54585 68.983512 
L 235.068525 78.112401 
L 235.5912 79.552088 
L 236.113875 78.756569 
L 236.63655 78.499805 
L 237.159225 77.053577 
L 237.6819 72.792801 
L 238.204575 72.930716 
L 238.72725 70.620268 
L 239.249925 80.455519 
L 239.7726 81.956606 
L 240.295275 81.942343 
L 240.81795 81.793564 
L 241.340625 80.668275 
L 241.8633 77.455559 
L 242.90865 81.199437 
L 243.954 78.292275 
L 244.476675 79.372046 
L 244.99935 80.057949 
L 245.522025 78.396114 
L 246.0447 74.602164 
L 246.567375 75.218314 
L 247.09005 80.941926 
L 247.612725 82.07669 
L 248.1354 81.094727 
L 248.658075 79.317616 
L 249.18075 76.584498 
L 249.703425 81.841405 
L 250.2261 79.010197 
L 250.748775 79.566024 
L 251.27145 79.794342 
L 251.794125 79.606346 
L 252.3168 80.129342 
L 252.839475 80.224252 
L 253.884825 81.53526 
L 254.4075 82.701678 
L 254.930175 83.538026 
L 255.45285 83.560068 
L 255.975525 83.06355 
L 256.4982 81.914476 
L 257.020875 80.103863 
L 257.54355 79.336429 
L 258.066225 80.570592 
L 258.5889 80.92428 
L 259.111575 80.06327 
L 260.6796 78.922731 
L 261.202275 80.824459 
L 261.72495 82.016415 
L 262.247625 80.114344 
L 262.7703 79.424826 
L 263.292975 79.503129 
L 263.81565 81.540972 
L 264.338325 82.687386 
L 264.861 82.866674 
L 265.383675 82.584031 
L 265.90635 81.958892 
L 266.429025 81.123427 
L 267.474375 80.017098 
L 268.519725 79.292388 
L 269.0424 80.384751 
L 269.565075 79.831329 
L 270.08775 79.478823 
L 270.610425 79.336354 
L 271.1331 80.387967 
L 271.655775 82.330904 
L 272.17845 82.524507 
L 273.2238 79.635593 
L 273.746475 78.729175 
L 274.26915 78.605269 
L 274.791825 78.692195 
L 276.35985 79.332283 
L 276.882525 79.296348 
L 277.927875 78.627775 
L 278.45055 77.853597 
L 278.973225 78.786636 
L 281.5866 81.5132 
L 282.109275 81.541884 
L 282.63195 81.064317 
L 283.154625 80.376351 
L 283.6773 80.079449 
L 284.199975 82.346538 
L 284.72265 83.317035 
L 285.245325 82.965325 
L 285.768 82.380115 
L 286.290675 81.449399 
L 287.336025 78.799528 
L 287.8587 78.429803 
L 288.381375 80.172666 
L 289.9494 79.71655 
L 290.472075 79.846778 
L 290.99475 81.184973 
L 291.517425 81.068502 
L 292.0401 79.406638 
L 292.562775 77.214326 
L 293.08545 74.485556 
L 293.608125 74.606735 
L 294.1308 77.049699 
L 295.17615 79.095783 
L 295.698825 79.503488 
L 296.2215 79.044774 
L 296.744175 78.963488 
L 297.26685 78.536028 
L 298.3122 79.370367 
L 299.35755 78.786207 
L 301.44825 77.97704 
L 301.970925 78.09059 
L 302.4936 78.65876 
L 303.53895 80.655301 
L 304.061625 81.30202 
L 304.5843 81.507937 
L 305.106975 81.431152 
L 306.675 80.417885 
L 308.243025 80.606222 
L 309.288375 81.518087 
L 309.81105 82.040534 
L 312.424425 79.593779 
L 313.469775 78.985901 
L 313.99245 78.865453 
L 315.560475 79.57022 
L 317.651175 80.410191 
L 319.741875 81.586691 
L 322.35525 82.658359 
L 323.923275 83.203386 
L 330.195375 83.490299 
L 334.89945 83.845441 
L 337.512825 83.462407 
L 338.558175 83.300651 
L 340.1262 83.526449 
L 341.17155 83.279262 
L 343.784925 82.466321 
L 344.830275 82.514406 
L 345.35295 82.467686 
L 345.875625 82.295201 
L 346.3983 81.988502 
L 349.53435 83.146988 
L 351.62505 83.616852 
L 352.6704 83.809583 
L 361.0332 84.225928 
L 363.646575 84.362176 
L 379.326825 84.160263 
L 388.734975 84.4309 
L 396.052425 83.844767 
L 398.143125 84.081544 
L 401.80185 83.984328 
L 407.551275 82.966559 
L 411.21 82.344683 
L 411.21 82.344683 
" clip-path="url(#pb5d01ea84e)" style="fill: none; stroke: #1f77b4; stroke-linecap: square"/>
   </g>
   <g id="patch_3">
    <path d="M 97.605 173.54 
L 97.605 41.4432 
" style="fill: none; stroke: #000000; stroke-width: 0.8; stroke-linejoin: miter; stroke-linecap: square"/>
   </g>
   <g id="patch_4">
    <path d="M 411.21 173.54 
L 411.21 41.4432 
" style="fill: none; stroke: #000000; stroke-width: 0.8; stroke-linejoin: miter; stroke-linecap: square"/>
   </g>
   <g id="patch_5">
    <path d="M 97.605 173.54 
L 411.21 173.54 
" style="fill: none; stroke: #000000; stroke-width: 0.8; stroke-linejoin: miter; stroke-linecap: square"/>
   </g>
   <g id="patch_6">
    <path d="M 97.605 41.4432 
L 411.21 41.4432 
" style="fill: none; stroke: #000000; stroke-width: 0.8; stroke-linejoin: miter; stroke-linecap: square"/>
   </g>
  </g>
  <g id="axes_2">
   <g id="matplotlib.axis_3">
    <g id="ytick_5">
     <g id="line2d_24">
      <defs>
       <path id="mfcf1bd7c66" d="M 0 0 
L -4 0 
" style="stroke: #ff7f0e; stroke-width: 1.5"/>
      </defs>
      <g>
       <use xlink:href="#mfcf1bd7c66" x="66.2445" y="173.54" style="fill: #ff7f0e; stroke: #ff7f0e; stroke-width: 1.5"/>
      </g>
     </g>
     <g id="text_14">
      <!-- 0 -->
      <g style="fill: #ff7f0e" transform="translate(56.605437 175.068125) rotate(-90) scale(0.1 -0.1)">
       <use xlink:href="#TimesNewRomanPSMT-30"/>
      </g>
     </g>
    </g>
    <g id="ytick_6">
     <g id="line2d_25">
      <g>
       <use xlink:href="#mfcf1bd7c66" x="66.2445" y="130.611188" style="fill: #ff7f0e; stroke: #ff7f0e; stroke-width: 1.5"/>
      </g>
     </g>
     <g id="text_15">
      <!-- 80 m -->
      <g style="fill: #ff7f0e" transform="translate(56.605437 146.919) rotate(-90) scale(0.1 -0.1)">
       <defs>
        <path id="TimesNewRomanPSMT-38" d="M 1228 2134 
Q 725 2547 579 2797 
Q 434 3047 434 3316 
Q 434 3728 753 4026 
Q 1072 4325 1600 4325 
Q 2113 4325 2425 4047 
Q 2738 3769 2738 3413 
Q 2738 3175 2569 2928 
Q 2400 2681 1866 2347 
Q 2416 1922 2594 1678 
Q 2831 1359 2831 1006 
Q 2831 559 2490 242 
Q 2150 -75 1597 -75 
Q 994 -75 656 303 
Q 388 606 388 966 
Q 388 1247 577 1523 
Q 766 1800 1228 2134 
z
M 1719 2469 
Q 2094 2806 2194 3001 
Q 2294 3197 2294 3444 
Q 2294 3772 2109 3958 
Q 1925 4144 1606 4144 
Q 1288 4144 1088 3959 
Q 888 3775 888 3528 
Q 888 3366 970 3203 
Q 1053 3041 1206 2894 
L 1719 2469 
z
M 1375 2016 
Q 1116 1797 991 1539 
Q 866 1281 866 981 
Q 866 578 1086 336 
Q 1306 94 1647 94 
Q 1984 94 2187 284 
Q 2391 475 2391 747 
Q 2391 972 2272 1150 
Q 2050 1481 1375 2016 
z
" transform="scale(0.015625)"/>
       </defs>
       <use xlink:href="#TimesNewRomanPSMT-38"/>
       <use xlink:href="#TimesNewRomanPSMT-30" x="50"/>
       <use xlink:href="#TimesNewRomanPSMT-2009" x="100"/>
       <use xlink:href="#TimesNewRomanPSMT-6d" x="120.019531"/>
      </g>
     </g>
    </g>
    <g id="ytick_7">
     <g id="line2d_26">
      <g>
       <use xlink:href="#mfcf1bd7c66" x="66.2445" y="87.682376" style="fill: #ff7f0e; stroke: #ff7f0e; stroke-width: 1.5"/>
      </g>
     </g>
     <g id="text_16">
      <!-- 160 m -->
      <g style="fill: #ff7f0e" transform="translate(56.605437 108.990188) rotate(-90) scale(0.1 -0.1)">
       <use xlink:href="#TimesNewRomanPSMT-31"/>
       <use xlink:href="#TimesNewRomanPSMT-36" x="50"/>
       <use xlink:href="#TimesNewRomanPSMT-30" x="100"/>
       <use xlink:href="#TimesNewRomanPSMT-2009" x="150"/>
       <use xlink:href="#TimesNewRomanPSMT-6d" x="170.019531"/>
      </g>
     </g>
    </g>
    <g id="ytick_8">
     <g id="line2d_27">
      <g>
       <use xlink:href="#mfcf1bd7c66" x="66.2445" y="44.753563" style="fill: #ff7f0e; stroke: #ff7f0e; stroke-width: 1.5"/>
      </g>
     </g>
     <g id="text_17">
      <!-- 240 m -->
      <g style="fill: #ff7f0e" transform="translate(56.605437 66.061376) rotate(-90) scale(0.1 -0.1)">
       <defs>
        <path id="TimesNewRomanPSMT-34" d="M 2978 1563 
L 2978 1119 
L 2409 1119 
L 2409 0 
L 1894 0 
L 1894 1119 
L 100 1119 
L 100 1519 
L 2066 4325 
L 2409 4325 
L 2409 1563 
L 2978 1563 
z
M 1894 1563 
L 1894 3666 
L 406 1563 
L 1894 1563 
z
" transform="scale(0.015625)"/>
       </defs>
       <use xlink:href="#TimesNewRomanPSMT-32"/>
       <use xlink:href="#TimesNewRomanPSMT-34" x="50"/>
       <use xlink:href="#TimesNewRomanPSMT-30" x="100"/>
       <use xlink:href="#TimesNewRomanPSMT-2009" x="150"/>
       <use xlink:href="#TimesNewRomanPSMT-6d" x="170.019531"/>
      </g>
     </g>
    </g>
    <g id="text_18">
     <!-- NN_20 -->
     <g style="fill: #ff7f0e" transform="translate(56.418375 37.532857) scale(0.12 -0.12)">
      <use xlink:href="#TimesNewRomanPSMT-4e"/>
      <use xlink:href="#TimesNewRomanPSMT-4e" x="72.216797"/>
      <use xlink:href="#TimesNewRomanPSMT-5f" x="144.433594"/>
      <use xlink:href="#TimesNewRomanPSMT-32" x="194.433594"/>
      <use xlink:href="#TimesNewRomanPSMT-30" x="244.433594"/>
     </g>
    </g>
   </g>
   <g id="line2d_28">
    <path d="M 97.605 173.54 
L 98.127675 78.104673 
L 98.65035 93.015265 
L 99.173025 112.320996 
L 99.6957 124.484535 
L 100.218375 133.031678 
L 100.74105 131.011848 
L 101.263725 130.97743 
L 102.309075 132.426788 
L 102.83175 133.530987 
L 103.354425 135.007405 
L 105.9678 144.603521 
L 108.0585 152.70354 
L 108.581175 154.140266 
L 109.10385 153.615546 
L 109.626525 152.481783 
L 110.671875 149.618829 
L 111.19455 148.967835 
L 113.28525 153.317061 
L 113.807925 154.113977 
L 115.37595 157.155919 
L 116.4213 158.729856 
L 120.080025 163.702094 
L 120.6027 164.192955 
L 121.64805 164.652725 
L 123.216075 165.59123 
L 123.73875 165.909733 
L 124.261425 166.467163 
L 124.7841 166.513262 
L 125.306775 166.392468 
L 125.82945 166.115324 
L 126.352125 164.887308 
L 127.397475 163.967153 
L 127.92015 163.252094 
L 129.488175 162.242028 
L 130.533525 161.557258 
L 131.0562 161.047227 
L 131.578875 160.167786 
L 132.10155 159.719009 
L 133.1469 164.790655 
L 133.669575 167.014192 
L 134.19225 168.126572 
L 134.714925 167.887222 
L 135.2376 166.612932 
L 135.760275 164.612448 
L 137.3283 156.558298 
L 139.419 145.855592 
L 139.941675 143.402485 
L 140.46435 110.178023 
L 141.5097 141.696145 
L 142.032375 152.324562 
L 142.55505 155.969096 
L 143.077725 158.00956 
L 144.123075 160.935443 
L 145.168425 163.112613 
L 145.6911 165.004508 
L 146.213775 165.366474 
L 146.73645 163.786467 
L 147.259125 162.6499 
L 148.82715 166.07245 
L 149.349825 166.883017 
L 150.395175 165.748374 
L 151.9632 163.734785 
L 154.576575 158.576843 
L 155.09925 158.117929 
L 156.1446 163.877037 
L 157.712625 170.245465 
L 158.2353 170.299948 
L 158.757975 168.313126 
L 159.803325 166.835112 
L 160.848675 165.134157 
L 161.894025 163.789686 
L 162.4167 163.475887 
L 162.939375 163.341169 
L 163.46205 163.07177 
L 164.5074 164.547981 
L 165.030075 163.889782 
L 165.55275 164.130527 
L 166.075425 164.046853 
L 167.120775 161.598093 
L 168.166125 158.797797 
L 168.6888 160.280638 
L 169.73415 162.294452 
L 170.256825 163.190724 
L 170.7795 163.760198 
L 171.302175 164.096982 
L 171.82485 164.051487 
L 172.8702 165.273944 
L 174.438225 163.603988 
L 174.9609 163.563747 
L 175.483575 164.435415 
L 176.00625 165.020919 
L 177.574275 165.232763 
L 178.09695 165.761451 
L 179.664975 168.267824 
L 180.710325 169.48135 
L 181.233 169.71986 
L 181.755675 169.823447 
L 182.27835 169.64829 
L 182.801025 169.121209 
L 183.3237 169.991733 
L 183.846375 170.368647 
L 184.36905 170.534602 
L 184.891725 170.481673 
L 185.4144 170.13252 
L 185.937075 170.004679 
L 186.45975 169.535966 
L 188.55045 165.878209 
L 190.118475 166.490639 
L 191.6865 169.154142 
L 192.209175 168.868715 
L 192.73185 169.199608 
L 193.254525 169.377587 
L 193.7772 168.843979 
L 194.299875 168.669666 
L 194.82255 167.960708 
L 195.8679 164.9628 
L 196.390575 162.81846 
L 196.91325 166.673741 
L 197.435925 169.007301 
L 198.481275 168.608488 
L 199.00395 167.95806 
L 200.0493 167.333778 
L 200.571975 166.279881 
L 201.09465 164.681641 
L 201.617325 164.813803 
L 202.662675 165.734261 
L 203.18535 166.688471 
L 203.708025 168.714651 
L 204.2307 168.358911 
L 205.798725 162.844388 
L 206.3214 162.445761 
L 207.889425 160.555365 
L 208.4121 165.849318 
L 208.934775 166.648415 
L 209.45745 166.475747 
L 209.980125 163.405744 
L 210.5028 162.680114 
L 211.025475 162.809982 
L 211.54815 164.908188 
L 212.070825 165.461415 
L 212.5935 165.322158 
L 213.116175 164.88254 
L 213.63885 164.734594 
L 214.161525 164.781856 
L 214.6842 163.577052 
L 215.206875 161.741646 
L 215.72955 160.436477 
L 216.252225 160.520784 
L 216.7749 163.359583 
L 217.297575 163.960083 
L 217.82025 163.007943 
L 218.342925 159.675175 
L 218.8656 159.451638 
L 219.388275 160.962029 
L 219.91095 161.163817 
L 220.433625 161.627466 
L 220.9563 161.938955 
L 221.478975 160.63961 
L 222.00165 160.650354 
L 222.524325 159.40143 
L 223.047 154.112841 
L 223.569675 153.858649 
L 224.09235 150.567054 
L 224.615025 162.309468 
L 225.1377 164.784216 
L 225.660375 162.284839 
L 226.18305 163.826908 
L 226.705725 162.919872 
L 227.2284 160.241315 
L 227.751075 160.235574 
L 228.27375 161.410609 
L 228.796425 162.018374 
L 229.3191 162.917426 
L 229.841775 164.773487 
L 230.36445 163.229059 
L 230.887125 156.730479 
L 231.4098 160.082324 
L 231.932475 164.589428 
L 232.45515 167.537308 
L 233.5005 162.85109 
L 234.023175 162.261562 
L 234.54585 159.74548 
L 235.068525 161.651114 
L 235.5912 160.658605 
L 236.113875 157.190658 
L 236.63655 155.042553 
L 237.159225 162.491889 
L 237.6819 164.103223 
L 238.204575 163.926326 
L 239.249925 160.840994 
L 239.7726 160.87488 
L 240.295275 161.60994 
L 240.81795 161.35743 
L 241.8633 158.69881 
L 242.385975 159.633251 
L 242.90865 160.275823 
L 243.954 160.616455 
L 244.476675 160.039327 
L 244.99935 159.114176 
L 246.0447 156.170012 
L 246.567375 157.846438 
L 247.09005 162.841686 
L 247.612725 165.34006 
L 248.1354 164.594512 
L 248.658075 164.177707 
L 249.18075 164.138807 
L 249.703425 164.668536 
L 250.748775 166.765817 
L 251.27145 165.943072 
L 251.794125 163.176992 
L 252.839475 159.131388 
L 253.36215 159.114906 
L 253.884825 162.603578 
L 254.4075 164.368437 
L 254.930175 165.234857 
L 255.45285 164.493229 
L 255.975525 163.186346 
L 256.4982 162.980833 
L 257.020875 162.402537 
L 257.54355 162.078244 
L 258.066225 163.945372 
L 259.111575 166.639142 
L 260.156925 167.749575 
L 260.6796 168.30544 
L 261.202275 168.452472 
L 261.72495 168.427237 
L 262.247625 168.970944 
L 262.7703 169.196452 
L 263.81565 169.155508 
L 264.861 169.368338 
L 265.383675 169.14045 
L 265.90635 168.761892 
L 267.474375 166.944122 
L 268.519725 165.229585 
L 269.565075 165.557624 
L 270.08775 165.446861 
L 270.610425 164.375653 
L 271.1331 164.952932 
L 271.655775 166.476738 
L 272.17845 167.518171 
L 272.701125 167.975875 
L 273.2238 167.870169 
L 273.746475 168.040319 
L 274.791825 168.718437 
L 275.3145 168.69381 
L 275.837175 168.394785 
L 276.35985 168.536179 
L 278.45055 167.182748 
L 278.973225 167.961064 
L 279.4959 168.034151 
L 280.018575 167.635036 
L 280.54125 168.005074 
L 281.063925 168.546845 
L 282.109275 169.107228 
L 283.154625 169.914874 
L 283.6773 169.302277 
L 284.199975 168.499895 
L 284.72265 168.588314 
L 285.245325 169.4332 
L 285.768 169.666629 
L 286.290675 170.024635 
L 286.81335 170.104199 
L 287.336025 169.7864 
L 287.8587 168.988108 
L 288.381375 169.069169 
L 288.90405 168.436429 
L 289.426725 168.440715 
L 290.472075 167.915636 
L 290.99475 168.225392 
L 292.0401 169.218439 
L 293.08545 170.790849 
L 294.1308 169.615127 
L 294.653475 168.850264 
L 295.17615 168.288066 
L 295.698825 168.646558 
L 296.2215 169.471634 
L 296.744175 169.731867 
L 297.26685 169.239932 
L 297.789525 168.415635 
L 298.834875 167.347549 
L 299.880225 166.712394 
L 300.925575 166.289388 
L 301.970925 166.123242 
L 302.4936 166.934106 
L 303.53895 169.54162 
L 304.061625 170.075006 
L 304.5843 170.171921 
L 305.106975 170.135556 
L 306.675 169.015619 
L 307.72035 168.839299 
L 308.243025 168.678844 
L 308.7657 168.831702 
L 310.333725 169.925856 
L 310.8564 170.282947 
L 311.90175 170.015975 
L 312.9471 169.39587 
L 313.469775 169.216845 
L 313.99245 169.167323 
L 316.08315 169.770986 
L 317.1285 170.11158 
L 317.651175 170.347702 
L 320.787225 169.481105 
L 321.3099 169.184412 
L 321.832575 169.051497 
L 322.35525 168.789261 
L 322.877925 168.655324 
L 324.44595 168.944877 
L 325.4913 169.807389 
L 326.53665 170.775856 
L 327.582 171.274167 
L 328.62735 171.471911 
L 332.80875 171.000651 
L 341.17155 172.305663 
L 344.3076 172.775728 
L 345.35295 172.603631 
L 351.102375 170.759765 
L 353.193075 171.100005 
L 355.80645 171.309071 
L 358.9425 171.408136 
L 368.35065 171.885496 
L 374.62275 172.151004 
L 377.236125 172.239328 
L 380.372175 172.107165 
L 393.961725 171.327225 
L 400.7565 171.364237 
L 407.0286 171.449143 
L 408.596625 171.467327 
L 411.21 171.359235 
L 411.21 171.359235 
" clip-path="url(#pb5d01ea84e)" style="fill: none; stroke: #ff7f0e; stroke-linecap: square"/>
   </g>
   <g id="patch_7">
    <path d="M 66.2445 173.54 
L 66.2445 41.4432 
" style="fill: none; stroke: #000000; stroke-width: 0.8; stroke-linejoin: miter; stroke-linecap: square"/>
   </g>
   <g id="patch_8">
    <path d="M 411.21 173.54 
L 411.21 41.4432 
" style="fill: none; stroke: #000000; stroke-width: 0.8; stroke-linejoin: miter; stroke-linecap: square"/>
   </g>
   <g id="patch_9">
    <path d="M 97.605 173.54 
L 411.21 173.54 
" style="fill: none; stroke: #000000; stroke-width: 0.8; stroke-linejoin: miter; stroke-linecap: square"/>
   </g>
   <g id="patch_10">
    <path d="M 97.605 41.4432 
L 411.21 41.4432 
" style="fill: none; stroke: #000000; stroke-width: 0.8; stroke-linejoin: miter; stroke-linecap: square"/>
   </g>
  </g>
  <g id="axes_3">
   <g id="matplotlib.axis_4">
    <g id="ytick_9">
     <g id="line2d_29">
      <defs>
       <path id="ma447724bc7" d="M 0 0 
L -4 0 
" style="stroke: #2ca02c; stroke-width: 1.5"/>
      </defs>
      <g>
       <use xlink:href="#ma447724bc7" x="34.884" y="173.54" style="fill: #2ca02c; stroke: #2ca02c; stroke-width: 1.5"/>
      </g>
     </g>
     <g id="text_19">
      <!-- 0 -->
      <g style="fill: #2ca02c" transform="translate(25.244937 175.068125) rotate(-90) scale(0.1 -0.1)">
       <use xlink:href="#TimesNewRomanPSMT-30"/>
      </g>
     </g>
    </g>
    <g id="ytick_10">
     <g id="line2d_30">
      <g>
       <use xlink:href="#ma447724bc7" x="34.884" y="130.611188" style="fill: #2ca02c; stroke: #2ca02c; stroke-width: 1.5"/>
      </g>
     </g>
     <g id="text_20">
      <!-- 80 m -->
      <g style="fill: #2ca02c" transform="translate(25.244937 146.919) rotate(-90) scale(0.1 -0.1)">
       <use xlink:href="#TimesNewRomanPSMT-38"/>
       <use xlink:href="#TimesNewRomanPSMT-30" x="50"/>
       <use xlink:href="#TimesNewRomanPSMT-2009" x="100"/>
       <use xlink:href="#TimesNewRomanPSMT-6d" x="120.019531"/>
      </g>
     </g>
    </g>
    <g id="ytick_11">
     <g id="line2d_31">
      <g>
       <use xlink:href="#ma447724bc7" x="34.884" y="87.682376" style="fill: #2ca02c; stroke: #2ca02c; stroke-width: 1.5"/>
      </g>
     </g>
     <g id="text_21">
      <!-- 160 m -->
      <g style="fill: #2ca02c" transform="translate(25.244937 108.990188) rotate(-90) scale(0.1 -0.1)">
       <use xlink:href="#TimesNewRomanPSMT-31"/>
       <use xlink:href="#TimesNewRomanPSMT-36" x="50"/>
       <use xlink:href="#TimesNewRomanPSMT-30" x="100"/>
       <use xlink:href="#TimesNewRomanPSMT-2009" x="150"/>
       <use xlink:href="#TimesNewRomanPSMT-6d" x="170.019531"/>
      </g>
     </g>
    </g>
    <g id="ytick_12">
     <g id="line2d_32">
      <g>
       <use xlink:href="#ma447724bc7" x="34.884" y="44.753563" style="fill: #2ca02c; stroke: #2ca02c; stroke-width: 1.5"/>
      </g>
     </g>
     <g id="text_22">
      <!-- 240 m -->
      <g style="fill: #2ca02c" transform="translate(25.244937 66.061376) rotate(-90) scale(0.1 -0.1)">
       <use xlink:href="#TimesNewRomanPSMT-32"/>
       <use xlink:href="#TimesNewRomanPSMT-34" x="50"/>
       <use xlink:href="#TimesNewRomanPSMT-30" x="100"/>
       <use xlink:href="#TimesNewRomanPSMT-2009" x="150"/>
       <use xlink:href="#TimesNewRomanPSMT-6d" x="170.019531"/>
      </g>
     </g>
    </g>
    <g id="text_23">
     <!-- NN_40 -->
     <g style="fill: #2ca02c" transform="translate(17.21775 37.532857) scale(0.12 -0.12)">
      <use xlink:href="#TimesNewRomanPSMT-4e"/>
      <use xlink:href="#TimesNewRomanPSMT-4e" x="72.216797"/>
      <use xlink:href="#TimesNewRomanPSMT-5f" x="144.433594"/>
      <use xlink:href="#TimesNewRomanPSMT-34" x="194.433594"/>
      <use xlink:href="#TimesNewRomanPSMT-30" x="244.433594"/>
     </g>
    </g>
   </g>
   <g id="line2d_33">
    <path d="M 97.605 173.54 
L 98.127675 42.751089 
L 98.65035 58.534422 
L 99.173025 81.463386 
L 100.218375 114.629652 
L 100.74105 127.183371 
L 101.263725 136.70557 
L 101.7864 143.799571 
L 102.309075 148.885258 
L 102.83175 152.668621 
L 103.354425 154.305662 
L 103.8771 155.50676 
L 104.399775 155.694214 
L 104.92245 154.191676 
L 106.490475 148.005375 
L 107.535825 144.912606 
L 108.581175 141.892435 
L 109.10385 140.6127 
L 110.1492 139.272708 
L 110.671875 139.078807 
L 111.19455 139.976441 
L 112.762575 147.430008 
L 114.3306 153.867344 
L 114.853275 154.3565 
L 118.512 151.813732 
L 120.6027 149.536321 
L 122.6934 146.986058 
L 125.306775 154.944225 
L 125.82945 156.534894 
L 126.8748 157.940429 
L 127.397475 158.400001 
L 127.92015 158.410325 
L 128.442825 157.853818 
L 129.488175 155.920237 
L 136.805625 138.805948 
L 139.419 131.245686 
L 139.941675 130.418951 
L 140.46435 107.421761 
L 141.5097 120.87429 
L 143.077725 135.532465 
L 144.123075 143.294262 
L 145.6911 151.279582 
L 146.73645 155.02149 
L 149.8725 163.815413 
L 150.395175 164.655003 
L 150.91785 164.23211 
L 154.576575 156.274639 
L 155.09925 156.223787 
L 156.667275 166.049712 
L 157.18995 165.604829 
L 160.326 156.965887 
L 161.37135 156.710848 
L 162.939375 156.679825 
L 163.46205 156.519565 
L 163.984725 156.797858 
L 165.030075 159.279817 
L 166.075425 164.233562 
L 166.5981 164.6508 
L 167.120775 163.362974 
L 167.64345 161.633109 
L 168.166125 160.661077 
L 168.6888 163.046221 
L 169.211475 164.550634 
L 169.73415 164.871303 
L 170.256825 164.518815 
L 171.302175 162.627094 
L 171.82485 161.615077 
L 172.8702 161.31323 
L 173.392875 161.095537 
L 173.91555 160.340121 
L 174.438225 158.83283 
L 174.9609 157.796005 
L 175.483575 157.663158 
L 176.00625 157.392614 
L 177.0516 156.013979 
L 177.574275 156.079865 
L 178.09695 157.16213 
L 178.619625 158.596616 
L 180.18765 165.306221 
L 180.710325 166.827129 
L 181.233 167.663308 
L 181.755675 167.031949 
L 182.27835 165.499625 
L 182.801025 164.651988 
L 183.3237 164.859721 
L 183.846375 165.619268 
L 184.36905 165.728387 
L 184.891725 165.543626 
L 185.4144 164.381146 
L 185.937075 162.812378 
L 186.45975 160.648669 
L 186.982425 161.253624 
L 187.5051 161.51778 
L 188.027775 161.639591 
L 188.55045 162.051702 
L 191.163825 166.044845 
L 191.6865 166.596915 
L 192.209175 165.407267 
L 192.73185 163.894779 
L 193.254525 161.43857 
L 193.7772 157.199955 
L 194.299875 153.996516 
L 194.82255 151.576652 
L 195.345225 148.592426 
L 195.8679 147.417743 
L 196.390575 146.743821 
L 196.91325 153.431029 
L 197.9586 162.324118 
L 198.481275 164.698607 
L 199.00395 163.90385 
L 200.0493 162.756485 
L 200.571975 162.31603 
L 201.09465 162.172303 
L 201.617325 162.745349 
L 202.14 162.362916 
L 203.18535 161.215678 
L 203.708025 161.366314 
L 204.2307 160.558748 
L 205.27605 161.235446 
L 205.798725 162.443091 
L 206.3214 162.202604 
L 206.844075 160.630753 
L 207.889425 156.162528 
L 208.4121 159.461123 
L 208.934775 159.386964 
L 209.45745 158.845428 
L 210.5028 154.972724 
L 211.025475 153.942479 
L 211.54815 153.855937 
L 212.070825 155.68422 
L 213.116175 154.929998 
L 213.63885 155.519885 
L 214.161525 156.718251 
L 214.6842 155.433378 
L 215.206875 150.702292 
L 215.72955 142.693396 
L 216.252225 140.925975 
L 216.7749 152.65651 
L 217.297575 155.254791 
L 217.82025 152.255744 
L 218.342925 152.658065 
L 219.388275 158.436374 
L 219.91095 160.134202 
L 220.433625 158.624622 
L 220.9563 159.370542 
L 221.478975 157.050882 
L 222.524325 143.581106 
L 223.047 153.416773 
L 223.569675 153.281894 
L 224.09235 142.066567 
L 224.615025 153.824116 
L 225.1377 152.665075 
L 225.660375 145.504771 
L 226.705725 154.799655 
L 227.2284 155.141698 
L 227.751075 154.300128 
L 228.796425 155.761478 
L 229.3191 154.735795 
L 229.841775 156.733492 
L 230.36445 154.29286 
L 230.887125 137.750269 
L 231.4098 150.557526 
L 231.932475 155.360335 
L 232.45515 150.469361 
L 232.977825 147.696156 
L 233.5005 154.346451 
L 234.54585 143.920474 
L 235.068525 146.495858 
L 235.5912 142.898597 
L 236.113875 145.146005 
L 236.63655 148.819773 
L 237.159225 149.643384 
L 237.6819 147.338094 
L 238.204575 151.413146 
L 238.72725 157.5359 
L 239.249925 160.99402 
L 240.295275 153.83714 
L 240.81795 152.070552 
L 241.340625 154.193883 
L 242.385975 160.177046 
L 242.90865 161.355982 
L 243.431325 162.173533 
L 244.476675 158.799401 
L 244.99935 156.840699 
L 245.522025 155.394177 
L 246.0447 154.441451 
L 246.567375 156.141606 
L 247.09005 157.089365 
L 247.612725 157.609436 
L 248.1354 158.837229 
L 248.658075 159.48403 
L 249.18075 157.943413 
L 249.703425 156.763838 
L 250.748775 152.462351 
L 251.27145 151.140352 
L 251.794125 150.3735 
L 252.3168 147.484064 
L 252.839475 149.815223 
L 253.36215 155.056122 
L 254.4075 156.60904 
L 254.930175 158.598872 
L 255.45285 160.02301 
L 255.975525 159.588057 
L 256.4982 158.836717 
L 257.020875 157.597026 
L 257.54355 155.667427 
L 258.066225 154.815099 
L 258.5889 154.235411 
L 259.111575 154.953977 
L 259.63425 157.319005 
L 260.156925 158.357442 
L 260.6796 160.451206 
L 261.72495 161.729875 
L 262.247625 162.762373 
L 262.7703 162.021828 
L 263.292975 161.088249 
L 264.861 157.014938 
L 265.90635 156.876083 
L 266.429025 156.513257 
L 267.474375 152.797277 
L 267.99705 151.388509 
L 268.519725 153.100665 
L 269.0424 157.587972 
L 269.565075 158.257307 
L 270.08775 158.629905 
L 270.610425 159.276042 
L 271.1331 160.438459 
L 271.655775 162.467004 
L 272.701125 164.789556 
L 273.746475 166.421033 
L 274.26915 167.03652 
L 275.837175 166.88067 
L 276.882525 166.402222 
L 277.927875 165.592031 
L 278.45055 165.701088 
L 278.973225 166.629565 
L 279.4959 166.769611 
L 280.018575 167.156395 
L 281.063925 167.186324 
L 281.5866 167.808193 
L 282.63195 168.298255 
L 283.154625 168.422929 
L 284.199975 166.129096 
L 284.72265 165.704202 
L 285.245325 165.691958 
L 286.81335 163.990693 
L 288.381375 164.719239 
L 288.90405 164.510018 
L 289.9494 164.656352 
L 290.472075 165.000262 
L 290.99475 165.737722 
L 292.0401 166.482824 
L 292.562775 166.843914 
L 293.08545 166.573483 
L 294.1308 164.109938 
L 294.653475 163.322228 
L 295.17615 162.852684 
L 295.698825 162.533767 
L 296.744175 162.233457 
L 297.26685 162.300775 
L 297.789525 162.748814 
L 298.834875 163.922239 
L 299.35755 164.406883 
L 299.880225 164.302877 
L 300.4029 163.810959 
L 301.44825 162.558479 
L 301.970925 162.484259 
L 302.4936 163.069057 
L 303.53895 164.638871 
L 305.106975 165.595872 
L 306.152325 166.035886 
L 306.675 165.875013 
L 308.243025 165.723748 
L 309.288375 166.313322 
L 310.8564 167.57612 
L 311.379075 167.780409 
L 313.469775 165.527155 
L 313.99245 165.294917 
L 320.787225 168.181802 
L 321.832575 168.019366 
L 322.877925 168.059125 
L 323.4006 168.011843 
L 326.013975 168.487334 
L 332.286075 169.824171 
L 333.331425 169.891508 
L 335.422125 169.927547 
L 336.99015 170.025254 
L 338.0355 169.921916 
L 341.694225 169.223008 
L 342.739575 169.13703 
L 346.920975 169.941438 
L 348.489 170.295137 
L 356.329125 171.011681 
L 357.374475 170.966291 
L 362.601225 170.571633 
L 366.782625 170.346358 
L 371.4867 170.332988 
L 377.7588 170.556157 
L 381.417525 171.014857 
L 387.689625 170.793374 
L 391.871025 171.015062 
L 401.80185 171.656952 
L 403.89255 171.529729 
L 411.21 170.892854 
L 411.21 170.892854 
" clip-path="url(#pb5d01ea84e)" style="fill: none; stroke: #2ca02c; stroke-linecap: square"/>
   </g>
   <g id="patch_11">
    <path d="M 34.884 173.54 
L 34.884 41.4432 
" style="fill: none; stroke: #000000; stroke-width: 0.8; stroke-linejoin: miter; stroke-linecap: square"/>
   </g>
   <g id="patch_12">
    <path d="M 411.21 173.54 
L 411.21 41.4432 
" style="fill: none; stroke: #000000; stroke-width: 0.8; stroke-linejoin: miter; stroke-linecap: square"/>
   </g>
   <g id="patch_13">
    <path d="M 97.605 173.54 
L 411.21 173.54 
" style="fill: none; stroke: #000000; stroke-width: 0.8; stroke-linejoin: miter; stroke-linecap: square"/>
   </g>
   <g id="patch_14">
    <path d="M 97.605 41.4432 
L 411.21 41.4432 
" style="fill: none; stroke: #000000; stroke-width: 0.8; stroke-linejoin: miter; stroke-linecap: square"/>
   </g>
  </g>
  <g id="text_24">
   <!-- Step error -->
   <g transform="translate(354.81125 14.04125) scale(0.14 -0.14)">
    <defs>
     <path id="TimesNewRomanPSMT-53" d="M 2934 4334 
L 2934 2869 
L 2819 2869 
Q 2763 3291 2617 3541 
Q 2472 3791 2203 3937 
Q 1934 4084 1647 4084 
Q 1322 4084 1109 3886 
Q 897 3688 897 3434 
Q 897 3241 1031 3081 
Q 1225 2847 1953 2456 
Q 2547 2138 2764 1967 
Q 2981 1797 3098 1565 
Q 3216 1334 3216 1081 
Q 3216 600 2842 251 
Q 2469 -97 1881 -97 
Q 1697 -97 1534 -69 
Q 1438 -53 1133 45 
Q 828 144 747 144 
Q 669 144 623 97 
Q 578 50 556 -97 
L 441 -97 
L 441 1356 
L 556 1356 
Q 638 900 775 673 
Q 913 447 1195 297 
Q 1478 147 1816 147 
Q 2206 147 2432 353 
Q 2659 559 2659 841 
Q 2659 997 2573 1156 
Q 2488 1316 2306 1453 
Q 2184 1547 1640 1851 
Q 1097 2156 867 2337 
Q 638 2519 519 2737 
Q 400 2956 400 3219 
Q 400 3675 750 4004 
Q 1100 4334 1641 4334 
Q 1978 4334 2356 4169 
Q 2531 4091 2603 4091 
Q 2684 4091 2736 4139 
Q 2788 4188 2819 4334 
L 2934 4334 
z
" transform="scale(0.015625)"/>
     <path id="TimesNewRomanPSMT-70" d="M -6 2578 
L 875 2934 
L 994 2934 
L 994 2266 
Q 1216 2644 1439 2795 
Q 1663 2947 1909 2947 
Q 2341 2947 2628 2609 
Q 2981 2197 2981 1534 
Q 2981 794 2556 309 
Q 2206 -88 1675 -88 
Q 1444 -88 1275 -22 
Q 1150 25 994 166 
L 994 -706 
Q 994 -1000 1030 -1079 
Q 1066 -1159 1155 -1206 
Q 1244 -1253 1478 -1253 
L 1478 -1369 
L -22 -1369 
L -22 -1253 
L 56 -1253 
Q 228 -1256 350 -1188 
Q 409 -1153 442 -1076 
Q 475 -1000 475 -688 
L 475 2019 
Q 475 2297 450 2372 
Q 425 2447 370 2484 
Q 316 2522 222 2522 
Q 147 2522 31 2478 
L -6 2578 
z
M 994 2081 
L 994 1013 
Q 994 666 1022 556 
Q 1066 375 1236 237 
Q 1406 100 1666 100 
Q 1978 100 2172 344 
Q 2425 663 2425 1241 
Q 2425 1897 2138 2250 
Q 1938 2494 1663 2494 
Q 1513 2494 1366 2419 
Q 1253 2363 994 2081 
z
" transform="scale(0.015625)"/>
     <path id="TimesNewRomanPSMT-6f" d="M 1600 2947 
Q 2250 2947 2644 2453 
Q 2978 2031 2978 1484 
Q 2978 1100 2793 706 
Q 2609 313 2286 112 
Q 1963 -88 1566 -88 
Q 919 -88 538 428 
Q 216 863 216 1403 
Q 216 1797 411 2186 
Q 606 2575 925 2761 
Q 1244 2947 1600 2947 
z
M 1503 2744 
Q 1338 2744 1170 2645 
Q 1003 2547 900 2300 
Q 797 2053 797 1666 
Q 797 1041 1045 587 
Q 1294 134 1700 134 
Q 2003 134 2200 384 
Q 2397 634 2397 1244 
Q 2397 2006 2069 2444 
Q 1847 2744 1503 2744 
z
" transform="scale(0.015625)"/>
    </defs>
    <use xlink:href="#TimesNewRomanPSMT-53"/>
    <use xlink:href="#TimesNewRomanPSMT-74" x="55.615234"/>
    <use xlink:href="#TimesNewRomanPSMT-65" x="83.398438"/>
    <use xlink:href="#TimesNewRomanPSMT-70" x="127.783203"/>
    <use xlink:href="#TimesNewRomanPSMT-20" x="177.783203"/>
    <use xlink:href="#TimesNewRomanPSMT-65" x="202.783203"/>
    <use xlink:href="#TimesNewRomanPSMT-72" x="247.167969"/>
    <use xlink:href="#TimesNewRomanPSMT-72" x="280.46875"/>
    <use xlink:href="#TimesNewRomanPSMT-6f" x="313.769531"/>
    <use xlink:href="#TimesNewRomanPSMT-72" x="363.769531"/>
   </g>
  </g>
 </g>
 <defs>
  <clipPath id="pb5d01ea84e">
   <rect x="97.605" y="41.4432" width="313.605" height="132.0968"/>
  </clipPath>
 </defs>
</svg>
