<?xml version="1.0" encoding="utf-8" standalone="no"?>
<!DOCTYPE svg PUBLIC "-//W3C//DTD SVG 1.1//EN"
  "http://www.w3.org/Graphics/SVG/1.1/DTD/svg11.dtd">
<svg xmlns:xlink="http://www.w3.org/1999/xlink" width="432pt" height="216pt" viewBox="0 0 432 216" xmlns="http://www.w3.org/2000/svg" version="1.1">
 <metadata>
  <rdf:RDF xmlns:dc="http://purl.org/dc/elements/1.1/" xmlns:cc="http://creativecommons.org/ns#" xmlns:rdf="http://www.w3.org/1999/02/22-rdf-syntax-ns#">
   <cc:Work>
    <dc:type rdf:resource="http://purl.org/dc/dcmitype/StillImage"/>
    <dc:date>2024-05-12T22:09:34.553070</dc:date>
    <dc:format>image/svg+xml</dc:format>
    <dc:creator>
     <cc:Agent>
      <dc:title>Matplotlib v3.8.2, https://matplotlib.org/</dc:title>
     </cc:Agent>
    </dc:creator>
   </cc:Work>
  </rdf:RDF>
 </metadata>
 <defs>
  <style type="text/css">*{stroke-linejoin: round; stroke-linecap: butt}</style>
 </defs>
 <g id="figure_1">
  <g id="patch_1">
   <path d="M 0 216 
L 432 216 
L 432 0 
L 0 0 
z
" style="fill: #ffffff"/>
  </g>
  <g id="axes_1">
   <g id="patch_2">
    <path d="M 97.605 173.54 
L 411.21 173.54 
L 411.21 41.4432 
L 97.605 41.4432 
z
" style="fill: #ffffff"/>
   </g>
   <g id="matplotlib.axis_1">
    <g id="xtick_1">
     <g id="line2d_1">
      <path d="M 97.605 173.54 
L 97.605 41.4432 
" clip-path="url(#p5ad1003496)" style="fill: none; stroke: #b0b0b0; stroke-width: 0.8; stroke-linecap: square"/>
     </g>
     <g id="line2d_2">
      <defs>
       <path id="m2f7c8fe925" d="M 0 0 
L 0 4 
" style="stroke: #000000; stroke-width: 1.5"/>
      </defs>
      <g>
       <use xlink:href="#m2f7c8fe925" x="97.605" y="173.54" style="stroke: #000000; stroke-width: 1.5"/>
      </g>
     </g>
     <g id="text_1">
      <!-- 1900 -->
      <g transform="translate(87.605 187.98375) scale(0.1 -0.1)">
       <defs>
        <path id="TimesNewRomanPSMT-31" d="M 750 3822 
L 1781 4325 
L 1884 4325 
L 1884 747 
Q 1884 391 1914 303 
Q 1944 216 2037 169 
Q 2131 122 2419 116 
L 2419 0 
L 825 0 
L 825 116 
Q 1125 122 1212 167 
Q 1300 213 1334 289 
Q 1369 366 1369 747 
L 1369 3034 
Q 1369 3497 1338 3628 
Q 1316 3728 1258 3775 
Q 1200 3822 1119 3822 
Q 1003 3822 797 3725 
L 750 3822 
z
" transform="scale(0.015625)"/>
        <path id="TimesNewRomanPSMT-39" d="M 338 -88 
L 338 28 
Q 744 34 1094 217 
Q 1444 400 1770 856 
Q 2097 1313 2225 1859 
Q 1734 1544 1338 1544 
Q 891 1544 572 1889 
Q 253 2234 253 2806 
Q 253 3363 572 3797 
Q 956 4325 1575 4325 
Q 2097 4325 2469 3894 
Q 2925 3359 2925 2575 
Q 2925 1869 2578 1258 
Q 2231 647 1613 244 
Q 1109 -88 516 -88 
L 338 -88 
z
M 2275 2091 
Q 2331 2497 2331 2741 
Q 2331 3044 2228 3395 
Q 2125 3747 1936 3934 
Q 1747 4122 1506 4122 
Q 1228 4122 1018 3872 
Q 809 3622 809 3128 
Q 809 2469 1088 2097 
Q 1291 1828 1588 1828 
Q 1731 1828 1928 1897 
Q 2125 1966 2275 2091 
z
" transform="scale(0.015625)"/>
        <path id="TimesNewRomanPSMT-30" d="M 231 2094 
Q 231 2819 450 3342 
Q 669 3866 1031 4122 
Q 1313 4325 1613 4325 
Q 2100 4325 2488 3828 
Q 2972 3213 2972 2159 
Q 2972 1422 2759 906 
Q 2547 391 2217 158 
Q 1888 -75 1581 -75 
Q 975 -75 572 641 
Q 231 1244 231 2094 
z
M 844 2016 
Q 844 1141 1059 588 
Q 1238 122 1591 122 
Q 1759 122 1940 273 
Q 2122 425 2216 781 
Q 2359 1319 2359 2297 
Q 2359 3022 2209 3506 
Q 2097 3866 1919 4016 
Q 1791 4119 1609 4119 
Q 1397 4119 1231 3928 
Q 1006 3669 925 3112 
Q 844 2556 844 2016 
z
" transform="scale(0.015625)"/>
       </defs>
       <use xlink:href="#TimesNewRomanPSMT-31"/>
       <use xlink:href="#TimesNewRomanPSMT-39" x="50"/>
       <use xlink:href="#TimesNewRomanPSMT-30" x="100"/>
       <use xlink:href="#TimesNewRomanPSMT-30" x="150"/>
      </g>
     </g>
    </g>
    <g id="xtick_2">
     <g id="line2d_3">
      <path d="M 149.8725 173.54 
L 149.8725 41.4432 
" clip-path="url(#p5ad1003496)" style="fill: none; stroke: #b0b0b0; stroke-width: 0.8; stroke-linecap: square"/>
     </g>
     <g id="line2d_4">
      <g>
       <use xlink:href="#m2f7c8fe925" x="149.8725" y="173.54" style="stroke: #000000; stroke-width: 1.5"/>
      </g>
     </g>
     <g id="text_2">
      <!-- 1950 -->
      <g transform="translate(139.8725 187.98375) scale(0.1 -0.1)">
       <defs>
        <path id="TimesNewRomanPSMT-35" d="M 2778 4238 
L 2534 3706 
L 1259 3706 
L 981 3138 
Q 1809 3016 2294 2522 
Q 2709 2097 2709 1522 
Q 2709 1188 2573 903 
Q 2438 619 2231 419 
Q 2025 219 1772 97 
Q 1413 -75 1034 -75 
Q 653 -75 479 54 
Q 306 184 306 341 
Q 306 428 378 495 
Q 450 563 559 563 
Q 641 563 702 538 
Q 763 513 909 409 
Q 1144 247 1384 247 
Q 1750 247 2026 523 
Q 2303 800 2303 1197 
Q 2303 1581 2056 1914 
Q 1809 2247 1375 2428 
Q 1034 2569 447 2591 
L 1259 4238 
L 2778 4238 
z
" transform="scale(0.015625)"/>
       </defs>
       <use xlink:href="#TimesNewRomanPSMT-31"/>
       <use xlink:href="#TimesNewRomanPSMT-39" x="50"/>
       <use xlink:href="#TimesNewRomanPSMT-35" x="100"/>
       <use xlink:href="#TimesNewRomanPSMT-30" x="150"/>
      </g>
     </g>
    </g>
    <g id="xtick_3">
     <g id="line2d_5">
      <path d="M 202.14 173.54 
L 202.14 41.4432 
" clip-path="url(#p5ad1003496)" style="fill: none; stroke: #b0b0b0; stroke-width: 0.8; stroke-linecap: square"/>
     </g>
     <g id="line2d_6">
      <g>
       <use xlink:href="#m2f7c8fe925" x="202.14" y="173.54" style="stroke: #000000; stroke-width: 1.5"/>
      </g>
     </g>
     <g id="text_3">
      <!-- 2000 -->
      <g transform="translate(192.14 187.98375) scale(0.1 -0.1)">
       <defs>
        <path id="TimesNewRomanPSMT-32" d="M 2934 816 
L 2638 0 
L 138 0 
L 138 116 
Q 1241 1122 1691 1759 
Q 2141 2397 2141 2925 
Q 2141 3328 1894 3587 
Q 1647 3847 1303 3847 
Q 991 3847 742 3664 
Q 494 3481 375 3128 
L 259 3128 
Q 338 3706 661 4015 
Q 984 4325 1469 4325 
Q 1984 4325 2329 3994 
Q 2675 3663 2675 3213 
Q 2675 2891 2525 2569 
Q 2294 2063 1775 1497 
Q 997 647 803 472 
L 1909 472 
Q 2247 472 2383 497 
Q 2519 522 2628 598 
Q 2738 675 2819 816 
L 2934 816 
z
" transform="scale(0.015625)"/>
       </defs>
       <use xlink:href="#TimesNewRomanPSMT-32"/>
       <use xlink:href="#TimesNewRomanPSMT-30" x="50"/>
       <use xlink:href="#TimesNewRomanPSMT-30" x="100"/>
       <use xlink:href="#TimesNewRomanPSMT-30" x="150"/>
      </g>
     </g>
    </g>
    <g id="xtick_4">
     <g id="line2d_7">
      <path d="M 254.4075 173.54 
L 254.4075 41.4432 
" clip-path="url(#p5ad1003496)" style="fill: none; stroke: #b0b0b0; stroke-width: 0.8; stroke-linecap: square"/>
     </g>
     <g id="line2d_8">
      <g>
       <use xlink:href="#m2f7c8fe925" x="254.4075" y="173.54" style="stroke: #000000; stroke-width: 1.5"/>
      </g>
     </g>
     <g id="text_4">
      <!-- 2050 -->
      <g transform="translate(244.4075 187.98375) scale(0.1 -0.1)">
       <use xlink:href="#TimesNewRomanPSMT-32"/>
       <use xlink:href="#TimesNewRomanPSMT-30" x="50"/>
       <use xlink:href="#TimesNewRomanPSMT-35" x="100"/>
       <use xlink:href="#TimesNewRomanPSMT-30" x="150"/>
      </g>
     </g>
    </g>
    <g id="xtick_5">
     <g id="line2d_9">
      <path d="M 306.675 173.54 
L 306.675 41.4432 
" clip-path="url(#p5ad1003496)" style="fill: none; stroke: #b0b0b0; stroke-width: 0.8; stroke-linecap: square"/>
     </g>
     <g id="line2d_10">
      <g>
       <use xlink:href="#m2f7c8fe925" x="306.675" y="173.54" style="stroke: #000000; stroke-width: 1.5"/>
      </g>
     </g>
     <g id="text_5">
      <!-- 2100 -->
      <g transform="translate(296.675 187.98375) scale(0.1 -0.1)">
       <use xlink:href="#TimesNewRomanPSMT-32"/>
       <use xlink:href="#TimesNewRomanPSMT-31" x="50"/>
       <use xlink:href="#TimesNewRomanPSMT-30" x="100"/>
       <use xlink:href="#TimesNewRomanPSMT-30" x="150"/>
      </g>
     </g>
    </g>
    <g id="xtick_6">
     <g id="line2d_11">
      <path d="M 358.9425 173.54 
L 358.9425 41.4432 
" clip-path="url(#p5ad1003496)" style="fill: none; stroke: #b0b0b0; stroke-width: 0.8; stroke-linecap: square"/>
     </g>
     <g id="line2d_12">
      <g>
       <use xlink:href="#m2f7c8fe925" x="358.9425" y="173.54" style="stroke: #000000; stroke-width: 1.5"/>
      </g>
     </g>
     <g id="text_6">
      <!-- 2150 -->
      <g transform="translate(348.9425 187.98375) scale(0.1 -0.1)">
       <use xlink:href="#TimesNewRomanPSMT-32"/>
       <use xlink:href="#TimesNewRomanPSMT-31" x="50"/>
       <use xlink:href="#TimesNewRomanPSMT-35" x="100"/>
       <use xlink:href="#TimesNewRomanPSMT-30" x="150"/>
      </g>
     </g>
    </g>
    <g id="xtick_7">
     <g id="line2d_13">
      <path d="M 411.21 173.54 
L 411.21 41.4432 
" clip-path="url(#p5ad1003496)" style="fill: none; stroke: #b0b0b0; stroke-width: 0.8; stroke-linecap: square"/>
     </g>
     <g id="line2d_14">
      <g>
       <use xlink:href="#m2f7c8fe925" x="411.21" y="173.54" style="stroke: #000000; stroke-width: 1.5"/>
      </g>
     </g>
     <g id="text_7">
      <!-- 2200 -->
      <g transform="translate(401.21 187.98375) scale(0.1 -0.1)">
       <use xlink:href="#TimesNewRomanPSMT-32"/>
       <use xlink:href="#TimesNewRomanPSMT-32" x="50"/>
       <use xlink:href="#TimesNewRomanPSMT-30" x="100"/>
       <use xlink:href="#TimesNewRomanPSMT-30" x="150"/>
      </g>
     </g>
    </g>
    <g id="text_8">
     <!-- time [years] -->
     <g transform="translate(225.587813 202.455312) scale(0.12 -0.12)">
      <defs>
       <path id="TimesNewRomanPSMT-74" d="M 1031 3803 
L 1031 2863 
L 1700 2863 
L 1700 2644 
L 1031 2644 
L 1031 788 
Q 1031 509 1111 412 
Q 1191 316 1316 316 
Q 1419 316 1516 380 
Q 1613 444 1666 569 
L 1788 569 
Q 1678 263 1478 108 
Q 1278 -47 1066 -47 
Q 922 -47 784 33 
Q 647 113 581 261 
Q 516 409 516 719 
L 516 2644 
L 63 2644 
L 63 2747 
Q 234 2816 414 2980 
Q 594 3144 734 3369 
Q 806 3488 934 3803 
L 1031 3803 
z
" transform="scale(0.015625)"/>
       <path id="TimesNewRomanPSMT-69" d="M 928 4444 
Q 1059 4444 1151 4351 
Q 1244 4259 1244 4128 
Q 1244 3997 1151 3903 
Q 1059 3809 928 3809 
Q 797 3809 703 3903 
Q 609 3997 609 4128 
Q 609 4259 701 4351 
Q 794 4444 928 4444 
z
M 1188 2947 
L 1188 647 
Q 1188 378 1227 289 
Q 1266 200 1342 156 
Q 1419 113 1622 113 
L 1622 0 
L 231 0 
L 231 113 
Q 441 113 512 153 
Q 584 194 626 287 
Q 669 381 669 647 
L 669 1750 
Q 669 2216 641 2353 
Q 619 2453 572 2492 
Q 525 2531 444 2531 
Q 356 2531 231 2484 
L 188 2597 
L 1050 2947 
L 1188 2947 
z
" transform="scale(0.015625)"/>
       <path id="TimesNewRomanPSMT-6d" d="M 1050 2338 
Q 1363 2650 1419 2697 
Q 1559 2816 1721 2881 
Q 1884 2947 2044 2947 
Q 2313 2947 2506 2790 
Q 2700 2634 2766 2338 
Q 3088 2713 3309 2830 
Q 3531 2947 3766 2947 
Q 3994 2947 4170 2830 
Q 4347 2713 4450 2447 
Q 4519 2266 4519 1878 
L 4519 647 
Q 4519 378 4559 278 
Q 4591 209 4675 161 
Q 4759 113 4950 113 
L 4950 0 
L 3538 0 
L 3538 113 
L 3597 113 
Q 3781 113 3884 184 
Q 3956 234 3988 344 
Q 4000 397 4000 647 
L 4000 1878 
Q 4000 2228 3916 2372 
Q 3794 2572 3525 2572 
Q 3359 2572 3192 2489 
Q 3025 2406 2788 2181 
L 2781 2147 
L 2788 2013 
L 2788 647 
Q 2788 353 2820 281 
Q 2853 209 2943 161 
Q 3034 113 3253 113 
L 3253 0 
L 1806 0 
L 1806 113 
Q 2044 113 2133 169 
Q 2222 225 2256 338 
Q 2272 391 2272 647 
L 2272 1878 
Q 2272 2228 2169 2381 
Q 2031 2581 1784 2581 
Q 1616 2581 1450 2491 
Q 1191 2353 1050 2181 
L 1050 647 
Q 1050 366 1089 281 
Q 1128 197 1204 155 
Q 1281 113 1516 113 
L 1516 0 
L 100 0 
L 100 113 
Q 297 113 375 155 
Q 453 197 493 289 
Q 534 381 534 647 
L 534 1741 
Q 534 2213 506 2350 
Q 484 2453 437 2492 
Q 391 2531 309 2531 
Q 222 2531 100 2484 
L 53 2597 
L 916 2947 
L 1050 2947 
L 1050 2338 
z
" transform="scale(0.015625)"/>
       <path id="TimesNewRomanPSMT-65" d="M 681 1784 
Q 678 1147 991 784 
Q 1303 422 1725 422 
Q 2006 422 2214 576 
Q 2422 731 2563 1106 
L 2659 1044 
Q 2594 616 2278 264 
Q 1963 -88 1488 -88 
Q 972 -88 605 314 
Q 238 716 238 1394 
Q 238 2128 614 2539 
Q 991 2950 1559 2950 
Q 2041 2950 2350 2633 
Q 2659 2316 2659 1784 
L 681 1784 
z
M 681 1966 
L 2006 1966 
Q 1991 2241 1941 2353 
Q 1863 2528 1708 2628 
Q 1553 2728 1384 2728 
Q 1125 2728 920 2526 
Q 716 2325 681 1966 
z
" transform="scale(0.015625)"/>
       <path id="TimesNewRomanPSMT-20" transform="scale(0.015625)"/>
       <path id="TimesNewRomanPSMT-5b" d="M 1900 -1269 
L 525 -1269 
L 525 4334 
L 1900 4334 
L 1900 4088 
L 994 4088 
L 994 -1025 
L 1900 -1025 
L 1900 -1269 
z
" transform="scale(0.015625)"/>
       <path id="TimesNewRomanPSMT-79" d="M 38 2863 
L 1372 2863 
L 1372 2747 
L 1306 2747 
Q 1166 2747 1095 2686 
Q 1025 2625 1025 2534 
Q 1025 2413 1128 2197 
L 1825 753 
L 2466 2334 
Q 2519 2463 2519 2588 
Q 2519 2644 2497 2672 
Q 2472 2706 2419 2726 
Q 2366 2747 2231 2747 
L 2231 2863 
L 3163 2863 
L 3163 2747 
Q 3047 2734 2984 2696 
Q 2922 2659 2847 2556 
Q 2819 2513 2741 2316 
L 1575 -541 
Q 1406 -956 1132 -1168 
Q 859 -1381 606 -1381 
Q 422 -1381 303 -1275 
Q 184 -1169 184 -1031 
Q 184 -900 270 -820 
Q 356 -741 506 -741 
Q 609 -741 788 -809 
Q 913 -856 944 -856 
Q 1038 -856 1148 -759 
Q 1259 -663 1372 -384 
L 1575 113 
L 547 2272 
Q 500 2369 397 2513 
Q 319 2622 269 2659 
Q 197 2709 38 2747 
L 38 2863 
z
" transform="scale(0.015625)"/>
       <path id="TimesNewRomanPSMT-61" d="M 1822 413 
Q 1381 72 1269 19 
Q 1100 -59 909 -59 
Q 613 -59 420 144 
Q 228 347 228 678 
Q 228 888 322 1041 
Q 450 1253 767 1440 
Q 1084 1628 1822 1897 
L 1822 2009 
Q 1822 2438 1686 2597 
Q 1550 2756 1291 2756 
Q 1094 2756 978 2650 
Q 859 2544 859 2406 
L 866 2225 
Q 866 2081 792 2003 
Q 719 1925 600 1925 
Q 484 1925 411 2006 
Q 338 2088 338 2228 
Q 338 2497 613 2722 
Q 888 2947 1384 2947 
Q 1766 2947 2009 2819 
Q 2194 2722 2281 2516 
Q 2338 2381 2338 1966 
L 2338 994 
Q 2338 584 2353 492 
Q 2369 400 2405 369 
Q 2441 338 2488 338 
Q 2538 338 2575 359 
Q 2641 400 2828 588 
L 2828 413 
Q 2478 -56 2159 -56 
Q 2006 -56 1915 50 
Q 1825 156 1822 413 
z
M 1822 616 
L 1822 1706 
Q 1350 1519 1213 1441 
Q 966 1303 859 1153 
Q 753 1003 753 825 
Q 753 600 887 451 
Q 1022 303 1197 303 
Q 1434 303 1822 616 
z
" transform="scale(0.015625)"/>
       <path id="TimesNewRomanPSMT-72" d="M 1038 2947 
L 1038 2303 
Q 1397 2947 1775 2947 
Q 1947 2947 2059 2842 
Q 2172 2738 2172 2600 
Q 2172 2478 2090 2393 
Q 2009 2309 1897 2309 
Q 1788 2309 1652 2417 
Q 1516 2525 1450 2525 
Q 1394 2525 1328 2463 
Q 1188 2334 1038 2041 
L 1038 669 
Q 1038 431 1097 309 
Q 1138 225 1241 169 
Q 1344 113 1538 113 
L 1538 0 
L 72 0 
L 72 113 
Q 291 113 397 181 
Q 475 231 506 341 
Q 522 394 522 644 
L 522 1753 
Q 522 2253 501 2348 
Q 481 2444 426 2487 
Q 372 2531 291 2531 
Q 194 2531 72 2484 
L 41 2597 
L 906 2947 
L 1038 2947 
z
" transform="scale(0.015625)"/>
       <path id="TimesNewRomanPSMT-73" d="M 2050 2947 
L 2050 1972 
L 1947 1972 
Q 1828 2431 1642 2597 
Q 1456 2763 1169 2763 
Q 950 2763 815 2647 
Q 681 2531 681 2391 
Q 681 2216 781 2091 
Q 878 1963 1175 1819 
L 1631 1597 
Q 2266 1288 2266 781 
Q 2266 391 1970 151 
Q 1675 -88 1309 -88 
Q 1047 -88 709 6 
Q 606 38 541 38 
Q 469 38 428 -44 
L 325 -44 
L 325 978 
L 428 978 
Q 516 541 762 319 
Q 1009 97 1316 97 
Q 1531 97 1667 223 
Q 1803 350 1803 528 
Q 1803 744 1651 891 
Q 1500 1038 1047 1263 
Q 594 1488 453 1669 
Q 313 1847 313 2119 
Q 313 2472 555 2709 
Q 797 2947 1181 2947 
Q 1350 2947 1591 2875 
Q 1750 2828 1803 2828 
Q 1853 2828 1881 2850 
Q 1909 2872 1947 2947 
L 2050 2947 
z
" transform="scale(0.015625)"/>
       <path id="TimesNewRomanPSMT-5d" d="M 234 4334 
L 1609 4334 
L 1609 -1272 
L 234 -1272 
L 234 -1025 
L 1141 -1025 
L 1141 4088 
L 234 4088 
L 234 4334 
z
" transform="scale(0.015625)"/>
      </defs>
      <use xlink:href="#TimesNewRomanPSMT-74"/>
      <use xlink:href="#TimesNewRomanPSMT-69" x="27.783203"/>
      <use xlink:href="#TimesNewRomanPSMT-6d" x="55.566406"/>
      <use xlink:href="#TimesNewRomanPSMT-65" x="133.349609"/>
      <use xlink:href="#TimesNewRomanPSMT-20" x="177.734375"/>
      <use xlink:href="#TimesNewRomanPSMT-5b" x="202.734375"/>
      <use xlink:href="#TimesNewRomanPSMT-79" x="236.035156"/>
      <use xlink:href="#TimesNewRomanPSMT-65" x="286.035156"/>
      <use xlink:href="#TimesNewRomanPSMT-61" x="330.419922"/>
      <use xlink:href="#TimesNewRomanPSMT-72" x="374.804688"/>
      <use xlink:href="#TimesNewRomanPSMT-73" x="408.105469"/>
      <use xlink:href="#TimesNewRomanPSMT-5d" x="447.021484"/>
     </g>
    </g>
   </g>
   <g id="matplotlib.axis_2">
    <g id="ytick_1">
     <g id="line2d_15">
      <path d="M 97.605 173.54 
L 411.21 173.54 
" clip-path="url(#p5ad1003496)" style="fill: none; stroke: #b0b0b0; stroke-width: 0.8; stroke-linecap: square"/>
     </g>
     <g id="line2d_16">
      <defs>
       <path id="mc907de59d5" d="M 0 0 
L -4 0 
" style="stroke: #1f77b4; stroke-width: 1.5"/>
      </defs>
      <g>
       <use xlink:href="#mc907de59d5" x="97.605" y="173.54" style="fill: #1f77b4; stroke: #1f77b4; stroke-width: 1.5"/>
      </g>
     </g>
     <g id="text_9">
      <!-- 0 -->
      <g style="fill: #1f77b4" transform="translate(87.965938 175.068125) rotate(-90) scale(0.1 -0.1)">
       <use xlink:href="#TimesNewRomanPSMT-30"/>
      </g>
     </g>
    </g>
    <g id="ytick_2">
     <g id="line2d_17">
      <path d="M 97.605 132.405131 
L 411.21 132.405131 
" clip-path="url(#p5ad1003496)" style="fill: none; stroke: #b0b0b0; stroke-width: 0.8; stroke-linecap: square"/>
     </g>
     <g id="line2d_18">
      <g>
       <use xlink:href="#mc907de59d5" x="97.605" y="132.405131" style="fill: #1f77b4; stroke: #1f77b4; stroke-width: 1.5"/>
      </g>
     </g>
     <g id="text_10">
      <!-- 2 m -->
      <g style="fill: #1f77b4" transform="translate(87.965937 143.712944) rotate(-90) scale(0.1 -0.1)">
       <defs>
        <path id="TimesNewRomanPSMT-2009" d="M 0 0 
L 0 0 
z
" transform="scale(0.015625)"/>
       </defs>
       <use xlink:href="#TimesNewRomanPSMT-32"/>
       <use xlink:href="#TimesNewRomanPSMT-2009" x="50"/>
       <use xlink:href="#TimesNewRomanPSMT-6d" x="70.019531"/>
      </g>
     </g>
    </g>
    <g id="ytick_3">
     <g id="line2d_19">
      <path d="M 97.605 91.270262 
L 411.21 91.270262 
" clip-path="url(#p5ad1003496)" style="fill: none; stroke: #b0b0b0; stroke-width: 0.8; stroke-linecap: square"/>
     </g>
     <g id="line2d_20">
      <g>
       <use xlink:href="#mc907de59d5" x="97.605" y="91.270262" style="fill: #1f77b4; stroke: #1f77b4; stroke-width: 1.5"/>
      </g>
     </g>
     <g id="text_11">
      <!-- 3 m -->
      <g style="fill: #1f77b4" transform="translate(87.965937 102.578075) rotate(-90) scale(0.1 -0.1)">
       <defs>
        <path id="TimesNewRomanPSMT-33" d="M 325 3431 
Q 506 3859 782 4092 
Q 1059 4325 1472 4325 
Q 1981 4325 2253 3994 
Q 2459 3747 2459 3466 
Q 2459 3003 1878 2509 
Q 2269 2356 2469 2072 
Q 2669 1788 2669 1403 
Q 2669 853 2319 450 
Q 1863 -75 997 -75 
Q 569 -75 414 31 
Q 259 138 259 259 
Q 259 350 332 419 
Q 406 488 509 488 
Q 588 488 669 463 
Q 722 447 909 348 
Q 1097 250 1169 231 
Q 1284 197 1416 197 
Q 1734 197 1970 444 
Q 2206 691 2206 1028 
Q 2206 1275 2097 1509 
Q 2016 1684 1919 1775 
Q 1784 1900 1550 2001 
Q 1316 2103 1072 2103 
L 972 2103 
L 972 2197 
Q 1219 2228 1467 2375 
Q 1716 2522 1828 2728 
Q 1941 2934 1941 3181 
Q 1941 3503 1739 3701 
Q 1538 3900 1238 3900 
Q 753 3900 428 3381 
L 325 3431 
z
" transform="scale(0.015625)"/>
       </defs>
       <use xlink:href="#TimesNewRomanPSMT-33"/>
       <use xlink:href="#TimesNewRomanPSMT-2009" x="50"/>
       <use xlink:href="#TimesNewRomanPSMT-6d" x="70.019531"/>
      </g>
     </g>
    </g>
    <g id="ytick_4">
     <g id="line2d_21">
      <path d="M 97.605 50.135394 
L 411.21 50.135394 
" clip-path="url(#p5ad1003496)" style="fill: none; stroke: #b0b0b0; stroke-width: 0.8; stroke-linecap: square"/>
     </g>
     <g id="line2d_22">
      <g>
       <use xlink:href="#mc907de59d5" x="97.605" y="50.135394" style="fill: #1f77b4; stroke: #1f77b4; stroke-width: 1.5"/>
      </g>
     </g>
     <g id="text_12">
      <!-- 4 m -->
      <g style="fill: #1f77b4" transform="translate(87.965937 61.443206) rotate(-90) scale(0.1 -0.1)">
       <defs>
        <path id="TimesNewRomanPSMT-34" d="M 2978 1563 
L 2978 1119 
L 2409 1119 
L 2409 0 
L 1894 0 
L 1894 1119 
L 100 1119 
L 100 1519 
L 2066 4325 
L 2409 4325 
L 2409 1563 
L 2978 1563 
z
M 1894 1563 
L 1894 3666 
L 406 1563 
L 1894 1563 
z
" transform="scale(0.015625)"/>
       </defs>
       <use xlink:href="#TimesNewRomanPSMT-34"/>
       <use xlink:href="#TimesNewRomanPSMT-2009" x="50"/>
       <use xlink:href="#TimesNewRomanPSMT-6d" x="70.019531"/>
      </g>
     </g>
    </g>
    <g id="text_13">
     <!-- NN_0 -->
     <g style="fill: #1f77b4" transform="translate(98.619 37.532857) scale(0.12 -0.12)">
      <defs>
       <path id="TimesNewRomanPSMT-4e" d="M -84 4238 
L 1066 4238 
L 3656 1059 
L 3656 3503 
Q 3656 3894 3569 3991 
Q 3453 4122 3203 4122 
L 3056 4122 
L 3056 4238 
L 4531 4238 
L 4531 4122 
L 4381 4122 
Q 4113 4122 4000 3959 
Q 3931 3859 3931 3503 
L 3931 -69 
L 3819 -69 
L 1025 3344 
L 1025 734 
Q 1025 344 1109 247 
Q 1228 116 1475 116 
L 1625 116 
L 1625 0 
L 150 0 
L 150 116 
L 297 116 
Q 569 116 681 278 
Q 750 378 750 734 
L 750 3681 
Q 566 3897 470 3965 
Q 375 4034 191 4094 
Q 100 4122 -84 4122 
L -84 4238 
z
" transform="scale(0.015625)"/>
       <path id="TimesNewRomanPSMT-5f" d="M 3256 -1381 
L -53 -1381 
L -53 -1119 
L 3256 -1119 
L 3256 -1381 
z
" transform="scale(0.015625)"/>
      </defs>
      <use xlink:href="#TimesNewRomanPSMT-4e"/>
      <use xlink:href="#TimesNewRomanPSMT-4e" x="72.216797"/>
      <use xlink:href="#TimesNewRomanPSMT-5f" x="144.433594"/>
      <use xlink:href="#TimesNewRomanPSMT-30" x="194.433594"/>
     </g>
    </g>
   </g>
   <g id="line2d_23">
    <path d="M 97.605 173.54 
L 98.127675 169.705548 
L 98.65035 169.669636 
L 99.173025 170.767665 
L 99.6957 171.33719 
L 100.74105 167.937142 
L 101.7864 166.854252 
L 102.83175 163.919904 
L 103.8771 160.212493 
L 104.399775 158.843008 
L 104.92245 157.961757 
L 105.445125 157.636469 
L 105.9678 157.49503 
L 106.490475 157.559565 
L 107.01315 157.857166 
L 107.535825 158.406134 
L 108.581175 160.085555 
L 109.626525 162.2497 
L 110.1492 163.474996 
L 110.671875 164.095538 
L 111.19455 164.069847 
L 111.717225 163.875144 
L 113.28525 162.862163 
L 113.807925 162.708091 
L 114.3306 162.679604 
L 115.37595 162.921898 
L 116.4213 162.366719 
L 116.943975 162.236933 
L 117.46665 162.23474 
L 117.989325 162.36057 
L 118.512 162.61396 
L 119.034675 162.994327 
L 119.55735 163.175198 
L 120.6027 163.100817 
L 122.6934 163.3234 
L 123.216075 163.554484 
L 124.261425 163.589946 
L 124.7841 163.677295 
L 126.352125 163.619878 
L 127.397475 163.105855 
L 128.9655 162.679109 
L 130.533525 162.347997 
L 132.10155 161.204798 
L 132.624225 160.982616 
L 133.1469 160.895365 
L 134.19225 161.035849 
L 135.2376 161.654337 
L 136.28295 162.609153 
L 137.3283 163.725206 
L 138.37365 164.884395 
L 138.896325 164.204896 
L 139.419 163.165187 
L 139.941675 159.606398 
L 140.46435 161.608553 
L 140.987025 161.898266 
L 141.5097 161.274957 
L 142.032375 160.471333 
L 142.55505 159.956174 
L 143.077725 159.717772 
L 143.6004 159.705195 
L 144.123075 159.877038 
L 144.64575 159.717197 
L 145.6911 158.80683 
L 146.213775 158.474369 
L 147.259125 158.201709 
L 148.304475 157.11768 
L 148.82715 156.703094 
L 149.349825 156.463921 
L 149.8725 156.441056 
L 150.395175 156.635666 
L 151.440525 156.491506 
L 151.9632 156.609301 
L 152.485875 156.884253 
L 153.00855 157.416005 
L 154.0539 159.144529 
L 154.576575 160.239345 
L 155.09925 160.157585 
L 156.667275 159.482183 
L 157.18995 159.101374 
L 161.894025 154.578832 
L 162.4167 154.292752 
L 162.939375 154.174341 
L 163.46205 154.245331 
L 163.984725 154.430814 
L 165.030075 155.330637 
L 165.55275 155.467593 
L 166.075425 155.417426 
L 166.5981 155.173072 
L 167.120775 155.272421 
L 167.64345 155.693513 
L 168.166125 156.380785 
L 168.6888 156.687562 
L 169.211475 156.743962 
L 170.256825 156.081632 
L 170.7795 155.875418 
L 171.82485 155.748347 
L 172.347525 154.931418 
L 173.392875 154.233158 
L 173.91555 154.063185 
L 174.438225 154.119496 
L 174.9609 154.351948 
L 175.483575 154.448905 
L 177.0516 154.371883 
L 177.574275 154.371202 
L 178.619625 153.753896 
L 179.664975 152.847508 
L 182.801025 149.715702 
L 183.846375 147.862149 
L 184.36905 147.198356 
L 184.891725 146.772509 
L 185.4144 146.620018 
L 185.937075 146.869698 
L 186.982425 148.353043 
L 188.027775 150.060448 
L 188.55045 150.597848 
L 189.073125 150.394926 
L 189.5958 150.341256 
L 190.118475 150.43702 
L 190.64115 150.680219 
L 191.163825 151.067822 
L 191.6865 151.309675 
L 192.209175 151.228695 
L 192.73185 150.810486 
L 193.254525 150.1022 
L 193.7772 149.175371 
L 194.82255 149.002165 
L 195.345225 148.645429 
L 195.8679 148.751519 
L 196.390575 149.249733 
L 196.91325 149.29295 
L 197.435925 149.07103 
L 198.481275 148.21296 
L 201.09465 145.597886 
L 202.662675 144.687142 
L 203.708025 144.258719 
L 204.753375 144.085061 
L 205.798725 144.259393 
L 206.844075 144.858672 
L 207.36675 145.389637 
L 207.889425 146.079061 
L 208.4121 145.826563 
L 208.934775 145.156023 
L 209.45745 144.176873 
L 209.980125 142.182304 
L 210.5028 141.183389 
L 211.025475 140.689005 
L 211.54815 140.419554 
L 213.63885 140.076239 
L 214.6842 139.574411 
L 215.206875 139.067997 
L 215.72955 137.997763 
L 216.252225 137.195254 
L 216.7749 137.520647 
L 218.342925 140.195998 
L 218.8656 139.588028 
L 219.388275 139.634418 
L 219.91095 140.328197 
L 220.433625 141.257935 
L 220.9563 141.596219 
L 221.478975 141.320313 
L 222.00165 139.574817 
L 222.524325 138.546388 
L 223.047 140.568547 
L 223.569675 139.4356 
L 224.09235 135.947828 
L 224.615025 135.25038 
L 225.660375 136.364967 
L 226.18305 135.60616 
L 226.705725 132.33476 
L 227.2284 131.735589 
L 227.751075 131.439195 
L 228.27375 130.261051 
L 228.796425 129.522496 
L 229.3191 129.516313 
L 229.841775 129.310623 
L 230.36445 129.871039 
L 230.887125 132.790981 
L 231.4098 133.670701 
L 231.932475 132.833663 
L 232.45515 132.761127 
L 232.977825 135.631 
L 233.5005 140.440396 
L 234.023175 137.701459 
L 234.54585 135.779599 
L 235.5912 134.484488 
L 236.113875 134.854725 
L 236.63655 134.588782 
L 237.159225 132.956056 
L 238.204575 125.847378 
L 238.72725 122.673263 
L 239.7726 120.469036 
L 240.295275 120.023704 
L 240.81795 119.285457 
L 242.385975 115.48411 
L 243.431325 114.234224 
L 243.954 113.512642 
L 244.99935 112.702712 
L 245.522025 111.940106 
L 246.567375 109.388484 
L 247.09005 108.703139 
L 247.612725 108.973778 
L 248.658075 110.708352 
L 249.18075 111.052863 
L 249.703425 110.412811 
L 250.2261 109.582729 
L 250.748775 109.555293 
L 251.27145 109.794243 
L 251.794125 109.537222 
L 252.839475 108.358772 
L 253.36215 108.145545 
L 253.884825 108.840369 
L 254.930175 111.068891 
L 255.45285 111.903905 
L 255.975525 112.472971 
L 256.4982 112.777086 
L 257.54355 113.930019 
L 258.066225 114.628136 
L 258.5889 115.522225 
L 260.156925 119.01347 
L 261.202275 120.509441 
L 262.247625 121.824022 
L 263.292975 121.687784 
L 263.81565 122.024541 
L 264.338325 122.673488 
L 265.383675 124.633528 
L 267.99705 130.452565 
L 269.0424 131.756727 
L 273.746475 139.847531 
L 274.26915 140.075973 
L 274.791825 140.502592 
L 275.3145 141.09933 
L 275.837175 141.48113 
L 276.882525 141.559342 
L 277.927875 141.297879 
L 278.45055 141.032223 
L 278.973225 141.060177 
L 280.018575 141.320939 
L 281.063925 141.372389 
L 282.109275 141.092861 
L 283.154625 140.369154 
L 283.6773 139.97502 
L 284.199975 139.725121 
L 284.72265 139.63922 
L 285.245325 139.757853 
L 285.768 140.055099 
L 287.8587 141.788771 
L 288.381375 142.49207 
L 289.426725 144.427265 
L 290.99475 148.008203 
L 292.0401 149.164941 
L 292.562775 149.432392 
L 293.08545 149.336654 
L 293.608125 148.993035 
L 294.1308 148.371002 
L 294.653475 147.362287 
L 295.698825 144.375643 
L 297.26685 139.171223 
L 298.834875 135.057736 
L 299.880225 132.529615 
L 301.970925 125.273308 
L 303.016275 122.564052 
L 304.061625 120.768668 
L 304.5843 120.161585 
L 305.106975 119.725186 
L 305.62965 119.444014 
L 306.152325 119.303344 
L 307.72035 119.253163 
L 308.243025 119.379516 
L 308.7657 119.653566 
L 309.288375 120.108278 
L 310.333725 121.553734 
L 311.90175 124.647619 
L 312.9471 126.836909 
L 315.560475 131.452956 
L 316.605825 132.360636 
L 319.741875 134.463751 
L 321.832575 135.688831 
L 325.4913 137.456668 
L 328.104675 138.481364 
L 330.195375 139.104043 
L 332.286075 139.513058 
L 334.376775 139.678497 
L 336.467475 139.573406 
L 338.558175 139.179601 
L 340.648875 138.759243 
L 344.3076 138.28954 
L 345.35295 138.423788 
L 348.489 137.340668 
L 358.9425 133.595698 
L 361.0332 132.459126 
L 363.646575 130.745196 
L 368.873325 127.05495 
L 372.009375 125.208857 
L 374.62275 123.9069 
L 377.236125 122.809 
L 379.8495 121.917192 
L 382.462875 121.233083 
L 385.07625 120.760066 
L 388.2123 120.455241 
L 391.34835 120.37846 
L 398.143125 120.402511 
L 399.71115 120.188043 
L 403.89255 119.365059 
L 407.551275 118.311432 
L 411.21 117.05946 
L 411.21 117.05946 
" clip-path="url(#p5ad1003496)" style="fill: none; stroke: #1f77b4; stroke-linecap: square"/>
   </g>
   <g id="patch_3">
    <path d="M 97.605 173.54 
L 97.605 41.4432 
" style="fill: none; stroke: #000000; stroke-width: 0.8; stroke-linejoin: miter; stroke-linecap: square"/>
   </g>
   <g id="patch_4">
    <path d="M 411.21 173.54 
L 411.21 41.4432 
" style="fill: none; stroke: #000000; stroke-width: 0.8; stroke-linejoin: miter; stroke-linecap: square"/>
   </g>
   <g id="patch_5">
    <path d="M 97.605 173.54 
L 411.21 173.54 
" style="fill: none; stroke: #000000; stroke-width: 0.8; stroke-linejoin: miter; stroke-linecap: square"/>
   </g>
   <g id="patch_6">
    <path d="M 97.605 41.4432 
L 411.21 41.4432 
" style="fill: none; stroke: #000000; stroke-width: 0.8; stroke-linejoin: miter; stroke-linecap: square"/>
   </g>
  </g>
  <g id="axes_2">
   <g id="matplotlib.axis_3">
    <g id="ytick_5">
     <g id="line2d_24">
      <defs>
       <path id="mc4f6270f15" d="M 0 0 
L -4 0 
" style="stroke: #ff7f0e; stroke-width: 1.5"/>
      </defs>
      <g>
       <use xlink:href="#mc4f6270f15" x="66.2445" y="173.54" style="fill: #ff7f0e; stroke: #ff7f0e; stroke-width: 1.5"/>
      </g>
     </g>
     <g id="text_14">
      <!-- 0 -->
      <g style="fill: #ff7f0e" transform="translate(56.605437 175.068125) rotate(-90) scale(0.1 -0.1)">
       <use xlink:href="#TimesNewRomanPSMT-30"/>
      </g>
     </g>
    </g>
    <g id="ytick_6">
     <g id="line2d_25">
      <g>
       <use xlink:href="#mc4f6270f15" x="66.2445" y="133.767411" style="fill: #ff7f0e; stroke: #ff7f0e; stroke-width: 1.5"/>
      </g>
     </g>
     <g id="text_15">
      <!-- 150 m -->
      <g style="fill: #ff7f0e" transform="translate(56.605437 155.075223) rotate(-90) scale(0.1 -0.1)">
       <use xlink:href="#TimesNewRomanPSMT-31"/>
       <use xlink:href="#TimesNewRomanPSMT-35" x="50"/>
       <use xlink:href="#TimesNewRomanPSMT-30" x="100"/>
       <use xlink:href="#TimesNewRomanPSMT-2009" x="150"/>
       <use xlink:href="#TimesNewRomanPSMT-6d" x="170.019531"/>
      </g>
     </g>
    </g>
    <g id="ytick_7">
     <g id="line2d_26">
      <g>
       <use xlink:href="#mc4f6270f15" x="66.2445" y="93.994821" style="fill: #ff7f0e; stroke: #ff7f0e; stroke-width: 1.5"/>
      </g>
     </g>
     <g id="text_16">
      <!-- 300 m -->
      <g style="fill: #ff7f0e" transform="translate(56.605437 115.302634) rotate(-90) scale(0.1 -0.1)">
       <use xlink:href="#TimesNewRomanPSMT-33"/>
       <use xlink:href="#TimesNewRomanPSMT-30" x="50"/>
       <use xlink:href="#TimesNewRomanPSMT-30" x="100"/>
       <use xlink:href="#TimesNewRomanPSMT-2009" x="150"/>
       <use xlink:href="#TimesNewRomanPSMT-6d" x="170.019531"/>
      </g>
     </g>
    </g>
    <g id="ytick_8">
     <g id="line2d_27">
      <g>
       <use xlink:href="#mc4f6270f15" x="66.2445" y="54.222232" style="fill: #ff7f0e; stroke: #ff7f0e; stroke-width: 1.5"/>
      </g>
     </g>
     <g id="text_17">
      <!-- 450 m -->
      <g style="fill: #ff7f0e" transform="translate(56.605437 75.530044) rotate(-90) scale(0.1 -0.1)">
       <use xlink:href="#TimesNewRomanPSMT-34"/>
       <use xlink:href="#TimesNewRomanPSMT-35" x="50"/>
       <use xlink:href="#TimesNewRomanPSMT-30" x="100"/>
       <use xlink:href="#TimesNewRomanPSMT-2009" x="150"/>
       <use xlink:href="#TimesNewRomanPSMT-6d" x="170.019531"/>
      </g>
     </g>
    </g>
    <g id="text_18">
     <!-- NN_20 -->
     <g style="fill: #ff7f0e" transform="translate(56.418375 37.532857) scale(0.12 -0.12)">
      <use xlink:href="#TimesNewRomanPSMT-4e"/>
      <use xlink:href="#TimesNewRomanPSMT-4e" x="72.216797"/>
      <use xlink:href="#TimesNewRomanPSMT-5f" x="144.433594"/>
      <use xlink:href="#TimesNewRomanPSMT-32" x="194.433594"/>
      <use xlink:href="#TimesNewRomanPSMT-30" x="244.433594"/>
     </g>
    </g>
   </g>
   <g id="line2d_28">
    <path d="M 97.605 173.54 
L 98.65035 172.791945 
L 99.6957 172.331931 
L 102.309075 171.52671 
L 104.92245 170.950857 
L 109.626525 170.267948 
L 119.034675 168.903272 
L 127.397475 167.75617 
L 132.10155 166.859071 
L 138.37365 165.412498 
L 139.941675 164.963779 
L 146.213775 161.108697 
L 150.395175 158.762214 
L 153.00855 157.29196 
L 161.37135 152.03231 
L 165.030075 149.381265 
L 167.64345 147.233789 
L 173.392875 142.099214 
L 176.528925 138.939404 
L 183.3237 131.752056 
L 186.982425 127.550652 
L 190.118475 123.653075 
L 194.299875 118.064533 
L 206.844075 100.720399 
L 211.025475 94.386831 
L 212.5935 92.523167 
L 214.161525 91.012251 
L 215.72955 89.874539 
L 216.7749 89.474032 
L 217.297575 89.460234 
L 218.342925 89.789318 
L 219.388275 90.390055 
L 220.433625 91.217156 
L 222.524325 93.310797 
L 223.047 94.163296 
L 224.09235 96.63412 
L 225.1377 100.036998 
L 226.18305 104.172874 
L 227.2284 108.982021 
L 227.751075 109.637233 
L 228.796425 109.143289 
L 229.841775 108.980859 
L 230.36445 109.051785 
L 230.887125 109.246167 
L 231.4098 109.596141 
L 231.932475 110.135718 
L 232.45515 110.199452 
L 232.977825 109.204201 
L 233.5005 108.478148 
L 234.023175 108.007095 
L 235.068525 107.657984 
L 235.5912 107.690851 
L 236.113875 107.974963 
L 236.63655 108.505538 
L 237.159225 109.250549 
L 238.204575 111.343865 
L 239.249925 114.279555 
L 240.81795 119.894756 
L 242.385975 126.290887 
L 242.90865 126.474074 
L 244.476675 123.250768 
L 246.567375 115.728965 
L 248.1354 111.090098 
L 249.18075 108.549764 
L 250.2261 106.457126 
L 252.839475 102.192748 
L 253.884825 101.048831 
L 254.930175 100.289098 
L 255.975525 99.881203 
L 257.020875 99.747999 
L 258.066225 99.852814 
L 259.111575 100.198143 
L 260.156925 100.776963 
L 261.72495 102.026878 
L 263.292975 103.609907 
L 265.383675 106.076076 
L 267.474375 108.918306 
L 270.610425 113.645637 
L 280.54125 128.698778 
L 284.199975 133.748979 
L 286.81335 137.068906 
L 289.426725 140.070487 
L 292.0401 142.723033 
L 294.1308 144.567921 
L 297.789525 147.412831 
L 301.44825 150.050575 
L 304.5843 152.031709 
L 307.72035 153.788203 
L 311.379075 155.54415 
L 315.560475 157.30742 
L 319.741875 158.810406 
L 323.923275 160.071792 
L 329.150025 161.398954 
L 334.376775 162.48026 
L 342.2169 163.913775 
L 348.489 164.817057 
L 355.283775 165.574707 
L 362.601225 166.166507 
L 377.236125 167.080223 
L 391.871025 167.781652 
L 407.0286 168.261901 
L 411.21 168.37882 
L 411.21 168.37882 
" clip-path="url(#p5ad1003496)" style="fill: none; stroke: #ff7f0e; stroke-linecap: square"/>
   </g>
   <g id="patch_7">
    <path d="M 66.2445 173.54 
L 66.2445 41.4432 
" style="fill: none; stroke: #000000; stroke-width: 0.8; stroke-linejoin: miter; stroke-linecap: square"/>
   </g>
   <g id="patch_8">
    <path d="M 411.21 173.54 
L 411.21 41.4432 
" style="fill: none; stroke: #000000; stroke-width: 0.8; stroke-linejoin: miter; stroke-linecap: square"/>
   </g>
   <g id="patch_9">
    <path d="M 97.605 173.54 
L 411.21 173.54 
" style="fill: none; stroke: #000000; stroke-width: 0.8; stroke-linejoin: miter; stroke-linecap: square"/>
   </g>
   <g id="patch_10">
    <path d="M 97.605 41.4432 
L 411.21 41.4432 
" style="fill: none; stroke: #000000; stroke-width: 0.8; stroke-linejoin: miter; stroke-linecap: square"/>
   </g>
  </g>
  <g id="axes_3">
   <g id="matplotlib.axis_4">
    <g id="ytick_9">
     <g id="line2d_29">
      <defs>
       <path id="mc97194ea82" d="M 0 0 
L -4 0 
" style="stroke: #2ca02c; stroke-width: 1.5"/>
      </defs>
      <g>
       <use xlink:href="#mc97194ea82" x="34.884" y="173.54" style="fill: #2ca02c; stroke: #2ca02c; stroke-width: 1.5"/>
      </g>
     </g>
     <g id="text_19">
      <!-- 0 -->
      <g style="fill: #2ca02c" transform="translate(25.244937 175.068125) rotate(-90) scale(0.1 -0.1)">
       <use xlink:href="#TimesNewRomanPSMT-30"/>
      </g>
     </g>
    </g>
    <g id="ytick_10">
     <g id="line2d_30">
      <g>
       <use xlink:href="#mc97194ea82" x="34.884" y="133.767411" style="fill: #2ca02c; stroke: #2ca02c; stroke-width: 1.5"/>
      </g>
     </g>
     <g id="text_20">
      <!-- 150 m -->
      <g style="fill: #2ca02c" transform="translate(25.244937 155.075223) rotate(-90) scale(0.1 -0.1)">
       <use xlink:href="#TimesNewRomanPSMT-31"/>
       <use xlink:href="#TimesNewRomanPSMT-35" x="50"/>
       <use xlink:href="#TimesNewRomanPSMT-30" x="100"/>
       <use xlink:href="#TimesNewRomanPSMT-2009" x="150"/>
       <use xlink:href="#TimesNewRomanPSMT-6d" x="170.019531"/>
      </g>
     </g>
    </g>
    <g id="ytick_11">
     <g id="line2d_31">
      <g>
       <use xlink:href="#mc97194ea82" x="34.884" y="93.994821" style="fill: #2ca02c; stroke: #2ca02c; stroke-width: 1.5"/>
      </g>
     </g>
     <g id="text_21">
      <!-- 300 m -->
      <g style="fill: #2ca02c" transform="translate(25.244937 115.302634) rotate(-90) scale(0.1 -0.1)">
       <use xlink:href="#TimesNewRomanPSMT-33"/>
       <use xlink:href="#TimesNewRomanPSMT-30" x="50"/>
       <use xlink:href="#TimesNewRomanPSMT-30" x="100"/>
       <use xlink:href="#TimesNewRomanPSMT-2009" x="150"/>
       <use xlink:href="#TimesNewRomanPSMT-6d" x="170.019531"/>
      </g>
     </g>
    </g>
    <g id="ytick_12">
     <g id="line2d_32">
      <g>
       <use xlink:href="#mc97194ea82" x="34.884" y="54.222232" style="fill: #2ca02c; stroke: #2ca02c; stroke-width: 1.5"/>
      </g>
     </g>
     <g id="text_22">
      <!-- 450 m -->
      <g style="fill: #2ca02c" transform="translate(25.244937 75.530044) rotate(-90) scale(0.1 -0.1)">
       <use xlink:href="#TimesNewRomanPSMT-34"/>
       <use xlink:href="#TimesNewRomanPSMT-35" x="50"/>
       <use xlink:href="#TimesNewRomanPSMT-30" x="100"/>
       <use xlink:href="#TimesNewRomanPSMT-2009" x="150"/>
       <use xlink:href="#TimesNewRomanPSMT-6d" x="170.019531"/>
      </g>
     </g>
    </g>
    <g id="text_23">
     <!-- NN_40 -->
     <g style="fill: #2ca02c" transform="translate(17.21775 37.532857) scale(0.12 -0.12)">
      <use xlink:href="#TimesNewRomanPSMT-4e"/>
      <use xlink:href="#TimesNewRomanPSMT-4e" x="72.216797"/>
      <use xlink:href="#TimesNewRomanPSMT-5f" x="144.433594"/>
      <use xlink:href="#TimesNewRomanPSMT-34" x="194.433594"/>
      <use xlink:href="#TimesNewRomanPSMT-30" x="244.433594"/>
     </g>
    </g>
   </g>
   <g id="line2d_33">
    <path d="M 97.605 173.54 
L 98.65035 172.619987 
L 99.6957 172.065525 
L 101.263725 171.618824 
L 103.354425 171.342182 
L 112.762575 170.503263 
L 119.55735 169.546759 
L 125.82945 168.417112 
L 130.533525 167.362961 
L 135.760275 165.90721 
L 139.941675 164.559425 
L 146.73645 159.890721 
L 150.91785 156.778451 
L 155.621925 152.439599 
L 162.4167 145.925665 
L 165.55275 142.580873 
L 168.166125 139.48669 
L 171.82485 134.826733 
L 174.9609 130.444469 
L 178.09695 125.666863 
L 182.27835 118.791447 
L 185.4144 113.268237 
L 189.073125 106.312725 
L 193.254525 97.826674 
L 198.481275 86.580706 
L 203.708025 74.956394 
L 206.844075 67.516122 
L 212.070825 54.814217 
L 214.161525 50.527841 
L 215.72955 47.677428 
L 216.7749 46.100151 
L 217.82025 44.973617 
L 220.433625 43.009136 
L 221.478975 42.751089 
L 222.00165 42.788859 
L 222.524325 43.0052 
L 223.047 43.511468 
L 223.569675 44.305998 
L 224.615025 46.679946 
L 225.660375 49.992163 
L 226.705725 54.204732 
L 227.751075 59.28122 
L 229.3191 68.436726 
L 229.841775 71.886823 
L 230.36445 73.814788 
L 230.887125 73.626601 
L 231.4098 73.624093 
L 231.932475 73.804643 
L 232.45515 74.172242 
L 232.977825 74.724788 
L 234.023175 76.394561 
L 235.068525 78.794485 
L 236.113875 81.693564 
L 237.159225 79.636404 
L 237.6819 78.983901 
L 238.204575 78.642578 
L 238.72725 78.62704 
L 239.249925 78.940173 
L 239.7726 79.559686 
L 240.295275 80.491693 
L 241.340625 83.236685 
L 242.385975 87.05972 
L 243.431325 91.731148 
L 245.522025 101.9561 
L 246.0447 101.80046 
L 246.567375 99.623309 
L 250.748775 77.737033 
L 251.794125 73.605549 
L 252.839475 70.131347 
L 253.884825 67.239835 
L 256.4982 61.193776 
L 257.54355 59.508437 
L 258.5889 58.359864 
L 259.63425 57.733098 
L 260.6796 57.56901 
L 261.72495 57.808646 
L 262.7703 58.376105 
L 263.81565 59.233139 
L 264.861 60.379548 
L 266.429025 62.581576 
L 267.99705 65.243848 
L 270.08775 69.225241 
L 272.701125 74.731097 
L 275.837175 81.927633 
L 287.8587 110.045351 
L 290.472075 115.247094 
L 293.08545 119.907862 
L 295.17615 123.147423 
L 297.789525 126.773478 
L 300.925575 130.716393 
L 303.53895 133.683861 
L 306.675 136.886897 
L 309.81105 139.766051 
L 312.9471 142.341137 
L 315.560475 144.249229 
L 318.17385 145.913324 
L 321.3099 147.639686 
L 324.44595 149.129134 
L 328.62735 150.866445 
L 333.331425 152.580074 
L 339.603525 154.608642 
L 345.875625 156.412185 
L 351.102375 157.65659 
L 356.329125 158.676661 
L 362.601225 159.677694 
L 372.53205 161.036263 
L 387.689625 162.750246 
L 398.143125 163.697886 
L 411.21 164.63324 
L 411.21 164.63324 
" clip-path="url(#p5ad1003496)" style="fill: none; stroke: #2ca02c; stroke-linecap: square"/>
   </g>
   <g id="patch_11">
    <path d="M 34.884 173.54 
L 34.884 41.4432 
" style="fill: none; stroke: #000000; stroke-width: 0.8; stroke-linejoin: miter; stroke-linecap: square"/>
   </g>
   <g id="patch_12">
    <path d="M 411.21 173.54 
L 411.21 41.4432 
" style="fill: none; stroke: #000000; stroke-width: 0.8; stroke-linejoin: miter; stroke-linecap: square"/>
   </g>
   <g id="patch_13">
    <path d="M 97.605 173.54 
L 411.21 173.54 
" style="fill: none; stroke: #000000; stroke-width: 0.8; stroke-linejoin: miter; stroke-linecap: square"/>
   </g>
   <g id="patch_14">
    <path d="M 97.605 41.4432 
L 411.21 41.4432 
" style="fill: none; stroke: #000000; stroke-width: 0.8; stroke-linejoin: miter; stroke-linecap: square"/>
   </g>
  </g>
  <g id="text_24">
   <!-- Estimation error -->
   <g transform="translate(319.039062 14.04125) scale(0.14 -0.14)">
    <defs>
     <path id="TimesNewRomanPSMT-45" d="M 1338 4006 
L 1338 2331 
L 2269 2331 
Q 2631 2331 2753 2441 
Q 2916 2584 2934 2947 
L 3050 2947 
L 3050 1472 
L 2934 1472 
Q 2891 1781 2847 1869 
Q 2791 1978 2662 2040 
Q 2534 2103 2269 2103 
L 1338 2103 
L 1338 706 
Q 1338 425 1363 364 
Q 1388 303 1450 267 
Q 1513 231 1688 231 
L 2406 231 
Q 2766 231 2928 281 
Q 3091 331 3241 478 
Q 3434 672 3638 1063 
L 3763 1063 
L 3397 0 
L 131 0 
L 131 116 
L 281 116 
Q 431 116 566 188 
Q 666 238 702 338 
Q 738 438 738 747 
L 738 3500 
Q 738 3903 656 3997 
Q 544 4122 281 4122 
L 131 4122 
L 131 4238 
L 3397 4238 
L 3444 3309 
L 3322 3309 
Q 3256 3644 3176 3769 
Q 3097 3894 2941 3959 
Q 2816 4006 2500 4006 
L 1338 4006 
z
" transform="scale(0.015625)"/>
     <path id="TimesNewRomanPSMT-6f" d="M 1600 2947 
Q 2250 2947 2644 2453 
Q 2978 2031 2978 1484 
Q 2978 1100 2793 706 
Q 2609 313 2286 112 
Q 1963 -88 1566 -88 
Q 919 -88 538 428 
Q 216 863 216 1403 
Q 216 1797 411 2186 
Q 606 2575 925 2761 
Q 1244 2947 1600 2947 
z
M 1503 2744 
Q 1338 2744 1170 2645 
Q 1003 2547 900 2300 
Q 797 2053 797 1666 
Q 797 1041 1045 587 
Q 1294 134 1700 134 
Q 2003 134 2200 384 
Q 2397 634 2397 1244 
Q 2397 2006 2069 2444 
Q 1847 2744 1503 2744 
z
" transform="scale(0.015625)"/>
     <path id="TimesNewRomanPSMT-6e" d="M 1034 2341 
Q 1538 2947 1994 2947 
Q 2228 2947 2397 2830 
Q 2566 2713 2666 2444 
Q 2734 2256 2734 1869 
L 2734 647 
Q 2734 375 2778 278 
Q 2813 200 2889 156 
Q 2966 113 3172 113 
L 3172 0 
L 1756 0 
L 1756 113 
L 1816 113 
Q 2016 113 2095 173 
Q 2175 234 2206 353 
Q 2219 400 2219 647 
L 2219 1819 
Q 2219 2209 2117 2386 
Q 2016 2563 1775 2563 
Q 1403 2563 1034 2156 
L 1034 647 
Q 1034 356 1069 288 
Q 1113 197 1189 155 
Q 1266 113 1500 113 
L 1500 0 
L 84 0 
L 84 113 
L 147 113 
Q 366 113 442 223 
Q 519 334 519 647 
L 519 1709 
Q 519 2225 495 2337 
Q 472 2450 423 2490 
Q 375 2531 294 2531 
Q 206 2531 84 2484 
L 38 2597 
L 900 2947 
L 1034 2947 
L 1034 2341 
z
" transform="scale(0.015625)"/>
    </defs>
    <use xlink:href="#TimesNewRomanPSMT-45"/>
    <use xlink:href="#TimesNewRomanPSMT-73" x="61.083984"/>
    <use xlink:href="#TimesNewRomanPSMT-74" x="100"/>
    <use xlink:href="#TimesNewRomanPSMT-69" x="127.783203"/>
    <use xlink:href="#TimesNewRomanPSMT-6d" x="155.566406"/>
    <use xlink:href="#TimesNewRomanPSMT-61" x="233.349609"/>
    <use xlink:href="#TimesNewRomanPSMT-74" x="277.734375"/>
    <use xlink:href="#TimesNewRomanPSMT-69" x="305.517578"/>
    <use xlink:href="#TimesNewRomanPSMT-6f" x="333.300781"/>
    <use xlink:href="#TimesNewRomanPSMT-6e" x="383.300781"/>
    <use xlink:href="#TimesNewRomanPSMT-20" x="433.300781"/>
    <use xlink:href="#TimesNewRomanPSMT-65" x="458.300781"/>
    <use xlink:href="#TimesNewRomanPSMT-72" x="502.685547"/>
    <use xlink:href="#TimesNewRomanPSMT-72" x="535.986328"/>
    <use xlink:href="#TimesNewRomanPSMT-6f" x="569.287109"/>
    <use xlink:href="#TimesNewRomanPSMT-72" x="619.287109"/>
   </g>
  </g>
 </g>
 <defs>
  <clipPath id="p5ad1003496">
   <rect x="97.605" y="41.4432" width="313.605" height="132.0968"/>
  </clipPath>
 </defs>
</svg>
