<?xml version="1.0" encoding="utf-8" standalone="no"?>
<!DOCTYPE svg PUBLIC "-//W3C//DTD SVG 1.1//EN"
  "http://www.w3.org/Graphics/SVG/1.1/DTD/svg11.dtd">
<svg xmlns:xlink="http://www.w3.org/1999/xlink" width="648pt" height="216pt" viewBox="0 0 648 216" xmlns="http://www.w3.org/2000/svg" version="1.1">
 <metadata>
  <rdf:RDF xmlns:dc="http://purl.org/dc/elements/1.1/" xmlns:cc="http://creativecommons.org/ns#" xmlns:rdf="http://www.w3.org/1999/02/22-rdf-syntax-ns#">
   <cc:Work>
    <dc:type rdf:resource="http://purl.org/dc/dcmitype/StillImage"/>
    <dc:date>2024-05-13T14:58:59.728492</dc:date>
    <dc:format>image/svg+xml</dc:format>
    <dc:creator>
     <cc:Agent>
      <dc:title>Matplotlib v3.8.2, https://matplotlib.org/</dc:title>
     </cc:Agent>
    </dc:creator>
   </cc:Work>
  </rdf:RDF>
 </metadata>
 <defs>
  <style type="text/css">*{stroke-linejoin: round; stroke-linecap: butt}</style>
 </defs>
 <g id="figure_1">
  <g id="patch_1">
   <path d="M 0 216 
L 648 216 
L 648 0 
L 0 0 
z
" style="fill: #ffffff"/>
  </g>
  <g id="axes_1">
   <g id="patch_2">
    <path d="M 386.9112 173.54 
L 627.21 173.54 
L 627.21 18.0432 
L 386.9112 18.0432 
z
" style="fill: #ffffff"/>
   </g>
   <g id="matplotlib.axis_1">
    <g id="xtick_1">
     <g id="line2d_1">
      <path d="M 386.9112 173.54 
L 386.9112 18.0432 
" clip-path="url(#pca5e166a9a)" style="fill: none; stroke: #b0b0b0; stroke-width: 0.8; stroke-linecap: square"/>
     </g>
     <g id="line2d_2">
      <defs>
       <path id="m2b7c96703c" d="M 0 0 
L 0 4 
" style="stroke: #000000; stroke-width: 1.5"/>
      </defs>
      <g>
       <use xlink:href="#m2b7c96703c" x="386.9112" y="173.54" style="stroke: #000000; stroke-width: 1.5"/>
      </g>
     </g>
     <g id="text_1">
      <!-- 1900 -->
      <g transform="translate(376.9112 187.98375) scale(0.1 -0.1)">
       <defs>
        <path id="TimesNewRomanPSMT-31" d="M 750 3822 
L 1781 4325 
L 1884 4325 
L 1884 747 
Q 1884 391 1914 303 
Q 1944 216 2037 169 
Q 2131 122 2419 116 
L 2419 0 
L 825 0 
L 825 116 
Q 1125 122 1212 167 
Q 1300 213 1334 289 
Q 1369 366 1369 747 
L 1369 3034 
Q 1369 3497 1338 3628 
Q 1316 3728 1258 3775 
Q 1200 3822 1119 3822 
Q 1003 3822 797 3725 
L 750 3822 
z
" transform="scale(0.015625)"/>
        <path id="TimesNewRomanPSMT-39" d="M 338 -88 
L 338 28 
Q 744 34 1094 217 
Q 1444 400 1770 856 
Q 2097 1313 2225 1859 
Q 1734 1544 1338 1544 
Q 891 1544 572 1889 
Q 253 2234 253 2806 
Q 253 3363 572 3797 
Q 956 4325 1575 4325 
Q 2097 4325 2469 3894 
Q 2925 3359 2925 2575 
Q 2925 1869 2578 1258 
Q 2231 647 1613 244 
Q 1109 -88 516 -88 
L 338 -88 
z
M 2275 2091 
Q 2331 2497 2331 2741 
Q 2331 3044 2228 3395 
Q 2125 3747 1936 3934 
Q 1747 4122 1506 4122 
Q 1228 4122 1018 3872 
Q 809 3622 809 3128 
Q 809 2469 1088 2097 
Q 1291 1828 1588 1828 
Q 1731 1828 1928 1897 
Q 2125 1966 2275 2091 
z
" transform="scale(0.015625)"/>
        <path id="TimesNewRomanPSMT-30" d="M 231 2094 
Q 231 2819 450 3342 
Q 669 3866 1031 4122 
Q 1313 4325 1613 4325 
Q 2100 4325 2488 3828 
Q 2972 3213 2972 2159 
Q 2972 1422 2759 906 
Q 2547 391 2217 158 
Q 1888 -75 1581 -75 
Q 975 -75 572 641 
Q 231 1244 231 2094 
z
M 844 2016 
Q 844 1141 1059 588 
Q 1238 122 1591 122 
Q 1759 122 1940 273 
Q 2122 425 2216 781 
Q 2359 1319 2359 2297 
Q 2359 3022 2209 3506 
Q 2097 3866 1919 4016 
Q 1791 4119 1609 4119 
Q 1397 4119 1231 3928 
Q 1006 3669 925 3112 
Q 844 2556 844 2016 
z
" transform="scale(0.015625)"/>
       </defs>
       <use xlink:href="#TimesNewRomanPSMT-31"/>
       <use xlink:href="#TimesNewRomanPSMT-39" x="50"/>
       <use xlink:href="#TimesNewRomanPSMT-30" x="100"/>
       <use xlink:href="#TimesNewRomanPSMT-30" x="150"/>
      </g>
     </g>
    </g>
    <g id="xtick_2">
     <g id="line2d_3">
      <path d="M 426.961 173.54 
L 426.961 18.0432 
" clip-path="url(#pca5e166a9a)" style="fill: none; stroke: #b0b0b0; stroke-width: 0.8; stroke-linecap: square"/>
     </g>
     <g id="line2d_4">
      <g>
       <use xlink:href="#m2b7c96703c" x="426.961" y="173.54" style="stroke: #000000; stroke-width: 1.5"/>
      </g>
     </g>
     <g id="text_2">
      <!-- 1950 -->
      <g transform="translate(416.961 187.98375) scale(0.1 -0.1)">
       <defs>
        <path id="TimesNewRomanPSMT-35" d="M 2778 4238 
L 2534 3706 
L 1259 3706 
L 981 3138 
Q 1809 3016 2294 2522 
Q 2709 2097 2709 1522 
Q 2709 1188 2573 903 
Q 2438 619 2231 419 
Q 2025 219 1772 97 
Q 1413 -75 1034 -75 
Q 653 -75 479 54 
Q 306 184 306 341 
Q 306 428 378 495 
Q 450 563 559 563 
Q 641 563 702 538 
Q 763 513 909 409 
Q 1144 247 1384 247 
Q 1750 247 2026 523 
Q 2303 800 2303 1197 
Q 2303 1581 2056 1914 
Q 1809 2247 1375 2428 
Q 1034 2569 447 2591 
L 1259 4238 
L 2778 4238 
z
" transform="scale(0.015625)"/>
       </defs>
       <use xlink:href="#TimesNewRomanPSMT-31"/>
       <use xlink:href="#TimesNewRomanPSMT-39" x="50"/>
       <use xlink:href="#TimesNewRomanPSMT-35" x="100"/>
       <use xlink:href="#TimesNewRomanPSMT-30" x="150"/>
      </g>
     </g>
    </g>
    <g id="xtick_3">
     <g id="line2d_5">
      <path d="M 467.0108 173.54 
L 467.0108 18.0432 
" clip-path="url(#pca5e166a9a)" style="fill: none; stroke: #b0b0b0; stroke-width: 0.8; stroke-linecap: square"/>
     </g>
     <g id="line2d_6">
      <g>
       <use xlink:href="#m2b7c96703c" x="467.0108" y="173.54" style="stroke: #000000; stroke-width: 1.5"/>
      </g>
     </g>
     <g id="text_3">
      <!-- 2000 -->
      <g transform="translate(457.0108 187.98375) scale(0.1 -0.1)">
       <defs>
        <path id="TimesNewRomanPSMT-32" d="M 2934 816 
L 2638 0 
L 138 0 
L 138 116 
Q 1241 1122 1691 1759 
Q 2141 2397 2141 2925 
Q 2141 3328 1894 3587 
Q 1647 3847 1303 3847 
Q 991 3847 742 3664 
Q 494 3481 375 3128 
L 259 3128 
Q 338 3706 661 4015 
Q 984 4325 1469 4325 
Q 1984 4325 2329 3994 
Q 2675 3663 2675 3213 
Q 2675 2891 2525 2569 
Q 2294 2063 1775 1497 
Q 997 647 803 472 
L 1909 472 
Q 2247 472 2383 497 
Q 2519 522 2628 598 
Q 2738 675 2819 816 
L 2934 816 
z
" transform="scale(0.015625)"/>
       </defs>
       <use xlink:href="#TimesNewRomanPSMT-32"/>
       <use xlink:href="#TimesNewRomanPSMT-30" x="50"/>
       <use xlink:href="#TimesNewRomanPSMT-30" x="100"/>
       <use xlink:href="#TimesNewRomanPSMT-30" x="150"/>
      </g>
     </g>
    </g>
    <g id="xtick_4">
     <g id="line2d_7">
      <path d="M 507.0606 173.54 
L 507.0606 18.0432 
" clip-path="url(#pca5e166a9a)" style="fill: none; stroke: #b0b0b0; stroke-width: 0.8; stroke-linecap: square"/>
     </g>
     <g id="line2d_8">
      <g>
       <use xlink:href="#m2b7c96703c" x="507.0606" y="173.54" style="stroke: #000000; stroke-width: 1.5"/>
      </g>
     </g>
     <g id="text_4">
      <!-- 2050 -->
      <g transform="translate(497.0606 187.98375) scale(0.1 -0.1)">
       <use xlink:href="#TimesNewRomanPSMT-32"/>
       <use xlink:href="#TimesNewRomanPSMT-30" x="50"/>
       <use xlink:href="#TimesNewRomanPSMT-35" x="100"/>
       <use xlink:href="#TimesNewRomanPSMT-30" x="150"/>
      </g>
     </g>
    </g>
    <g id="xtick_5">
     <g id="line2d_9">
      <path d="M 547.1104 173.54 
L 547.1104 18.0432 
" clip-path="url(#pca5e166a9a)" style="fill: none; stroke: #b0b0b0; stroke-width: 0.8; stroke-linecap: square"/>
     </g>
     <g id="line2d_10">
      <g>
       <use xlink:href="#m2b7c96703c" x="547.1104" y="173.54" style="stroke: #000000; stroke-width: 1.5"/>
      </g>
     </g>
     <g id="text_5">
      <!-- 2100 -->
      <g transform="translate(537.1104 187.98375) scale(0.1 -0.1)">
       <use xlink:href="#TimesNewRomanPSMT-32"/>
       <use xlink:href="#TimesNewRomanPSMT-31" x="50"/>
       <use xlink:href="#TimesNewRomanPSMT-30" x="100"/>
       <use xlink:href="#TimesNewRomanPSMT-30" x="150"/>
      </g>
     </g>
    </g>
    <g id="xtick_6">
     <g id="line2d_11">
      <path d="M 587.1602 173.54 
L 587.1602 18.0432 
" clip-path="url(#pca5e166a9a)" style="fill: none; stroke: #b0b0b0; stroke-width: 0.8; stroke-linecap: square"/>
     </g>
     <g id="line2d_12">
      <g>
       <use xlink:href="#m2b7c96703c" x="587.1602" y="173.54" style="stroke: #000000; stroke-width: 1.5"/>
      </g>
     </g>
     <g id="text_6">
      <!-- 2150 -->
      <g transform="translate(577.1602 187.98375) scale(0.1 -0.1)">
       <use xlink:href="#TimesNewRomanPSMT-32"/>
       <use xlink:href="#TimesNewRomanPSMT-31" x="50"/>
       <use xlink:href="#TimesNewRomanPSMT-35" x="100"/>
       <use xlink:href="#TimesNewRomanPSMT-30" x="150"/>
      </g>
     </g>
    </g>
    <g id="xtick_7">
     <g id="line2d_13">
      <path d="M 627.21 173.54 
L 627.21 18.0432 
" clip-path="url(#pca5e166a9a)" style="fill: none; stroke: #b0b0b0; stroke-width: 0.8; stroke-linecap: square"/>
     </g>
     <g id="line2d_14">
      <g>
       <use xlink:href="#m2b7c96703c" x="627.21" y="173.54" style="stroke: #000000; stroke-width: 1.5"/>
      </g>
     </g>
     <g id="text_7">
      <!-- 2200 -->
      <g transform="translate(617.21 187.98375) scale(0.1 -0.1)">
       <use xlink:href="#TimesNewRomanPSMT-32"/>
       <use xlink:href="#TimesNewRomanPSMT-32" x="50"/>
       <use xlink:href="#TimesNewRomanPSMT-30" x="100"/>
       <use xlink:href="#TimesNewRomanPSMT-30" x="150"/>
      </g>
     </g>
    </g>
    <g id="text_8">
     <!-- time [years] -->
     <g transform="translate(478.240913 202.455312) scale(0.12 -0.12)">
      <defs>
       <path id="TimesNewRomanPSMT-74" d="M 1031 3803 
L 1031 2863 
L 1700 2863 
L 1700 2644 
L 1031 2644 
L 1031 788 
Q 1031 509 1111 412 
Q 1191 316 1316 316 
Q 1419 316 1516 380 
Q 1613 444 1666 569 
L 1788 569 
Q 1678 263 1478 108 
Q 1278 -47 1066 -47 
Q 922 -47 784 33 
Q 647 113 581 261 
Q 516 409 516 719 
L 516 2644 
L 63 2644 
L 63 2747 
Q 234 2816 414 2980 
Q 594 3144 734 3369 
Q 806 3488 934 3803 
L 1031 3803 
z
" transform="scale(0.015625)"/>
       <path id="TimesNewRomanPSMT-69" d="M 928 4444 
Q 1059 4444 1151 4351 
Q 1244 4259 1244 4128 
Q 1244 3997 1151 3903 
Q 1059 3809 928 3809 
Q 797 3809 703 3903 
Q 609 3997 609 4128 
Q 609 4259 701 4351 
Q 794 4444 928 4444 
z
M 1188 2947 
L 1188 647 
Q 1188 378 1227 289 
Q 1266 200 1342 156 
Q 1419 113 1622 113 
L 1622 0 
L 231 0 
L 231 113 
Q 441 113 512 153 
Q 584 194 626 287 
Q 669 381 669 647 
L 669 1750 
Q 669 2216 641 2353 
Q 619 2453 572 2492 
Q 525 2531 444 2531 
Q 356 2531 231 2484 
L 188 2597 
L 1050 2947 
L 1188 2947 
z
" transform="scale(0.015625)"/>
       <path id="TimesNewRomanPSMT-6d" d="M 1050 2338 
Q 1363 2650 1419 2697 
Q 1559 2816 1721 2881 
Q 1884 2947 2044 2947 
Q 2313 2947 2506 2790 
Q 2700 2634 2766 2338 
Q 3088 2713 3309 2830 
Q 3531 2947 3766 2947 
Q 3994 2947 4170 2830 
Q 4347 2713 4450 2447 
Q 4519 2266 4519 1878 
L 4519 647 
Q 4519 378 4559 278 
Q 4591 209 4675 161 
Q 4759 113 4950 113 
L 4950 0 
L 3538 0 
L 3538 113 
L 3597 113 
Q 3781 113 3884 184 
Q 3956 234 3988 344 
Q 4000 397 4000 647 
L 4000 1878 
Q 4000 2228 3916 2372 
Q 3794 2572 3525 2572 
Q 3359 2572 3192 2489 
Q 3025 2406 2788 2181 
L 2781 2147 
L 2788 2013 
L 2788 647 
Q 2788 353 2820 281 
Q 2853 209 2943 161 
Q 3034 113 3253 113 
L 3253 0 
L 1806 0 
L 1806 113 
Q 2044 113 2133 169 
Q 2222 225 2256 338 
Q 2272 391 2272 647 
L 2272 1878 
Q 2272 2228 2169 2381 
Q 2031 2581 1784 2581 
Q 1616 2581 1450 2491 
Q 1191 2353 1050 2181 
L 1050 647 
Q 1050 366 1089 281 
Q 1128 197 1204 155 
Q 1281 113 1516 113 
L 1516 0 
L 100 0 
L 100 113 
Q 297 113 375 155 
Q 453 197 493 289 
Q 534 381 534 647 
L 534 1741 
Q 534 2213 506 2350 
Q 484 2453 437 2492 
Q 391 2531 309 2531 
Q 222 2531 100 2484 
L 53 2597 
L 916 2947 
L 1050 2947 
L 1050 2338 
z
" transform="scale(0.015625)"/>
       <path id="TimesNewRomanPSMT-65" d="M 681 1784 
Q 678 1147 991 784 
Q 1303 422 1725 422 
Q 2006 422 2214 576 
Q 2422 731 2563 1106 
L 2659 1044 
Q 2594 616 2278 264 
Q 1963 -88 1488 -88 
Q 972 -88 605 314 
Q 238 716 238 1394 
Q 238 2128 614 2539 
Q 991 2950 1559 2950 
Q 2041 2950 2350 2633 
Q 2659 2316 2659 1784 
L 681 1784 
z
M 681 1966 
L 2006 1966 
Q 1991 2241 1941 2353 
Q 1863 2528 1708 2628 
Q 1553 2728 1384 2728 
Q 1125 2728 920 2526 
Q 716 2325 681 1966 
z
" transform="scale(0.015625)"/>
       <path id="TimesNewRomanPSMT-20" transform="scale(0.015625)"/>
       <path id="TimesNewRomanPSMT-5b" d="M 1900 -1269 
L 525 -1269 
L 525 4334 
L 1900 4334 
L 1900 4088 
L 994 4088 
L 994 -1025 
L 1900 -1025 
L 1900 -1269 
z
" transform="scale(0.015625)"/>
       <path id="TimesNewRomanPSMT-79" d="M 38 2863 
L 1372 2863 
L 1372 2747 
L 1306 2747 
Q 1166 2747 1095 2686 
Q 1025 2625 1025 2534 
Q 1025 2413 1128 2197 
L 1825 753 
L 2466 2334 
Q 2519 2463 2519 2588 
Q 2519 2644 2497 2672 
Q 2472 2706 2419 2726 
Q 2366 2747 2231 2747 
L 2231 2863 
L 3163 2863 
L 3163 2747 
Q 3047 2734 2984 2696 
Q 2922 2659 2847 2556 
Q 2819 2513 2741 2316 
L 1575 -541 
Q 1406 -956 1132 -1168 
Q 859 -1381 606 -1381 
Q 422 -1381 303 -1275 
Q 184 -1169 184 -1031 
Q 184 -900 270 -820 
Q 356 -741 506 -741 
Q 609 -741 788 -809 
Q 913 -856 944 -856 
Q 1038 -856 1148 -759 
Q 1259 -663 1372 -384 
L 1575 113 
L 547 2272 
Q 500 2369 397 2513 
Q 319 2622 269 2659 
Q 197 2709 38 2747 
L 38 2863 
z
" transform="scale(0.015625)"/>
       <path id="TimesNewRomanPSMT-61" d="M 1822 413 
Q 1381 72 1269 19 
Q 1100 -59 909 -59 
Q 613 -59 420 144 
Q 228 347 228 678 
Q 228 888 322 1041 
Q 450 1253 767 1440 
Q 1084 1628 1822 1897 
L 1822 2009 
Q 1822 2438 1686 2597 
Q 1550 2756 1291 2756 
Q 1094 2756 978 2650 
Q 859 2544 859 2406 
L 866 2225 
Q 866 2081 792 2003 
Q 719 1925 600 1925 
Q 484 1925 411 2006 
Q 338 2088 338 2228 
Q 338 2497 613 2722 
Q 888 2947 1384 2947 
Q 1766 2947 2009 2819 
Q 2194 2722 2281 2516 
Q 2338 2381 2338 1966 
L 2338 994 
Q 2338 584 2353 492 
Q 2369 400 2405 369 
Q 2441 338 2488 338 
Q 2538 338 2575 359 
Q 2641 400 2828 588 
L 2828 413 
Q 2478 -56 2159 -56 
Q 2006 -56 1915 50 
Q 1825 156 1822 413 
z
M 1822 616 
L 1822 1706 
Q 1350 1519 1213 1441 
Q 966 1303 859 1153 
Q 753 1003 753 825 
Q 753 600 887 451 
Q 1022 303 1197 303 
Q 1434 303 1822 616 
z
" transform="scale(0.015625)"/>
       <path id="TimesNewRomanPSMT-72" d="M 1038 2947 
L 1038 2303 
Q 1397 2947 1775 2947 
Q 1947 2947 2059 2842 
Q 2172 2738 2172 2600 
Q 2172 2478 2090 2393 
Q 2009 2309 1897 2309 
Q 1788 2309 1652 2417 
Q 1516 2525 1450 2525 
Q 1394 2525 1328 2463 
Q 1188 2334 1038 2041 
L 1038 669 
Q 1038 431 1097 309 
Q 1138 225 1241 169 
Q 1344 113 1538 113 
L 1538 0 
L 72 0 
L 72 113 
Q 291 113 397 181 
Q 475 231 506 341 
Q 522 394 522 644 
L 522 1753 
Q 522 2253 501 2348 
Q 481 2444 426 2487 
Q 372 2531 291 2531 
Q 194 2531 72 2484 
L 41 2597 
L 906 2947 
L 1038 2947 
z
" transform="scale(0.015625)"/>
       <path id="TimesNewRomanPSMT-73" d="M 2050 2947 
L 2050 1972 
L 1947 1972 
Q 1828 2431 1642 2597 
Q 1456 2763 1169 2763 
Q 950 2763 815 2647 
Q 681 2531 681 2391 
Q 681 2216 781 2091 
Q 878 1963 1175 1819 
L 1631 1597 
Q 2266 1288 2266 781 
Q 2266 391 1970 151 
Q 1675 -88 1309 -88 
Q 1047 -88 709 6 
Q 606 38 541 38 
Q 469 38 428 -44 
L 325 -44 
L 325 978 
L 428 978 
Q 516 541 762 319 
Q 1009 97 1316 97 
Q 1531 97 1667 223 
Q 1803 350 1803 528 
Q 1803 744 1651 891 
Q 1500 1038 1047 1263 
Q 594 1488 453 1669 
Q 313 1847 313 2119 
Q 313 2472 555 2709 
Q 797 2947 1181 2947 
Q 1350 2947 1591 2875 
Q 1750 2828 1803 2828 
Q 1853 2828 1881 2850 
Q 1909 2872 1947 2947 
L 2050 2947 
z
" transform="scale(0.015625)"/>
       <path id="TimesNewRomanPSMT-5d" d="M 234 4334 
L 1609 4334 
L 1609 -1272 
L 234 -1272 
L 234 -1025 
L 1141 -1025 
L 1141 4088 
L 234 4088 
L 234 4334 
z
" transform="scale(0.015625)"/>
      </defs>
      <use xlink:href="#TimesNewRomanPSMT-74"/>
      <use xlink:href="#TimesNewRomanPSMT-69" x="27.783203"/>
      <use xlink:href="#TimesNewRomanPSMT-6d" x="55.566406"/>
      <use xlink:href="#TimesNewRomanPSMT-65" x="133.349609"/>
      <use xlink:href="#TimesNewRomanPSMT-20" x="177.734375"/>
      <use xlink:href="#TimesNewRomanPSMT-5b" x="202.734375"/>
      <use xlink:href="#TimesNewRomanPSMT-79" x="236.035156"/>
      <use xlink:href="#TimesNewRomanPSMT-65" x="286.035156"/>
      <use xlink:href="#TimesNewRomanPSMT-61" x="330.419922"/>
      <use xlink:href="#TimesNewRomanPSMT-72" x="374.804688"/>
      <use xlink:href="#TimesNewRomanPSMT-73" x="408.105469"/>
      <use xlink:href="#TimesNewRomanPSMT-5d" x="447.021484"/>
     </g>
    </g>
   </g>
   <g id="matplotlib.axis_2">
    <g id="ytick_1">
     <g id="line2d_15">
      <path d="M 386.9112 173.54 
L 627.21 173.54 
" clip-path="url(#pca5e166a9a)" style="fill: none; stroke: #b0b0b0; stroke-width: 0.8; stroke-linecap: square"/>
     </g>
     <g id="line2d_16">
      <defs>
       <path id="mcfd5ad1a30" d="M 0 0 
L -4 0 
" style="stroke: #008000; stroke-opacity: 0.325; stroke-width: 1.5"/>
      </defs>
      <g>
       <use xlink:href="#mcfd5ad1a30" x="386.9112" y="173.54" style="fill: #008000; fill-opacity: 0.325; stroke: #008000; stroke-opacity: 0.325; stroke-width: 1.5"/>
      </g>
     </g>
     <g id="text_9">
      <!-- 0 -->
      <g style="fill: #008000; opacity: 0.325" transform="translate(377.272138 175.068125) rotate(-90) scale(0.1 -0.1)">
       <use xlink:href="#TimesNewRomanPSMT-30"/>
      </g>
     </g>
    </g>
    <g id="ytick_2">
     <g id="line2d_17">
      <path d="M 386.9112 123.092418 
L 627.21 123.092418 
" clip-path="url(#pca5e166a9a)" style="fill: none; stroke: #b0b0b0; stroke-width: 0.8; stroke-linecap: square"/>
     </g>
     <g id="line2d_18">
      <g>
       <use xlink:href="#mcfd5ad1a30" x="386.9112" y="123.092418" style="fill: #008000; fill-opacity: 0.325; stroke: #008000; stroke-opacity: 0.325; stroke-width: 1.5"/>
      </g>
     </g>
     <g id="text_10">
      <!-- 800 M -->
      <g style="fill: #008000; opacity: 0.325" transform="translate(377.272138 145.514293) rotate(-90) scale(0.1 -0.1)">
       <defs>
        <path id="TimesNewRomanPSMT-38" d="M 1228 2134 
Q 725 2547 579 2797 
Q 434 3047 434 3316 
Q 434 3728 753 4026 
Q 1072 4325 1600 4325 
Q 2113 4325 2425 4047 
Q 2738 3769 2738 3413 
Q 2738 3175 2569 2928 
Q 2400 2681 1866 2347 
Q 2416 1922 2594 1678 
Q 2831 1359 2831 1006 
Q 2831 559 2490 242 
Q 2150 -75 1597 -75 
Q 994 -75 656 303 
Q 388 606 388 966 
Q 388 1247 577 1523 
Q 766 1800 1228 2134 
z
M 1719 2469 
Q 2094 2806 2194 3001 
Q 2294 3197 2294 3444 
Q 2294 3772 2109 3958 
Q 1925 4144 1606 4144 
Q 1288 4144 1088 3959 
Q 888 3775 888 3528 
Q 888 3366 970 3203 
Q 1053 3041 1206 2894 
L 1719 2469 
z
M 1375 2016 
Q 1116 1797 991 1539 
Q 866 1281 866 981 
Q 866 578 1086 336 
Q 1306 94 1647 94 
Q 1984 94 2187 284 
Q 2391 475 2391 747 
Q 2391 972 2272 1150 
Q 2050 1481 1375 2016 
z
" transform="scale(0.015625)"/>
        <path id="TimesNewRomanPSMT-2009" d="M 0 0 
L 0 0 
z
" transform="scale(0.015625)"/>
        <path id="TimesNewRomanPSMT-4d" d="M 2619 0 
L 981 3566 
L 981 734 
Q 981 344 1066 247 
Q 1181 116 1431 116 
L 1581 116 
L 1581 0 
L 106 0 
L 106 116 
L 256 116 
Q 525 116 638 278 
Q 706 378 706 734 
L 706 3503 
Q 706 3784 644 3909 
Q 600 4000 483 4061 
Q 366 4122 106 4122 
L 106 4238 
L 1306 4238 
L 2844 922 
L 4356 4238 
L 5556 4238 
L 5556 4122 
L 5409 4122 
Q 5138 4122 5025 3959 
Q 4956 3859 4956 3503 
L 4956 734 
Q 4956 344 5044 247 
Q 5159 116 5409 116 
L 5556 116 
L 5556 0 
L 3756 0 
L 3756 116 
L 3906 116 
Q 4178 116 4288 278 
Q 4356 378 4356 734 
L 4356 3566 
L 2722 0 
L 2619 0 
z
" transform="scale(0.015625)"/>
       </defs>
       <use xlink:href="#TimesNewRomanPSMT-38"/>
       <use xlink:href="#TimesNewRomanPSMT-30" x="50"/>
       <use xlink:href="#TimesNewRomanPSMT-30" x="100"/>
       <use xlink:href="#TimesNewRomanPSMT-2009" x="150"/>
       <use xlink:href="#TimesNewRomanPSMT-4d" x="170.019531"/>
      </g>
     </g>
    </g>
    <g id="ytick_3">
     <g id="line2d_19">
      <path d="M 386.9112 72.644836 
L 627.21 72.644836 
" clip-path="url(#pca5e166a9a)" style="fill: none; stroke: #b0b0b0; stroke-width: 0.8; stroke-linecap: square"/>
     </g>
     <g id="line2d_20">
      <g>
       <use xlink:href="#mcfd5ad1a30" x="386.9112" y="72.644836" style="fill: #008000; fill-opacity: 0.325; stroke: #008000; stroke-opacity: 0.325; stroke-width: 1.5"/>
      </g>
     </g>
     <g id="text_11">
      <!-- 2 G -->
      <g style="fill: #008000; opacity: 0.325" transform="translate(377.272138 83.396399) rotate(-90) scale(0.1 -0.1)">
       <defs>
        <path id="TimesNewRomanPSMT-47" d="M 3928 4334 
L 4038 2997 
L 3928 2997 
Q 3763 3497 3500 3750 
Q 3122 4116 2528 4116 
Q 1719 4116 1297 3475 
Q 944 2934 944 2188 
Q 944 1581 1178 1081 
Q 1413 581 1792 348 
Q 2172 116 2572 116 
Q 2806 116 3025 175 
Q 3244 234 3447 350 
L 3447 1575 
Q 3447 1894 3398 1992 
Q 3350 2091 3248 2142 
Q 3147 2194 2891 2194 
L 2891 2313 
L 4531 2313 
L 4531 2194 
L 4453 2194 
Q 4209 2194 4119 2031 
Q 4056 1916 4056 1575 
L 4056 278 
Q 3697 84 3347 -6 
Q 2997 -97 2569 -97 
Q 1341 -97 703 691 
Q 225 1281 225 2053 
Q 225 2613 494 3125 
Q 813 3734 1369 4063 
Q 1834 4334 2469 4334 
Q 2700 4334 2889 4296 
Q 3078 4259 3425 4131 
Q 3600 4066 3659 4066 
Q 3719 4066 3761 4120 
Q 3803 4175 3813 4334 
L 3928 4334 
z
" transform="scale(0.015625)"/>
       </defs>
       <use xlink:href="#TimesNewRomanPSMT-32"/>
       <use xlink:href="#TimesNewRomanPSMT-2009" x="50"/>
       <use xlink:href="#TimesNewRomanPSMT-47" x="70.019531"/>
      </g>
     </g>
    </g>
    <g id="ytick_4">
     <g id="line2d_21">
      <path d="M 386.9112 22.197255 
L 627.21 22.197255 
" clip-path="url(#pca5e166a9a)" style="fill: none; stroke: #b0b0b0; stroke-width: 0.8; stroke-linecap: square"/>
     </g>
     <g id="line2d_22">
      <g>
       <use xlink:href="#mcfd5ad1a30" x="386.9112" y="22.197255" style="fill: #008000; fill-opacity: 0.325; stroke: #008000; stroke-opacity: 0.325; stroke-width: 1.5"/>
      </g>
     </g>
     <g id="text_12">
      <!-- 2 G -->
      <g style="fill: #008000; opacity: 0.325" transform="translate(377.272138 32.948817) rotate(-90) scale(0.1 -0.1)">
       <use xlink:href="#TimesNewRomanPSMT-32"/>
       <use xlink:href="#TimesNewRomanPSMT-2009" x="50"/>
       <use xlink:href="#TimesNewRomanPSMT-47" x="70.019531"/>
      </g>
     </g>
    </g>
    <g id="text_13">
     <!-- al -->
     <g style="fill: #008000; opacity: 0.325" transform="translate(382.580888 13.921357) scale(0.12 -0.12)">
      <defs>
       <path id="TimesNewRomanPSMT-6c" d="M 1184 4444 
L 1184 647 
Q 1184 378 1223 290 
Q 1263 203 1344 158 
Q 1425 113 1647 113 
L 1647 0 
L 244 0 
L 244 113 
Q 441 113 512 153 
Q 584 194 625 287 
Q 666 381 666 647 
L 666 3247 
Q 666 3731 644 3842 
Q 622 3953 573 3993 
Q 525 4034 450 4034 
Q 369 4034 244 3984 
L 191 4094 
L 1044 4444 
L 1184 4444 
z
" transform="scale(0.015625)"/>
      </defs>
      <use xlink:href="#TimesNewRomanPSMT-61"/>
      <use xlink:href="#TimesNewRomanPSMT-6c" x="44.384766"/>
     </g>
    </g>
   </g>
   <g id="line2d_23">
    <path d="M 386.9112 173.54 
L 627.21 173.54 
L 627.21 173.54 
" clip-path="url(#pca5e166a9a)" style="fill: none; stroke-dasharray: 3.7,1.6; stroke-dashoffset: 0; stroke: #008000; stroke-opacity: 0.325"/>
   </g>
   <g id="line2d_24">
    <path d="M 386.9112 116.786471 
L 390.515682 115.683316 
L 394.120164 114.34813 
L 398.525642 112.44156 
L 412.142574 106.443234 
L 416.548052 104.189237 
L 420.553032 101.887623 
L 423.356518 100.052686 
L 426.160004 97.974129 
L 428.96349 95.628356 
L 432.567972 92.258988 
L 436.97345 87.934884 
L 440.177434 84.445714 
L 446.585402 76.914325 
L 450.99088 71.309262 
L 454.595362 66.404718 
L 457.799346 61.65447 
L 460.602832 57.12051 
L 468.212294 44.490658 
L 474.620262 34.252423 
L 477.824246 29.763778 
L 479.826736 27.245888 
L 482.229724 24.598335 
L 483.831716 23.116665 
L 485.03321 22.294924 
L 486.635202 21.513397 
L 488.237194 20.964968 
L 490.640182 20.406706 
L 493.443668 19.965513 
L 496.647652 19.715922 
L 501.453628 19.585532 
L 508.262094 19.662701 
L 525.483508 20.189056 
L 627.21 23.407482 
L 627.21 23.407482 
" clip-path="url(#pca5e166a9a)" style="fill: none; stroke: #008000; stroke-opacity: 0.325; stroke-linecap: square"/>
   </g>
   <g id="patch_3">
    <path d="M 386.9112 173.54 
L 386.9112 18.0432 
" style="fill: none; stroke: #000000; stroke-width: 0.8; stroke-linejoin: miter; stroke-linecap: square"/>
   </g>
   <g id="patch_4">
    <path d="M 627.21 173.54 
L 627.21 18.0432 
" style="fill: none; stroke: #000000; stroke-width: 0.8; stroke-linejoin: miter; stroke-linecap: square"/>
   </g>
   <g id="patch_5">
    <path d="M 386.9112 173.54 
L 627.21 173.54 
" style="fill: none; stroke: #000000; stroke-width: 0.8; stroke-linejoin: miter; stroke-linecap: square"/>
   </g>
   <g id="patch_6">
    <path d="M 386.9112 18.0432 
L 627.21 18.0432 
" style="fill: none; stroke: #000000; stroke-width: 0.8; stroke-linejoin: miter; stroke-linecap: square"/>
   </g>
  </g>
  <g id="axes_2">
   <g id="matplotlib.axis_3">
    <g id="ytick_5">
     <g id="line2d_25">
      <defs>
       <path id="mfc6febf550" d="M 0 0 
L -4 0 
" style="stroke: #008000; stroke-opacity: 0.55; stroke-width: 1.5"/>
      </defs>
      <g>
       <use xlink:href="#mfc6febf550" x="372.493272" y="173.54" style="fill: #008000; fill-opacity: 0.55; stroke: #008000; stroke-opacity: 0.55; stroke-width: 1.5"/>
      </g>
     </g>
     <g id="text_14">
      <!-- 0 -->
      <g style="fill: #008000; opacity: 0.55" transform="translate(362.85421 175.068125) rotate(-90) scale(0.1 -0.1)">
       <use xlink:href="#TimesNewRomanPSMT-30"/>
      </g>
     </g>
    </g>
    <g id="ytick_6">
     <g id="line2d_26">
      <g>
       <use xlink:href="#mfc6febf550" x="372.493272" y="133.377245" style="fill: #008000; fill-opacity: 0.55; stroke: #008000; stroke-opacity: 0.55; stroke-width: 1.5"/>
      </g>
     </g>
     <g id="text_15">
      <!-- 600 M -->
      <g style="fill: #008000; opacity: 0.55" transform="translate(362.85421 155.79912) rotate(-90) scale(0.1 -0.1)">
       <defs>
        <path id="TimesNewRomanPSMT-36" d="M 2869 4325 
L 2869 4209 
Q 2456 4169 2195 4045 
Q 1934 3922 1679 3669 
Q 1425 3416 1258 3105 
Q 1091 2794 978 2366 
Q 1428 2675 1881 2675 
Q 2316 2675 2634 2325 
Q 2953 1975 2953 1425 
Q 2953 894 2631 456 
Q 2244 -75 1606 -75 
Q 1172 -75 869 213 
Q 275 772 275 1663 
Q 275 2231 503 2743 
Q 731 3256 1154 3653 
Q 1578 4050 1965 4187 
Q 2353 4325 2688 4325 
L 2869 4325 
z
M 925 2138 
Q 869 1716 869 1456 
Q 869 1156 980 804 
Q 1091 453 1309 247 
Q 1469 100 1697 100 
Q 1969 100 2183 356 
Q 2397 613 2397 1088 
Q 2397 1622 2184 2012 
Q 1972 2403 1581 2403 
Q 1463 2403 1327 2353 
Q 1191 2303 925 2138 
z
" transform="scale(0.015625)"/>
       </defs>
       <use xlink:href="#TimesNewRomanPSMT-36"/>
       <use xlink:href="#TimesNewRomanPSMT-30" x="50"/>
       <use xlink:href="#TimesNewRomanPSMT-30" x="100"/>
       <use xlink:href="#TimesNewRomanPSMT-2009" x="150"/>
       <use xlink:href="#TimesNewRomanPSMT-4d" x="170.019531"/>
      </g>
     </g>
    </g>
    <g id="ytick_7">
     <g id="line2d_27">
      <g>
       <use xlink:href="#mfc6febf550" x="372.493272" y="93.21449" style="fill: #008000; fill-opacity: 0.55; stroke: #008000; stroke-opacity: 0.55; stroke-width: 1.5"/>
      </g>
     </g>
     <g id="text_16">
      <!-- 1 G -->
      <g style="fill: #008000; opacity: 0.55" transform="translate(362.85421 103.966052) rotate(-90) scale(0.1 -0.1)">
       <use xlink:href="#TimesNewRomanPSMT-31"/>
       <use xlink:href="#TimesNewRomanPSMT-2009" x="50"/>
       <use xlink:href="#TimesNewRomanPSMT-47" x="70.019531"/>
      </g>
     </g>
    </g>
    <g id="ytick_8">
     <g id="line2d_28">
      <g>
       <use xlink:href="#mfc6febf550" x="372.493272" y="53.051735" style="fill: #008000; fill-opacity: 0.55; stroke: #008000; stroke-opacity: 0.55; stroke-width: 1.5"/>
      </g>
     </g>
     <g id="text_17">
      <!-- 2 G -->
      <g style="fill: #008000; opacity: 0.55" transform="translate(362.85421 63.803297) rotate(-90) scale(0.1 -0.1)">
       <use xlink:href="#TimesNewRomanPSMT-32"/>
       <use xlink:href="#TimesNewRomanPSMT-2009" x="50"/>
       <use xlink:href="#TimesNewRomanPSMT-47" x="70.019531"/>
      </g>
     </g>
    </g>
    <g id="text_18">
     <!-- pal -->
     <g style="fill: #008000; opacity: 0.55" transform="translate(365.16296 13.921357) scale(0.12 -0.12)">
      <defs>
       <path id="TimesNewRomanPSMT-70" d="M -6 2578 
L 875 2934 
L 994 2934 
L 994 2266 
Q 1216 2644 1439 2795 
Q 1663 2947 1909 2947 
Q 2341 2947 2628 2609 
Q 2981 2197 2981 1534 
Q 2981 794 2556 309 
Q 2206 -88 1675 -88 
Q 1444 -88 1275 -22 
Q 1150 25 994 166 
L 994 -706 
Q 994 -1000 1030 -1079 
Q 1066 -1159 1155 -1206 
Q 1244 -1253 1478 -1253 
L 1478 -1369 
L -22 -1369 
L -22 -1253 
L 56 -1253 
Q 228 -1256 350 -1188 
Q 409 -1153 442 -1076 
Q 475 -1000 475 -688 
L 475 2019 
Q 475 2297 450 2372 
Q 425 2447 370 2484 
Q 316 2522 222 2522 
Q 147 2522 31 2478 
L -6 2578 
z
M 994 2081 
L 994 1013 
Q 994 666 1022 556 
Q 1066 375 1236 237 
Q 1406 100 1666 100 
Q 1978 100 2172 344 
Q 2425 663 2425 1241 
Q 2425 1897 2138 2250 
Q 1938 2494 1663 2494 
Q 1513 2494 1366 2419 
Q 1253 2363 994 2081 
z
" transform="scale(0.015625)"/>
      </defs>
      <use xlink:href="#TimesNewRomanPSMT-70"/>
      <use xlink:href="#TimesNewRomanPSMT-61" x="50"/>
      <use xlink:href="#TimesNewRomanPSMT-6c" x="94.384766"/>
     </g>
    </g>
   </g>
   <g id="line2d_29">
    <path d="M 386.9112 173.54 
L 627.21 173.54 
L 627.21 173.54 
" clip-path="url(#pca5e166a9a)" style="fill: none; stroke-dasharray: 3.7,1.6; stroke-dashoffset: 0; stroke: #008000; stroke-opacity: 0.55"/>
   </g>
   <g id="line2d_30">
    <path d="M 386.9112 19.582772 
L 390.515682 20.829928 
L 394.120164 22.329111 
L 398.125144 24.264942 
L 412.142574 31.223299 
L 416.548052 33.773463 
L 420.152534 36.102011 
L 422.95602 38.142973 
L 425.759506 40.453635 
L 428.562992 43.059535 
L 431.366478 45.980345 
L 436.172454 51.255692 
L 438.97594 54.634695 
L 442.580422 59.374756 
L 446.585402 64.917651 
L 450.590382 70.884561 
L 454.194864 76.634817 
L 457.398848 82.208343 
L 460.202334 87.528078 
L 476.222254 119.175577 
L 479.02574 123.967514 
L 481.02823 126.977309 
L 483.03072 129.612931 
L 484.232214 130.859852 
L 485.433708 131.803034 
L 487.0357 132.750937 
L 488.637692 133.452085 
L 491.04068 134.226437 
L 493.443668 134.79905 
L 496.247154 135.226008 
L 500.252134 135.604179 
L 505.458608 135.8634 
L 513.06807 136.005817 
L 531.891476 136.077452 
L 627.21 136.089194 
L 627.21 136.089194 
" clip-path="url(#pca5e166a9a)" style="fill: none; stroke: #008000; stroke-opacity: 0.55; stroke-linecap: square"/>
   </g>
   <g id="patch_7">
    <path d="M 372.493272 173.54 
L 372.493272 18.0432 
" style="fill: none; stroke: #000000; stroke-width: 0.8; stroke-linejoin: miter; stroke-linecap: square"/>
   </g>
   <g id="patch_8">
    <path d="M 627.21 173.54 
L 627.21 18.0432 
" style="fill: none; stroke: #000000; stroke-width: 0.8; stroke-linejoin: miter; stroke-linecap: square"/>
   </g>
   <g id="patch_9">
    <path d="M 386.9112 173.54 
L 627.21 173.54 
" style="fill: none; stroke: #000000; stroke-width: 0.8; stroke-linejoin: miter; stroke-linecap: square"/>
   </g>
   <g id="patch_10">
    <path d="M 386.9112 18.0432 
L 627.21 18.0432 
" style="fill: none; stroke: #000000; stroke-width: 0.8; stroke-linejoin: miter; stroke-linecap: square"/>
   </g>
  </g>
  <g id="axes_3">
   <g id="matplotlib.axis_4">
    <g id="ytick_9">
     <g id="line2d_31">
      <defs>
       <path id="m8263e28f7c" d="M 0 0 
L -4 0 
" style="stroke: #008000; stroke-opacity: 0.775; stroke-width: 1.5"/>
      </defs>
      <g>
       <use xlink:href="#m8263e28f7c" x="358.075344" y="173.54" style="fill: #008000; fill-opacity: 0.775; stroke: #008000; stroke-opacity: 0.775; stroke-width: 1.5"/>
      </g>
     </g>
     <g id="text_19">
      <!-- 0 -->
      <g style="fill: #008000; opacity: 0.775" transform="translate(348.436282 175.068125) rotate(-90) scale(0.1 -0.1)">
       <use xlink:href="#TimesNewRomanPSMT-30"/>
      </g>
     </g>
    </g>
    <g id="ytick_10">
     <g id="line2d_32">
      <g>
       <use xlink:href="#m8263e28f7c" x="358.075344" y="130.516065" style="fill: #008000; fill-opacity: 0.775; stroke: #008000; stroke-opacity: 0.775; stroke-width: 1.5"/>
      </g>
     </g>
     <g id="text_20">
      <!-- 25 M -->
      <g style="fill: #008000; opacity: 0.775" transform="translate(348.436282 147.93794) rotate(-90) scale(0.1 -0.1)">
       <use xlink:href="#TimesNewRomanPSMT-32"/>
       <use xlink:href="#TimesNewRomanPSMT-35" x="50"/>
       <use xlink:href="#TimesNewRomanPSMT-2009" x="100"/>
       <use xlink:href="#TimesNewRomanPSMT-4d" x="120.019531"/>
      </g>
     </g>
    </g>
    <g id="ytick_11">
     <g id="line2d_33">
      <g>
       <use xlink:href="#m8263e28f7c" x="358.075344" y="87.492129" style="fill: #008000; fill-opacity: 0.775; stroke: #008000; stroke-opacity: 0.775; stroke-width: 1.5"/>
      </g>
     </g>
     <g id="text_21">
      <!-- 50 M -->
      <g style="fill: #008000; opacity: 0.775" transform="translate(348.436282 104.914004) rotate(-90) scale(0.1 -0.1)">
       <use xlink:href="#TimesNewRomanPSMT-35"/>
       <use xlink:href="#TimesNewRomanPSMT-30" x="50"/>
       <use xlink:href="#TimesNewRomanPSMT-2009" x="100"/>
       <use xlink:href="#TimesNewRomanPSMT-4d" x="120.019531"/>
      </g>
     </g>
    </g>
    <g id="ytick_12">
     <g id="line2d_34">
      <g>
       <use xlink:href="#m8263e28f7c" x="358.075344" y="44.468194" style="fill: #008000; fill-opacity: 0.775; stroke: #008000; stroke-opacity: 0.775; stroke-width: 1.5"/>
      </g>
     </g>
     <g id="text_22">
      <!-- 75 M -->
      <g style="fill: #008000; opacity: 0.775" transform="translate(348.436282 61.890069) rotate(-90) scale(0.1 -0.1)">
       <defs>
        <path id="TimesNewRomanPSMT-37" d="M 644 4238 
L 2916 4238 
L 2916 4119 
L 1503 -88 
L 1153 -88 
L 2419 3728 
L 1253 3728 
Q 900 3728 750 3644 
Q 488 3500 328 3200 
L 238 3234 
L 644 4238 
z
" transform="scale(0.015625)"/>
       </defs>
       <use xlink:href="#TimesNewRomanPSMT-37"/>
       <use xlink:href="#TimesNewRomanPSMT-35" x="50"/>
       <use xlink:href="#TimesNewRomanPSMT-2009" x="100"/>
       <use xlink:href="#TimesNewRomanPSMT-4d" x="120.019531"/>
      </g>
     </g>
    </g>
    <g id="text_23">
     <!-- uil -->
     <g style="fill: #008000; opacity: 0.775" transform="translate(351.741594 13.921357) scale(0.12 -0.12)">
      <defs>
       <path id="TimesNewRomanPSMT-75" d="M 2709 2863 
L 2709 1128 
Q 2709 631 2732 520 
Q 2756 409 2807 365 
Q 2859 322 2928 322 
Q 3025 322 3147 375 
L 3191 266 
L 2334 -88 
L 2194 -88 
L 2194 519 
Q 1825 119 1631 15 
Q 1438 -88 1222 -88 
Q 981 -88 804 51 
Q 628 191 559 409 
Q 491 628 491 1028 
L 491 2306 
Q 491 2509 447 2587 
Q 403 2666 317 2708 
Q 231 2750 6 2747 
L 6 2863 
L 1009 2863 
L 1009 947 
Q 1009 547 1148 422 
Q 1288 297 1484 297 
Q 1619 297 1789 381 
Q 1959 466 2194 703 
L 2194 2325 
Q 2194 2569 2105 2655 
Q 2016 2741 1734 2747 
L 1734 2863 
L 2709 2863 
z
" transform="scale(0.015625)"/>
      </defs>
      <use xlink:href="#TimesNewRomanPSMT-75"/>
      <use xlink:href="#TimesNewRomanPSMT-69" x="50"/>
      <use xlink:href="#TimesNewRomanPSMT-6c" x="77.783203"/>
     </g>
    </g>
   </g>
   <g id="line2d_35">
    <path d="M 386.9112 173.54 
L 627.21 173.54 
L 627.21 173.54 
" clip-path="url(#pca5e166a9a)" style="fill: none; stroke-dasharray: 3.7,1.6; stroke-dashoffset: 0; stroke: #008000; stroke-opacity: 0.775"/>
   </g>
   <g id="line2d_36">
    <path d="M 386.9112 159.428149 
L 393.719666 158.156601 
L 400.127634 156.699503 
L 406.135104 155.12055 
L 411.341578 153.523409 
L 415.747056 151.948546 
L 419.752036 150.296313 
L 422.555522 148.913805 
L 425.359008 147.291522 
L 428.162494 145.43859 
L 430.96598 143.348437 
L 433.769466 141.006965 
L 436.572952 138.398721 
L 438.97594 135.926247 
L 440.97843 133.502052 
L 442.98092 130.694606 
L 444.98341 127.537981 
L 447.386398 123.316342 
L 449.789386 118.639364 
L 452.192374 113.51499 
L 454.99586 106.97131 
L 457.799346 99.812506 
L 460.602832 92.028336 
L 463.406318 83.606696 
L 466.209804 74.534225 
L 469.413788 63.341763 
L 472.617772 51.247091 
L 475.821756 39.248467 
L 478.224744 30.940089 
L 479.826736 26.263989 
L 481.02823 23.327214 
L 482.229724 20.896958 
L 482.630222 20.259826 
L 483.03072 19.835401 
L 483.431218 19.613137 
L 485.03321 19.582772 
L 627.21 19.582772 
L 627.21 19.582772 
" clip-path="url(#pca5e166a9a)" style="fill: none; stroke: #008000; stroke-opacity: 0.775; stroke-linecap: square"/>
   </g>
   <g id="patch_11">
    <path d="M 358.075344 173.54 
L 358.075344 18.0432 
" style="fill: none; stroke: #000000; stroke-width: 0.8; stroke-linejoin: miter; stroke-linecap: square"/>
   </g>
   <g id="patch_12">
    <path d="M 627.21 173.54 
L 627.21 18.0432 
" style="fill: none; stroke: #000000; stroke-width: 0.8; stroke-linejoin: miter; stroke-linecap: square"/>
   </g>
   <g id="patch_13">
    <path d="M 386.9112 173.54 
L 627.21 173.54 
" style="fill: none; stroke: #000000; stroke-width: 0.8; stroke-linejoin: miter; stroke-linecap: square"/>
   </g>
   <g id="patch_14">
    <path d="M 386.9112 18.0432 
L 627.21 18.0432 
" style="fill: none; stroke: #000000; stroke-width: 0.8; stroke-linejoin: miter; stroke-linecap: square"/>
   </g>
  </g>
  <g id="axes_4">
   <g id="matplotlib.axis_5">
    <g id="ytick_13">
     <g id="line2d_37">
      <defs>
       <path id="mf4024a6273" d="M 0 0 
L -4 0 
" style="stroke: #008000; stroke-width: 1.5"/>
      </defs>
      <g>
       <use xlink:href="#mf4024a6273" x="343.657416" y="173.54" style="fill: #008000; stroke: #008000; stroke-width: 1.5"/>
      </g>
     </g>
     <g id="text_24">
      <!-- 0 -->
      <g style="fill: #008000" transform="translate(334.018354 175.068125) rotate(-90) scale(0.1 -0.1)">
       <use xlink:href="#TimesNewRomanPSMT-30"/>
      </g>
     </g>
    </g>
    <g id="ytick_14">
     <g id="line2d_38">
      <g>
       <use xlink:href="#mf4024a6273" x="343.657416" y="122.220924" style="fill: #008000; stroke: #008000; stroke-width: 1.5"/>
      </g>
     </g>
     <g id="text_25">
      <!-- 200 -->
      <g style="fill: #008000" transform="translate(334.018354 133.749049) rotate(-90) scale(0.1 -0.1)">
       <use xlink:href="#TimesNewRomanPSMT-32"/>
       <use xlink:href="#TimesNewRomanPSMT-30" x="50"/>
       <use xlink:href="#TimesNewRomanPSMT-30" x="100"/>
      </g>
     </g>
    </g>
    <g id="ytick_15">
     <g id="line2d_39">
      <g>
       <use xlink:href="#mf4024a6273" x="343.657416" y="70.901848" style="fill: #008000; stroke: #008000; stroke-width: 1.5"/>
      </g>
     </g>
     <g id="text_26">
      <!-- 400 -->
      <g style="fill: #008000" transform="translate(334.018354 82.429973) rotate(-90) scale(0.1 -0.1)">
       <defs>
        <path id="TimesNewRomanPSMT-34" d="M 2978 1563 
L 2978 1119 
L 2409 1119 
L 2409 0 
L 1894 0 
L 1894 1119 
L 100 1119 
L 100 1519 
L 2066 4325 
L 2409 4325 
L 2409 1563 
L 2978 1563 
z
M 1894 1563 
L 1894 3666 
L 406 1563 
L 1894 1563 
z
" transform="scale(0.015625)"/>
       </defs>
       <use xlink:href="#TimesNewRomanPSMT-34"/>
       <use xlink:href="#TimesNewRomanPSMT-30" x="50"/>
       <use xlink:href="#TimesNewRomanPSMT-30" x="100"/>
      </g>
     </g>
    </g>
    <g id="ytick_16">
     <g id="line2d_40">
      <g>
       <use xlink:href="#mf4024a6273" x="343.657416" y="19.582772" style="fill: #008000; stroke: #008000; stroke-width: 1.5"/>
      </g>
     </g>
     <g id="text_27">
      <!-- 600 -->
      <g style="fill: #008000" transform="translate(334.018354 31.110897) rotate(-90) scale(0.1 -0.1)">
       <use xlink:href="#TimesNewRomanPSMT-36"/>
       <use xlink:href="#TimesNewRomanPSMT-30" x="50"/>
       <use xlink:href="#TimesNewRomanPSMT-30" x="100"/>
      </g>
     </g>
    </g>
    <g id="text_28">
     <!-- lfert -->
     <g style="fill: #008000" transform="translate(333.664604 13.921357) scale(0.12 -0.12)">
      <defs>
       <path id="TimesNewRomanPSMT-66" d="M 1319 2638 
L 1319 756 
Q 1319 356 1406 250 
Q 1522 113 1716 113 
L 1975 113 
L 1975 0 
L 266 0 
L 266 113 
L 394 113 
Q 519 113 622 175 
Q 725 238 764 344 
Q 803 450 803 756 
L 803 2638 
L 247 2638 
L 247 2863 
L 803 2863 
L 803 3050 
Q 803 3478 940 3775 
Q 1078 4072 1361 4255 
Q 1644 4438 1997 4438 
Q 2325 4438 2600 4225 
Q 2781 4084 2781 3909 
Q 2781 3816 2700 3733 
Q 2619 3650 2525 3650 
Q 2453 3650 2373 3701 
Q 2294 3753 2178 3923 
Q 2063 4094 1966 4153 
Q 1869 4213 1750 4213 
Q 1606 4213 1506 4136 
Q 1406 4059 1362 3898 
Q 1319 3738 1319 3069 
L 1319 2863 
L 2056 2863 
L 2056 2638 
L 1319 2638 
z
" transform="scale(0.015625)"/>
      </defs>
      <use xlink:href="#TimesNewRomanPSMT-6c"/>
      <use xlink:href="#TimesNewRomanPSMT-66" x="27.783203"/>
      <use xlink:href="#TimesNewRomanPSMT-65" x="61.083984"/>
      <use xlink:href="#TimesNewRomanPSMT-72" x="105.46875"/>
      <use xlink:href="#TimesNewRomanPSMT-74" x="138.769531"/>
     </g>
    </g>
   </g>
   <g id="line2d_41">
    <path d="M 386.9112 173.54 
L 627.21 173.54 
L 627.21 173.54 
" clip-path="url(#pca5e166a9a)" style="fill: none; stroke-dasharray: 3.7,1.6; stroke-dashoffset: 0; stroke: #008000"/>
   </g>
   <g id="line2d_42">
    <path d="M 386.9112 19.582772 
L 388.112694 19.898428 
L 389.714686 20.013799 
L 402.130124 20.282328 
L 411.341578 21.058284 
L 420.95353 21.779507 
L 429.764486 22.436098 
L 440.97843 23.592261 
L 444.98341 24.150428 
L 448.98839 24.937111 
L 452.592872 25.865272 
L 456.197354 27.018812 
L 459.801836 28.421734 
L 463.406318 30.07692 
L 467.411298 32.191128 
L 471.01578 34.332082 
L 474.219764 36.481788 
L 476.622752 38.32368 
L 479.02574 40.471568 
L 481.02823 42.570441 
L 483.03072 44.981163 
L 484.632712 47.175453 
L 486.234704 49.762599 
L 487.436198 52.110124 
L 489.438688 56.638445 
L 491.841676 63.165674 
L 495.846656 74.549454 
L 497.04815 77.092329 
L 497.849146 78.424921 
L 498.650142 79.446829 
L 499.451138 80.148848 
L 500.252134 80.527556 
L 501.05313 80.610915 
L 502.254624 80.49951 
L 503.456118 80.113334 
L 504.657612 79.441344 
L 505.859106 78.492503 
L 508.262094 76.132897 
L 510.665082 73.495419 
L 513.06807 70.550681 
L 516.272054 66.22392 
L 529.08799 48.325693 
L 532.692472 43.880992 
L 535.896456 40.284843 
L 539.10044 37.044987 
L 541.903926 34.511546 
L 544.707412 32.263419 
L 547.510898 30.297909 
L 550.314384 28.587016 
L 553.518368 26.906891 
L 556.722352 25.487821 
L 559.926336 24.301126 
L 563.530818 23.210803 
L 567.1353 22.343997 
L 571.14028 21.599491 
L 575.946256 20.947824 
L 581.553228 20.435114 
L 588.361694 20.054778 
L 597.17265 19.796765 
L 610.789582 19.642859 
L 627.21 19.595117 
L 627.21 19.595117 
" clip-path="url(#pca5e166a9a)" style="fill: none; stroke: #008000; stroke-linecap: square"/>
   </g>
   <g id="patch_15">
    <path d="M 343.657416 173.54 
L 343.657416 18.0432 
" style="fill: none; stroke: #000000; stroke-width: 0.8; stroke-linejoin: miter; stroke-linecap: square"/>
   </g>
   <g id="patch_16">
    <path d="M 627.21 173.54 
L 627.21 18.0432 
" style="fill: none; stroke: #000000; stroke-width: 0.8; stroke-linejoin: miter; stroke-linecap: square"/>
   </g>
   <g id="patch_17">
    <path d="M 386.9112 173.54 
L 627.21 173.54 
" style="fill: none; stroke: #000000; stroke-width: 0.8; stroke-linejoin: miter; stroke-linecap: square"/>
   </g>
   <g id="patch_18">
    <path d="M 386.9112 18.0432 
L 627.21 18.0432 
" style="fill: none; stroke: #000000; stroke-width: 0.8; stroke-linejoin: miter; stroke-linecap: square"/>
   </g>
  </g>
  <g id="axes_5">
   <g id="matplotlib.axis_6">
    <g id="ytick_17">
     <g id="line2d_43">
      <defs>
       <path id="md0dd2b9e36" d="M 0 0 
L -4 0 
" style="stroke: #4169e1; stroke-opacity: 0.55; stroke-width: 1.5"/>
      </defs>
      <g>
       <use xlink:href="#md0dd2b9e36" x="329.239488" y="173.54" style="fill: #4169e1; fill-opacity: 0.55; stroke: #4169e1; stroke-opacity: 0.55; stroke-width: 1.5"/>
      </g>
     </g>
     <g id="text_29">
      <!-- 0 -->
      <g style="fill: #4169e1; opacity: 0.55" transform="translate(319.600426 175.068125) rotate(-90) scale(0.1 -0.1)">
       <use xlink:href="#TimesNewRomanPSMT-30"/>
      </g>
     </g>
    </g>
    <g id="ytick_18">
     <g id="line2d_44">
      <g>
       <use xlink:href="#md0dd2b9e36" x="329.239488" y="127.436189" style="fill: #4169e1; fill-opacity: 0.55; stroke: #4169e1; stroke-opacity: 0.55; stroke-width: 1.5"/>
      </g>
     </g>
     <g id="text_30">
      <!-- 3 T -->
      <g style="fill: #4169e1; opacity: 0.55" transform="translate(319.600426 137.073689) rotate(-90) scale(0.1 -0.1)">
       <defs>
        <path id="TimesNewRomanPSMT-33" d="M 325 3431 
Q 506 3859 782 4092 
Q 1059 4325 1472 4325 
Q 1981 4325 2253 3994 
Q 2459 3747 2459 3466 
Q 2459 3003 1878 2509 
Q 2269 2356 2469 2072 
Q 2669 1788 2669 1403 
Q 2669 853 2319 450 
Q 1863 -75 997 -75 
Q 569 -75 414 31 
Q 259 138 259 259 
Q 259 350 332 419 
Q 406 488 509 488 
Q 588 488 669 463 
Q 722 447 909 348 
Q 1097 250 1169 231 
Q 1284 197 1416 197 
Q 1734 197 1970 444 
Q 2206 691 2206 1028 
Q 2206 1275 2097 1509 
Q 2016 1684 1919 1775 
Q 1784 1900 1550 2001 
Q 1316 2103 1072 2103 
L 972 2103 
L 972 2197 
Q 1219 2228 1467 2375 
Q 1716 2522 1828 2728 
Q 1941 2934 1941 3181 
Q 1941 3503 1739 3701 
Q 1538 3900 1238 3900 
Q 753 3900 428 3381 
L 325 3431 
z
" transform="scale(0.015625)"/>
        <path id="TimesNewRomanPSMT-54" d="M 3703 4238 
L 3750 3244 
L 3631 3244 
Q 3597 3506 3538 3619 
Q 3441 3800 3280 3886 
Q 3119 3972 2856 3972 
L 2259 3972 
L 2259 734 
Q 2259 344 2344 247 
Q 2463 116 2709 116 
L 2856 116 
L 2856 0 
L 1059 0 
L 1059 116 
L 1209 116 
Q 1478 116 1591 278 
Q 1659 378 1659 734 
L 1659 3972 
L 1150 3972 
Q 853 3972 728 3928 
Q 566 3869 450 3700 
Q 334 3531 313 3244 
L 194 3244 
L 244 4238 
L 3703 4238 
z
" transform="scale(0.015625)"/>
       </defs>
       <use xlink:href="#TimesNewRomanPSMT-33"/>
       <use xlink:href="#TimesNewRomanPSMT-2009" x="50"/>
       <use xlink:href="#TimesNewRomanPSMT-54" x="70.019531"/>
      </g>
     </g>
    </g>
    <g id="ytick_19">
     <g id="line2d_45">
      <g>
       <use xlink:href="#md0dd2b9e36" x="329.239488" y="81.332377" style="fill: #4169e1; fill-opacity: 0.55; stroke: #4169e1; stroke-opacity: 0.55; stroke-width: 1.5"/>
      </g>
     </g>
     <g id="text_31">
      <!-- 6 T -->
      <g style="fill: #4169e1; opacity: 0.55" transform="translate(319.600426 90.969877) rotate(-90) scale(0.1 -0.1)">
       <use xlink:href="#TimesNewRomanPSMT-36"/>
       <use xlink:href="#TimesNewRomanPSMT-2009" x="50"/>
       <use xlink:href="#TimesNewRomanPSMT-54" x="70.019531"/>
      </g>
     </g>
    </g>
    <g id="ytick_20">
     <g id="line2d_46">
      <g>
       <use xlink:href="#md0dd2b9e36" x="329.239488" y="35.228566" style="fill: #4169e1; fill-opacity: 0.55; stroke: #4169e1; stroke-opacity: 0.55; stroke-width: 1.5"/>
      </g>
     </g>
     <g id="text_32">
      <!-- 9 T -->
      <g style="fill: #4169e1; opacity: 0.55" transform="translate(319.600426 44.866066) rotate(-90) scale(0.1 -0.1)">
       <use xlink:href="#TimesNewRomanPSMT-39"/>
       <use xlink:href="#TimesNewRomanPSMT-2009" x="50"/>
       <use xlink:href="#TimesNewRomanPSMT-54" x="70.019531"/>
      </g>
     </g>
    </g>
    <g id="text_33">
     <!-- ic -->
     <g style="fill: #4169e1; opacity: 0.55" transform="translate(324.909176 13.921357) scale(0.12 -0.12)">
      <defs>
       <path id="TimesNewRomanPSMT-63" d="M 2631 1088 
Q 2516 522 2178 217 
Q 1841 -88 1431 -88 
Q 944 -88 581 321 
Q 219 731 219 1428 
Q 219 2103 620 2525 
Q 1022 2947 1584 2947 
Q 2006 2947 2278 2723 
Q 2550 2500 2550 2259 
Q 2550 2141 2473 2067 
Q 2397 1994 2259 1994 
Q 2075 1994 1981 2113 
Q 1928 2178 1911 2362 
Q 1894 2547 1784 2644 
Q 1675 2738 1481 2738 
Q 1169 2738 978 2506 
Q 725 2200 725 1697 
Q 725 1184 976 792 
Q 1228 400 1656 400 
Q 1963 400 2206 609 
Q 2378 753 2541 1131 
L 2631 1088 
z
" transform="scale(0.015625)"/>
      </defs>
      <use xlink:href="#TimesNewRomanPSMT-69"/>
      <use xlink:href="#TimesNewRomanPSMT-63" x="27.783203"/>
     </g>
    </g>
   </g>
   <g id="line2d_47">
    <path d="M 386.9112 173.54 
L 627.21 173.54 
L 627.21 173.54 
" clip-path="url(#pca5e166a9a)" style="fill: none; stroke-dasharray: 3.7,1.6; stroke-dashoffset: 0; stroke: #4169e1; stroke-opacity: 0.55"/>
   </g>
   <g id="line2d_48">
    <path d="M 386.9112 170.312733 
L 394.520662 168.980406 
L 399.727136 167.846133 
L 404.132614 166.650913 
L 408.137594 165.324887 
L 411.742076 163.89369 
L 414.94606 162.395988 
L 418.150044 160.648098 
L 421.354028 158.616497 
L 424.157514 156.593532 
L 426.961 154.306273 
L 429.764486 151.719819 
L 432.567972 148.794427 
L 434.97096 145.975901 
L 437.373948 142.842763 
L 439.776936 139.378242 
L 442.580422 134.967412 
L 445.383908 130.185069 
L 448.187394 124.982079 
L 450.99088 119.324309 
L 453.794366 113.184493 
L 456.597852 106.54409 
L 459.401338 99.386332 
L 462.605322 90.548624 
L 465.809306 80.98718 
L 469.01329 70.656455 
L 472.217274 59.568243 
L 480.627732 29.590286 
L 482.229724 24.969273 
L 483.431218 22.190223 
L 484.232214 20.880171 
L 485.03321 20.026257 
L 485.834206 19.620746 
L 486.635202 19.651543 
L 487.436198 20.100058 
L 488.237194 20.942533 
L 489.03819 22.148801 
L 490.239684 24.486723 
L 491.441178 27.346226 
L 493.04317 31.859129 
L 494.645162 37.101322 
L 496.647652 44.403899 
L 499.851636 57.042417 
L 505.458608 79.230938 
L 509.06309 92.557633 
L 511.866576 102.178847 
L 514.670062 111.011777 
L 517.07305 117.925521 
L 519.476038 124.229973 
L 521.879026 129.937495 
L 524.282014 135.076328 
L 526.685002 139.681847 
L 529.08799 143.794587 
L 531.490978 147.454554 
L 533.893966 150.701238 
L 536.296954 153.578324 
L 538.699942 156.139465 
L 541.10293 158.414768 
L 543.505918 160.426324 
L 546.309404 162.468879 
L 549.11289 164.217241 
L 551.916376 165.70464 
L 555.12036 167.135624 
L 558.324344 168.321964 
L 561.928826 169.410605 
L 565.933806 170.368937 
L 570.339284 171.17919 
L 575.14526 171.837491 
L 580.752232 172.384158 
L 587.560698 172.823004 
L 596.371654 173.157068 
L 608.787092 173.383657 
L 627.21 173.499534 
L 627.21 173.499534 
" clip-path="url(#pca5e166a9a)" style="fill: none; stroke: #4169e1; stroke-opacity: 0.55; stroke-linecap: square"/>
   </g>
   <g id="patch_19">
    <path d="M 329.239488 173.54 
L 329.239488 18.0432 
" style="fill: none; stroke: #000000; stroke-width: 0.8; stroke-linejoin: miter; stroke-linecap: square"/>
   </g>
   <g id="patch_20">
    <path d="M 627.21 173.54 
L 627.21 18.0432 
" style="fill: none; stroke: #000000; stroke-width: 0.8; stroke-linejoin: miter; stroke-linecap: square"/>
   </g>
   <g id="patch_21">
    <path d="M 386.9112 173.54 
L 627.21 173.54 
" style="fill: none; stroke: #000000; stroke-width: 0.8; stroke-linejoin: miter; stroke-linecap: square"/>
   </g>
   <g id="patch_22">
    <path d="M 386.9112 18.0432 
L 627.21 18.0432 
" style="fill: none; stroke: #000000; stroke-width: 0.8; stroke-linejoin: miter; stroke-linecap: square"/>
   </g>
  </g>
  <g id="axes_6">
   <g id="matplotlib.axis_7">
    <g id="ytick_21">
     <g id="line2d_49">
      <defs>
       <path id="mab08350681" d="M 0 0 
L -4 0 
" style="stroke: #4169e1; stroke-width: 1.5"/>
      </defs>
      <g>
       <use xlink:href="#mab08350681" x="314.82156" y="173.54" style="fill: #4169e1; stroke: #4169e1; stroke-width: 1.5"/>
      </g>
     </g>
     <g id="text_34">
      <!-- 0 -->
      <g style="fill: #4169e1" transform="translate(305.182498 175.068125) rotate(-90) scale(0.1 -0.1)">
       <use xlink:href="#TimesNewRomanPSMT-30"/>
      </g>
     </g>
    </g>
    <g id="ytick_22">
     <g id="line2d_50">
      <g>
       <use xlink:href="#mab08350681" x="314.82156" y="120.240712" style="fill: #4169e1; stroke: #4169e1; stroke-width: 1.5"/>
      </g>
     </g>
     <g id="text_35">
      <!-- 2 T -->
      <g style="fill: #4169e1" transform="translate(305.182498 129.878212) rotate(-90) scale(0.1 -0.1)">
       <use xlink:href="#TimesNewRomanPSMT-32"/>
       <use xlink:href="#TimesNewRomanPSMT-2009" x="50"/>
       <use xlink:href="#TimesNewRomanPSMT-54" x="70.019531"/>
      </g>
     </g>
    </g>
    <g id="ytick_23">
     <g id="line2d_51">
      <g>
       <use xlink:href="#mab08350681" x="314.82156" y="66.941424" style="fill: #4169e1; stroke: #4169e1; stroke-width: 1.5"/>
      </g>
     </g>
     <g id="text_36">
      <!-- 3 T -->
      <g style="fill: #4169e1" transform="translate(305.182498 76.578924) rotate(-90) scale(0.1 -0.1)">
       <use xlink:href="#TimesNewRomanPSMT-33"/>
       <use xlink:href="#TimesNewRomanPSMT-2009" x="50"/>
       <use xlink:href="#TimesNewRomanPSMT-54" x="70.019531"/>
      </g>
     </g>
    </g>
    <g id="text_37">
     <!-- sc -->
     <g style="fill: #4169e1" transform="translate(309.82281 13.921357) scale(0.12 -0.12)">
      <use xlink:href="#TimesNewRomanPSMT-73"/>
      <use xlink:href="#TimesNewRomanPSMT-63" x="38.916016"/>
     </g>
    </g>
   </g>
   <g id="line2d_52">
    <path d="M 386.9112 173.54 
L 627.21 173.54 
L 627.21 173.54 
" clip-path="url(#pca5e166a9a)" style="fill: none; stroke-dasharray: 3.7,1.6; stroke-dashoffset: 0; stroke: #4169e1"/>
   </g>
   <g id="line2d_53">
    <path d="M 386.9112 168.423268 
L 389.714686 168.317805 
L 392.91867 167.956615 
L 396.92365 167.26466 
L 401.329128 166.264958 
L 405.334108 165.140866 
L 409.339088 163.78345 
L 412.94357 162.326211 
L 416.147554 160.809579 
L 419.351538 159.048678 
L 422.155024 157.267771 
L 424.95851 155.23655 
L 427.761996 152.935777 
L 430.565482 150.335781 
L 433.368968 147.400394 
L 435.771956 144.582975 
L 438.174944 141.455826 
L 440.177434 138.543724 
L 442.580422 134.601865 
L 444.98341 130.233806 
L 447.786896 124.63071 
L 450.590382 118.47736 
L 453.393868 111.750177 
L 456.197354 104.422162 
L 459.00084 96.468322 
L 461.804326 87.863582 
L 464.607812 78.582811 
L 467.411298 68.598489 
L 470.615282 56.289062 
L 475.421258 37.340066 
L 477.423748 30.4913 
L 478.625242 26.97568 
L 479.826736 24.19393 
L 481.02823 21.91611 
L 482.229724 20.142973 
L 482.630222 19.738939 
L 483.03072 19.582772 
L 483.431218 19.660717 
L 483.831716 19.95953 
L 484.232214 20.466278 
L 485.03321 22.05314 
L 485.834206 24.321433 
L 487.0357 28.789978 
L 488.237194 34.263926 
L 491.04068 48.767484 
L 494.244664 64.979289 
L 497.04815 77.901535 
L 499.851636 89.693026 
L 502.254624 98.885047 
L 504.657612 107.217589 
L 507.0606 114.702602 
L 509.463588 121.38704 
L 511.866576 127.330903 
L 514.269564 132.594682 
L 516.672552 137.240469 
L 519.07554 141.331207 
L 521.478528 144.928598 
L 523.881516 148.089585 
L 526.284504 150.866338 
L 528.687492 153.305841 
L 531.09048 155.450431 
L 533.893966 157.630381 
L 536.697452 159.513844 
L 539.500938 161.147555 
L 542.704922 162.762572 
L 546.309404 164.315946 
L 550.314384 165.775261 
L 554.319364 166.979634 
L 558.724842 168.064218 
L 563.931316 169.108928 
L 569.938786 170.077316 
L 576.747252 170.941938 
L 584.356714 171.681047 
L 593.16767 172.303721 
L 603.18012 172.782292 
L 615.595558 173.140879 
L 627.21 173.32697 
L 627.21 173.32697 
" clip-path="url(#pca5e166a9a)" style="fill: none; stroke: #4169e1; stroke-linecap: square"/>
   </g>
   <g id="patch_23">
    <path d="M 314.82156 173.54 
L 314.82156 18.0432 
" style="fill: none; stroke: #000000; stroke-width: 0.8; stroke-linejoin: miter; stroke-linecap: square"/>
   </g>
   <g id="patch_24">
    <path d="M 627.21 173.54 
L 627.21 18.0432 
" style="fill: none; stroke: #000000; stroke-width: 0.8; stroke-linejoin: miter; stroke-linecap: square"/>
   </g>
   <g id="patch_25">
    <path d="M 386.9112 173.54 
L 627.21 173.54 
" style="fill: none; stroke: #000000; stroke-width: 0.8; stroke-linejoin: miter; stroke-linecap: square"/>
   </g>
   <g id="patch_26">
    <path d="M 386.9112 18.0432 
L 627.21 18.0432 
" style="fill: none; stroke: #000000; stroke-width: 0.8; stroke-linejoin: miter; stroke-linecap: square"/>
   </g>
  </g>
  <g id="axes_7">
   <g id="matplotlib.axis_8">
    <g id="ytick_24">
     <g id="line2d_54">
      <defs>
       <path id="m68b2496b10" d="M 0 0 
L -4 0 
" style="stroke: #d2691e; stroke-width: 1.5"/>
      </defs>
      <g>
       <use xlink:href="#m68b2496b10" x="300.403632" y="173.54" style="fill: #d2691e; stroke: #d2691e; stroke-width: 1.5"/>
      </g>
     </g>
     <g id="text_38">
      <!-- 0 -->
      <g style="fill: #d2691e" transform="translate(290.76457 175.068125) rotate(-90) scale(0.1 -0.1)">
       <use xlink:href="#TimesNewRomanPSMT-30"/>
      </g>
     </g>
    </g>
    <g id="ytick_25">
     <g id="line2d_55">
      <g>
       <use xlink:href="#m68b2496b10" x="300.403632" y="132.381705" style="fill: #d2691e; stroke: #d2691e; stroke-width: 1.5"/>
      </g>
     </g>
     <g id="text_39">
      <!-- 400 M -->
      <g style="fill: #d2691e" transform="translate(290.76457 154.80358) rotate(-90) scale(0.1 -0.1)">
       <use xlink:href="#TimesNewRomanPSMT-34"/>
       <use xlink:href="#TimesNewRomanPSMT-30" x="50"/>
       <use xlink:href="#TimesNewRomanPSMT-30" x="100"/>
       <use xlink:href="#TimesNewRomanPSMT-2009" x="150"/>
       <use xlink:href="#TimesNewRomanPSMT-4d" x="170.019531"/>
      </g>
     </g>
    </g>
    <g id="ytick_26">
     <g id="line2d_56">
      <g>
       <use xlink:href="#m68b2496b10" x="300.403632" y="91.22341" style="fill: #d2691e; stroke: #d2691e; stroke-width: 1.5"/>
      </g>
     </g>
     <g id="text_40">
      <!-- 800 M -->
      <g style="fill: #d2691e" transform="translate(290.76457 113.645285) rotate(-90) scale(0.1 -0.1)">
       <use xlink:href="#TimesNewRomanPSMT-38"/>
       <use xlink:href="#TimesNewRomanPSMT-30" x="50"/>
       <use xlink:href="#TimesNewRomanPSMT-30" x="100"/>
       <use xlink:href="#TimesNewRomanPSMT-2009" x="150"/>
       <use xlink:href="#TimesNewRomanPSMT-4d" x="170.019531"/>
      </g>
     </g>
    </g>
    <g id="ytick_27">
     <g id="line2d_57">
      <g>
       <use xlink:href="#m68b2496b10" x="300.403632" y="50.065115" style="fill: #d2691e; stroke: #d2691e; stroke-width: 1.5"/>
      </g>
     </g>
     <g id="text_41">
      <!-- 1 G -->
      <g style="fill: #d2691e" transform="translate(290.76457 60.816678) rotate(-90) scale(0.1 -0.1)">
       <use xlink:href="#TimesNewRomanPSMT-31"/>
       <use xlink:href="#TimesNewRomanPSMT-2009" x="50"/>
       <use xlink:href="#TimesNewRomanPSMT-47" x="70.019531"/>
      </g>
     </g>
    </g>
    <g id="text_42">
     <!-- ppol -->
     <g style="fill: #d2691e" transform="translate(289.736757 13.921357) scale(0.12 -0.12)">
      <defs>
       <path id="TimesNewRomanPSMT-6f" d="M 1600 2947 
Q 2250 2947 2644 2453 
Q 2978 2031 2978 1484 
Q 2978 1100 2793 706 
Q 2609 313 2286 112 
Q 1963 -88 1566 -88 
Q 919 -88 538 428 
Q 216 863 216 1403 
Q 216 1797 411 2186 
Q 606 2575 925 2761 
Q 1244 2947 1600 2947 
z
M 1503 2744 
Q 1338 2744 1170 2645 
Q 1003 2547 900 2300 
Q 797 2053 797 1666 
Q 797 1041 1045 587 
Q 1294 134 1700 134 
Q 2003 134 2200 384 
Q 2397 634 2397 1244 
Q 2397 2006 2069 2444 
Q 1847 2744 1503 2744 
z
" transform="scale(0.015625)"/>
      </defs>
      <use xlink:href="#TimesNewRomanPSMT-70"/>
      <use xlink:href="#TimesNewRomanPSMT-70" x="50"/>
      <use xlink:href="#TimesNewRomanPSMT-6f" x="100"/>
      <use xlink:href="#TimesNewRomanPSMT-6c" x="150"/>
     </g>
    </g>
   </g>
   <g id="line2d_58">
    <path d="M 386.9112 173.54 
L 627.21 173.54 
L 627.21 173.54 
" clip-path="url(#pca5e166a9a)" style="fill: none; stroke-dasharray: 3.7,1.6; stroke-dashoffset: 0; stroke: #d2691e"/>
   </g>
   <g id="line2d_59">
    <path d="M 386.9112 170.967607 
L 387.712196 171.904607 
L 388.513192 172.448341 
L 389.714686 172.862944 
L 391.316678 173.052767 
L 393.319168 173.038594 
L 396.523152 172.764937 
L 401.329128 172.093451 
L 410.140084 170.598487 
L 417.349048 169.190489 
L 422.555522 167.965555 
L 426.961 166.716725 
L 430.96598 165.35645 
L 434.570462 163.909558 
L 438.174944 162.214772 
L 441.378928 160.465878 
L 444.182414 158.700031 
L 446.585402 156.909748 
L 448.98839 154.807583 
L 450.99088 152.774271 
L 452.99337 150.450746 
L 454.99586 147.80986 
L 456.99835 144.828654 
L 459.00084 141.487197 
L 461.00333 137.767165 
L 463.406318 132.77774 
L 465.809306 127.181662 
L 468.212294 120.92391 
L 470.214784 115.137662 
L 472.217274 108.759891 
L 474.219764 101.717722 
L 476.222254 93.942007 
L 478.625242 83.60235 
L 481.02823 72.224541 
L 484.232214 55.879583 
L 487.836696 37.577966 
L 489.438688 30.546969 
L 490.640182 26.170707 
L 491.841676 22.792807 
L 492.642672 21.177158 
L 493.443668 20.111085 
L 493.844166 19.790991 
L 494.244664 19.614776 
L 494.645162 19.582772 
L 495.04566 19.69445 
L 495.446158 19.948444 
L 496.247154 20.874059 
L 497.04815 22.334016 
L 497.849146 24.29306 
L 499.05064 28.072529 
L 500.252134 32.713801 
L 501.854126 39.9407 
L 503.856616 50.079615 
L 511.866576 91.937018 
L 514.269564 102.83583 
L 516.272054 111.030784 
L 518.274544 118.407366 
L 520.277034 124.995343 
L 522.279524 130.847231 
L 524.282014 136.02642 
L 526.284504 140.599206 
L 528.286994 144.630085 
L 530.289484 148.17934 
L 532.291974 151.302029 
L 534.294464 154.047693 
L 536.296954 156.46052 
L 538.699942 158.971636 
L 540.702432 160.772327 
L 543.10542 162.609225 
L 545.508408 164.186209 
L 548.311894 165.759944 
L 551.11538 167.090358 
L 554.319364 168.357321 
L 557.523348 169.39415 
L 561.12783 170.329814 
L 565.13281 171.135058 
L 569.538288 171.797192 
L 574.744762 172.354606 
L 581.15273 172.807342 
L 589.16269 173.142937 
L 600.376634 173.375347 
L 618.799542 173.503316 
L 627.21 173.521714 
L 627.21 173.521714 
" clip-path="url(#pca5e166a9a)" style="fill: none; stroke: #d2691e; stroke-linecap: square"/>
   </g>
   <g id="patch_27">
    <path d="M 300.403632 173.54 
L 300.403632 18.0432 
" style="fill: none; stroke: #000000; stroke-width: 0.8; stroke-linejoin: miter; stroke-linecap: square"/>
   </g>
   <g id="patch_28">
    <path d="M 627.21 173.54 
L 627.21 18.0432 
" style="fill: none; stroke: #000000; stroke-width: 0.8; stroke-linejoin: miter; stroke-linecap: square"/>
   </g>
   <g id="patch_29">
    <path d="M 386.9112 173.54 
L 627.21 173.54 
" style="fill: none; stroke: #000000; stroke-width: 0.8; stroke-linejoin: miter; stroke-linecap: square"/>
   </g>
   <g id="patch_30">
    <path d="M 386.9112 18.0432 
L 627.21 18.0432 
" style="fill: none; stroke: #000000; stroke-width: 0.8; stroke-linejoin: miter; stroke-linecap: square"/>
   </g>
  </g>
  <g id="axes_8">
   <g id="matplotlib.axis_9">
    <g id="ytick_28">
     <g id="line2d_60">
      <defs>
       <path id="mec4ec340ef" d="M 0 0 
L -4 0 
" style="stroke: #ff0000; stroke-opacity: 0.325; stroke-width: 1.5"/>
      </defs>
      <g>
       <use xlink:href="#mec4ec340ef" x="285.985704" y="173.54" style="fill: #ff0000; fill-opacity: 0.325; stroke: #ff0000; stroke-opacity: 0.325; stroke-width: 1.5"/>
      </g>
     </g>
     <g id="text_43">
      <!-- 0 -->
      <g style="fill: #ff0000; opacity: 0.325" transform="translate(276.346642 175.068125) rotate(-90) scale(0.1 -0.1)">
       <use xlink:href="#TimesNewRomanPSMT-30"/>
      </g>
     </g>
    </g>
    <g id="ytick_29">
     <g id="line2d_61">
      <g>
       <use xlink:href="#mec4ec340ef" x="285.985704" y="133.837345" style="fill: #ff0000; fill-opacity: 0.325; stroke: #ff0000; stroke-opacity: 0.325; stroke-width: 1.5"/>
      </g>
     </g>
     <g id="text_44">
      <!-- 500 M -->
      <g style="fill: #ff0000; opacity: 0.325" transform="translate(276.346642 156.25922) rotate(-90) scale(0.1 -0.1)">
       <use xlink:href="#TimesNewRomanPSMT-35"/>
       <use xlink:href="#TimesNewRomanPSMT-30" x="50"/>
       <use xlink:href="#TimesNewRomanPSMT-30" x="100"/>
       <use xlink:href="#TimesNewRomanPSMT-2009" x="150"/>
       <use xlink:href="#TimesNewRomanPSMT-4d" x="170.019531"/>
      </g>
     </g>
    </g>
    <g id="ytick_30">
     <g id="line2d_62">
      <g>
       <use xlink:href="#mec4ec340ef" x="285.985704" y="94.134691" style="fill: #ff0000; fill-opacity: 0.325; stroke: #ff0000; stroke-opacity: 0.325; stroke-width: 1.5"/>
      </g>
     </g>
     <g id="text_45">
      <!-- 1 G -->
      <g style="fill: #ff0000; opacity: 0.325" transform="translate(276.346642 104.886253) rotate(-90) scale(0.1 -0.1)">
       <use xlink:href="#TimesNewRomanPSMT-31"/>
       <use xlink:href="#TimesNewRomanPSMT-2009" x="50"/>
       <use xlink:href="#TimesNewRomanPSMT-47" x="70.019531"/>
      </g>
     </g>
    </g>
    <g id="ytick_31">
     <g id="line2d_63">
      <g>
       <use xlink:href="#mec4ec340ef" x="285.985704" y="54.432036" style="fill: #ff0000; fill-opacity: 0.325; stroke: #ff0000; stroke-opacity: 0.325; stroke-width: 1.5"/>
      </g>
     </g>
     <g id="text_46">
      <!-- 2 G -->
      <g style="fill: #ff0000; opacity: 0.325" transform="translate(276.346642 65.183599) rotate(-90) scale(0.1 -0.1)">
       <use xlink:href="#TimesNewRomanPSMT-32"/>
       <use xlink:href="#TimesNewRomanPSMT-2009" x="50"/>
       <use xlink:href="#TimesNewRomanPSMT-47" x="70.019531"/>
      </g>
     </g>
    </g>
    <g id="text_47">
     <!-- p1 -->
     <g style="fill: #ff0000; opacity: 0.325" transform="translate(279.985704 13.921357) scale(0.12 -0.12)">
      <use xlink:href="#TimesNewRomanPSMT-70"/>
      <use xlink:href="#TimesNewRomanPSMT-31" x="50"/>
     </g>
    </g>
   </g>
   <g id="line2d_64">
    <path d="M 386.9112 173.54 
L 627.21 173.54 
L 627.21 173.54 
" clip-path="url(#pca5e166a9a)" style="fill: none; stroke-dasharray: 3.7,1.6; stroke-dashoffset: 0; stroke: #ff0000; stroke-opacity: 0.325"/>
   </g>
   <g id="line2d_65">
    <path d="M 386.9112 121.926549 
L 387.712196 122.390699 
L 388.513192 122.537993 
L 389.314188 122.460282 
L 390.91618 121.993852 
L 394.92116 120.420279 
L 399.727136 118.311446 
L 403.732116 116.303104 
L 407.737096 114.046002 
L 411.742076 111.524077 
L 416.147554 108.485487 
L 419.351538 106.087776 
L 421.354028 102.97133 
L 430.164984 89.785488 
L 434.97096 81.856922 
L 439.776936 73.54734 
L 448.98839 57.551239 
L 454.194864 48.80868 
L 460.602832 38.490737 
L 463.806816 33.780424 
L 466.209804 30.602282 
L 470.615282 25.187411 
L 472.617772 22.980099 
L 473.819266 21.968229 
L 475.421258 20.898286 
L 477.423748 19.841292 
L 478.224744 19.60813 
L 479.426238 19.64308 
L 480.627732 19.940896 
L 482.229724 20.592029 
L 482.630222 20.827768 
L 483.431218 21.748196 
L 484.232214 23.083842 
L 485.433708 25.565032 
L 487.436198 30.386313 
L 489.839186 36.227155 
L 491.441178 39.318865 
L 493.443668 42.614466 
L 498.249644 49.977099 
L 501.05313 53.916445 
L 503.456118 56.870738 
L 505.458608 59.004422 
L 509.463588 62.802509 
L 511.466078 64.38819 
L 513.468568 65.687218 
L 516.272054 67.219041 
L 520.677532 69.321678 
L 523.481018 70.337747 
L 526.284504 71.173538 
L 528.687492 71.595707 
L 530.689982 71.775297 
L 535.495958 72.13643 
L 537.09795 72.545161 
L 539.10044 73.31315 
L 542.304424 74.824879 
L 546.709902 77.137068 
L 551.11538 79.367521 
L 559.525838 83.348266 
L 567.1353 87.326921 
L 579.951236 94.023043 
L 587.1602 97.529159 
L 593.968666 100.589532 
L 600.376634 103.225788 
L 606.784602 105.620438 
L 613.593068 107.914501 
L 620.401534 109.978099 
L 627.21 111.818665 
L 627.21 111.818665 
" clip-path="url(#pca5e166a9a)" style="fill: none; stroke: #ff0000; stroke-opacity: 0.325; stroke-linecap: square"/>
   </g>
   <g id="patch_31">
    <path d="M 285.985704 173.54 
L 285.985704 18.0432 
" style="fill: none; stroke: #000000; stroke-width: 0.8; stroke-linejoin: miter; stroke-linecap: square"/>
   </g>
   <g id="patch_32">
    <path d="M 627.21 173.54 
L 627.21 18.0432 
" style="fill: none; stroke: #000000; stroke-width: 0.8; stroke-linejoin: miter; stroke-linecap: square"/>
   </g>
   <g id="patch_33">
    <path d="M 386.9112 173.54 
L 627.21 173.54 
" style="fill: none; stroke: #000000; stroke-width: 0.8; stroke-linejoin: miter; stroke-linecap: square"/>
   </g>
   <g id="patch_34">
    <path d="M 386.9112 18.0432 
L 627.21 18.0432 
" style="fill: none; stroke: #000000; stroke-width: 0.8; stroke-linejoin: miter; stroke-linecap: square"/>
   </g>
  </g>
  <g id="axes_9">
   <g id="matplotlib.axis_10">
    <g id="ytick_32">
     <g id="line2d_66">
      <defs>
       <path id="m3c11e0ffe5" d="M 0 0 
L -4 0 
" style="stroke: #ff0000; stroke-opacity: 0.55; stroke-width: 1.5"/>
      </defs>
      <g>
       <use xlink:href="#m3c11e0ffe5" x="271.567776" y="173.54" style="fill: #ff0000; fill-opacity: 0.55; stroke: #ff0000; stroke-opacity: 0.55; stroke-width: 1.5"/>
      </g>
     </g>
     <g id="text_48">
      <!-- 0 -->
      <g style="fill: #ff0000; opacity: 0.55" transform="translate(261.928714 175.068125) rotate(-90) scale(0.1 -0.1)">
       <use xlink:href="#TimesNewRomanPSMT-30"/>
      </g>
     </g>
    </g>
    <g id="ytick_33">
     <g id="line2d_67">
      <g>
       <use xlink:href="#m3c11e0ffe5" x="271.567776" y="132.152572" style="fill: #ff0000; fill-opacity: 0.55; stroke: #ff0000; stroke-opacity: 0.55; stroke-width: 1.5"/>
      </g>
     </g>
     <g id="text_49">
      <!-- 800 M -->
      <g style="fill: #ff0000; opacity: 0.55" transform="translate(261.928714 154.574447) rotate(-90) scale(0.1 -0.1)">
       <use xlink:href="#TimesNewRomanPSMT-38"/>
       <use xlink:href="#TimesNewRomanPSMT-30" x="50"/>
       <use xlink:href="#TimesNewRomanPSMT-30" x="100"/>
       <use xlink:href="#TimesNewRomanPSMT-2009" x="150"/>
       <use xlink:href="#TimesNewRomanPSMT-4d" x="170.019531"/>
      </g>
     </g>
    </g>
    <g id="ytick_34">
     <g id="line2d_68">
      <g>
       <use xlink:href="#m3c11e0ffe5" x="271.567776" y="90.765144" style="fill: #ff0000; fill-opacity: 0.55; stroke: #ff0000; stroke-opacity: 0.55; stroke-width: 1.5"/>
      </g>
     </g>
     <g id="text_50">
      <!-- 2 G -->
      <g style="fill: #ff0000; opacity: 0.55" transform="translate(261.928714 101.516706) rotate(-90) scale(0.1 -0.1)">
       <use xlink:href="#TimesNewRomanPSMT-32"/>
       <use xlink:href="#TimesNewRomanPSMT-2009" x="50"/>
       <use xlink:href="#TimesNewRomanPSMT-47" x="70.019531"/>
      </g>
     </g>
    </g>
    <g id="ytick_35">
     <g id="line2d_69">
      <g>
       <use xlink:href="#m3c11e0ffe5" x="271.567776" y="49.377716" style="fill: #ff0000; fill-opacity: 0.55; stroke: #ff0000; stroke-opacity: 0.55; stroke-width: 1.5"/>
      </g>
     </g>
     <g id="text_51">
      <!-- 2 G -->
      <g style="fill: #ff0000; opacity: 0.55" transform="translate(261.928714 60.129278) rotate(-90) scale(0.1 -0.1)">
       <use xlink:href="#TimesNewRomanPSMT-32"/>
       <use xlink:href="#TimesNewRomanPSMT-2009" x="50"/>
       <use xlink:href="#TimesNewRomanPSMT-47" x="70.019531"/>
      </g>
     </g>
    </g>
    <g id="text_52">
     <!-- p2 -->
     <g style="fill: #ff0000; opacity: 0.55" transform="translate(265.567776 13.921357) scale(0.12 -0.12)">
      <use xlink:href="#TimesNewRomanPSMT-70"/>
      <use xlink:href="#TimesNewRomanPSMT-32" x="50"/>
     </g>
    </g>
   </g>
   <g id="line2d_70">
    <path d="M 386.9112 173.54 
L 627.21 173.54 
L 627.21 173.54 
" clip-path="url(#pca5e166a9a)" style="fill: none; stroke-dasharray: 3.7,1.6; stroke-dashoffset: 0; stroke: #ff0000; stroke-opacity: 0.55"/>
   </g>
   <g id="line2d_71">
    <path d="M 386.9112 137.326 
L 389.714686 136.451698 
L 398.525642 133.85189 
L 403.732116 132.085169 
L 408.538092 130.216172 
L 412.94357 128.253935 
L 417.349048 126.053665 
L 419.752036 124.667348 
L 422.155024 122.704445 
L 424.95851 120.119947 
L 427.761996 117.24706 
L 430.565482 114.081375 
L 433.769466 110.100087 
L 436.97345 105.754817 
L 440.177434 101.035031 
L 443.781916 95.332439 
L 447.786896 88.578045 
L 452.592872 80.042382 
L 458.199844 69.59562 
L 478.224744 31.80253 
L 480.627732 27.822352 
L 482.630222 24.850374 
L 484.232214 22.801231 
L 485.433708 21.558584 
L 486.635202 20.615979 
L 487.836696 19.981727 
L 489.03819 19.648962 
L 490.239684 19.591118 
L 491.441178 19.763789 
L 492.642672 20.140092 
L 493.844166 20.720381 
L 495.04566 21.499135 
L 496.247154 22.502952 
L 497.849146 24.146393 
L 499.851636 26.591961 
L 502.254624 29.928508 
L 505.859106 35.382716 
L 509.463588 41.20786 
L 515.871556 51.636569 
L 519.476038 57.066244 
L 523.08052 62.132406 
L 526.284504 66.225701 
L 529.08799 69.44361 
L 531.891476 72.317343 
L 535.09546 75.264849 
L 539.10044 78.629541 
L 544.306914 82.699805 
L 550.714882 87.466234 
L 555.12036 90.471953 
L 559.926336 93.480296 
L 565.533308 96.715235 
L 571.540778 99.922412 
L 577.948746 103.091766 
L 584.356714 106.02288 
L 591.16518 108.887412 
L 597.973646 111.501358 
L 604.782112 113.871278 
L 611.590578 116.005855 
L 618.799542 118.025961 
L 626.008506 119.819775 
L 627.21 120.098044 
L 627.21 120.098044 
" clip-path="url(#pca5e166a9a)" style="fill: none; stroke: #ff0000; stroke-opacity: 0.55; stroke-linecap: square"/>
   </g>
   <g id="patch_35">
    <path d="M 271.567776 173.54 
L 271.567776 18.0432 
" style="fill: none; stroke: #000000; stroke-width: 0.8; stroke-linejoin: miter; stroke-linecap: square"/>
   </g>
   <g id="patch_36">
    <path d="M 627.21 173.54 
L 627.21 18.0432 
" style="fill: none; stroke: #000000; stroke-width: 0.8; stroke-linejoin: miter; stroke-linecap: square"/>
   </g>
   <g id="patch_37">
    <path d="M 386.9112 173.54 
L 627.21 173.54 
" style="fill: none; stroke: #000000; stroke-width: 0.8; stroke-linejoin: miter; stroke-linecap: square"/>
   </g>
   <g id="patch_38">
    <path d="M 386.9112 18.0432 
L 627.21 18.0432 
" style="fill: none; stroke: #000000; stroke-width: 0.8; stroke-linejoin: miter; stroke-linecap: square"/>
   </g>
  </g>
  <g id="axes_10">
   <g id="matplotlib.axis_11">
    <g id="ytick_36">
     <g id="line2d_72">
      <defs>
       <path id="mf0fb94a5f7" d="M 0 0 
L -4 0 
" style="stroke: #ff0000; stroke-opacity: 0.775; stroke-width: 1.5"/>
      </defs>
      <g>
       <use xlink:href="#mf0fb94a5f7" x="257.149848" y="173.54" style="fill: #ff0000; fill-opacity: 0.775; stroke: #ff0000; stroke-opacity: 0.775; stroke-width: 1.5"/>
      </g>
     </g>
     <g id="text_53">
      <!-- 0 -->
      <g style="fill: #ff0000; opacity: 0.775" transform="translate(247.510786 175.068125) rotate(-90) scale(0.1 -0.1)">
       <use xlink:href="#TimesNewRomanPSMT-30"/>
      </g>
     </g>
    </g>
    <g id="ytick_37">
     <g id="line2d_73">
      <g>
       <use xlink:href="#mf0fb94a5f7" x="257.149848" y="130.994534" style="fill: #ff0000; fill-opacity: 0.775; stroke: #ff0000; stroke-opacity: 0.775; stroke-width: 1.5"/>
      </g>
     </g>
     <g id="text_54">
      <!-- 400 M -->
      <g style="fill: #ff0000; opacity: 0.775" transform="translate(247.510786 153.416409) rotate(-90) scale(0.1 -0.1)">
       <use xlink:href="#TimesNewRomanPSMT-34"/>
       <use xlink:href="#TimesNewRomanPSMT-30" x="50"/>
       <use xlink:href="#TimesNewRomanPSMT-30" x="100"/>
       <use xlink:href="#TimesNewRomanPSMT-2009" x="150"/>
       <use xlink:href="#TimesNewRomanPSMT-4d" x="170.019531"/>
      </g>
     </g>
    </g>
    <g id="ytick_38">
     <g id="line2d_74">
      <g>
       <use xlink:href="#mf0fb94a5f7" x="257.149848" y="88.449068" style="fill: #ff0000; fill-opacity: 0.775; stroke: #ff0000; stroke-opacity: 0.775; stroke-width: 1.5"/>
      </g>
     </g>
     <g id="text_55">
      <!-- 800 M -->
      <g style="fill: #ff0000; opacity: 0.775" transform="translate(247.510786 110.870943) rotate(-90) scale(0.1 -0.1)">
       <use xlink:href="#TimesNewRomanPSMT-38"/>
       <use xlink:href="#TimesNewRomanPSMT-30" x="50"/>
       <use xlink:href="#TimesNewRomanPSMT-30" x="100"/>
       <use xlink:href="#TimesNewRomanPSMT-2009" x="150"/>
       <use xlink:href="#TimesNewRomanPSMT-4d" x="170.019531"/>
      </g>
     </g>
    </g>
    <g id="ytick_39">
     <g id="line2d_75">
      <g>
       <use xlink:href="#mf0fb94a5f7" x="257.149848" y="45.903602" style="fill: #ff0000; fill-opacity: 0.775; stroke: #ff0000; stroke-opacity: 0.775; stroke-width: 1.5"/>
      </g>
     </g>
     <g id="text_56">
      <!-- 1 G -->
      <g style="fill: #ff0000; opacity: 0.775" transform="translate(247.510786 56.655165) rotate(-90) scale(0.1 -0.1)">
       <use xlink:href="#TimesNewRomanPSMT-31"/>
       <use xlink:href="#TimesNewRomanPSMT-2009" x="50"/>
       <use xlink:href="#TimesNewRomanPSMT-47" x="70.019531"/>
      </g>
     </g>
    </g>
    <g id="text_57">
     <!-- p3 -->
     <g style="fill: #ff0000; opacity: 0.775" transform="translate(251.149848 13.921357) scale(0.12 -0.12)">
      <use xlink:href="#TimesNewRomanPSMT-70"/>
      <use xlink:href="#TimesNewRomanPSMT-33" x="50"/>
     </g>
    </g>
   </g>
   <g id="line2d_76">
    <path d="M 386.9112 173.54 
L 627.21 173.54 
L 627.21 173.54 
" clip-path="url(#pca5e166a9a)" style="fill: none; stroke-dasharray: 3.7,1.6; stroke-dashoffset: 0; stroke: #ff0000; stroke-opacity: 0.775"/>
   </g>
   <g id="line2d_77">
    <path d="M 386.9112 153.330904 
L 389.314188 151.533784 
L 391.717176 150.02965 
L 394.520662 148.552834 
L 397.724646 147.116822 
L 402.530622 145.244723 
L 415.747056 140.250847 
L 419.351538 138.710529 
L 423.757016 135.529449 
L 426.961 132.958858 
L 430.164984 130.088914 
L 433.368968 126.873213 
L 436.572952 123.313185 
L 439.376438 119.874929 
L 442.580422 115.576741 
L 445.784406 110.886738 
L 449.388888 105.177382 
L 452.99337 99.054024 
L 456.597852 92.490631 
L 461.00333 83.962155 
L 465.408808 74.945466 
L 469.814286 65.433957 
L 474.219764 55.398674 
L 484.232214 32.275505 
L 486.234704 28.328213 
L 487.836696 25.639629 
L 489.438688 23.419825 
L 490.640182 22.064037 
L 491.841676 20.973866 
L 493.04317 20.180534 
L 494.244664 19.708163 
L 495.04566 19.582772 
L 495.846656 19.626093 
L 497.04815 19.982181 
L 498.249644 20.6521 
L 499.451138 21.596099 
L 501.05313 23.212364 
L 502.655122 25.164737 
L 504.657612 27.97956 
L 506.660102 31.143544 
L 508.662592 34.748169 
L 511.466078 40.294022 
L 524.682512 67.16808 
L 527.886496 72.886632 
L 530.689982 77.438108 
L 533.893966 82.222615 
L 537.09795 86.643388 
L 540.301934 90.680443 
L 543.10542 93.872805 
L 546.709902 97.649405 
L 549.913886 100.718103 
L 553.11787 103.506609 
L 556.722352 106.334145 
L 560.326834 108.864294 
L 563.931316 111.133631 
L 567.936296 113.394073 
L 572.341774 115.615833 
L 577.14775 117.780632 
L 582.354224 119.877926 
L 587.961196 121.90079 
L 594.369164 123.964625 
L 601.17763 125.912103 
L 608.386594 127.735516 
L 615.996056 129.424968 
L 624.006016 130.972427 
L 627.21 131.531692 
L 627.21 131.531692 
" clip-path="url(#pca5e166a9a)" style="fill: none; stroke: #ff0000; stroke-opacity: 0.775; stroke-linecap: square"/>
   </g>
   <g id="patch_39">
    <path d="M 257.149848 173.54 
L 257.149848 18.0432 
" style="fill: none; stroke: #000000; stroke-width: 0.8; stroke-linejoin: miter; stroke-linecap: square"/>
   </g>
   <g id="patch_40">
    <path d="M 627.21 173.54 
L 627.21 18.0432 
" style="fill: none; stroke: #000000; stroke-width: 0.8; stroke-linejoin: miter; stroke-linecap: square"/>
   </g>
   <g id="patch_41">
    <path d="M 386.9112 173.54 
L 627.21 173.54 
" style="fill: none; stroke: #000000; stroke-width: 0.8; stroke-linejoin: miter; stroke-linecap: square"/>
   </g>
   <g id="patch_42">
    <path d="M 386.9112 18.0432 
L 627.21 18.0432 
" style="fill: none; stroke: #000000; stroke-width: 0.8; stroke-linejoin: miter; stroke-linecap: square"/>
   </g>
  </g>
  <g id="axes_11">
   <g id="matplotlib.axis_12">
    <g id="ytick_40">
     <g id="line2d_78">
      <defs>
       <path id="mbfba52c129" d="M 0 0 
L -4 0 
" style="stroke: #ff0000; stroke-width: 1.5"/>
      </defs>
      <g>
       <use xlink:href="#mbfba52c129" x="242.73192" y="173.54" style="fill: #ff0000; stroke: #ff0000; stroke-width: 1.5"/>
      </g>
     </g>
     <g id="text_58">
      <!-- 0 -->
      <g style="fill: #ff0000" transform="translate(233.092858 175.068125) rotate(-90) scale(0.1 -0.1)">
       <use xlink:href="#TimesNewRomanPSMT-30"/>
      </g>
     </g>
    </g>
    <g id="ytick_41">
     <g id="line2d_79">
      <g>
       <use xlink:href="#mbfba52c129" x="242.73192" y="134.041352" style="fill: #ff0000; stroke: #ff0000; stroke-width: 1.5"/>
      </g>
     </g>
     <g id="text_59">
      <!-- 250 M -->
      <g style="fill: #ff0000" transform="translate(233.092858 156.463227) rotate(-90) scale(0.1 -0.1)">
       <use xlink:href="#TimesNewRomanPSMT-32"/>
       <use xlink:href="#TimesNewRomanPSMT-35" x="50"/>
       <use xlink:href="#TimesNewRomanPSMT-30" x="100"/>
       <use xlink:href="#TimesNewRomanPSMT-2009" x="150"/>
       <use xlink:href="#TimesNewRomanPSMT-4d" x="170.019531"/>
      </g>
     </g>
    </g>
    <g id="ytick_42">
     <g id="line2d_80">
      <g>
       <use xlink:href="#mbfba52c129" x="242.73192" y="94.542705" style="fill: #ff0000; stroke: #ff0000; stroke-width: 1.5"/>
      </g>
     </g>
     <g id="text_60">
      <!-- 500 M -->
      <g style="fill: #ff0000" transform="translate(233.092858 116.96458) rotate(-90) scale(0.1 -0.1)">
       <use xlink:href="#TimesNewRomanPSMT-35"/>
       <use xlink:href="#TimesNewRomanPSMT-30" x="50"/>
       <use xlink:href="#TimesNewRomanPSMT-30" x="100"/>
       <use xlink:href="#TimesNewRomanPSMT-2009" x="150"/>
       <use xlink:href="#TimesNewRomanPSMT-4d" x="170.019531"/>
      </g>
     </g>
    </g>
    <g id="ytick_43">
     <g id="line2d_81">
      <g>
       <use xlink:href="#mbfba52c129" x="242.73192" y="55.044057" style="fill: #ff0000; stroke: #ff0000; stroke-width: 1.5"/>
      </g>
     </g>
     <g id="text_61">
      <!-- 750 M -->
      <g style="fill: #ff0000" transform="translate(233.092858 77.465932) rotate(-90) scale(0.1 -0.1)">
       <use xlink:href="#TimesNewRomanPSMT-37"/>
       <use xlink:href="#TimesNewRomanPSMT-35" x="50"/>
       <use xlink:href="#TimesNewRomanPSMT-30" x="100"/>
       <use xlink:href="#TimesNewRomanPSMT-2009" x="150"/>
       <use xlink:href="#TimesNewRomanPSMT-4d" x="170.019531"/>
      </g>
     </g>
    </g>
    <g id="text_62">
     <!-- p4 -->
     <g style="fill: #ff0000" transform="translate(236.73192 13.921357) scale(0.12 -0.12)">
      <use xlink:href="#TimesNewRomanPSMT-70"/>
      <use xlink:href="#TimesNewRomanPSMT-34" x="50"/>
     </g>
    </g>
   </g>
   <g id="line2d_82">
    <path d="M 386.9112 173.54 
L 627.21 173.54 
L 627.21 173.54 
" clip-path="url(#pca5e166a9a)" style="fill: none; stroke-dasharray: 3.7,1.6; stroke-dashoffset: 0; stroke: #ff0000"/>
   </g>
   <g id="line2d_83">
    <path d="M 386.9112 164.060325 
L 396.122654 160.030891 
L 400.528132 158.433467 
L 406.135104 156.662912 
L 419.351538 152.690359 
L 424.95851 149.255888 
L 428.562992 146.810552 
L 431.766976 144.378014 
L 434.570462 141.982299 
L 437.373948 139.281046 
L 440.177434 136.219765 
L 442.98092 132.817011 
L 445.784406 129.040195 
L 448.98839 124.290132 
L 451.791876 119.777554 
L 454.595362 114.870427 
L 457.398848 109.528607 
L 461.00333 102.199774 
L 464.607812 94.324553 
L 467.811796 86.782303 
L 471.01578 78.633131 
L 474.219764 69.78282 
L 477.423748 60.259266 
L 486.234704 33.386458 
L 487.836696 29.492672 
L 489.438688 26.179241 
L 491.04068 23.433776 
L 492.242174 21.757612 
L 493.443668 20.511875 
L 494.244664 19.929845 
L 495.04566 19.614535 
L 495.846656 19.630029 
L 496.647652 19.946848 
L 497.448648 20.534934 
L 498.249644 21.36394 
L 499.451138 22.995255 
L 500.652632 25.004928 
L 502.254624 28.132811 
L 504.257114 32.567442 
L 506.660102 38.407372 
L 509.864086 46.962561 
L 517.473548 67.582302 
L 521.879026 78.634889 
L 524.682512 85.138094 
L 527.485998 91.081505 
L 529.888986 95.705594 
L 533.09297 101.336113 
L 535.896456 105.816803 
L 538.699942 109.87054 
L 541.503428 113.498712 
L 544.306914 116.733386 
L 547.510898 120.06908 
L 550.314384 122.675061 
L 553.11787 125.008695 
L 556.321854 127.378749 
L 559.525838 129.46868 
L 562.729822 131.313271 
L 566.334304 133.134865 
L 570.339284 134.892076 
L 574.744762 136.557469 
L 579.550738 138.116938 
L 584.757212 139.566958 
L 590.764682 140.999403 
L 597.573148 142.382432 
L 605.18261 143.694551 
L 613.593068 144.919035 
L 623.20502 146.08458 
L 627.21 146.50785 
L 627.21 146.50785 
" clip-path="url(#pca5e166a9a)" style="fill: none; stroke: #ff0000; stroke-linecap: square"/>
   </g>
   <g id="patch_43">
    <path d="M 242.73192 173.54 
L 242.73192 18.0432 
" style="fill: none; stroke: #000000; stroke-width: 0.8; stroke-linejoin: miter; stroke-linecap: square"/>
   </g>
   <g id="patch_44">
    <path d="M 627.21 173.54 
L 627.21 18.0432 
" style="fill: none; stroke: #000000; stroke-width: 0.8; stroke-linejoin: miter; stroke-linecap: square"/>
   </g>
   <g id="patch_45">
    <path d="M 386.9112 173.54 
L 627.21 173.54 
" style="fill: none; stroke: #000000; stroke-width: 0.8; stroke-linejoin: miter; stroke-linecap: square"/>
   </g>
   <g id="patch_46">
    <path d="M 386.9112 18.0432 
L 627.21 18.0432 
" style="fill: none; stroke: #000000; stroke-width: 0.8; stroke-linejoin: miter; stroke-linecap: square"/>
   </g>
  </g>
  <g id="axes_12">
   <g id="matplotlib.axis_13">
    <g id="ytick_44">
     <g id="line2d_84">
      <defs>
       <path id="md79bece094" d="M 0 0 
L -4 0 
" style="stroke: #ee82ee; stroke-width: 1.5"/>
      </defs>
      <g>
       <use xlink:href="#md79bece094" x="228.313992" y="173.54" style="fill: #ee82ee; stroke: #ee82ee; stroke-width: 1.5"/>
      </g>
     </g>
     <g id="text_63">
      <!-- 0 -->
      <g style="fill: #ee82ee" transform="translate(218.67493 175.068125) rotate(-90) scale(0.1 -0.1)">
       <use xlink:href="#TimesNewRomanPSMT-30"/>
      </g>
     </g>
    </g>
    <g id="ytick_45">
     <g id="line2d_85">
      <g>
       <use xlink:href="#md79bece094" x="228.313992" y="127.352832" style="fill: #ee82ee; stroke: #ee82ee; stroke-width: 1.5"/>
      </g>
     </g>
     <g id="text_64">
      <!-- 300 G -->
      <g style="fill: #ee82ee" transform="translate(218.67493 148.104394) rotate(-90) scale(0.1 -0.1)">
       <use xlink:href="#TimesNewRomanPSMT-33"/>
       <use xlink:href="#TimesNewRomanPSMT-30" x="50"/>
       <use xlink:href="#TimesNewRomanPSMT-30" x="100"/>
       <use xlink:href="#TimesNewRomanPSMT-2009" x="150"/>
       <use xlink:href="#TimesNewRomanPSMT-47" x="170.019531"/>
      </g>
     </g>
    </g>
    <g id="ytick_46">
     <g id="line2d_86">
      <g>
       <use xlink:href="#md79bece094" x="228.313992" y="81.165663" style="fill: #ee82ee; stroke: #ee82ee; stroke-width: 1.5"/>
      </g>
     </g>
     <g id="text_65">
      <!-- 600 G -->
      <g style="fill: #ee82ee" transform="translate(218.67493 101.917226) rotate(-90) scale(0.1 -0.1)">
       <use xlink:href="#TimesNewRomanPSMT-36"/>
       <use xlink:href="#TimesNewRomanPSMT-30" x="50"/>
       <use xlink:href="#TimesNewRomanPSMT-30" x="100"/>
       <use xlink:href="#TimesNewRomanPSMT-2009" x="150"/>
       <use xlink:href="#TimesNewRomanPSMT-47" x="170.019531"/>
      </g>
     </g>
    </g>
    <g id="ytick_47">
     <g id="line2d_87">
      <g>
       <use xlink:href="#md79bece094" x="228.313992" y="34.978495" style="fill: #ee82ee; stroke: #ee82ee; stroke-width: 1.5"/>
      </g>
     </g>
     <g id="text_66">
      <!-- 900 G -->
      <g style="fill: #ee82ee" transform="translate(218.67493 55.730058) rotate(-90) scale(0.1 -0.1)">
       <use xlink:href="#TimesNewRomanPSMT-39"/>
       <use xlink:href="#TimesNewRomanPSMT-30" x="50"/>
       <use xlink:href="#TimesNewRomanPSMT-30" x="100"/>
       <use xlink:href="#TimesNewRomanPSMT-2009" x="150"/>
       <use xlink:href="#TimesNewRomanPSMT-47" x="170.019531"/>
      </g>
     </g>
    </g>
    <g id="text_67">
     <!-- nr -->
     <g style="fill: #ee82ee" transform="translate(223.31618 13.921357) scale(0.12 -0.12)">
      <defs>
       <path id="TimesNewRomanPSMT-6e" d="M 1034 2341 
Q 1538 2947 1994 2947 
Q 2228 2947 2397 2830 
Q 2566 2713 2666 2444 
Q 2734 2256 2734 1869 
L 2734 647 
Q 2734 375 2778 278 
Q 2813 200 2889 156 
Q 2966 113 3172 113 
L 3172 0 
L 1756 0 
L 1756 113 
L 1816 113 
Q 2016 113 2095 173 
Q 2175 234 2206 353 
Q 2219 400 2219 647 
L 2219 1819 
Q 2219 2209 2117 2386 
Q 2016 2563 1775 2563 
Q 1403 2563 1034 2156 
L 1034 647 
Q 1034 356 1069 288 
Q 1113 197 1189 155 
Q 1266 113 1500 113 
L 1500 0 
L 84 0 
L 84 113 
L 147 113 
Q 366 113 442 223 
Q 519 334 519 647 
L 519 1709 
Q 519 2225 495 2337 
Q 472 2450 423 2490 
Q 375 2531 294 2531 
Q 206 2531 84 2484 
L 38 2597 
L 900 2947 
L 1034 2947 
L 1034 2341 
z
" transform="scale(0.015625)"/>
      </defs>
      <use xlink:href="#TimesNewRomanPSMT-6e"/>
      <use xlink:href="#TimesNewRomanPSMT-72" x="50"/>
     </g>
    </g>
   </g>
   <g id="line2d_88">
    <path d="M 386.9112 173.54 
L 627.21 173.54 
L 627.21 173.54 
" clip-path="url(#pca5e166a9a)" style="fill: none; stroke-dasharray: 3.7,1.6; stroke-dashoffset: 0; stroke: #ee82ee"/>
   </g>
   <g id="line2d_89">
    <path d="M 386.9112 19.582772 
L 395.722156 20.166825 
L 403.331618 20.887138 
L 409.739586 21.708409 
L 415.346558 22.646319 
L 420.152534 23.663155 
L 424.558012 24.812626 
L 428.562992 26.076232 
L 432.167474 27.425549 
L 435.771956 29.011821 
L 438.97594 30.655959 
L 441.378928 32.111162 
L 443.781916 33.808832 
L 446.184904 35.768978 
L 448.587892 38.013736 
L 450.99088 40.568093 
L 453.393868 43.458948 
L 455.796856 46.714389 
L 458.199844 50.363109 
L 460.602832 54.435424 
L 463.00582 58.963406 
L 465.408808 63.980328 
L 467.811796 69.521621 
L 470.214784 75.622881 
L 472.617772 82.319 
L 475.821756 91.984177 
L 484.232214 118.194667 
L 485.834206 122.06681 
L 487.436198 125.31501 
L 489.03819 127.995789 
L 490.640182 130.257143 
L 492.242174 132.187924 
L 494.645162 134.728649 
L 497.04815 136.945707 
L 499.451138 138.865958 
L 501.854126 140.520739 
L 504.657612 142.161967 
L 507.461098 143.539786 
L 510.665082 144.84579 
L 513.869066 145.915245 
L 517.473548 146.888441 
L 521.478528 147.741957 
L 526.284504 148.522687 
L 531.891476 149.184334 
L 538.299444 149.705625 
L 545.908906 150.09066 
L 556.321854 150.377482 
L 571.941276 150.561522 
L 601.578128 150.64177 
L 627.21 150.65035 
L 627.21 150.65035 
" clip-path="url(#pca5e166a9a)" style="fill: none; stroke: #ee82ee; stroke-linecap: square"/>
   </g>
   <g id="patch_47">
    <path d="M 228.313992 173.54 
L 228.313992 18.0432 
" style="fill: none; stroke: #000000; stroke-width: 0.8; stroke-linejoin: miter; stroke-linecap: square"/>
   </g>
   <g id="patch_48">
    <path d="M 627.21 173.54 
L 627.21 18.0432 
" style="fill: none; stroke: #000000; stroke-width: 0.8; stroke-linejoin: miter; stroke-linecap: square"/>
   </g>
   <g id="patch_49">
    <path d="M 386.9112 173.54 
L 627.21 173.54 
" style="fill: none; stroke: #000000; stroke-width: 0.8; stroke-linejoin: miter; stroke-linecap: square"/>
   </g>
   <g id="patch_50">
    <path d="M 386.9112 18.0432 
L 627.21 18.0432 
" style="fill: none; stroke: #000000; stroke-width: 0.8; stroke-linejoin: miter; stroke-linecap: square"/>
   </g>
  </g>
 </g>
 <defs>
  <clipPath id="pca5e166a9a">
   <rect x="386.9112" y="18.0432" width="240.2988" height="155.4968"/>
  </clipPath>
 </defs>
</svg>
